<?xml version="1.0" encoding="utf-8"?>
<!-- Generator: Adobe Illustrator 17.0.0, SVG Export Plug-In . SVG Version: 6.00 Build 0)  -->
<!DOCTYPE svg PUBLIC "-//W3C//DTD SVG 1.1//EN" "http://www.w3.org/Graphics/SVG/1.1/DTD/svg11.dtd">
<svg version="1.1" id="Layer_1" xmlns="http://www.w3.org/2000/svg" xmlns:xlink="http://www.w3.org/1999/xlink" x="0px" y="0px"
	 width="70px" height="70px" viewBox="0 0 70 70" enable-background="new 0 0 70 70" xml:space="preserve">
<g>
	<path fill="#0010B3" d="M11.371,17.763c0.608-0.392,1.155-0.726,1.681-1.09c0.289-0.2,0.528-0.21,0.827-0.012
		c0.819,0.543,1.663,1.049,2.482,1.593c0.269,0.178,0.476,0.157,0.728-0.013c0.785-0.529,1.586-1.034,2.366-1.569
		c0.29-0.199,0.529-0.219,0.824-0.013c0.434,0.302,0.893,0.568,1.403,0.888c0-0.204,0-0.333,0-0.462
		c0.014-4.678,0.028-9.356,0.043-14.033c0.001-0.453,0.08-0.528,0.534-0.53c0.522-0.002,1.045-0.002,1.567,0
		c0.447,0.002,0.529,0.084,0.53,0.535c0.003,2.612,0.005,5.225,0.007,7.837c0.002,2.758,0.003,5.516,0.005,8.275
		c0,0.118,0,0.237,0,0.44c0.51-0.399,0.958-0.759,1.415-1.106c3.48-2.648,7.312-4.534,11.628-5.373
		c2.766-0.538,5.545-0.606,8.34-0.27c3.151,0.378,6.159,1.232,8.995,2.664c3.295,1.665,6.107,3.946,8.528,6.723
		c2.91,3.337,4.922,7.145,5.959,11.451c1.428,5.933,0.846,11.694-1.588,17.273c-1.5,3.438-3.608,6.462-6.359,9.016
		c-4.26,3.955-9.271,6.388-15.029,7.208c-7.376,1.05-14.034-0.81-19.961-5.231c-5.189-3.871-8.61-8.991-10.275-15.263
		c-0.548-2.064-0.826-4.165-0.804-6.303c0.005-0.503,0.056-0.553,0.573-0.554c0.498-0.001,0.996-0.001,1.495,0
		c0.461,0.001,0.556,0.084,0.573,0.544c0.063,1.703,0.283,3.385,0.653,5.05c0.916,4.124,2.6,7.874,5.406,11.07
		c2.13,2.426,4.698,4.272,7.614,5.642c2.744,1.289,5.611,2.176,8.625,2.544c5.155,0.63,9.986-0.365,14.459-3.002
		c3.073-1.812,5.773-4.07,7.928-6.933c2.378-3.159,3.77-6.733,4.406-10.621c0.685-4.183,0.433-8.305-1.053-12.275
		c-3.33-8.9-9.699-14.372-19.033-16.118c-7.285-1.363-13.914,0.445-19.73,5.037c-3.692,2.916-6.262,6.67-7.861,11.089
		c-0.128,0.353-0.206,0.724-0.338,1.076c-0.249,0.665-0.624,0.898-1.339,0.893c-0.496-0.004-0.993,0.017-1.489,0.021
		c-0.637,0.006-1.198-0.201-1.513-0.772c-0.463-0.838-0.873-1.706-1.291-2.567c-1.426-2.938-2.842-5.881-4.273-8.817
		c-0.251-0.515-0.371-1.042-0.371-1.612c-0.002-5.395-0.01-10.79-0.018-16.185c0-0.304-0.002-0.608-0.016-0.911
		C8.608,2.67,8.763,2.522,9.077,2.521c0.632-0.001,1.264-0.003,1.896,0.001c0.283,0.002,0.409,0.143,0.409,0.435
		c-0.007,3.013-0.009,6.027-0.011,9.04c-0.001,1.762,0,3.524,0,5.286C11.371,17.415,11.371,17.548,11.371,17.763z M11.631,20.839
		c0.53,1.108,1.055,2.175,1.548,3.256c0.177,0.388,0.423,0.525,0.846,0.523c1.456-0.006,2.912,0.023,4.367,0.046
		c0.754,0.012,1.45-0.152,2.026-0.663c0.556-0.493,0.943-1.109,1.204-1.799c0.223-0.59,0.122-1.134-0.356-1.562
		c-0.297-0.266-0.618-0.51-0.952-0.729c-0.271-0.177-0.564-0.173-0.853,0.019c-0.768,0.509-1.548,1-2.315,1.511
		c-0.274,0.182-0.495,0.204-0.791,0.008c-0.808-0.537-1.644-1.032-2.463-1.551c-0.275-0.174-0.519-0.201-0.803-0.003
		C12.622,20.219,12.135,20.515,11.631,20.839z M14.769,27.333c0.62,1.262,1.211,2.465,1.802,3.668
		c0.041-0.005,0.081-0.01,0.122-0.015c0.531-1.208,1.062-2.415,1.607-3.653C17.107,27.333,15.98,27.333,14.769,27.333z"/>
	<path fill="#0010B3" d="M38.263,42.009c0.291,0,0.583,0.002,0.874-0.001c0.283-0.003,0.417,0.141,0.45,0.415
		c0.03,0.252,0.066,0.505,0.122,0.753c0.278,1.228,1.225,1.688,2.31,1.932c0.877,0.197,1.793,0.225,2.447-0.504
		c0.409-0.456,0.702-1.044,0.942-1.617c0.405-0.964,0.37-0.979,1.42-0.978c0.304,0,0.607,0.004,0.911,0
		c0.312-0.004,0.457,0.126,0.466,0.456c0.032,1.243-0.42,2.311-1.203,3.235c-1.176,1.388-2.656,2.285-4.512,2.226
		c-2.386-0.075-4.036-1.385-5.074-3.464c-0.279-0.559-0.369-1.223-0.481-1.851c-0.085-0.477,0.067-0.597,0.563-0.602
		c0.255-0.002,0.51,0,0.765,0C38.263,42.008,38.263,42.008,38.263,42.009z"/>
	<path fill="#0010B3" d="M31.129,38.994c-0.013,1.176-1.273,2.428-2.445,2.43c-1.191,0.002-2.451-1.272-2.438-2.467
		c0.013-1.183,1.265-2.431,2.439-2.431C29.864,36.526,31.142,37.816,31.129,38.994z"/>
	<path fill="#0010B3" d="M59.132,38.964c0.007,1.191-1.207,2.434-2.403,2.46c-1.172,0.025-2.462-1.245-2.477-2.436
		c-0.014-1.18,1.265-2.462,2.451-2.456C57.892,36.538,59.125,37.773,59.132,38.964z"/>
	<path fill="#0010B3" d="M7.24,58.645c-0.109-0.061-0.225-0.092-0.289-0.168c-0.422-0.499-0.837-1.004-1.244-1.515
		c-0.161-0.203-0.133-0.393,0.081-0.564c0.492-0.392,0.976-0.794,1.46-1.196c0.23-0.192,0.44-0.179,0.63,0.048
		c0.395,0.474,0.783,0.954,1.177,1.429c0.193,0.232,0.178,0.419-0.069,0.613c-0.485,0.381-0.954,0.784-1.434,1.171
		C7.463,58.537,7.351,58.582,7.24,58.645z"/>
	<path fill="#0010B3" d="M9.227,23.164c-0.073,0.114-0.122,0.21-0.188,0.292c-0.372,0.464-0.752,0.92-1.12,1.387
		c-0.198,0.25-0.403,0.283-0.651,0.079c-0.478-0.392-0.956-0.785-1.441-1.169c-0.272-0.215-0.26-0.431-0.052-0.681
		c0.372-0.447,0.743-0.897,1.101-1.355c0.204-0.261,0.416-0.26,0.653-0.068c0.5,0.404,1,0.808,1.492,1.221
		C9.106,22.94,9.153,23.055,9.227,23.164z"/>
	<path fill="#0010B3" d="M6.547,26.628c-0.053,0.138-0.075,0.221-0.115,0.295c-0.292,0.53-0.59,1.058-0.882,1.588
		c-0.147,0.266-0.34,0.313-0.603,0.162c-0.536-0.307-1.074-0.611-1.616-0.907c-0.3-0.164-0.339-0.374-0.175-0.661
		C3.443,26.6,3.729,26.093,4,25.579c0.153-0.291,0.359-0.335,0.627-0.188c0.552,0.304,1.105,0.604,1.647,0.925
		C6.393,26.386,6.466,26.533,6.547,26.628z"/>
	<path fill="#0010B3" d="M6.534,53.509c-0.071,0.084-0.146,0.231-0.266,0.302c-0.532,0.314-1.077,0.607-1.617,0.907
		c-0.269,0.15-0.475,0.112-0.633-0.177c-0.279-0.511-0.57-1.015-0.865-1.516c-0.17-0.289-0.117-0.496,0.179-0.659
		c0.552-0.305,1.097-0.621,1.645-0.934c0.198-0.113,0.389-0.107,0.507,0.096c0.342,0.586,0.667,1.182,0.997,1.776
		C6.503,53.344,6.506,53.396,6.534,53.509z"/>
	<path fill="#0010B3" d="M3.543,32.754c-0.149-0.043-0.232-0.061-0.311-0.09c-0.557-0.204-1.112-0.416-1.672-0.615
		c-0.283-0.101-0.38-0.266-0.268-0.559c0.216-0.566,0.423-1.136,0.623-1.707c0.103-0.294,0.297-0.363,0.57-0.264
		c0.581,0.211,1.159,0.429,1.74,0.64c0.267,0.097,0.359,0.268,0.259,0.538c-0.219,0.591-0.427,1.186-0.662,1.771
		C3.774,32.59,3.626,32.673,3.543,32.754z"/>
	<path fill="#0010B3" d="M19.055,66.21c-0.136-0.037-0.208-0.05-0.275-0.075c-0.568-0.208-1.134-0.421-1.703-0.627
		c-0.265-0.096-0.358-0.253-0.252-0.532c0.219-0.577,0.425-1.159,0.633-1.739c0.101-0.28,0.283-0.373,0.566-0.27
		c0.591,0.215,1.182,0.432,1.776,0.639c0.234,0.082,0.302,0.244,0.228,0.455c-0.224,0.639-0.454,1.277-0.704,1.907
		C19.281,66.076,19.131,66.144,19.055,66.21z"/>
	<path fill="#0010B3" d="M21.407,66.518c0.094-0.717,0.172-1.341,0.259-1.964c0.039-0.278,0.204-0.395,0.486-0.35
		c0.621,0.1,1.243,0.194,1.864,0.292c0.244,0.039,0.367,0.183,0.331,0.431c-0.095,0.658-0.193,1.317-0.303,1.973
		c-0.039,0.23-0.209,0.316-0.433,0.283c-0.622-0.093-1.244-0.187-1.865-0.288C21.486,66.852,21.376,66.689,21.407,66.518z"/>
	<path fill="#0010B3" d="M10.453,58.185c0.139,0.079,0.255,0.123,0.344,0.199c0.46,0.393,0.911,0.797,1.369,1.192
		c0.219,0.188,0.229,0.389,0.052,0.599c-0.398,0.472-0.8,0.94-1.207,1.404c-0.183,0.209-0.393,0.216-0.604,0.033
		c-0.457-0.397-0.912-0.796-1.369-1.192c-0.231-0.2-0.277-0.391-0.046-0.643c0.393-0.428,0.755-0.883,1.138-1.32
		C10.221,58.354,10.342,58.277,10.453,58.185z"/>
	<path fill="#0010B3" d="M1.283,48.243c0.072-0.068,0.159-0.213,0.281-0.256c0.618-0.217,1.244-0.411,1.87-0.605
		c0.221-0.069,0.368,0.005,0.44,0.245c0.178,0.593,0.372,1.181,0.558,1.771c0.092,0.293,0.016,0.486-0.302,0.582
		c-0.569,0.171-1.133,0.362-1.697,0.551c-0.248,0.083-0.441,0.034-0.526-0.224c-0.203-0.61-0.393-1.225-0.586-1.838
		C1.306,48.422,1.304,48.373,1.283,48.243z"/>
	<path fill="#0010B3" d="M13.964,60.861c0.159,0.076,0.261,0.115,0.354,0.169c0.482,0.28,0.956,0.574,1.444,0.844
		c0.298,0.165,0.358,0.367,0.187,0.655c-0.296,0.501-0.589,1.003-0.878,1.508c-0.158,0.275-0.363,0.331-0.635,0.169
		c-0.542-0.322-1.084-0.644-1.629-0.96c-0.213-0.124-0.247-0.286-0.128-0.488c0.319-0.543,0.634-1.089,0.968-1.624
		C13.719,61.019,13.862,60.946,13.964,60.861z"/>
	<path fill="#0010B3" d="M0.906,33.964c0.747,0.158,1.414,0.284,2.07,0.454c0.098,0.025,0.217,0.274,0.196,0.397
		c-0.111,0.644-0.267,1.28-0.4,1.921c-0.052,0.251-0.22,0.31-0.433,0.269c-0.618-0.12-1.235-0.251-1.85-0.384
		c-0.226-0.049-0.332-0.2-0.285-0.429c0.133-0.64,0.262-1.282,0.423-1.916C0.66,34.146,0.825,34.051,0.906,33.964z"/>
	<path fill="#0010B3" d="M28.679,66.167c0,0.291-0.002,0.582,0,0.873c0.002,0.271-0.146,0.409-0.401,0.413
		c-0.594,0.009-1.188,0.007-1.782,0.002c-0.273-0.002-0.429-0.142-0.429-0.427c-0.001-0.594,0-1.188,0-1.783
		c0-0.282,0.145-0.429,0.423-0.431c0.594-0.004,1.188-0.005,1.783,0.001c0.282,0.003,0.413,0.161,0.409,0.442
		C28.676,65.56,28.679,65.864,28.679,66.167z"/>
	<path fill="#0010B3" d="M0.842,46.076c-0.069-0.089-0.231-0.207-0.261-0.352c-0.125-0.616-0.21-1.24-0.31-1.861
		c-0.041-0.256,0.045-0.424,0.318-0.47c0.608-0.102,1.215-0.212,1.824-0.308c0.227-0.036,0.378,0.077,0.415,0.305
		c0.104,0.645,0.216,1.289,0.283,1.938c0.013,0.126-0.143,0.368-0.257,0.394C2.23,45.862,1.594,45.951,0.842,46.076z"/>
	<path fill="#0010B3" d="M0.001,40.065c0-0.304-0.001-0.607,0-0.911c0.001-0.267,0.136-0.404,0.405-0.404
		c0.595,0,1.19,0.004,1.785-0.002c0.258-0.003,0.398,0.129,0.403,0.367c0.013,0.631,0.012,1.263,0.002,1.894
		c-0.004,0.258-0.15,0.394-0.421,0.392c-0.583-0.005-1.166-0.002-1.749,0c-0.288,0.001-0.423-0.147-0.426-0.426
		C-0.001,40.672,0.001,40.368,0.001,40.065z"/>
	<path fill="#0010B3" d="M15.233,36.75c0-0.303,0.003-0.606-0.001-0.909c-0.003-0.259,0.12-0.375,0.377-0.373
		c0.606,0.004,1.212,0.005,1.817-0.001c0.263-0.003,0.383,0.134,0.386,0.376c0.007,0.63,0.007,1.26,0,1.89
		c-0.003,0.243-0.126,0.377-0.387,0.375c-0.606-0.005-1.212-0.003-1.817-0.001c-0.255,0.001-0.38-0.115-0.376-0.375
		C15.236,37.404,15.233,37.077,15.233,36.75z"/>
</g>
</svg>
