<?xml version="1.0" encoding="utf-8"?>
<!-- Generator: Adobe Illustrator 17.0.0, SVG Export Plug-In . SVG Version: 6.00 Build 0)  -->
<!DOCTYPE svg PUBLIC "-//W3C//DTD SVG 1.1//EN" "http://www.w3.org/Graphics/SVG/1.1/DTD/svg11.dtd">
<svg version="1.1" id="Layer_1" xmlns="http://www.w3.org/2000/svg" xmlns:xlink="http://www.w3.org/1999/xlink" x="0px" y="0px"
	 width="70px" height="70px" viewBox="0 0 70 70" enable-background="new 0 0 70 70" xml:space="preserve">
<g>
	<path fill="#0010B3" d="M0,34.958C0.192,15.699,15.828,0.012,35.031,0.018C53.946,0.024,69.975,15.32,70,34.98
		c0.024,19.3-15.577,35.009-34.989,35.002C15.348,69.975,0.137,53.919,0,34.958z M66.875,38.657
		c0.056-0.869,0.083-1.739,0.173-2.601c0.257-2.449-0.813-4.307-2.675-5.713c-1.238-0.935-2.564-1.803-3.962-2.469
		c-5.574-2.657-11.563-3.712-17.648-4.271c-6.015-0.553-12.03-0.449-18.035,0.25c-0.59,0.069-0.817,0.29-0.859,0.875
		c-0.142,1.994-0.391,3.982-0.481,5.977c-0.35,7.821,0.119,15.575,2.141,23.178c0.937,3.522,2.125,6.958,4.354,9.901
		c2.745,3.625,4.673,3.576,8.906,2.958c-0.402-0.866-0.131-1.569,0.569-2.128c0.495-0.395,1.054-0.455,1.613-0.145
		c0.722,0.4,0.867,1.062,0.719,1.827c12.087-2.162,22.435-12.436,24.622-24.594c-1.414-0.1-2.049-0.636-1.945-1.643
		C64.478,39.009,65.435,38.456,66.875,38.657z M48.118,21.365c6.504,1.249,12.811,2.92,18.233,7.031
		C63.891,15.374,53.058,5.691,41.726,3.722c-0.121,1.415-0.654,2.03-1.664,1.924c-1.04-0.109-1.608-1.108-1.354-2.638
		c-1.175,0-2.321,0.042-3.462-0.01c-1.563-0.072-2.815,0.576-3.901,1.598c-0.566,0.533-1.106,1.114-1.553,1.748
		c-3.08,4.368-4.311,9.415-5.366,14.655c7.081-0.911,14.074-0.904,21.092-0.017c-0.212-1.182-0.033-1.759,0.609-2.124
		c0.584-0.332,1.172-0.304,1.663,0.14C48.514,19.653,48.539,20.466,48.118,21.365z M28.416,66.325
		c-4.118-5.422-5.775-11.703-7.025-18.175c-0.873,0.362-1.666,0.328-2.299-0.363c-0.427-0.466-0.483-1.048-0.18-1.605
		c0.443-0.817,1.178-0.928,2.094-0.678c-0.9-7.047-0.892-14.03,0.007-21.077c-4.272,0.792-8.343,1.85-12.138,3.796
		c-1.605,0.823-3.101,1.799-4.319,3.151c-0.735,0.816-1.393,1.728-1.474,2.827c-0.111,1.502-0.028,3.019-0.028,4.651
		c1.078-0.457,1.81-0.229,2.375,0.525C5.79,39.863,5.847,40.4,5.56,40.934c-0.389,0.726-1.042,0.895-1.813,0.747
		C5.653,52.974,15.426,63.922,28.416,66.325z M28.363,3.736c-4.13-0.054-12.642,4.741-17.134,9.642
		c-3.645,3.976-7.715,12.146-7.456,14.866c1.233-0.76,2.46-1.611,3.769-2.308c4.109-2.187,8.537-3.437,13.087-4.301
		c0.502-0.095,0.884-0.171,1.011-0.844C22.788,14.683,24.541,8.804,28.363,3.736z"/>
	<path fill="#0010B3" d="M48.144,46.913c-0.005-0.895,0.734-1.543,1.752-1.537c0.83,0.005,1.468,0.66,1.459,1.499
		c-0.008,0.872-0.715,1.494-1.711,1.507C48.825,48.393,48.149,47.732,48.144,46.913z"/>
	<path fill="#0010B3" d="M45.396,49.747c0.035-1.018,0.723-1.744,1.604-1.693c0.792,0.045,1.414,0.711,1.403,1.502
		c-0.014,1.006-0.701,1.762-1.574,1.733C46.015,51.262,45.368,50.565,45.396,49.747z"/>
	<path fill="#0010B3" d="M43.846,49.234c-0.86,0.012-1.521-0.592-1.547-1.412c-0.029-0.919,0.658-1.548,1.707-1.562
		c0.829-0.011,1.511,0.639,1.52,1.45C45.535,48.591,44.841,49.221,43.846,49.234z"/>
	<path fill="#0010B3" d="M45.429,57.012c-0.836-0.017-1.457-0.679-1.429-1.522c0.032-0.968,0.695-1.695,1.544-1.694
		c0.812,0.001,1.492,0.69,1.479,1.498C47.008,56.286,46.318,57.03,45.429,57.012z"/>
	<path fill="#0010B3" d="M26.249,49.235c-0.999-0.02-1.696-0.658-1.674-1.533c0.021-0.812,0.698-1.441,1.541-1.431
		c0.995,0.011,1.71,0.641,1.708,1.502C27.821,48.617,27.136,49.253,26.249,49.235z"/>
	<path fill="#0010B3" d="M32.079,49.646c-0.953-0.019-1.612-0.647-1.593-1.517c0.019-0.847,0.685-1.449,1.595-1.442
		c0.992,0.007,1.658,0.646,1.622,1.555C33.669,49.082,32.996,49.664,32.079,49.646z"/>
	<path fill="#0010B3" d="M43.348,62.519c-0.832,0.009-1.498-0.649-1.49-1.47c0.009-0.917,0.78-1.741,1.619-1.73
		c0.778,0.01,1.442,0.67,1.46,1.45C44.957,61.68,44.203,62.51,43.348,62.519z"/>
	<path fill="#0010B3" d="M49.663,37.953c-0.022,0.943-0.677,1.627-1.529,1.597c-0.826-0.029-1.447-0.736-1.426-1.623
		c0.022-0.954,0.649-1.637,1.496-1.631C49.059,36.303,49.685,37.014,49.663,37.953z"/>
	<path fill="#0010B3" d="M60.892,44.873c-0.838,0.008-1.48-0.635-1.472-1.476c0.008-0.835,0.771-1.559,1.675-1.591
		c0.799-0.028,1.509,0.651,1.523,1.455C62.632,44.106,61.822,44.864,60.892,44.873z"/>
	<path fill="#0010B3" d="M46.72,31.945c0.006-0.903,0.633-1.563,1.477-1.553c0.86,0.01,1.462,0.688,1.467,1.652
		c0.004,0.892-0.624,1.58-1.452,1.592C47.335,33.648,46.714,32.944,46.72,31.945z"/>
	<path fill="#0010B3" d="M49.254,43.803c-0.033,0.992-0.684,1.668-1.569,1.63c-0.814-0.035-1.426-0.721-1.395-1.564
		c0.037-1.01,0.659-1.684,1.534-1.666C48.661,42.22,49.283,42.917,49.254,43.803z"/>
	<path fill="#0010B3" d="M37.979,49.646c-0.908,0.003-1.568-0.606-1.576-1.452c-0.009-0.91,0.653-1.502,1.671-1.495
		c0.916,0.006,1.551,0.615,1.541,1.476C39.605,49.048,38.943,49.643,37.979,49.646z"/>
	<path fill="#0010B3" d="M46.284,26.022c-0.011-0.851,0.606-1.498,1.441-1.51c0.899-0.013,1.511,0.654,1.525,1.662
		c0.012,0.889-0.619,1.552-1.475,1.548C46.883,27.717,46.297,27.048,46.284,26.022z"/>
	<path fill="#0010B3" d="M53.896,45.523c-0.009-0.896,0.727-1.556,1.734-1.556c0.807,0,1.452,0.614,1.478,1.408
		c0.029,0.869-0.723,1.577-1.712,1.611C54.587,47.013,53.904,46.347,53.896,45.523z"/>
	<path fill="#0010B3" d="M43.296,7.42c0.869-0.002,1.594,0.783,1.595,1.729c0.001,0.802-0.627,1.446-1.424,1.461
		c-0.859,0.016-1.62-0.77-1.645-1.699C41.801,8.105,42.475,7.423,43.296,7.42z"/>
	<path fill="#0010B3" d="M45.509,16.13c-0.889-0.01-1.54-0.765-1.525-1.769c0.013-0.839,0.663-1.456,1.511-1.432
		c0.855,0.024,1.505,0.769,1.51,1.73C47.008,15.474,46.333,16.139,45.509,16.13z"/>
	<path fill="#0010B3" d="M16.224,45.533c-0.003,0.811-0.699,1.493-1.504,1.474c-0.973-0.023-1.756-0.746-1.73-1.599
		c0.024-0.788,0.678-1.421,1.474-1.425C15.451,43.977,16.227,44.661,16.224,45.533z"/>
	<path fill="#0010B3" d="M9.223,44.92c-0.901-0.005-1.747-0.787-1.743-1.612c0.004-0.804,0.707-1.485,1.513-1.466
		c0.927,0.022,1.722,0.791,1.7,1.642C10.672,44.266,9.998,44.924,9.223,44.92z"/>
</g>
</svg>
