<?xml version="1.0" encoding="utf-8"?>
<!-- Generator: Adobe Illustrator 17.0.0, SVG Export Plug-In . SVG Version: 6.00 Build 0)  -->
<!DOCTYPE svg PUBLIC "-//W3C//DTD SVG 1.1//EN" "http://www.w3.org/Graphics/SVG/1.1/DTD/svg11.dtd">
<svg version="1.1" id="Layer_1" xmlns="http://www.w3.org/2000/svg" xmlns:xlink="http://www.w3.org/1999/xlink" x="0px" y="0px"
	 width="70px" height="70px" viewBox="0 0 70 70" enable-background="new 0 0 70 70" xml:space="preserve">
<g>
	<path fill="#0010B3" d="M61.861,34.19c1.777,0,3.454-0.001,5.131,0c1.245,0.001,1.593,0.342,1.594,1.562
		c0.001,3.432,0.001,6.865,0,10.297c0,1.143-0.366,1.508-1.503,1.511c-0.955,0.002-1.909,0-2.98,0c0,0.943,0,1.843,0,2.743
		c0.001,1.446-0.257,1.71-1.695,1.742c-0.157,0.003-0.314,0.022-0.547,0.039c0,0.287,0,0.538,0,0.788c0,3.736-0.001,7.472,0,11.207
		c0.001,3.342-2.544,5.895-5.882,5.898c-2.405,0.002-4.81,0.002-7.215,0c-3.34-0.003-5.875-2.55-5.877-5.904
		c-0.001-0.979,0-1.959,0-3c-5.25,0-10.462,0-15.774,0c0,0.922-0.05,1.85,0.009,2.771c0.214,3.315-2.605,6.295-6.146,6.151
		c-2.308-0.094-4.622-0.016-6.934-0.018c-3.353-0.003-5.901-2.542-5.902-5.879c-0.001-3.712,0-7.425,0-11.137
		c0-0.275,0-0.55,0-0.918c-0.383,0-0.701,0.01-1.019-0.002c-0.776-0.03-1.205-0.448-1.218-1.23
		c-0.018-1.047-0.004-2.095-0.004-3.251c-1.021,0-1.992,0.002-2.962,0c-1.148-0.002-1.521-0.366-1.521-1.494
		c-0.002-3.479-0.002-6.958,0-10.437c0.001-1.046,0.39-1.435,1.435-1.438c1.725-0.004,3.45-0.001,5.29-0.001
		c0-0.315,0-0.584,0-0.853c0-3.316-0.001-6.631,0-9.947c0-1.178,0.358-1.53,1.554-1.53c5.907,0,11.814,0,17.722,0
		c0.274,0,0.548,0,0.9,0c0-1.006-0.001-1.933,0-2.86c0.001-1.29,0.314-1.605,1.601-1.625c0.183-0.003,0.365-0.021,0.593-0.035
		c0-1.182,0-2.338,0-3.495c-0.049-0.006-0.114-0.033-0.133-0.014c-1.214,1.214-2.746,1.785-4.359,2.244
		c-2.641,0.752-5.231,1.71-7.902,2.326c-3.108,0.716-6.385-1.01-7.875-3.81c-1.954-3.672,0.162-8.836,4.305-10.115
		c4.761-1.47,9.526-2.925,14.292-4.381c0.9-0.275,1.393,0.041,1.655,0.954c0.34,1.186,0.699,2.368,1.103,3.533
		c0.07,0.202,0.405,0.44,0.622,0.444c1.844,0.035,3.689,0.006,5.533,0.031c0.444,0.006,0.609-0.173,0.721-0.565
		c0.333-1.164,0.694-2.32,1.055-3.476c0.299-0.96,0.724-1.192,1.683-0.899c4.743,1.448,9.485,2.9,14.226,4.357
		c3.318,1.02,5.929,4.785,4.809,8.883c-0.757,2.77-2.834,4.431-5.655,5.058c-1.369,0.304-2.71,0.145-4.05-0.302
		c-2.164-0.722-4.345-1.394-6.537-2.027c-1.629-0.471-3.208-0.999-4.492-2.431c0,1.325,0,2.485,0,3.722
		c0.286,0,0.56-0.004,0.833,0.001c0.915,0.017,1.327,0.418,1.336,1.325c0.01,1.022,0.002,2.044,0.002,3.157c0.34,0,0.611,0,0.883,0
		c5.907,0,11.814,0,17.721,0.001c1.234,0,1.571,0.341,1.572,1.583c0.001,3.292,0.001,6.584,0.001,9.877
		C61.861,33.575,61.861,33.828,61.861,34.19z M52.975,38.637c-12.041,0-23.958,0-35.95,0c0,0.295,0,0.545,0,0.796
		c0,2.171,0,4.341-0.001,6.512c-0.001,1.285-0.329,1.613-1.61,1.614c-0.945,0.001-1.891,0-2.873,0c0,1.122,0.006,2.124-0.002,3.126
		c-0.008,0.947-0.415,1.343-1.375,1.357c-0.269,0.004-0.539,0.001-0.801,0.001c0,2.327,0,4.55,0,6.764c16.463,0,32.862,0,49.284,0
		c0-2.268,0-4.492,0-6.731c-0.213-0.013-0.374-0.028-0.535-0.031c-1.376-0.022-1.652-0.307-1.653-1.712c0-0.902,0-1.804,0-2.773
		c-1.113,0-2.135,0.007-3.157-0.002c-0.908-0.008-1.32-0.42-1.324-1.334c-0.009-1.751-0.003-3.501-0.003-5.252
		C52.975,40.207,52.975,39.443,52.975,38.637z M52.275,5.7c2.391,2.589,2.887,4.459,1.665,6.628
		c-1.145,2.033-3.39,3.087-5.479,2.571c-2.081-0.514-3.793-2.584-3.891-4.705C44.46,7.79,46.066,6.071,49.482,4.95
		c-0.062-0.045-0.109-0.101-0.167-0.119c-2.512-0.779-5.026-1.549-7.536-2.334c-0.432-0.135-0.527,0.126-0.621,0.434
		c-0.285,0.935-0.586,1.865-0.853,2.805c-0.254,0.894-0.59,1.786-0.683,2.7c-0.252,2.472,1.152,4.413,3.72,5.215
		c2.819,0.881,5.664,1.677,8.478,2.573c2.534,0.806,5.183-0.344,6.122-2.738c1.111-2.837,0.185-5.529-2.375-6.667
		C54.511,6.35,53.374,6.067,52.275,5.7z M22.665,36.386c3.785,0,7.486,0,11.197,0c0-3.018,0-5.988,0-8.955c-3.76,0-7.461,0-11.197,0
		C22.665,30.431,22.665,33.384,22.665,36.386z M20.423,36.395c0-3.038,0-5.989,0-8.958c-3.387,0-6.728,0-10.061,0
		c0,2.275,0,4.496,0,6.754c1.81,0,3.557-0.005,5.304,0.002c0.949,0.004,1.343,0.41,1.358,1.371c0.004,0.27,0.001,0.539,0.001,0.831
		C18.212,36.395,19.297,36.395,20.423,36.395z M49.565,36.389c1.17,0,2.256,0,3.375,0c0.013-0.246,0.032-0.451,0.034-0.656
		c0.016-1.195,0.357-1.54,1.541-1.542c1.236-0.002,2.472-0.001,3.708-0.001c0.478,0,0.956,0,1.434,0c0-2.321,0-4.526,0-6.756
		c-3.385,0-6.726,0-10.092,0C49.565,30.437,49.565,33.388,49.565,36.389z M59.665,24.067c-16.488,0-32.893,0-49.307,0
		c0,0.403,0,0.758,0,1.11c16.463,0,32.868,0,49.307,0C59.665,24.792,59.665,24.453,59.665,24.067z M20.076,5.005
		c2.613-0.096,4.745,1.177,5.59,3.418c0.873,2.315,0.065,4.104-2.846,6.366c1.446-0.408,2.899-0.805,4.311-1.315
		c2.471-0.892,3.738-3.183,3.127-5.743c-0.393-1.649-0.961-3.256-1.442-4.885c-0.112-0.379-0.315-0.451-0.679-0.327
		c-0.682,0.232-1.378,0.426-2.068,0.638C24.072,3.773,22.074,4.389,20.076,5.005z M21.916,15.067
		c-2.729,0.017-4.675-1.052-5.52-3.225c-1.111-2.855,0.236-4.812,2.681-6.458c-0.301,0.046-0.413,0.048-0.516,0.081
		c-1.395,0.448-2.83,0.802-4.172,1.374c-1.967,0.838-3.099,2.891-2.785,4.944c0.367,2.396,1.65,4.19,4.082,4.627
		C17.95,16.816,19.844,15.535,21.916,15.067z M3.609,39.749c3.785,0,7.487,0,11.197,0c0-1.15,0-2.253,0-3.351
		c-3.761,0-7.462,0-11.197,0C3.609,37.53,3.609,38.616,3.609,39.749z M55.17,39.749c3.785,0,7.487,0,11.197,0
		c0-1.15,0-2.253,0-3.351c-3.761,0-7.462,0-11.197,0C55.17,37.53,55.17,38.616,55.17,39.749z M14.837,42.021
		c-3.738,0-7.472,0-11.222,0c0,1.127,0,2.213,0,3.326c3.759,0,7.476,0,11.222,0C14.837,44.225,14.837,43.156,14.837,42.021z
		 M55.17,45.353c3.785,0,7.487,0,11.197,0c0-1.15,0-2.253,0-3.351c-3.761,0-7.462,0-11.197,0C55.17,43.134,55.17,44.22,55.17,45.353
		z M10.338,63.291c4.895,0,9.717,0,14.56,0c0-0.773,0-1.502,0-2.238c-4.877,0-9.7,0-14.56,0
		C10.338,61.808,10.338,62.52,10.338,63.291z M45.082,63.288c4.906,0,9.728,0,14.559,0c0-0.777,0-1.506,0-2.23
		c-4.881,0-9.703,0-14.559,0C45.082,61.817,45.082,62.529,45.082,63.288z M10.515,65.522c0.294,1.267,1.364,2.243,2.666,2.266
		c2.961,0.053,5.924,0.035,8.885,0.006c1.021-0.01,2.575-0.944,2.624-2.272C19.983,65.522,15.277,65.522,10.515,65.522z
		 M45.284,65.532c0.203,1.233,1.374,2.249,2.749,2.267c2.892,0.038,5.785,0.037,8.677,0.001c1.37-0.017,2.538-1.022,2.757-2.267
		C54.736,65.532,50.013,65.532,45.284,65.532z M32.764,12.847c0,1.542,0,3.002,0,4.472c1.523,0,2.999,0,4.473,0
		c0-1.519,0-2.978,0-4.472C35.731,12.847,34.272,12.847,32.764,12.847z M39.525,19.585c-3.074,0-6.027,0-8.989,0
		c0,0.778,0,1.507,0,2.23c3.014,0,5.967,0,8.989,0c0-0.46,0-0.875,0-1.29C39.525,20.227,39.525,19.929,39.525,19.585z M48.667,7.404
		c0.914,0.945,1.073,1.609,0.6,2.375c-0.476,0.769-1.151,0.904-2.458,0.493c-0.113,1.025,0.541,2.035,1.575,2.433
		c1.272,0.489,2.772,0.128,3.492-0.84c0.75-1.009,0.739-2.675-0.026-3.665C51.158,7.305,49.771,6.943,48.667,7.404z M18.251,9.419
		c-0.285,1.511,0.245,2.675,1.384,3.206c1.205,0.561,2.765,0.289,3.549-0.619c0.828-0.96,0.893-2.672,0.142-3.724
		c-0.644-0.901-1.871-1.3-2.882-0.924c0.701,0.443,1.198,1.001,1.01,1.892c-0.15,0.711-0.621,1.157-1.323,1.28
		C19.278,10.68,18.72,10.204,18.251,9.419z M10.333,49.847c0-0.799,0-1.511,0-2.226c-0.779,0-1.508,0-2.226,0
		c0,0.775,0,1.487,0,2.226C8.868,49.847,9.581,49.847,10.333,49.847z M59.656,49.839c0.79,0,1.502,0,2.23,0c0-0.774,0-1.502,0-2.236
		c-0.77,0-1.482,0-2.23,0C59.656,48.359,59.656,49.071,59.656,49.839z"/>
	<path fill="#0010B3" d="M28.272,34.107c-1.165,0.001-2.184-1.013-2.195-2.183c-0.011-1.161,0.994-2.189,2.166-2.213
		c1.184-0.024,2.248,1.034,2.23,2.218C30.456,33.102,29.442,34.106,28.272,34.107z"/>
</g>
</svg>
