<?xml version="1.0" encoding="utf-8"?>
<!-- Generator: Adobe Illustrator 17.0.0, SVG Export Plug-In . SVG Version: 6.00 Build 0)  -->
<!DOCTYPE svg PUBLIC "-//W3C//DTD SVG 1.1//EN" "http://www.w3.org/Graphics/SVG/1.1/DTD/svg11.dtd">
<svg version="1.1" id="Layer_1" xmlns="http://www.w3.org/2000/svg" xmlns:xlink="http://www.w3.org/1999/xlink" x="0px" y="0px"
	 width="70px" height="70px" viewBox="0 0 70 70" enable-background="new 0 0 70 70" xml:space="preserve">
<g>
	<path fill="#0010B3" d="M26.05,53.946c-0.68,0-1.348-0.001-2.015,0c-6.198,0.008-12.397,0.013-18.595,0.026
		C2.267,53.979-0.003,51.734,0,48.553c0.009-9.913,0.026-19.826,0.037-29.739c0.004-4.226-0.005-8.452,0.001-12.678
		c0.002-1.215,0.25-2.373,0.975-3.381c0.88-1.224,2.146-1.745,3.592-1.91c0.302-0.035,0.608-0.04,0.912-0.04
		c19.729-0.002,39.458-0.001,59.186-0.003c0.849,0,1.682,0.095,2.465,0.429c1.74,0.745,2.582,2.139,2.791,3.967
		c0.033,0.29,0.039,0.584,0.039,0.875C69.999,20.323,69.999,34.572,70,48.82c0,0.825-0.109,1.631-0.45,2.386
		c-0.734,1.624-2.053,2.445-3.775,2.68c-0.36,0.049-0.728,0.061-1.093,0.062c-6.674,0.003-13.347,0.003-20.021,0.003
		c-0.157,0-0.314,0-0.541,0c0.906,3.497,1.801,6.95,2.708,10.449c0.577,0,1.157,0.001,1.738,0c2.192-0.003,4.384-0.007,6.576-0.009
		c0.194,0,0.392-0.001,0.583,0.029c0.588,0.093,0.927,0.434,0.942,1.03c0.023,0.925,0.02,1.851-0.014,2.776
		c-0.023,0.616-0.322,0.883-0.946,0.946c-0.205,0.021-0.413,0.025-0.62,0.025c-13.384,0.001-26.768,0.001-40.152,0.001
		c-1.334,0-1.583-0.249-1.585-1.573c-0.001-0.609,0.003-1.218-0.007-1.826c-0.015-0.966,0.403-1.405,1.393-1.409
		c1.413-0.006,2.825,0.008,4.238,0.009c1.364,0.001,2.728-0.006,4.092-0.001c0.208,0.001,0.318-0.038,0.379-0.274
		c0.854-3.321,1.722-6.638,2.586-9.957C26.045,54.11,26.041,54.048,26.05,53.946z M35.094,52.026c9.852,0,19.703,0,29.555-0.002
		c0.316,0,0.636,0.002,0.948-0.039c1.073-0.139,1.892-0.658,2.248-1.711c0.156-0.461,0.221-0.975,0.221-1.465
		c0.011-14.223,0.009-28.447,0.008-42.67c0-0.231-0.002-0.463-0.018-0.694c-0.095-1.361-0.813-2.289-2.07-2.59
		c-0.443-0.106-0.917-0.123-1.376-0.123C44.92,2.727,25.228,2.728,5.537,2.729c-0.231,0-0.463,0.002-0.694,0.017
		C3.428,2.837,2.458,3.553,2.121,4.828C1.994,5.303,1.954,5.814,1.954,6.308C1.945,20.386,1.946,34.463,1.95,48.54
		c0,0.34,0.024,0.682,0.069,1.019c0.17,1.259,1.002,2.144,2.249,2.362C4.72,52,5.187,52.022,5.648,52.022
		C15.463,52.028,25.278,52.026,35.094,52.026z M44.847,64.322c-0.897-3.451-1.788-6.882-2.683-10.326c-4.712,0-9.407,0-14.126,0
		c-0.892,3.434-1.783,6.866-2.681,10.326C31.868,64.322,38.339,64.322,44.847,64.322z M54.705,66.397c-13.136,0-26.237,0-39.346,0
		c0,0.291,0,0.553,0,0.819c13.126,0,26.229,0,39.346,0C54.705,66.934,54.705,66.681,54.705,66.397z"/>
	<path fill="#0010B3" d="M34.915,42.215c-9.863,0-19.726,0-29.589-0.002c-0.279,0-0.56-0.014-0.835-0.054
		c-0.428-0.063-0.663-0.341-0.719-0.758c-0.035-0.264-0.045-0.534-0.045-0.801C3.725,29.165,3.725,17.731,3.728,6.297
		c0-0.303,0.02-0.609,0.067-0.908c0.059-0.376,0.3-0.606,0.677-0.669C4.699,4.683,4.93,4.656,5.16,4.656
		c19.848-0.003,39.696-0.003,59.544-0.003c0.073,0,0.146-0.001,0.219,0.002c0.892,0.032,1.199,0.338,1.227,1.228
		c0.006,0.207,0.005,0.414,0.005,0.621c0,11.3,0.001,22.6-0.002,33.9c0,0.303-0.006,0.61-0.051,0.909
		c-0.089,0.583-0.347,0.818-0.94,0.88c-0.241,0.025-0.486,0.021-0.73,0.021C54.592,42.215,44.754,42.215,34.915,42.215z
		 M5.693,40.217c19.495,0,38.97,0,58.455,0c0-11.209,0-22.392,0-33.572c-19.502,0-38.978,0-58.455,0
		C5.693,17.849,5.693,29.024,5.693,40.217z"/>
	<path fill="#0010B3" d="M35.041,51.366c-1.282,0.015-2.405-1.029-2.417-2.246c-0.012-1.264,1.088-2.371,2.373-2.388
		c1.279-0.017,2.392,1.063,2.416,2.344C37.436,50.288,36.334,51.352,35.041,51.366z M34.97,49.562
		c0.495-0.459,0.569-0.605,0.414-0.771c-0.146-0.156-0.58-0.182-0.706-0.007C34.398,49.174,34.893,49.269,34.97,49.562z"/>
	<path fill="#0010B3" d="M33.724,13.979c0-0.966,0.004-1.902-0.001-2.838c-0.006-1.034,0.253-1.362,1.25-1.608
		c1.77-0.438,3.539-0.883,5.305-1.337c0.473-0.122,0.926-0.116,1.401,0.008c1.823,0.475,3.653,0.927,5.48,1.391
		c0.722,0.183,1.02,0.551,1.02,1.303c0.001,2.35-0.004,4.7-0.02,7.05c-0.002,0.276-0.084,0.551-0.136,0.871
		c0.416,0.116,0.858,0.232,1.297,0.362c0.93,0.275,1.233,0.656,1.236,1.627c0.008,2.617,0.004,5.235-0.004,7.852
		c-0.002,0.75-0.359,1.199-1.086,1.402c-2.131,0.595-4.261,1.194-6.398,1.768c-0.28,0.075-0.613,0.081-0.892,0.006
		c-2.079-0.554-4.152-1.132-6.223-1.715c-0.23-0.065-0.445-0.195-0.653-0.318c-0.29-0.172-0.579-0.205-0.908-0.118
		c-1.445,0.385-2.889,0.777-4.345,1.114c-0.41,0.095-0.883,0.101-1.289-0.002c-2.711-0.683-5.413-1.404-8.116-2.119
		c-0.786-0.208-1.17-0.657-1.185-1.497c-0.024-1.339,0.008-2.678,0.007-4.017c-0.002-2.094-0.012-4.188-0.018-6.282
		c0-0.097-0.002-0.195,0.002-0.292c0.031-0.833,0.333-1.206,1.143-1.419c2.469-0.651,4.944-1.28,7.402-1.968
		c0.935-0.261,1.824-0.314,2.755-0.016c0.844,0.27,1.712,0.466,2.57,0.694C33.442,13.912,33.57,13.941,33.724,13.979z
		 M28.372,28.759c0.011-0.11,0.026-0.192,0.026-0.273c0.001-2.945-0.002-5.891,0.006-8.836c0.001-0.227-0.076-0.311-0.29-0.367
		c-1.329-0.344-2.655-0.703-3.982-1.057c-0.888-0.237-1.775-0.473-2.686-0.716c0,3.155,0,6.266,0,9.396
		C23.755,27.524,26.053,28.138,28.372,28.759z M30.403,28.779c2.382-0.66,4.697-1.302,6.997-1.939c0-2.126,0.006-4.219-0.014-6.311
		c-0.001-0.129-0.176-0.324-0.31-0.371c-0.585-0.201-1.179-0.39-1.782-0.524c-0.714-0.158-1.387-0.332-1.59-1.164
		c-0.998,0.271-1.956,0.547-2.924,0.784c-0.316,0.077-0.385,0.223-0.384,0.524c0.011,2.861,0.006,5.721,0.006,8.582
		C30.403,28.479,30.403,28.598,30.403,28.779z M43.568,29.723c1.667-0.455,3.272-0.889,4.873-1.339
		c0.083-0.023,0.167-0.177,0.185-0.281c0.118-0.712-0.032-1.312-0.751-1.647c-0.021-0.01-0.039-0.029-0.058-0.044
		c-0.309-0.255-0.322-0.571-0.015-0.827c0.195-0.163,0.421-0.29,0.622-0.446c0.078-0.061,0.181-0.158,0.182-0.24
		c0.012-1.113,0.008-2.227,0.008-3.376c-1.6,0.437-3.155,0.87-4.717,1.279c-0.27,0.071-0.335,0.188-0.334,0.448
		c0.01,2.032,0.005,4.063,0.005,6.095C43.568,29.453,43.568,29.56,43.568,29.723z M46.22,11.863c-1.34,0.343-2.63,0.684-3.927,0.996
		c-0.275,0.066-0.336,0.185-0.334,0.444c0.01,1.751,0.005,3.503,0.006,5.254c0,0.107,0.01,0.215,0.015,0.318
		c0.046,0.008,0.072,0.021,0.093,0.015c1.323-0.362,2.647-0.723,3.967-1.098c0.078-0.022,0.172-0.165,0.173-0.252
		C46.223,15.668,46.22,13.796,46.22,11.863z M39.939,18.919c0-1.976,0.002-3.887-0.008-5.797c0-0.074-0.102-0.195-0.178-0.214
		c-1.339-0.353-2.681-0.693-4.044-1.041c0,1.961,0,3.892,0,5.833C37.109,18.103,38.497,18.503,39.939,18.919z M39.346,22.32
		c0,0.178,0,0.311,0,0.444c0.004,1.484,0.009,2.968,0.011,4.453c0.001,0.846-0.284,1.225-1.085,1.454
		c-0.037,0.011-0.073,0.025-0.198,0.069c1.205,0.338,2.322,0.651,3.436,0.964c0.021-0.055,0.037-0.078,0.037-0.1
		c0.003-2.165,0.008-4.331-0.002-6.496c0-0.091-0.121-0.236-0.213-0.262C40.692,22.662,40.044,22.502,39.346,22.32z M33.693,15.964
		c-1.388-0.377-2.782-0.758-4.178-1.129c-0.108-0.029-0.24-0.001-0.353,0.029c-1.562,0.414-3.122,0.832-4.683,1.251
		c-0.07,0.019-0.133,0.06-0.253,0.115c1.625,0.432,3.183,0.86,4.749,1.252c0.28,0.07,0.609,0.045,0.894-0.025
		c1.167-0.289,2.323-0.622,3.489-0.917C33.666,16.462,33.803,16.332,33.693,15.964z M43.405,10.577
		c-1.638-0.555-3.267-0.549-4.892,0.001C40.145,11.122,41.777,11.131,43.405,10.577z M42.234,20.99
		c1.159,0.111,2.189-0.439,3.281-0.692C44.323,20.03,43.327,20.725,42.234,20.99z"/>
	<path fill="#0010B3" d="M57.469,38.487c-0.148-0.09-0.458-0.216-0.683-0.431c-0.756-0.723-1.487-1.472-2.215-2.224
		c-0.319-0.329-0.656-0.478-1.136-0.41c-0.523,0.074-0.926-0.269-1.259-0.62c-0.193-0.204-0.101-0.486,0.112-0.682
		c0.161-0.148,0.342-0.274,0.503-0.422c0.289-0.268,0.588-0.37,0.952-0.134c0.237,0.154,0.436,0.04,0.618-0.133
		c0.783-0.747,1.574-1.487,2.353-2.239c0.655-0.632,1.227-0.64,1.863-0.004c0.809,0.808,1.619,1.617,2.425,2.428
		c0.606,0.609,0.618,1.164,0.037,1.781c-0.825,0.877-1.655,1.75-2.481,2.626C58.307,38.289,58.022,38.482,57.469,38.487z
		 M57.584,33.026c-0.482,0.454-0.954,0.899-1.375,1.295c0.564,0.563,1.101,1.098,1.636,1.632c0.387-0.404,0.805-0.842,1.241-1.299
		C58.579,34.105,58.087,33.572,57.584,33.026z"/>
	<path fill="#0010B3" d="M12.4,30.591c0.333,0.214,0.655,0.36,0.899,0.589c0.691,0.649,1.358,1.323,2.017,2.005
		c0.279,0.288,0.611,0.372,0.984,0.385c0.255,0.009,0.512-0.002,0.763,0.035c0.39,0.057,0.629,0.296,0.698,0.689
		c0.063,0.359-0.064,0.645-0.36,0.852c-0.169,0.118-0.348,0.222-0.521,0.335c-0.237,0.156-0.476,0.162-0.717,0.013
		c-0.223-0.138-0.407-0.087-0.581,0.099c-0.706,0.755-1.433,1.49-2.122,2.26c-0.73,0.815-1.307,0.848-2.071,0.05
		c-0.815-0.852-1.632-1.703-2.429-2.572c-0.528-0.575-0.502-1.116,0.045-1.667c0.839-0.846,1.675-1.697,2.534-2.522
		C11.762,30.928,12.068,30.799,12.4,30.591z M12.388,36.171c0.512-0.539,0.993-1.046,1.5-1.58c-0.509-0.477-0.993-0.929-1.499-1.403
		c-0.465,0.436-0.972,0.911-1.491,1.398C11.404,35.125,11.877,35.627,12.388,36.171z"/>
	<path fill="#0010B3" d="M27.806,35.486c-0.55,0.022-0.988-0.247-1.392-0.566c-0.253-0.2-0.241-0.487-0.028-0.707
		c0.277-0.288,0.574-0.569,0.904-0.79c0.136-0.092,0.419-0.091,0.569-0.009c0.284,0.154,0.534,0.381,0.773,0.605
		c0.247,0.232,0.286,0.647,0.121,0.987C28.56,35.402,28.198,35.48,27.806,35.486z"/>
	<path fill="#0010B3" d="M53.305,19.911c0.002-0.371,0.243-0.744,0.622-0.857c0.445-0.133,0.813-0.001,1.083,0.44
		c0.532,0.868,0.705,0.793-0.081,1.66c-0.098,0.108-0.183,0.229-0.292,0.323c-0.238,0.205-0.507,0.212-0.711-0.022
		C53.57,21.048,53.308,20.585,53.305,19.911z"/>
	<path fill="#0010B3" d="M38.517,33.549c0.413-0.016,0.87,0.282,1.278,0.659c0.242,0.224,0.218,0.515-0.032,0.731
		c-0.248,0.215-0.507,0.417-0.77,0.614c-0.084,0.063-0.193,0.115-0.296,0.129c-0.597,0.079-1.465-0.889-1.324-1.466
		C37.478,33.788,37.817,33.553,38.517,33.549z"/>
	<path fill="#0010B3" d="M54.247,15.304c0.457,0.014,1.325,1.157,1.147,1.505c-0.183,0.359-0.434,0.711-0.736,0.973
		c-0.389,0.338-1.082,0.083-1.268-0.405c-0.226-0.594,0.085-1.612,0.61-1.972C54.085,15.346,54.197,15.324,54.247,15.304z"/>
	<path fill="#0010B3" d="M53.254,12.892c0.237-0.405,0.422-0.813,0.693-1.153c0.17-0.213,0.48-0.187,0.681,0.026
		c0.266,0.281,0.511,0.584,0.743,0.894c0.177,0.236,0.123,0.485-0.062,0.698c-0.207,0.238-0.42,0.471-0.643,0.693
		c-0.302,0.3-0.654,0.259-0.867-0.11C53.615,13.622,53.458,13.287,53.254,12.892z"/>
	<path fill="#0010B3" d="M53.935,26.004c-0.044,0.105-0.069,0.216-0.13,0.301c-0.422,0.588-1.272,0.766-1.89,0.402
		c-0.126-0.074-0.252-0.148-0.373-0.229c-0.3-0.203-0.358-0.554-0.101-0.809c0.275-0.273,0.565-0.544,0.889-0.752
		c0.138-0.089,0.432-0.096,0.564-0.006c0.328,0.223,0.61,0.517,0.897,0.796C53.863,25.776,53.885,25.897,53.935,26.004z"/>
	<path fill="#0010B3" d="M51.023,34.567c-0.029,0.074-0.051,0.186-0.111,0.271c-0.393,0.555-1.288,0.737-1.871,0.388
		c-0.052-0.031-0.101-0.067-0.153-0.1c-0.666-0.415-0.681-0.694-0.064-1.203c0.066-0.054,0.133-0.106,0.201-0.158
		c0.252-0.196,0.505-0.591,0.823-0.407c0.424,0.246,0.754,0.655,1.118,1.001C51.003,34.394,50.999,34.473,51.023,34.567z"/>
	<path fill="#0010B3" d="M25.166,34.459c-0.016,0.428-1.075,1.335-1.424,1.238c-0.196-0.055-0.36-0.224-0.536-0.346
		c-0.049-0.034-0.09-0.081-0.136-0.121c-0.929-0.813-0.483-1.102,0.252-1.457c0.651-0.314,1.334-0.141,1.742,0.44
		C25.124,34.299,25.146,34.41,25.166,34.459z"/>
	<path fill="#0010B3" d="M53.34,9.353c0.073-0.645,0.327-1.042,0.692-1.357c0.217-0.187,0.464-0.105,0.642,0.106
		c0.227,0.27,0.443,0.549,0.655,0.83c0.205,0.271,0.188,0.544-0.043,0.791c-0.208,0.222-0.421,0.44-0.648,0.642
		c-0.308,0.273-0.648,0.229-0.857-0.126C53.596,9.92,53.451,9.577,53.34,9.353z"/>
	<path fill="#0010B3" d="M34.883,35.738c-0.095-0.047-0.229-0.086-0.327-0.168c-0.261-0.218-0.519-0.442-0.754-0.687
		c-0.283-0.294-0.24-0.604,0.101-0.82c0.205-0.13,0.417-0.254,0.639-0.347c0.542-0.228,1.307,0.003,1.606,0.506
		c0.077,0.13,0.102,0.407,0.02,0.496c-0.317,0.347-0.684,0.648-1.04,0.958C35.079,35.719,34.989,35.713,34.883,35.738z"/>
	<path fill="#0010B3" d="M47.337,34.475c-0.015,0.381-1.091,1.291-1.438,1.233c-0.113-0.019-0.235-0.077-0.321-0.154
		c-0.244-0.219-0.482-0.448-0.703-0.691c-0.266-0.292-0.241-0.603,0.093-0.798c0.311-0.182,0.648-0.334,0.991-0.44
		c0.348-0.107,1.183,0.342,1.334,0.671C47.322,34.361,47.327,34.436,47.337,34.475z"/>
	<path fill="#0010B3" d="M42.354,33.486c0.416,0.252,0.818,0.448,1.16,0.72c0.218,0.173,0.148,0.454-0.047,0.646
		c-0.269,0.263-0.552,0.514-0.842,0.754c-0.201,0.166-0.434,0.168-0.635,0.002c-0.281-0.231-0.56-0.469-0.814-0.73
		c-0.271-0.278-0.237-0.592,0.087-0.795C41.596,33.874,41.952,33.703,42.354,33.486z"/>
	<path fill="#0010B3" d="M31.408,35.45c-0.637-0.041-1.028-0.293-1.353-0.62c-0.2-0.201-0.154-0.489,0.058-0.685
		c0.275-0.255,0.571-0.489,0.872-0.714c0.233-0.174,0.484-0.154,0.698,0.039c0.243,0.219,0.482,0.446,0.7,0.689
		c0.265,0.295,0.228,0.63-0.103,0.834C31.965,35.185,31.625,35.337,31.408,35.45z"/>
	<path fill="#0010B3" d="M20.125,33.572c0.595,0.077,0.975,0.313,1.271,0.662c0.173,0.204,0.103,0.447-0.079,0.624
		c-0.27,0.262-0.553,0.512-0.843,0.751c-0.218,0.18-0.461,0.15-0.667-0.023c-0.27-0.225-0.537-0.459-0.78-0.713
		c-0.266-0.278-0.229-0.607,0.097-0.796C19.475,33.872,19.851,33.708,20.125,33.572z"/>
	<path fill="#0010B3" d="M53.352,23.802c0.135-0.231,0.312-0.631,0.578-0.958c0.177-0.218,0.485-0.221,0.707,0.02
		c0.246,0.267,0.485,0.542,0.711,0.826c0.191,0.24,0.177,0.5-0.023,0.729c-0.224,0.255-0.461,0.499-0.7,0.739
		c-0.219,0.219-0.498,0.211-0.684,0.014C53.635,24.848,53.378,24.472,53.352,23.802z"/>
</g>
</svg>
