<?xml version="1.0" encoding="utf-8"?>
<!-- Generator: Adobe Illustrator 16.0.4, SVG Export Plug-In . SVG Version: 6.00 Build 0)  -->
<!DOCTYPE svg PUBLIC "-//W3C//DTD SVG 1.1//EN" "http://www.w3.org/Graphics/SVG/1.1/DTD/svg11.dtd">
<svg version="1.1" id="Layer_1" xmlns="http://www.w3.org/2000/svg" xmlns:xlink="http://www.w3.org/1999/xlink" x="0px" y="0px"
	 width="450px" height="343.174px" viewBox="0 0 450 343.174" enable-background="new 0 0 450 343.174" xml:space="preserve">
<g>
	<path fill="#F2F2F2" d="M162.931,99.573c-16.435,17.067-43.593,17.58-60.659,1.146c-0.839-0.807-1.645-1.648-2.415-2.522
		L4.135,188.803l134.604,142.203L267.04,209.562L162.931,99.573z"/>
	<path fill="#F2F2F2" d="M131.95,103.759c10.206,0.012,19.977-4.144,27.049-11.504l-26.691-28.199l-28.519,26.993
		C110.911,99.139,121.171,103.771,131.95,103.759z"/>
	<path fill="#FF0000" d="M342.071,144.999c0.036,37.202-30.09,67.389-67.29,67.426c-0.046,0-0.09,0-0.137,0
		c-0.384,0-0.77-0.005-1.153-0.013c-1.618-0.024-3.216-0.106-4.805-0.244c-37.096-3.289-64.5-36.026-61.211-73.121
		s36.026-64.499,73.119-61.211C315.39,80.921,342.069,110.068,342.071,144.999L342.071,144.999z"/>
	<path opacity="0.1" enable-background="new    " d="M313.719,120.599c4.226-7.454,6.985-15.648,8.128-24.142
		c-26.809-25.845-69.493-25.064-95.339,1.745c-9.944,10.315-16.344,23.528-18.271,37.726c11.074,10.705,25.491,17.28,40.836,18.621
		c1.589,0.14,3.187,0.221,4.806,0.246c0.383,0.009,0.767,0.013,1.153,0.013C279.333,154.832,301.764,141.759,313.719,120.599z"/>
	<rect x="196.186" y="210.79" fill="#2F2E41" width="108.29" height="120.958"/>
	<path opacity="0.1" enable-background="new    " d="M339.155,170.172c-8.502,19.96-26.079,34.616-47.242,39.393h15.015v120.957
		h-99.881l56.055-97.09l12.843-22.244l0.935-1.623l42.512-73.629L339.155,170.172z"/>
	<polygon fill="#3F3D56" points="333.284,136.753 389.574,234.25 445.865,331.748 333.284,331.748 220.703,331.748 276.994,234.25 	
		"/>
	<polygon fill="#9F616A" points="74.219,312.432 73.474,318.647 69.247,320.637 64.523,319.145 61.291,320.637 60.297,314.918 
		66.015,308.453 	"/>
	<path fill="#2F2E41" d="M71.235,317.156c0,0,3.855-4.494,3.916-2.248c0.062,2.248,8.516,9.955,8.516,9.955
		s13.176,3.978,2.982,6.463c-10.193,2.486-32.568-4.724-33.314-6.216c-0.746-1.49,6.216-12.927,6.962-11.932
		C61.042,314.172,64.771,317.652,71.235,317.156z"/>
	<path fill="#2F2E41" d="M80.683,243.316c0,0,1.492,11.686,0,13.426c-1.492,1.739-0.745,5.221,0,5.718
		c0.746,0.497-0.994,2.486-2.237,3.48c-1.243,0.995-2.983,5.469-2.983,5.469s-6.713,17.652-6.713,19.394
		c0,1.739-2.983,5.469-2.734,6.712s-1.74,5.221-1.491,5.968c0.248,0.744-3.232,7.458-2.238,8.452
		c0.994,0.995,14.669,4.476,13.923,2.237c-0.746-2.237-1.243-4.972-0.746-4.972s2.735-2.735,2.238-3.729
		c-0.498-0.995,14.917-27.1,14.917-27.1L80.683,243.316z"/>
	<path opacity="0.1" enable-background="new    " d="M71.235,317.156c0,0,3.855-4.494,3.916-2.248
		c0.062,2.248,8.516,9.955,8.516,9.955s13.176,3.978,2.982,6.463c-10.193,2.486-32.568-4.724-33.314-6.216
		c-0.746-1.49,6.216-12.927,6.962-11.932C61.042,314.172,64.771,317.652,71.235,317.156z"/>
	<path opacity="0.1" enable-background="new    " d="M80.683,243.316c0,0,1.492,11.686,0,13.426c-1.492,1.739-0.745,5.221,0,5.718
		c0.746,0.497-0.994,2.486-2.237,3.48c-1.243,0.995-2.983,5.469-2.983,5.469s-6.713,17.652-6.713,19.394
		c0,1.739-2.983,5.469-2.734,6.712s-1.74,5.221-1.491,5.968c0.248,0.744-3.232,7.458-2.238,8.452
		c0.994,0.995,14.669,4.476,13.923,2.237c-0.746-2.237-1.243-4.972-0.746-4.972s2.735-2.735,2.238-3.729
		c-0.498-0.995,14.917-27.1,14.917-27.1L80.683,243.316z"/>
	<polygon fill="#9F616A" points="106.042,309.346 108.776,316.307 107.533,326.002 99.577,325.505 95.103,321.527 95.103,313.075 	
		"/>
	<path fill="#2F2E41" d="M104.55,317.798c0,0,2.734-8.95,4.227-6.464c0.945,1.598,1.776,3.259,2.486,4.973
		c0,0,12.183,7.955,15.414,7.955s6.216,3.979,1.989,5.47s-36.547,3.48-37.044,0s0.497-14.668,1.989-13.425
		C95.103,317.55,102.81,320.284,104.55,317.798z"/>
	<path fill="#9F616A" d="M110.766,207.66c0,0,10.958,7.448,11.455,8.442c0.498,0.995,6.855,4.052,1.635,6.538
		c-5.221,2.487-19.057-13.239-19.057-13.239L110.766,207.66z"/>
	<path fill="#575A88" d="M105.296,193.242c0,0,7.956,15.413,6.465,15.911c-1.492,0.496-7.459,3.48-7.459,3.48l-2.735-15.663
		L105.296,193.242z"/>
	<path opacity="0.1" enable-background="new    " d="M105.296,193.242c0,0,7.956,15.413,6.465,15.911
		c-1.492,0.496-7.459,3.48-7.459,3.48l-2.735-15.663L105.296,193.242z"/>
	<path fill="#2F2E41" d="M104.799,206.17c0,0,1.74,12.927,0.995,15.663c-0.746,2.734,0.496,43.756-0.498,45.993
		s-1.74,16.658-1.74,18.397c0,1.741,1.989,15.911,2.486,17.155c0.497,1.243,1.989,5.469,1.242,7.458
		c-0.745,1.989-10.938,6.961-12.43,5.221c-1.492-1.74-0.249-7.21-1.492-7.458c-1.243-0.25-2.734-11.935-2.734-11.935l-8.204-45.744
		c0,0-15.415-38.287-11.935-42.016C73.971,205.176,104.799,206.17,104.799,206.17z"/>
	<circle fill="#9F616A" cx="95.6" cy="105.729" r="12.182"/>
	<path fill="#9F616A" d="M100.075,115.674c0,0-3.979,10.441-3.481,12.679c0.498,2.237-11.685-3.978-11.685-3.978
		s0.746-12.183,0-15.415C84.163,105.729,100.075,115.674,100.075,115.674z"/>
	<path fill="#575A88" d="M66.671,183.697c0.055,2.086,0.09,3.329,0.09,3.329s-0.746,11.437,0.497,15.165
		c1.242,3.729,1.242,6.464,1.989,8.951c0.218,0.723,3.194,1.11,7.373,1.282c3.834,0.156,8.68,0.135,13.331,0.027
		c7.702-0.18,14.882-0.592,16.091-0.813c2.734-0.496-0.497-4.723,0.497-6.96c0.994-2.238-1.74-30.829-1.74-30.829
		s0.249-16.161-0.994-22.376c-1.244-6.216-5.967-16.159-6.962-17.403c-0.994-1.243-0.249-1.989,1.989-3.481
		c2.237-1.491,0-7.209,0-7.209c-4.227-3.481-14.917-3.978-14.917-3.978s-16.409,16.906-17.402,20.386
		c-0.603,2.104-0.387,18.905-0.123,31.877C66.491,176.547,66.599,180.888,66.671,183.697z"/>
	<path fill="#9F616A" d="M87.645,214.623c0,0,9.447,19.392,1.988,20.634c-7.458,1.244-11.188-17.651-11.188-17.651L87.645,214.623z"
		/>
	<path fill="#2F2E41" d="M106.99,99.554c0.431-2.089-1.166-4.042-2.848-5.355c-3.662-2.841-8.168-4.377-12.803-4.366
		c-3.261,0.018-6.626,0.881-9.09,3.016c-2.875,2.49-4.186,6.482-3.944,10.278c0.241,3.795,1.892,7.395,4.118,10.478
		c1.069,1.48,2.785,3.012,4.492,2.367c0.669-0.313,1.242-0.797,1.662-1.403c1.095-1.359,2.05-2.826,2.848-4.377
		c0.611-1.188,1.141-2.439,2.007-3.456s2.167-1.781,3.491-1.599c1.093,0.15,2.164,0.92,3.207,0.559
		c1.159-0.403,1.439-1.886,1.531-3.109c0.102-1.341,0.03-2.895,0.402-4.164C102.473,98.639,106.79,100.555,106.99,99.554z"/>
	<path opacity="0.1" enable-background="new    " d="M66.671,183.697c2.785,10.042,9.171,26.965,9.537,27.693
		c0.092,0.187,0.236,0.552,0.412,1.034c3.834,0.156,8.68,0.135,13.331,0.027c-0.721-1.884-1.561-3.704-1.561-4.294
		c0-1.242-5.967-33.314-5.967-33.314s4.723-14.171,8.949-26.104c4.227-11.934-12.555-9.572-12.555-9.572
		c-8.95-2.237-10.566,1.616-10.566,1.616s-0.788,20.958-1.862,30.882c-0.275,2.544-0.569,4.361-0.872,4.918
		C65.119,177.312,65.656,180.053,66.671,183.697z"/>
	<path fill="#575A88" d="M82.424,131.087c0,0,11.436,4.725,7.209,16.657c-4.227,11.934-8.95,26.105-8.95,26.105
		s5.967,32.071,5.967,33.314s3.729,7.956,2.238,9.199c-1.492,1.242-11.437,3.729-11.686,2.486c-0.248-1.244-2.237-7.459-2.734-8.453
		c-0.497-0.995-12.183-32.071-10.691-34.807c1.099-2.013,2.061-20.45,2.493-30.049c0.204-5.572,3.331-10.622,8.229-13.287
		C76.815,131.025,79.515,130.36,82.424,131.087z"/>
	<rect x="113.64" y="203.844" fill="#FF0000" width="14.711" height="14.712"/>
	<circle fill="#3F3D56" cx="120.995" cy="199.349" r="4.495"/>
	<circle fill="#FF6584" cx="294.728" cy="34.221" r="22.196"/>
	<path fill="#F2F2F2" d="M294.669,49.381c0,16.747-9.957,22.594-22.236,22.594c-12.282,0-22.236-5.847-22.236-22.594
		c0-16.746,22.236-38.05,22.236-38.05S294.669,32.635,294.669,49.381z"/>
	<polygon fill="#3F3D56" points="271.622,69.413 271.849,55.398 281.325,38.059 271.884,53.2 271.987,46.897 278.52,34.353 
		272.016,45.23 272.016,45.23 272.197,33.896 279.192,23.909 272.228,32.113 272.342,11.331 271.621,38.843 271.679,37.708 
		264.568,26.823 271.565,39.887 270.902,52.545 270.883,52.21 262.685,40.754 270.858,53.396 270.775,54.979 270.761,55.003 
		270.768,55.134 269.085,87.248 271.332,87.248 271.602,70.66 279.756,58.049 	"/>
	<path fill="#F2F2F2" d="M348.249,74.412c-5.315,15.881-16.61,18.267-28.258,14.371c-11.646-3.896-19.231-12.601-13.918-28.481
		c5.312-15.882,33.159-29.03,33.159-29.03S353.561,58.53,348.249,74.412z"/>
	<polygon fill="#3F3D56" points="320.035,86.097 324.698,72.877 339.188,59.442 325.431,70.805 327.527,64.86 337.702,55.036 
		328.082,63.287 328.082,63.287 331.853,52.597 341.654,45.346 332.447,50.916 339.148,31.244 329.734,57.106 330.15,56.048 
		326.859,43.469 329.351,58.079 324.706,69.873 324.794,69.547 320.654,56.083 324.395,70.665 323.812,72.141 323.79,72.158 
		323.758,72.283 311.973,102.206 314.104,102.918 319.622,87.272 331.354,77.9 	"/>
	<path fill="#F2F2F2" d="M237.874,61.633c6.022,15.626-1.164,24.663-12.622,29.08c-11.46,4.416-22.853,2.541-28.875-13.085
		s7.064-43.502,7.064-43.502S231.852,46.007,237.874,61.633z"/>
	<polygon fill="#3F3D56" points="223.574,88.613 218.746,75.454 221.354,55.867 217.988,73.39 215.817,67.472 217.401,53.418 
		215.243,65.907 215.243,65.907 211.339,55.265 214.274,43.43 210.726,53.591 203.358,34.158 212.578,60.09 212.225,59.009 
		201.675,51.41 212.902,61.083 216.836,73.132 216.697,72.826 204.928,65.086 217.102,73.942 217.593,75.45 217.588,75.477 
		217.641,75.595 227.622,106.166 229.719,105.359 224.003,89.784 227.075,75.084 	"/>
	<path fill="#FF0000" d="M190.648,194.403c-1.378,2.198-3.165,2.146-4.777,1.136c-1.611-1.011-2.437-2.597-1.06-4.794
		c1.379-2.198,6.05-3.165,6.05-3.165S192.026,192.206,190.648,194.403z"/>
	<path fill="#FF0000" d="M354.977,128.534c0.254,2.582-1.191,3.635-3.084,3.821c-1.893,0.187-3.517-0.563-3.771-3.144
		c-0.255-2.582,2.847-6.204,2.847-6.204S354.721,125.952,354.977,128.534z"/>
	<path fill="#FF0000" d="M183.319,147.595c-1.378,2.198-3.165,2.146-4.777,1.135c-1.611-1.01-2.437-2.597-1.059-4.794
		c1.377-2.198,6.048-3.165,6.048-3.165S184.697,145.397,183.319,147.595z"/>
</g>
</svg>
