<?xml version="1.0" encoding="utf-8"?>
<!-- Generator: Adobe Illustrator 16.0.4, SVG Export Plug-In . SVG Version: 6.00 Build 0)  -->
<!DOCTYPE svg PUBLIC "-//W3C//DTD SVG 1.1//EN" "http://www.w3.org/Graphics/SVG/1.1/DTD/svg11.dtd">
<svg version="1.1" id="Layer_1" xmlns="http://www.w3.org/2000/svg" xmlns:xlink="http://www.w3.org/1999/xlink" x="0px" y="0px"
	 width="450px" height="343.174px" viewBox="0 0 450 343.174" enable-background="new 0 0 450 343.174" xml:space="preserve">
<g>
	<path fill="#F2F2F2" d="M328.013,128.868C310.104,58.451,248.228,7.62,175.598,5.581C137.201,4.504,96.797,17.238,67.38,61.801
		c-52.587,79.661,3.232,134.708,42.146,160.867c18.801,12.662,35.741,27.889,50.331,45.238
		c26.285,31.191,76.854,69.953,137.077,9.221C340.586,233.107,339.94,175.772,328.013,128.868z"/>
	<ellipse fill="#3F3D56" cx="164.168" cy="317.177" rx="162.165" ry="20.478"/>
	<ellipse opacity="0.1" enable-background="new    " cx="164.168" cy="313.361" rx="143.964" ry="14.363"/>
	<rect x="84.638" y="191.865" fill="#3F3D56" width="8.451" height="128.465"/>
	<polygon fill="#3F3D56" points="159.857,188.484 159.857,191.865 22.096,193.555 22.096,190.174 22.291,190.047 46.606,174.116 
		148.87,174.116 	"/>
	<path fill="#FFB9B9" d="M135.348,168.2c0,0-30.426,2.536-20.284,10.142c10.142,7.607,20.284-5.071,20.284-5.071V168.2z"/>
	<polygon opacity="0.1" enable-background="new    " points="159.857,188.586 159.857,191.865 22.096,193.555 22.096,190.174 
		22.291,190.047 	"/>
	<path fill="#575A89" d="M180.986,126.788l0.74-2.775c0,0-10.037,17.987-10.882,19.678s-15.213,16.058-16.903,18.594
		c-1.152,1.644-2.583,3.073-4.226,4.226h-16.058c0,0-3.38,10.987,1.69,11.832c5.071,0.846,21.129,4.227,24.51,4.227
		s24.509-19.439,24.509-19.439L180.986,126.788z"/>
	<polygon fill="#3F3D56" points="184.367,249.336 179.295,320.33 184.367,320.33 190.283,247.645 	"/>
	<polygon fill="#3F3D56" points="246.063,240.883 240.993,311.877 246.063,311.877 251.979,239.193 	"/>
	<polygon fill="#3F3D56" points="255.36,249.336 250.289,320.33 255.36,320.33 261.275,247.645 	"/>
	<polygon fill="#3F3D56" points="176.76,242.574 171.689,313.568 176.76,313.568 182.676,240.883 	"/>
	<polygon fill="#3F3D56" points="274.799,152.142 260.431,255.25 175.069,251.871 175.644,242.355 176.76,223.98 242.683,227.361 
		253.67,152.142 	"/>
	<path opacity="0.1" enable-background="new    " d="M274.799,152.143L260.431,255.25l-85.361-3.379l0.575-9.516
		c17.816,0.684,78.026-3.162,78.026-3.162c0-13.488,11.849-66.294,16.633-87.051H274.799z"/>
	<path fill="#FFB9B9" d="M125.206,277.227c0,0-2.535,19.438-7.606,22.818s21.129,7.605,21.129,7.605l1.69-25.354L125.206,277.227z"
		/>
	<path fill="#FFB9B9" d="M210.567,285.678c0,0,4.226,5.07,5.071,8.451s13.522,5.07,13.522,5.07l9.298-10.141
		c0,0-11.834-10.143-15.214-10.143C219.864,278.916,210.567,285.678,210.567,285.678z"/>
	<circle fill="#FFB9B9" cx="188.17" cy="90.868" r="20.284"/>
	<path fill="#FFB9B9" d="M182.676,104.813c0,0,10.141,19.439,8.452,22.82c-1.69,3.38,21.974-16.059,21.974-16.059
		s-8.452-13.523-8.452-17.748C204.65,89.6,182.676,104.813,182.676,104.813z"/>
	<path fill="#2F2E41" d="M191.974,204.541c0,0-65.078-10.143-67.613,13.523c-2.535,23.664-11.833,54.09-12.678,56.627
		c-0.844,2.535,27.891,16.902,31.272,11.83c3.38-5.07,9.296-45.639,7.606-49.02c-1.69-3.379-2.536-7.605,0.845-6.76
		s40.568,8.451,48.173,5.916c7.607-2.535,27.045-36.342,27.045-36.342L191.974,204.541z"/>
	<path opacity="0.1" enable-background="new    " d="M191.974,204.541c0,0-65.078-10.143-67.613,13.523
		c-2.535,23.664-11.833,54.09-12.678,56.627c-0.844,2.535,27.891,16.902,31.272,11.83c3.38-5.07,9.296-45.639,7.606-49.02
		c-1.69-3.379-2.536-7.605,0.845-6.76s40.568,8.451,48.173,5.916c7.607-2.535,27.045-36.342,27.045-36.342L191.974,204.541z"/>
	<path fill="#2F2E41" d="M190.283,199.471l2.534,21.129c0,0-40.566,15.213-25.353,39.723c15.212,24.51,32.115,38.031,32.115,38.031
		s27.045-15.213,27.045-19.438s-32.961-27.891-28.735-27.891c4.228,0,65.077-3.381,52.4-37.188S190.283,199.471,190.283,199.471z"/>
	<path fill="#2F2E41" d="M124.36,300.889c0,0-6.761-7.605-6.761-5.914c0,1.689-19.438,11.832-22.819,12.676
		c-3.381,0.846-8.451,2.537-1.69,5.072c6.761,2.535,49.865,3.381,49.865,1.689c0-1.689,1.689-17.748-1.69-16.059
		C137.883,300.045,125.206,304.27,124.36,300.889z"/>
	<path fill="#2F2E41" d="M224.089,294.975c0,0-9.296-2.535-10.141,0s-1.69,12.676-9.297,16.057s-10.143,8.453,0,9.299
		c10.143,0.844,38.032-18.594,38.032-21.977c0-3.379-3.38-13.521-5.07-12.676C235.922,286.521,231.696,294.129,224.089,294.975z"/>
	<rect x="69.425" y="305.961" fill="#3F3D56" width="38.878" height="15.213"/>
	<path fill="#575A89" d="M213.103,106.503c0,0-3.165-8.46-8.766-3.385c-5.603,5.075-16.589,17.753-16.589,17.753
		s-6.762,2.535-9.297,6.761c-2.536,4.225-2.536,32.116,2.536,41.413c5.071,9.296,5.071,25.353,6.762,29.58s0,8.453,5.915,8.453
		c5.917,0-3.379-6.762,16.059,0c19.438,6.76,41.413,15.213,43.104,9.295c1.69-5.914-2.536-9.295,0-11.832
		c2.535-2.535,0-3.381-1.69-9.297c-1.69-5.914-3.381-6.76-4.227-14.367c-0.845-7.606,0-15.212-1.69-18.593
		c-1.69-3.381-1.69-8.451-1.69-16.903c0-8.452-5.069-25.354-14.367-30.426C219.864,109.884,213.103,106.503,213.103,106.503z"/>
	<path fill="#2F2E41" d="M168.365,68.313c4.71-4.599,9.662-9.346,15.933-11.349c8.371-2.673,17.704,0.132,24.91,5.16
		c1.554,1.084,3.078,2.313,4.011,3.963c0.857,1.513,1.158,3.269,1.429,4.987c0.957,6.048,1.74,12.177,1.272,18.283
		c-0.467,6.105-2.268,12.243-6.027,17.076c-3.333-3.561-5.893-7.776-7.514-12.377c-0.428-1.217-0.812-2.501-1.677-3.459
		s-2.387-1.474-3.473-0.775c-1.507,0.97-1.318,3.562-2.91,4.388c-0.545,0.247-1.155,0.311-1.741,0.182
		c-4.15-0.715-5.595-5.8-8.297-9.032c-3.981-4.763-9.556-4.461-14.998-5.83C162.972,77.941,164.536,72.051,168.365,68.313z"/>
	<ellipse fill="#FF0000" cx="134.04" cy="179.066" rx="17.374" ry="3.777"/>
	<path fill="none" stroke="#FF0000" stroke-width="6" stroke-miterlimit="10" d="M132.614,179.49l-0.34-17.983
		c-0.076-4.023,0.068-8.583,3.059-11.274c1.89-1.7,4.731-2.431,5.917-4.68c0.646-1.226,0.658-2.674,0.656-4.06l-0.048-24.478"/>
	<path fill="#FF0000" d="M140.623,109.322h1.438c1.828,0,3.31,1.481,3.31,3.31v8.992c0,1.828-1.482,3.31-3.31,3.31h-1.438
		c-1.829,0-3.31-1.482-3.31-3.31v-8.992C137.313,110.804,138.794,109.322,140.623,109.322z"/>
	<path fill="#FFB9B9" d="M164.548,175.525c0,0-28.012-7.43-30.296-1.039c-2.284,6.391,23.916,12.307,23.916,12.307h10.987
		L164.548,175.525z"/>
	<path fill="#575A89" d="M223.244,120.026c0,0-12.677,9.297-16.058,22.819c-3.381,13.522-5.917,27.891-5.917,27.891l-38.876,5.071
		c0,0-3.381,13.523,1.69,14.367c5.07,0.846,43.103,3.381,49.019,0s26.2-45.638,25.355-49.864
		C237.612,136.084,235.922,120.872,223.244,120.026z"/>
	<path fill="#57B894" d="M405.342,281.949c5.122,1.862,10.786-0.78,12.649-5.905c1.861-5.123-0.781-10.787-5.905-12.648
		c-1.738-0.633-3.621-0.765-5.43-0.377l0.246,5.08l-2.404-4.354c-2.359,1.108-4.181,3.108-5.067,5.56
		c-0.312,0.859-0.505,1.758-0.565,2.67C398.552,276.372,401.196,280.444,405.342,281.949z"/>
	<path fill="none" stroke="#3F3D56" stroke-miterlimit="10" d="M417.235,340.879c-0.85-4.32,2.829-8.151,6.461-10.642
		c3.632-2.491,7.875-4.938,9.114-9.162c1.78-6.073-3.523-11.635-7.653-16.432c-3.062-3.56-5.694-7.47-7.837-11.646
		c-0.933-1.643-1.565-3.436-1.874-5.297c-0.325-2.692,0.538-5.37,1.411-7.938c2.9-8.555,6.005-17.037,9.309-25.447"/>
	<path fill="none" stroke="#3F3D56" stroke-miterlimit="10" d="M405.747,280.642c5.124,1.862,10.788-0.781,12.651-5.904
		c1.86-5.125-0.782-10.787-5.906-12.649c-1.738-0.633-3.62-0.764-5.43-0.378l0.246,5.08l-2.402-4.354
		c-2.36,1.108-4.184,3.107-5.068,5.561c-0.313,0.859-0.506,1.757-0.566,2.67C398.958,275.063,401.603,279.138,405.747,280.642z"/>
	<path fill="#57B894" d="M416.028,252.562c1.146-3.162,3.823-5.521,7.104-6.262l0.813,4.831l1.506-5.071
		c5.45,0.08,9.805,4.562,9.724,10.016c-0.081,5.449-4.564,9.803-10.016,9.722c-5.45-0.08-9.805-4.565-9.725-10.017
		C415.454,254.683,415.654,253.594,416.028,252.562L416.028,252.562z"/>
	<path fill="none" stroke="#3F3D56" stroke-miterlimit="10" d="M416.57,250.815c1.146-3.16,3.824-5.521,7.104-6.26l0.812,4.83
		l1.508-5.072c5.45,0.08,9.804,4.564,9.723,10.016s-4.564,9.804-10.016,9.723c-5.451-0.08-9.804-4.564-9.723-10.016
		C415.997,252.938,416.196,251.851,416.57,250.815z"/>
	<path fill="#57B894" d="M423.425,304.743c5.125,1.856,10.785-0.789,12.646-5.914c1.565-4.319-0.056-9.146-3.909-11.646
		l-1.158,3.897l-0.82-4.888c-0.008-0.004-0.017-0.006-0.024-0.01c-5.123-1.865-10.787,0.776-12.652,5.898
		c-1.864,5.123,0.776,10.787,5.898,12.652C423.411,304.737,423.418,304.739,423.425,304.743L423.425,304.743z"/>
	<path fill="none" stroke="#3F3D56" stroke-miterlimit="10" d="M423.895,302.976c5.125,1.858,10.785-0.787,12.646-5.912
		c1.566-4.319-0.054-9.147-3.907-11.647l-1.159,3.899l-0.819-4.889c-0.009-0.004-0.018-0.007-0.025-0.01
		c-5.123-1.861-10.786,0.783-12.648,5.906c-1.861,5.123,0.782,10.785,5.905,12.648C423.889,302.974,423.891,302.976,423.895,302.976
		L423.895,302.976z"/>
	<path fill="#57B894" d="M413.148,321.136c0.942,5.366,6.059,8.952,11.425,8.011c5.366-0.943,8.953-6.06,8.009-11.427
		c-0.942-5.367-6.059-8.953-11.424-8.009c-2.427,0.426-4.604,1.744-6.107,3.695l4.398,6.619l-6.011-3.515
		C412.974,318.008,412.874,319.594,413.148,321.136z"/>
	<path fill="none" stroke="#3F3D56" stroke-miterlimit="10" d="M413.555,319.827c0.943,5.367,6.06,8.953,11.427,8.011
		c5.364-0.944,8.951-6.059,8.009-11.426s-6.059-8.953-11.425-8.011c-2.427,0.428-4.604,1.745-6.107,3.694l4.398,6.621l-6.011-3.515
		C413.38,316.7,413.28,318.284,413.555,319.827z"/>
	<line fill="none" stroke="#3F3D56" stroke-miterlimit="10" x1="3.003" y1="340.916" x2="437.617" y2="340.916"/>
	<path fill="#D1D9EC" d="M71.731,180.119l13.733,1.102l19.582-1.27l-0.341-0.033l-18.139-1.748
		c-4.154-1.525-1.271-10.511-1.271-10.511l-13.899,0.708l-1.105,0.056C65.374,179.951,71.731,180.119,71.731,180.119z"/>
	<path opacity="0.1" enable-background="new    " d="M71.731,180.119l13.733,1.102l19.582-1.27l-0.341-0.033l-19.792,0.709
		l-13.267-1.439c-3.764-0.99-1.609-7.526-0.251-10.821l-1.105,0.056C65.374,179.951,71.731,180.119,71.731,180.119z"/>
	<path fill="#4C4C56" d="M48.97,98.061l4.113,59.638v7.197c0.126,1.809,0.985,4.958,2.8,4.947l3.37-2.89h60.666
		c1.044-0.006-2.467-1.532-2.57-2.57l4.253-2.221l-4.452-43.73c-0.144-1.41-1.092-2.609-2.432-3.074l-60.27-20.871
		c-2.051-0.71-4.138-0.458-5.444,0.627C48.109,95.858,48.867,96.576,48.97,98.061z"/>
	<path fill="#DFE6F5" d="M51.883,158.739l0.551,7.908c0.125,1.809,1.635,3.208,3.448,3.196l1.275-0.009l63.235-0.383
		c0.979-0.007,1.768-0.806,1.761-1.786c0-0.055-0.003-0.11-0.008-0.164l-0.545-5.34L51.883,158.739z"/>
	<ellipse fill="#FFFFFF" cx="94.28" cy="165.285" rx="0.848" ry="1.696"/>
	<path fill="#D1D9EC" d="M63.323,182.104c0,0-17.293-6.527-21.956-1.779c0,0-0.763,1.439,2.374,1.779l12.674,1.018
		C56.415,183.121,61.627,183.629,63.323,182.104z"/>
	<path fill="#DFE6F5" d="M62.861,180.404c-3.397-1.387-13.624-4.978-20.167-1.004c0,0,7.24-0.803,11.218,1.496
		c3.979,2.301,9.41,1.207,9.41,1.207l0.081-0.145c0.297-0.527,0.109-1.197-0.418-1.494
		C62.945,180.443,62.904,180.424,62.861,180.404z"/>
	<path fill="#DFE6F5" d="M47.686,98.479l4.749,68.167c0.125,1.809,1.635,3.208,3.448,3.196l1.275-0.009
		c-0.875-0.836-1.62-1.798-2.211-2.853c0,0-4.663-68.495-5.002-70.19c-0.148-0.637-0.474-1.218-0.941-1.677
		C48.031,95.946,47.537,97.208,47.686,98.479z"/>
	<path opacity="0.1" enable-background="new    " d="M47.686,98.479l4.749,68.167c0.125,1.809,1.635,3.208,3.448,3.196l1.275-0.009
		c-0.875-0.836-1.62-1.798-2.211-2.853c0,0-4.663-68.495-5.002-70.19c-0.148-0.637-0.474-1.218-0.941-1.677
		C48.031,95.946,47.537,97.208,47.686,98.479z"/>
	<path fill="none" stroke="#F2F2F2" stroke-width="2" stroke-miterlimit="10" d="M74.384,131.337
		c-2.397,1.536-4.94,2.83-7.594,3.864c-1.714,0.667-3.6,1.23-5.37,0.727c-1.77-0.503-3.222-2.488-2.515-4.187
		c0.48-1.003,1.46-1.675,2.569-1.762c1.096-0.069,2.188,0.189,3.136,0.743c1.743,0.938,3.135,2.416,3.969,4.211
		c0.424,0.921,0.729,1.961,1.513,2.604c0.639,0.442,1.374,0.728,2.143,0.833c1.799,0.391,3.646,0.782,5.467,0.512
		c1.822-0.271,3.64-1.351,4.253-3.087"/>
	<path fill="none" stroke="#F2F2F2" stroke-width="2" stroke-miterlimit="10" d="M88.895,124.102
		c-0.347,5.462-0.911,10.906-1.692,16.329l3.933-0.384c1.45-0.142,3.108-0.408,3.869-1.65c0.708-1.158,0.274-2.738-0.644-3.739
		s-2.212-1.554-3.464-2.08l-2.051-0.86"/>
	<path fill="none" stroke="#F2F2F2" stroke-width="2" stroke-miterlimit="10" d="M109.201,131.976
		c-1.395-0.322-2.818-0.639-4.244-0.513c-1.425,0.126-2.878,0.766-3.639,1.979c-1.405,2.239,0.167,5.292,2.375,6.745
		c1.839,1.202,4.035,1.735,6.22,1.514"/>
</g>
</svg>
