<?xml version="1.0" encoding="utf-8"?>
<!-- Generator: Adobe Illustrator 16.0.4, SVG Export Plug-In . SVG Version: 6.00 Build 0)  -->
<!DOCTYPE svg PUBLIC "-//W3C//DTD SVG 1.1//EN" "http://www.w3.org/Graphics/SVG/1.1/DTD/svg11.dtd">
<svg version="1.1" id="Layer_1" xmlns="http://www.w3.org/2000/svg" xmlns:xlink="http://www.w3.org/1999/xlink" x="0px" y="0px"
	 width="450px" height="343.174px" viewBox="0 0 450 343.174" enable-background="new 0 0 450 343.174" xml:space="preserve">
<g>
	<circle opacity="0.4" fill="#FF0000" enable-background="new    " cx="304.557" cy="174.932" r="33.458"/>
	<rect x="118.745" y="221.228" fill="#3F3D56" width="186.575" height="50.566"/>
	<path fill="#F2F2F2" d="M293.369,95.944l-7.449,3.526l6.594-4.93c-1.072-1.673-2.275-3.257-3.6-4.737l-32.311,8.03L285.789,86.7
		c-1.334-1.177-2.75-2.256-4.238-3.23l-49.232,7.93c-5.227,6.536-8.076,14.655-8.08,23.025h74.107
		C298.342,107.935,296.625,101.56,293.369,95.944z"/>
	<path fill="#F2F2F2" d="M299.27,41.754c-29.613-14.444-62.135-21.928-95.084-21.882c-67.059,0-127.011,30.408-166.833,78.183
		C105.543,83.114,224.267,57.25,299.27,41.754z"/>
	<rect x="1.045" y="322.361" fill="#2F2E41" width="444.643" height="0.872"/>
	<path fill="#3F3D56" d="M260.797,114.425l-25.225-37.469c0,0,38.201,13.337,33.865,37.469H260.797z"/>
	<path fill="#FF0000" d="M261.787,114.425l25.223-37.469c0,0-38.199,13.337-33.863,37.469H261.787z"/>
	<path fill="#2F2E41" d="M305.539,323.233H118.526V44.241h187.013V323.233z M119.398,322.361h185.268V45.113H119.398V322.361z"/>
	<rect x="119.18" y="50.859" fill="#2F2E41" width="186.141" height="0.871"/>
	<circle fill="#FF0000" cx="123.976" cy="47.729" r="1.744"/>
	<circle fill="#FF0000" cx="128.771" cy="47.729" r="1.744"/>
	<circle fill="#FF0000" cx="133.565" cy="47.729" r="1.744"/>
	<rect x="125.72" y="56.883" fill="#FF0000" width="7.846" height="4.36"/>
	<rect x="125.72" y="91.321" fill="#FF0000" width="38.36" height="4.359"/>
	<rect x="262.162" y="56.883" fill="#F2F2F2" width="38.363" height="4.36"/>
	<rect x="125.72" y="98.732" fill="#F2F2F2" width="64.516" height="2.615"/>
	<rect x="125.72" y="104.398" fill="#F2F2F2" width="61.028" height="2.616"/>
	<rect x="125.72" y="110.065" fill="#F2F2F2" width="44.463" height="2.615"/>
	<rect x="140.54" y="187.661" fill="#F2F2F2" width="25.284" height="2.615"/>
	<rect x="140.54" y="193.328" fill="#F2F2F2" width="23.917" height="2.615"/>
	<rect x="140.54" y="198.995" fill="#F2F2F2" width="17.426" height="2.615"/>
	<rect x="199.391" y="187.661" fill="#F2F2F2" width="25.284" height="2.615"/>
	<rect x="199.391" y="193.328" fill="#F2F2F2" width="23.917" height="2.615"/>
	<rect x="199.391" y="198.995" fill="#F2F2F2" width="17.425" height="2.615"/>
	<rect x="260.42" y="187.661" fill="#F2F2F2" width="25.283" height="2.615"/>
	<rect x="260.42" y="193.328" fill="#F2F2F2" width="23.918" height="2.615"/>
	<rect x="260.42" y="198.995" fill="#F2F2F2" width="17.426" height="2.615"/>
	<rect x="179.774" y="286.615" fill="#FF0000" width="38.36" height="4.36"/>
	<rect x="179.774" y="294.026" fill="#F2F2F2" width="64.517" height="2.616"/>
	<rect x="179.774" y="299.693" fill="#F2F2F2" width="61.028" height="2.615"/>
	<rect x="179.774" y="305.36" fill="#F2F2F2" width="44.464" height="2.615"/>
	<rect x="137.271" y="138.401" opacity="0.3" fill="#FF0000" enable-background="new    " width="151.701" height="0.872"/>
	<rect x="137.053" y="153.658" opacity="0.3" fill="#FF0000" enable-background="new    " width="32.26" height="28.772"/>
	<rect x="195.902" y="153.658" fill="#3F3D56" width="32.26" height="28.772"/>
	<rect x="256.932" y="153.658" fill="#3F3D56" width="32.258" height="28.772"/>
	<path fill="#FF0000" d="M207.829,182.309l-0.425-0.008c0.009-0.472,0.275-11.58,4.648-14.65l0.243,0.349
		C208.099,170.946,207.832,182.194,207.829,182.309z"/>
	<circle fill="#FF0000" cx="214.303" cy="165.383" r="2.128"/>
	<path fill="#FF0000" d="M213.872,172.896c-1.107,0.348-2.285,0.398-3.419,0.147c1.47-1.871,3.899-2.704,6.208-2.128
		C215.921,171.809,214.959,172.492,213.872,172.896z"/>
	<path fill="#FF0000" d="M268.859,182.309l-0.426-0.008c0.008-0.472,0.273-11.58,4.646-14.65l0.246,0.349
		C269.129,170.946,268.861,182.194,268.859,182.309z"/>
	<circle fill="#FF0000" cx="275.33" cy="165.383" r="2.128"/>
	<path fill="#FF0000" d="M274.9,172.896c-1.105,0.348-2.285,0.398-3.418,0.147c1.471-1.871,3.9-2.704,6.207-2.128
		C276.951,171.809,275.988,172.492,274.9,172.896z"/>
	<rect x="125.72" y="237.355" fill="#FF0000" width="38.36" height="4.36"/>
	<rect x="125.72" y="244.768" fill="#F2F2F2" width="64.516" height="2.615"/>
	<rect x="125.72" y="250.434" fill="#F2F2F2" width="61.028" height="2.616"/>
	<rect x="125.72" y="256.101" fill="#F2F2F2" width="44.463" height="2.615"/>
	<circle opacity="0.4" fill="#FF0000" enable-background="new    " cx="267.721" cy="243.371" r="13.622"/>
	<circle opacity="0.4" fill="#FF0000" enable-background="new    " cx="242.512" cy="249.876" r="9.555"/>
	<circle fill="#2F2E41" cx="74.062" cy="273.756" r="34.438"/>
	<rect x="58.369" y="300.784" fill="#2F2E41" width="10.462" height="18.743"/>
	<rect x="79.293" y="300.784" fill="#2F2E41" width="10.463" height="18.743"/>
	<ellipse fill="#2F2E41" cx="67.088" cy="319.746" rx="8.718" ry="3.269"/>
	<ellipse fill="#2F2E41" cx="88.012" cy="319.31" rx="8.719" ry="3.27"/>
	<circle fill="#FFFFFF" cx="74.934" cy="265.037" r="11.77"/>
	<circle fill="#3F3D56" cx="74.934" cy="259.807" r="3.923"/>
	<path fill="#FF0000" d="M40.656,241.729c-2.781-12.453,6.107-25.037,19.854-28.106c13.746-3.068,27.143,4.539,29.924,16.993
		c2.78,12.453-6.329,17.045-20.075,20.114C56.613,253.799,43.437,254.183,40.656,241.729z"/>
	
		<ellipse transform="matrix(-0.9069 -0.4213 0.4213 -0.9069 91.6418 491.5436)" fill="#2F2E41" cx="100.12" cy="235.648" rx="5.405" ry="17.219"/>
	
		<ellipse transform="matrix(-0.4678 -0.8838 0.8838 -0.4678 -163.3404 393.8685)" fill="#2F2E41" cx="36.911" cy="246.111" rx="17.22" ry="5.405"/>
	
		<ellipse transform="matrix(-0.3597 -0.9331 0.9331 -0.3597 255.9195 671.9108)" fill="#2F2E41" cx="358.504" cy="248.145" rx="17.218" ry="5.406"/>
	<circle fill="#2F2E41" cx="390.408" cy="274.062" r="34.438"/>
	
		<rect x="395.739" y="301.059" transform="matrix(1 -0.0026 0.0026 1 -0.8101 1.0492)" fill="#2F2E41" width="10.461" height="18.743"/>
	
		<rect x="374.814" y="301.118" transform="matrix(1 -0.0027 0.0027 1 -0.8391 1.0298)" fill="#2F2E41" width="10.463" height="18.743"/>
	
		<ellipse transform="matrix(-0.003 -1 1 -0.003 78.6699 718.5006)" fill="#2F2E41" cx="397.514" cy="320.033" rx="3.269" ry="8.717"/>
	
		<ellipse transform="matrix(-0.0027 -1 1 -0.0027 57.9448 697.1007)" fill="#2F2E41" cx="376.587" cy="319.656" rx="3.269" ry="8.72"/>
	<circle fill="#FFFFFF" cx="389.512" cy="265.345" r="11.77"/>
	<circle fill="#3F3D56" cx="389.512" cy="265.346" r="3.923"/>
	<path fill="#FF0000" d="M423.725,241.941c2.746-12.461-6.178-25.02-19.932-28.05c-13.756-3.031-27.131,4.613-29.877,17.074
		c-2.746,12.462,6.377,17.028,20.131,20.061C407.801,254.057,420.979,254.402,423.725,241.941z"/>
	
		<ellipse transform="matrix(-0.431 -0.9023 0.9023 -0.431 381.347 756.405)" fill="#2F2E41" cx="429.15" cy="257.973" rx="5.406" ry="17.221"/>
	<path fill="#FFFFFF" d="M407.359,286.438c0.01,3.369-8.65,10.051-18.281,10.077s-18.686-9.437-18.695-12.808
		c-0.012-3.371,9.029,0.629,18.66,0.601C398.674,284.282,407.348,283.067,407.359,286.438z"/>
	<circle opacity="0.4" fill="#FF0000" enable-background="new    " cx="400.895" cy="224.191" r="48.059"/>
	<circle fill="#2F2E41" cx="84.048" cy="171.832" r="34.438"/>
	
		<rect x="62.038" y="196.413" transform="matrix(-0.984 -0.1781 0.1781 -0.984 96.8083 420.2622)" fill="#2F2E41" width="10.461" height="18.746"/>
	
		<rect x="82.627" y="200.141" transform="matrix(-0.984 -0.1781 0.1781 -0.984 136.9976 431.3241)" fill="#2F2E41" width="10.462" height="18.744"/>
	
		<ellipse transform="matrix(-0.7631 -0.6463 0.6463 -0.7631 12.2614 446.6019)" fill="#2F2E41" cx="87.983" cy="221.054" rx="8.719" ry="3.27"/>
	
		<ellipse transform="matrix(-0.7631 -0.6462 0.6462 -0.7631 -20.9169 427.1409)" fill="#2F2E41" cx="67.822" cy="217.404" rx="8.718" ry="3.27"/>
	<circle fill="#FFFFFF" cx="86.458" cy="163.407" r="11.77"/>
	<circle fill="#3F3D56" cx="91.295" cy="159.188" r="3.924"/>
	<path fill="#FF0000" d="M56.88,134.367c-0.518-12.75,10.47-23.548,24.543-24.12s25.901,9.3,26.419,22.049
		c0.518,12.75-9.265,15.646-23.338,16.219C70.433,149.085,57.398,147.116,56.88,134.367z"/>
	
		<ellipse transform="matrix(-0.2234 -0.9747 0.9747 -0.2234 -19.6447 315.463)" fill="#2F2E41" cx="115.845" cy="165.557" rx="5.405" ry="17.22"/>
	
		<ellipse transform="matrix(-0.2234 -0.9747 0.9747 -0.2234 -113.3081 263.3183)" fill="#2F2E41" cx="48.246" cy="176.798" rx="5.406" ry="17.218"/>
	<path fill="#FFFFFF" d="M74.588,185.402c-0.77,4.267,2.062,8.347,6.327,9.118c4.263,0.769,8.343-2.06,9.116-6.322
		c0.771-4.264-2.525-5.772-6.79-6.545C78.978,180.882,75.361,181.14,74.588,185.402z"/>
	
		<rect x="129.425" y="138.618" transform="matrix(-0.9579 -0.2872 0.2872 -0.9579 241.0406 341.3613)" fill="#3F3D56" width="32.258" height="28.772"/>
	<path fill="#FF0000" d="M137.432,165.461l-0.405-0.131c0.145-0.449,3.588-11.01,8.658-12.696l0.135,0.404
		C140.953,154.655,137.466,165.354,137.432,165.461z"/>
	<circle fill="#FF0000" cx="148.492" cy="151.108" r="2.128"/>
	<path fill="#FF0000" d="M145.922,158.181c-1.159,0.016-2.303-0.274-3.317-0.84c1.946-1.369,4.513-1.471,6.559-0.257
		C148.198,157.727,147.08,158.105,145.922,158.181z"/>
</g>
</svg>
