<?xml version="1.0" encoding="utf-8"?>
<!-- Generator: Adobe Illustrator 16.0.4, SVG Export Plug-In . SVG Version: 6.00 Build 0)  -->
<!DOCTYPE svg PUBLIC "-//W3C//DTD SVG 1.1//EN" "http://www.w3.org/Graphics/SVG/1.1/DTD/svg11.dtd">
<svg version="1.1" id="Layer_1" xmlns="http://www.w3.org/2000/svg" xmlns:xlink="http://www.w3.org/1999/xlink" x="0px" y="0px"
	 width="450px" height="343.174px" viewBox="0 0 450 343.174" enable-background="new 0 0 450 343.174" xml:space="preserve">
<g>
	<rect x="32.967" y="48.87" fill="#FF0000" width="90.083" height="73.132"/>
	<rect x="32.967" y="144.281" fill="#F2F2F2" width="249.426" height="7.749"/>
	<rect x="26.67" y="44.51" fill="none" stroke="#3F3D56" stroke-miterlimit="10" width="90.084" height="73.134"/>
	<rect x="158.89" y="68.969" fill="#F2F2F2" width="87.178" height="7.749"/>
	<rect x="158.89" y="89.794" fill="#F2F2F2" width="123.502" height="7.75"/>
	<rect x="152.594" y="64.61" fill="none" stroke="#3F3D56" stroke-miterlimit="10" width="87.177" height="7.749"/>
	<rect x="152.594" y="85.436" fill="none" stroke="#3F3D56" stroke-miterlimit="10" width="123.502" height="7.749"/>
	<rect x="26.67" y="139.922" fill="none" stroke="#3F3D56" stroke-miterlimit="10" width="249.426" height="7.749"/>
	<rect x="32.967" y="168.497" fill="#F2F2F2" width="249.426" height="7.75"/>
	<rect x="26.67" y="164.138" fill="none" stroke="#3F3D56" stroke-miterlimit="10" width="249.426" height="7.749"/>
	<rect x="32.967" y="192.713" fill="#F2F2F2" width="249.426" height="7.75"/>
	<rect x="26.67" y="188.354" fill="none" stroke="#3F3D56" stroke-miterlimit="10" width="249.426" height="7.749"/>
	<rect x="32.967" y="216.93" fill="#F2F2F2" width="249.426" height="7.749"/>
	<rect x="26.67" y="212.57" fill="none" stroke="#3F3D56" stroke-miterlimit="10" width="249.426" height="7.75"/>
	<rect x="32.967" y="241.146" fill="#F2F2F2" width="249.426" height="7.749"/>
	<rect x="26.67" y="236.787" fill="none" stroke="#3F3D56" stroke-miterlimit="10" width="249.426" height="7.749"/>
	<rect x="32.967" y="265.361" fill="#F2F2F2" width="249.426" height="7.749"/>
	<rect x="26.67" y="261.003" fill="none" stroke="#3F3D56" stroke-miterlimit="10" width="249.426" height="7.749"/>
	<rect x="12.383" y="1.89" fill="none" stroke="#3F3D56" stroke-miterlimit="10" width="284.297" height="313.841"/>
	<path fill="#57B894" d="M405.342,281.949c5.122,1.862,10.786-0.78,12.649-5.905c1.862-5.123-0.781-10.787-5.905-12.649
		c-1.738-0.633-3.621-0.764-5.43-0.377l0.246,5.08l-2.404-4.354c-2.359,1.108-4.181,3.108-5.067,5.56
		c-0.313,0.859-0.505,1.758-0.566,2.67C398.552,276.372,401.196,280.444,405.342,281.949z"/>
	<path fill="none" stroke="#3F3D56" stroke-miterlimit="10" d="M417.235,340.879c-0.849-4.32,2.829-8.151,6.461-10.642
		s7.875-4.937,9.115-9.162c1.78-6.073-3.524-11.635-7.654-16.431c-3.062-3.56-5.694-7.47-7.837-11.647
		c-0.932-1.642-1.565-3.435-1.874-5.297c-0.325-2.692,0.538-5.37,1.411-7.938c2.901-8.554,6.005-17.036,9.309-25.446"/>
	<path fill="none" stroke="#3F3D56" stroke-miterlimit="10" d="M405.747,280.641c5.124,1.863,10.788-0.78,12.651-5.904
		c1.861-5.124-0.782-10.787-5.906-12.649c-1.738-0.633-3.62-0.764-5.43-0.378l0.247,5.08l-2.403-4.354
		c-2.36,1.109-4.183,3.108-5.068,5.561c-0.314,0.859-0.506,1.757-0.567,2.67C398.958,275.064,401.603,279.137,405.747,280.641z"/>
	<path fill="#57B894" d="M416.028,252.561c1.146-3.162,3.824-5.521,7.105-6.261l0.813,4.831l1.506-5.072
		c5.45,0.08,9.805,4.563,9.724,10.016c-0.081,5.45-4.565,9.803-10.016,9.722c-5.45-0.08-9.805-4.565-9.724-10.016
		C415.454,254.682,415.654,253.594,416.028,252.561L416.028,252.561z"/>
	<path fill="none" stroke="#3F3D56" stroke-miterlimit="10" d="M416.57,250.816c1.146-3.161,3.825-5.521,7.105-6.261l0.812,4.831
		l1.508-5.072c5.45,0.079,9.804,4.564,9.723,10.015c-0.081,5.451-4.565,9.804-10.016,9.723c-5.451-0.08-9.804-4.564-9.723-10.016
		C415.997,252.938,416.196,251.85,416.57,250.816z"/>
	<path fill="#57B894" d="M423.425,304.743c5.125,1.857,10.785-0.789,12.646-5.914c1.566-4.319-0.055-9.147-3.909-11.647
		l-1.158,3.898l-0.82-4.887c-0.008-0.004-0.017-0.007-0.025-0.01c-5.123-1.865-10.787,0.776-12.652,5.898
		c-1.864,5.123,0.776,10.787,5.898,12.652C423.411,304.737,423.418,304.739,423.425,304.743L423.425,304.743z"/>
	<path fill="none" stroke="#3F3D56" stroke-miterlimit="10" d="M423.895,302.975c5.125,1.859,10.785-0.787,12.645-5.912
		c1.566-4.319-0.054-9.147-3.907-11.647l-1.159,3.899l-0.82-4.888c-0.008-0.004-0.017-0.007-0.025-0.01
		c-5.123-1.861-10.786,0.783-12.648,5.906c-1.862,5.124,0.782,10.786,5.905,12.649C423.889,302.973,423.891,302.975,423.895,302.975
		L423.895,302.975z"/>
	<path fill="#57B894" d="M413.148,321.136c0.943,5.366,6.059,8.952,11.425,8.01c5.366-0.943,8.953-6.059,8.009-11.426
		c-0.942-5.367-6.059-8.953-11.424-8.009c-2.427,0.426-4.604,1.744-6.107,3.695l4.398,6.619l-6.011-3.514
		C412.974,318.008,412.874,319.594,413.148,321.136z"/>
	<path fill="none" stroke="#3F3D56" stroke-miterlimit="10" d="M413.555,319.827c0.943,5.367,6.059,8.953,11.426,8.011
		c5.365-0.944,8.952-6.059,8.009-11.426c-0.942-5.367-6.058-8.953-11.425-8.011c-2.426,0.428-4.604,1.745-6.107,3.695l4.398,6.621
		l-6.01-3.515C413.38,316.7,413.28,318.284,413.555,319.827z"/>
	<path fill="#A0616A" d="M296.923,115.463c0,0,6.054,12.835,5.085,16.709c-0.567,2.355-0.312,4.834,0.727,7.023l11.139-0.485
		l10.414-9.929c0,0-15.741-10.897-14.772-16.224C310.483,107.23,296.923,115.463,296.923,115.463z"/>
	<path fill="#FF0000" d="M325.012,135.806l4.844,30.027c0,0,0,27.123-1.452,27.606c-1.453,0.485-7.75,0-7.75,0v-30.513l1.938-26.638
		L325.012,135.806z"/>
	<path opacity="0.1" enable-background="new    " d="M325.012,135.806l4.844,30.027c0,0,0,27.123-1.452,27.606
		c-1.453,0.485-7.75,0-7.75,0v-30.513l1.938-26.638L325.012,135.806z"/>
	<polygon fill="#A0616A" points="354.072,312.1 357.946,327.113 363.758,322.754 369.086,310.646 362.305,302.412 	"/>
	<path fill="#3F3D56" d="M369.086,308.708c0,0-6.296,4.844-6.296,9.687c0,0-3.391,5.328-7.266,4.844v10.17
		c0,0-12.107,6.297-2.905,7.75c9.202,1.452,15.982-10.171,15.982-10.171s8.719-14.046,7.265-15.982
		C374.413,313.067,369.086,308.708,369.086,308.708z"/>
	<path fill="#3F3D56" d="M324.977,191.15c0,0,9.238,10.039,4.879,25.536c0,0-4.844,34.871,10.655,47.948
		s25.669,41.652,25.669,41.652l-11.624,10.654c0,0-12.592-28.574-25.669-39.714c-13.076-11.14-14.528-23.731-14.528-23.731v-44.073
		l-2.422-18.405L324.977,191.15z"/>
	<path opacity="0.1" enable-background="new    " d="M324.977,191.15c0,0,9.238,10.039,4.879,25.536c0,0-4.844,34.871,10.655,47.948
		s25.669,41.652,25.669,41.652l-11.624,10.654c0,0-12.592-28.574-25.669-39.714c-13.076-11.14-14.528-23.731-14.528-23.731v-44.073
		l-2.422-18.405L324.977,191.15z"/>
	<polygon fill="#A0616A" points="312.904,323.238 308.062,328.565 309.998,332.925 315.811,334.862 325.981,330.987 
		324.528,325.175 	"/>
	<path fill="#3F3D56" d="M327.434,328.565c0,0-11.623,5.812-14.529,3.39c-1.697-1.355-2.748-3.361-2.897-5.529
		c0,0-5.82,0.688-9.694,3.109c-3.875,2.42-6.781,5.327-11.623,5.327c-4.844,0-2.907,5.812,6.295,6.296s32.449-0.484,32.449-2.906
		V328.565z"/>
	<path fill="#3F3D56" d="M294.501,197.314c0,0-6.297,28.091,4.842,60.056c0,0,5.328,17.92,7.75,23.248
		c2.422,5.327,4.844,43.104,3.875,44.557c0,0,7.749,6.297,14.529,1.938c0,0-0.485-22.279,0.484-24.217
		c0.969-1.938,1.938-18.888-3.875-32.934c-5.812-14.045-0.968-47.947-0.968-47.947s11.623-17.436,2.905-27.607L294.501,197.314z"/>
	<circle fill="#A0616A" cx="301.765" cy="105.292" r="13.561"/>
	<path fill="#FF0000" d="M326.95,193.925c0,0-3.875,5.812-6.78,2.905c-2.05-2.049-15.165,2.402-22.729,5.207
		c-3.167,1.172-5.361,2.058-5.361,2.058s-0.209-6.712-0.824-15.212c-0.706-9.755-1.946-21.874-4.02-28.861
		c-3.875-13.077,5.812-18.404,5.812-18.404s8.233-9.687,7.748-11.14c-0.483-1.452,21.796-8.717,21.796-8.717
		c2.42,0.483,4.358,22.279,4.358,22.279s-4.358,17.436-6.78,28.091C317.748,182.784,326.95,193.925,326.95,193.925z"/>
	<path fill="#A0616A" d="M285.299,194.408c0,0-10.656,10.655-15.983,13.562c-5.327,2.905-8.233,12.592-3.874,14.529
		c4.358,1.938,14.045-10.654,14.045-10.654l14.045-11.625L285.299,194.408z"/>
	<path fill="#3F3D56" d="M287.312,97.194c-1.239,0.11-1.948,1.669-1.548,2.848c0.399,1.177,1.549,1.947,2.723,2.359
		s2.429,0.553,3.604,0.961c1.168,0.427,2.253,1.057,3.203,1.859c3.349,2.742,5.33,6.919,5.961,11.2
		c0.631,4.281,0.003,8.668-1.188,12.828c-0.631,2.204-1.66,4.619-3.814,5.402c2.355-0.583,4.656-1.363,6.878-2.333
		c1.63-0.768,3.158-1.739,4.805-2.467c2.438-0.995,4.995-1.665,7.606-1.995c1.833-0.285,3.771-0.503,5.493,0.188
		c1.057,0.492,2.028,1.146,2.879,1.941l5.539,4.653c0.096-2.022,0.159-4.047,0.189-6.072c0.027-1.761,0.021-3.572-0.628-5.208
		c-0.641-1.617-1.856-2.934-2.67-4.47c-2.015-3.801-1.358-8.378-1.321-12.679c0.039-4.454-0.677-8.992-2.739-12.938
		c-2.062-3.948-5.582-7.253-9.875-8.436c-5.787-1.593-11.889,0.778-17.208,3.56c-1.251,0.595-2.418,1.354-3.47,2.258
		c-1.117,1.142-2.067,2.437-2.82,3.847l-2.634,4.413"/>
	<path opacity="0.1" enable-background="new    " d="M321.622,148.881c0,0-9.202,34.873-10.171,37.293
		c-0.697,1.739-8.901,10.989-14.011,15.862c-3.167,1.172-5.361,2.058-5.361,2.058s-0.209-6.712-0.824-15.212
		c3.943-4.374,8.088-8.519,8.088-8.519s4.36-26.64,3.875-36.81c-0.483-10.17,9.687-12.592,9.687-12.592
		C324.528,132.416,321.622,148.881,321.622,148.881z"/>
	<path fill="#FF0000" d="M311.451,129.025c0,0-10.17,2.42-9.687,12.592c0.485,10.17-3.874,36.809-3.874,36.809
		s-16.467,16.467-15.014,18.404c1.452,1.938,7.679,5.746,9.167,6.264c1.487,0.518,16.986-16.435,17.954-18.856
		c0.97-2.421,10.172-37.293,10.172-37.293S323.075,130.478,311.451,129.025z"/>
	<line fill="none" stroke="#3F3D56" stroke-miterlimit="10" x1="258.902" y1="340.916" x2="437.617" y2="340.916"/>
</g>
</svg>
