<?xml version="1.0" encoding="utf-8"?>
<!-- Generator: Adobe Illustrator 16.0.4, SVG Export Plug-In . SVG Version: 6.00 Build 0)  -->
<!DOCTYPE svg PUBLIC "-//W3C//DTD SVG 1.1//EN" "http://www.w3.org/Graphics/SVG/1.1/DTD/svg11.dtd">
<svg version="1.1" id="Layer_1" xmlns="http://www.w3.org/2000/svg" xmlns:xlink="http://www.w3.org/1999/xlink" x="0px" y="0px"
	 width="450px" height="343.174px" viewBox="0 0 450 343.174" enable-background="new 0 0 450 343.174" xml:space="preserve">
<g>
	<path fill="#605D82" d="M216.443,327.28h-3.153c-1.443,0-2.613-1.169-2.613-2.613v-8.918h5.766l2.317,8.496
		c0.349,1.281-0.406,2.603-1.686,2.951C216.869,327.251,216.657,327.28,216.443,327.28L216.443,327.28z"/>
	<path fill="#F2F2F2" d="M49.614,113.159h274.488c3.829,0,6.933,3.104,6.933,6.932v127.661c0,3.828-3.104,6.931-6.933,6.931H49.614
		c-3.828,0-6.932-3.103-6.932-6.931V120.091C42.683,116.263,45.786,113.159,49.614,113.159z"/>
	<path fill="none" stroke="#3F3D56" stroke-miterlimit="10" d="M9.47,15.14h406.145c3.949,0,7.148,3.2,7.148,7.148v259.842
		c0,3.947-3.199,7.147-7.148,7.147H9.47c-3.947,0-7.148-3.2-7.148-7.147V22.289C2.322,18.34,5.523,15.14,9.47,15.14z"/>
	<line fill="none" stroke="#3F3D56" stroke-miterlimit="10" x1="1.012" y1="34.293" x2="421.453" y2="34.293"/>
	<line fill="none" stroke="#3F3D56" stroke-miterlimit="10" x1="1.012" y1="67.557" x2="421.453" y2="67.557"/>
	<circle fill="#F86B75" cx="13.854" cy="26.672" r="5.242"/>
	<circle fill="#FAD375" cx="30.103" cy="26.672" r="5.242"/>
	<circle fill="#8BCC55" cx="46.352" cy="26.672" r="5.242"/>
	<circle fill="none" stroke="#3F3D56" stroke-miterlimit="10" cx="15.426" cy="24.575" r="5.242"/>
	<circle fill="none" stroke="#3F3D56" stroke-miterlimit="10" cx="31.676" cy="24.575" r="5.242"/>
	<circle fill="none" stroke="#3F3D56" stroke-miterlimit="10" cx="47.925" cy="24.575" r="5.242"/>
	<circle fill="#F2F2F2" cx="118.949" cy="53.666" r="10.483"/>
	<circle fill="none" stroke="#3F3D56" stroke-miterlimit="10" cx="121.57" cy="51.045" r="10.483"/>
	<path fill="#FF0000" d="M196.724,48.163h46.208c1.571,0,2.843,1.273,2.843,2.842v8.467c0,1.57-1.271,2.843-2.843,2.843h-46.208
		c-1.569,0-2.842-1.273-2.842-2.843v-8.467C193.882,49.436,195.155,48.163,196.724,48.163z"/>
	<path fill="#FF0000" d="M258.659,48.163h46.207c1.57,0,2.844,1.273,2.844,2.842v8.467c0,1.57-1.273,2.843-2.844,2.843h-46.207
		c-1.568,0-2.842-1.273-2.842-2.843v-8.467C255.817,49.436,257.091,48.163,258.659,48.163z"/>
	<path fill="none" stroke="#3F3D56" stroke-miterlimit="10" d="M199.765,43.969h47.465c1.222,0,2.214,0.991,2.214,2.213v9.726
		c0,1.223-0.992,2.214-2.214,2.214h-47.465c-1.223,0-2.214-0.991-2.214-2.214v-9.726C197.551,44.96,198.542,43.969,199.765,43.969z"
		/>
	<path fill="none" stroke="#3F3D56" stroke-miterlimit="10" d="M261.7,43.969h47.466c1.222,0,2.212,0.991,2.212,2.213v9.726
		c0,1.223-0.99,2.214-2.212,2.214H261.7c-1.223,0-2.214-0.991-2.214-2.214v-9.726C259.486,44.96,260.478,43.969,261.7,43.969z"/>
	<path fill="none" stroke="#3F3D56" stroke-miterlimit="10" d="M69.941,101.627h271.575c4.632,0,8.388,3.756,8.388,8.389v124.748
		c0,4.633-3.756,8.388-8.388,8.388H69.941c-4.633,0-8.389-3.755-8.389-8.388V110.016C61.553,105.383,65.309,101.627,69.941,101.627z
		"/>
	<path fill="none" stroke="#3F3D56" stroke-miterlimit="10" d="M237.883,206.246c17.396-9.334,23.932-31.005,14.598-48.4
		c-9.335-17.396-31.004-23.932-48.4-14.597c-2.664,1.429-5.135,3.19-7.356,5.242 M213.822,164.748v-6.086l21.449,16.086
		l-4.938,3.407"/>
	<path fill="#FF0000" d="M215.73,142.669c-19.743,0-35.748,16.005-35.748,35.748c0,19.744,16.005,35.749,35.748,35.749
		c19.744,0,35.749-16.005,35.749-35.749l0,0C251.47,158.678,235.47,142.678,215.73,142.669z M208.581,194.505v-32.174l21.449,16.086
		L208.581,194.505z"/>
	<path fill="#46455B" d="M201.819,240.639c0,0-6.421,22.332-6.7,32.103c-0.279,9.771-1.396,25.403-0.559,29.312
		c0.837,3.909,3.35,11.726,3.35,11.726s5.304-6.422,7.258-2.792c0,0-0.279-7.538-1.675-9.771c0,0,0.558-11.725,0.558-15.912
		s6.979-23.449,7.538-23.728c0.559-0.279,2.233,5.304,0.837,17.586c-1.396,12.284-2.512,33.784-2.512,36.018s3.35,6.7,5.583,5.305
		c2.233-1.396,3.629-13.406,3.629-13.406s1.954-25.124,3.071-27.916c1.116-2.79,6.979-34.895,2.512-37.407
		C220.243,239.242,201.819,240.639,201.819,240.639z"/>
	<path fill="#605D82" d="M206.564,313.219c-0.278,1.116-1.395,6.422-1.395,8.096c0,1.675,1.117,4.745-3.629,5.862
		c-4.623,1.089-3.947-1.798-4.684-3.495c-0.02-0.044-0.039-0.089-0.062-0.135c-0.837-1.674,1.117-10.328,1.396-10.328
		c0.165,0,1.485-2.216,2.546-4.045c0.812-1.424,2.625-1.92,4.048-1.108c0.202,0.114,0.39,0.252,0.56,0.411
		c0.89,0.863,1.391,2.051,1.386,3.291C206.738,312.256,206.682,312.744,206.564,313.219z"/>
	<path opacity="0.1" enable-background="new    " d="M206.564,313.219c-0.278,1.116-1.395,6.422-1.395,8.096
		c0,1.675,1.117,4.745-3.629,5.862c-4.623,1.089-3.947-1.798-4.684-3.495c0.801-2.082,2.747-6.558,4.126-10.463
		c1.217-3.45,4.209-2.325,5.747-1.451C206.738,312.256,206.682,312.744,206.564,313.219z"/>
	<circle fill="#FBBEBE" cx="214.66" cy="191.506" r="5.863"/>
	<path fill="#FBBEBE" d="M209.915,192.623l-0.837,9.212l10.05,1.675c0,0-1.117-8.095-0.28-9.77
		C219.685,192.065,209.915,192.623,209.915,192.623z"/>
	<path fill="#605D82" d="M217.731,199.882c0,0-8.375-0.838-8.933,0c-0.365,0.688-0.556,1.453-0.559,2.232
		c0,0-3.35,1.396-3.908,0.837c-0.559-0.558-1.117-2.232-2.792-1.674c-1.675,0.558-5.024,10.607-5.024,10.607
		s0.837-3.071,2.232,8.654c1.396,11.725,1.117,18.982,1.396,19.82s-1.396,5.862,8.654,5.862c10.049,0,17.308-0.559,17.308-2.513
		c0-1.955-1.675-10.329,0-16.471c1.675-6.141,4.188-14.516,4.188-14.516l-3.35-10.888c0,0-3.351-0.838-4.188,0.559
		c-0.837,1.396-3.071,1.116-3.071,1.116S219.405,200.16,217.731,199.882z"/>
	<path fill="#605D82" d="M201.819,201.835l-6.979-3.07c0,0-13.121-10.051-12.562-18.982c0,0-4.466-4.188-4.746,0.278
		c-0.279,4.467,1.116,14.518,4.467,17.866c3.35,3.351,14.794,13.958,16.47,14.237C200.144,212.443,201.819,201.835,201.819,201.835z
		"/>
	<path fill="#FBBEBE" d="M178.09,180.619c0,0-5.304-14.516-0.558-13.958c4.746,0.558,3.628,6.699,3.628,6.699v7.259H178.09z"/>
	<path fill="#605D82" d="M225.826,202.394l6.979-3.071c0,0,13.121-10.049,12.562-18.982c0,0,4.467-4.188,4.745,0.279
		c0.28,4.467-1.116,14.517-4.466,17.866s-14.795,13.958-16.47,14.237C227.501,213.002,225.826,202.394,225.826,202.394z"/>
	<path fill="#FBBEBE" d="M249.555,181.177c0,0,5.305-14.516,0.558-13.958c-4.745,0.559-3.628,6.701-3.628,6.701v7.257H249.555z"/>
	<path fill="#46455B" d="M219.127,184.527l0.837-0.558c0,0-5.304-3.071-7.538-1.396c-2.233,1.674-2.791,3.069-3.349,3.628
		c-0.559,0.559-1.954,3.629-1.116,4.746c0.837,1.117,0.558,1.345,1.116,2.348c0.558,1.002-0.976,5.033,3.281,6.229
		c4.257,1.194,7.606-3.831,8.165-4.946C221.081,193.46,223.035,185.923,219.127,184.527z"/>
	<path fill="#46455B" d="M349.729,263.432c0,30.906,19.388,55.913,43.347,55.913"/>
	<path fill="#FF0000" d="M393.075,319.345c0-31.253,21.638-56.541,48.376-56.541"/>
	<path fill="#FF0000" d="M365.434,266.234c0,29.356,12.363,53.11,27.642,53.11"/>
	<path fill="#46455B" d="M393.075,319.345c0-39.933,25.009-72.246,55.913-72.246"/>
	<path fill="#A8A8A8" d="M383.957,319.739c0,0,6.146-0.19,8.001-1.508c1.853-1.32,9.455-2.896,9.915-0.779
		c0.46,2.116,9.239,10.523,2.299,10.58c-6.942,0.055-16.128-1.082-17.977-2.208C384.347,324.697,383.957,319.739,383.957,319.739z"
		/>
	<path opacity="0.2" enable-background="new    " d="M404.295,327.295c-6.94,0.056-16.127-1.082-17.976-2.208
		c-1.407-0.857-1.97-3.935-2.157-5.355c-0.13,0.006-0.205,0.008-0.205,0.008s0.39,4.958,2.238,6.085
		c1.849,1.126,11.034,2.263,17.977,2.208c2.003-0.017,2.694-0.729,2.656-1.786C406.551,326.884,405.786,327.282,404.295,327.295z"/>
	<line fill="none" stroke="#3F3D56" stroke-miterlimit="10" x1="145.157" y1="327.28" x2="245.439" y2="327.28"/>
	<line fill="none" stroke="#3F3D56" stroke-miterlimit="10" x1="376.841" y1="327.53" x2="415.628" y2="327.53"/>
</g>
</svg>
