<?xml version="1.0" encoding="utf-8"?>
<!-- Generator: Adobe Illustrator 16.0.4, SVG Export Plug-In . SVG Version: 6.00 Build 0)  -->
<!DOCTYPE svg PUBLIC "-//W3C//DTD SVG 1.1//EN" "http://www.w3.org/Graphics/SVG/1.1/DTD/svg11.dtd">
<svg version="1.1" id="Layer_1" xmlns="http://www.w3.org/2000/svg" xmlns:xlink="http://www.w3.org/1999/xlink" x="0px" y="0px"
	 width="450px" height="343.174px" viewBox="0 0 450 343.174" enable-background="new 0 0 450 343.174" xml:space="preserve">
<path opacity="0.1" fill="#FF0000" enable-background="new    " d="M256.357,62.748c-27.562-1.01-53.809-10.387-78.874-20.649
	c-25.065-10.261-49.904-21.632-76.795-27.068c-17.302-3.497-37.086-3.991-51.028,5.787c-13.414,9.427-17.748,25.654-20.082,40.728
	c-1.75,11.339-2.781,23.271,2.022,33.887c3.334,7.371,9.257,13.565,13.354,20.627c14.248,24.563,4.177,54.854-11.268,78.84
	c-7.24,11.253-15.646,21.996-21.236,33.964c-5.591,11.967-8.176,25.698-3.288,37.917c4.851,12.122,16.403,21.207,28.919,27.604
	c25.413,12.995,55.358,16.713,84.574,18.817c64.651,4.665,129.65,2.645,194.471,0.623c23.991-0.749,48.091-1.507,71.688-5.417
	c13.104-2.173,26.637-5.616,36.148-13.939c12.077-10.562,15.073-28.451,6.979-41.691c-13.575-22.218-51.1-27.733-60.599-51.579
	c-5.226-13.122,0.141-27.737,7.729-39.912c16.284-26.108,43.574-49.015,45.017-78.857c0.984-20.501-12.133-41.024-32.421-50.726
	c-21.266-10.163-50.75-8.888-66.43,7.941C309.074,56.971,280.689,63.636,256.357,62.748z"/>
<g id="abffebd3-2ac6-4c6b-a0d4-e62621854ed7" opacity="0.6">
	<path fill="none" stroke="#535461" stroke-width="2" stroke-miterlimit="10" d="M110.01,123.769c0,0-11.706-20.734-29.332-26.708
		c-7.401-2.465-13.805-7.26-18.251-13.669c-2.09-3.061-3.894-6.307-5.391-9.697"/>
	<path fill="#FF0000" d="M45.931,69.862c2.005,1.95,11.361,3.965,11.361,3.965s-2.295-9.288-4.305-11.238
		c-1.978-1.98-5.186-1.984-7.167-0.008c-1.982,1.978-1.985,5.186-0.008,7.167C45.851,69.787,45.891,69.825,45.931,69.862
		L45.931,69.862z"/>
	<path fill="#FF0000" d="M51.22,86.683c2.746,0.544,11.693-2.85,11.693-2.85s-6.975-6.549-9.722-7.094
		c-2.746-0.544-5.413,1.24-5.958,3.986C46.689,83.471,48.473,86.138,51.22,86.683L51.22,86.683z"/>
	<path fill="#FF0000" d="M70.488,104.861c2.645-0.915,8.658-8.359,8.658-8.359s-9.33-2.129-11.975-1.218
		c-2.644,0.917-4.046,3.803-3.129,6.448C64.957,104.376,67.844,105.778,70.488,104.861L70.488,104.861L70.488,104.861z"/>
	<path fill="#FF0000" d="M88.165,115.346c2.764-0.455,9.947-6.779,9.947-6.779s-8.832-3.679-11.595-3.224
		c-2.763,0.455-4.633,3.063-4.178,5.825C82.795,113.931,85.402,115.801,88.165,115.346L88.165,115.346L88.165,115.346z"/>
	<path fill="#FF0000" d="M70.714,76.565c0,2.802-5.062,10.918-5.062,10.918s-5.072-8.091-5.072-10.914
		c0-2.798,2.269-5.068,5.068-5.068c2.798,0,5.067,2.27,5.067,5.068V76.565z"/>
	<path fill="#FF0000" d="M91.235,89.084c-0.852,2.674-8.091,8.904-8.091,8.904s-2.41-9.263-1.575-11.924
		c0.836-2.672,3.679-4.159,6.351-3.324c2.672,0.836,4.16,3.68,3.324,6.352l0,0L91.235,89.084z"/>
	<path fill="#FF0000" d="M109.507,103.988c-0.37,2.777-6.476,10.148-6.476,10.148s-3.943-8.721-3.569-11.498
		c0.373-2.774,2.924-4.72,5.698-4.348C107.934,98.664,109.88,101.214,109.507,103.988z"/>
	<path opacity="0.25" enable-background="new    " d="M45.931,69.862c2.005,1.95,11.361,3.965,11.361,3.965
		s-2.295-9.288-4.305-11.238c-1.978-1.98-5.186-1.984-7.167-0.008c-1.982,1.978-1.985,5.186-0.008,7.167
		C45.851,69.787,45.891,69.825,45.931,69.862L45.931,69.862z"/>
	<path opacity="0.25" enable-background="new    " d="M51.22,86.683c2.746,0.544,11.693-2.85,11.693-2.85s-6.975-6.549-9.722-7.094
		c-2.746-0.544-5.413,1.24-5.958,3.986C46.689,83.471,48.473,86.138,51.22,86.683L51.22,86.683z"/>
	<path opacity="0.25" enable-background="new    " d="M70.488,104.861c2.645-0.915,8.658-8.359,8.658-8.359
		s-9.33-2.129-11.975-1.218c-2.644,0.917-4.046,3.803-3.129,6.448C64.957,104.376,67.844,105.778,70.488,104.861L70.488,104.861
		L70.488,104.861z"/>
	<path opacity="0.25" enable-background="new    " d="M88.165,115.346c2.764-0.455,9.947-6.779,9.947-6.779
		s-8.832-3.679-11.595-3.224c-2.763,0.455-4.633,3.063-4.178,5.825C82.795,113.931,85.402,115.801,88.165,115.346L88.165,115.346
		L88.165,115.346z"/>
	<path opacity="0.25" enable-background="new    " d="M70.714,76.565c0,2.802-5.062,10.918-5.062,10.918s-5.072-8.091-5.072-10.914
		c0-2.798,2.269-5.068,5.068-5.068c2.798,0,5.067,2.27,5.067,5.068V76.565z"/>
	<path opacity="0.25" enable-background="new    " d="M91.235,89.084c-0.852,2.674-8.091,8.904-8.091,8.904
		s-2.41-9.263-1.575-11.924c0.836-2.672,3.679-4.159,6.351-3.324c2.672,0.836,4.16,3.68,3.324,6.352l0,0L91.235,89.084z"/>
	<path opacity="0.25" enable-background="new    " d="M109.507,103.988c-0.37,2.777-6.476,10.148-6.476,10.148
		s-3.943-8.721-3.569-11.498c0.373-2.774,2.924-4.72,5.698-4.348C107.934,98.664,109.88,101.214,109.507,103.988z"/>
	<path fill="none" stroke="#535461" stroke-width="2" stroke-miterlimit="10" d="M109.337,123.36c0,0-2.3-23.702-15.995-36.307
		c-5.775-5.251-9.693-12.233-11.166-19.899c-0.675-3.644-1.014-7.343-1.013-11.05"/>
	<path fill="#FF0000" d="M72.597,48.106c1.047,2.598,8.781,8.232,8.781,8.232s1.668-9.424,0.622-12.022
		c-1.046-2.596-4-3.852-6.596-2.806C72.807,42.556,71.549,45.51,72.597,48.106L72.597,48.106L72.597,48.106z"/>
	<path fill="#FF0000" d="M70.625,65.621c2.287,1.609,11.842,2.129,11.842,2.129s-3.721-8.815-6.013-10.425
		c-2.289-1.61-5.451-1.059-7.061,1.231s-1.059,5.451,1.231,7.061V65.621z"/>
	<path fill="#FF0000" d="M80.866,90.06c2.79,0.234,11.306-4.14,11.306-4.14s-7.665-5.727-10.454-5.961
		c-2.79-0.235-5.241,1.835-5.477,4.625C76.006,87.373,78.077,89.825,80.866,90.06L80.866,90.06z"/>
	<path fill="#FF0000" d="M92.781,106.803c2.712,0.703,11.842-2.167,11.842-2.167s-6.587-6.941-9.296-7.665
		c-2.669-0.843-5.515,0.639-6.357,3.307c-0.842,2.669,0.639,5.516,3.307,6.357c0.163,0.051,0.329,0.095,0.495,0.129L92.781,106.803z
		"/>
	<path fill="#FF0000" d="M92.543,64.279c-1.133,2.555-9.054,7.93-9.054,7.93s-1.35-9.471-0.217-12.031
		c1.132-2.56,4.125-3.716,6.685-2.584C92.518,58.726,93.675,61.72,92.543,64.279L92.543,64.279z"/>
	<path fill="#FF0000" d="M106.229,84.042c-1.848,2.1-11.012,4.854-11.012,4.854s1.545-9.441,3.406-11.544
		c1.847-2.104,5.05-2.312,7.154-0.465s2.311,5.05,0.465,7.154l0,0H106.229z"/>
	<path fill="#FF0000" d="M116.892,105.07c-1.465,2.385-10.028,6.651-10.028,6.651s-0.073-9.568,1.392-11.958
		c1.465-2.385,4.586-3.13,6.971-1.665C117.611,99.565,118.356,102.686,116.892,105.07z"/>
</g>
<path fill="#FFFFFF" stroke="#33313F" stroke-width="3" stroke-miterlimit="10" d="M72.119,177.063"/>
<g>
	<path fill="#FFFFFF" stroke="#33313F" stroke-width="3" stroke-miterlimit="10" d="M62.75,89.766c0,0,62.599,2.555,71.115,0
		c0,0-4.684,104.756-2.98,108.163c0,0-69.411,3.832-74.521,0C51.253,194.096,62.75,89.766,62.75,89.766z"/>
	<path fill="#FFFFFF" stroke="#33313F" stroke-width="3" stroke-miterlimit="10" d="M72.119,109.354c0,0,28.957,45.99,38.751,50.249
		"/>
	<path fill="#FFFFFF" stroke="#33313F" stroke-width="3" stroke-miterlimit="10" d="M110.87,109.354
		c0,0-27.679,36.196-31.938,48.545"/>
	<path fill="#FFFFFF" stroke="#33313F" stroke-width="3" stroke-miterlimit="10" d="M108.315,177.063H74.675
		c-2.556,0-2.556,11.922-2.556,11.922h36.196V177.063z"/>
</g>
<g>
	<path fill="#FFFFFF" stroke="#33313F" stroke-width="3" stroke-miterlimit="10" d="M62.75,212.755c0,0,62.599,2.555,71.115,0
		c0,0-4.684,104.756-2.98,108.164c0,0-69.411,3.832-74.521,0C51.253,317.085,62.75,212.755,62.75,212.755z"/>
	<path fill="#FFFFFF" stroke="#33313F" stroke-width="3" stroke-miterlimit="10" d="M72.119,232.345
		c0,0,28.957,45.989,38.751,50.248"/>
	<path fill="#FFFFFF" stroke="#33313F" stroke-width="3" stroke-miterlimit="10" d="M110.87,232.345
		c0,0-27.679,36.195-31.938,48.545"/>
	<path fill="#FFFFFF" stroke="#33313F" stroke-width="3" stroke-miterlimit="10" d="M108.315,300.054H74.675
		c-2.556,0-2.556,11.922-2.556,11.922h36.196V300.054z"/>
</g>
<path fill="#FFFFFF" stroke="#33313F" stroke-width="3" stroke-miterlimit="10" d="M180.282,89.766c0,0,60.042-2.981,71.113,0
	c0,0-4.685,104.756-2.98,108.163c0,0-76.718,5.999-74.521,0C178.579,185.152,180.282,89.766,180.282,89.766z"/>
<path fill="#FFFFFF" stroke="#33313F" stroke-width="3" stroke-miterlimit="10" d="M203.681,97.755c0,0,13.363,21.227,17.886,23.19"
	/>
<path fill="#FFFFFF" stroke="#33313F" stroke-width="3" stroke-miterlimit="10" d="M221.566,97.755c0,0-12.775,16.706-14.742,22.407
	"/>
<path fill="#FFFFFF" stroke="#33313F" stroke-width="3" stroke-miterlimit="10" d="M236.814,134.479h-45.137
	c-3.407,0-3.407,11.923-3.407,11.923h48.544V134.479z"/>
<path fill="#FFFFFF" stroke="#33313F" stroke-width="3" stroke-miterlimit="10" d="M230.653,172.378h-33.641
	c-2.555,0-2.555,11.924-2.555,11.924h36.195V172.378z"/>
<path fill="#FFFFFF" stroke="#33313F" stroke-width="3" stroke-miterlimit="10" d="M236.814,151.938c3.43,0-41.144,3.833-45.137,0
	c-2.104-2.015-3.407,11.923-3.407,11.923h48.544V151.938z"/>
<polyline fill="#FFFFFF" stroke="#33313F" stroke-width="3" stroke-miterlimit="10" points="208.178,178.128 210.733,180.681 
	215.417,174.294 "/>
<path fill="#FFFFFF" stroke="#33313F" stroke-width="3" stroke-miterlimit="10" d="M327.608,155.983h23.51
	c3.406,0,3.406,6.311,3.406,6.311h0.103"/>
<path fill="#FFFFFF" stroke="#33313F" stroke-width="3" stroke-miterlimit="10" d="M352.217,146.483c3.428,0-41.144,2.027-45.138,0
	c-2.105-1.064-3.407,6.307-3.407,6.307h48.545V146.483z"/>
<g>
	<path fill="#FFFFFF" stroke="#33313F" stroke-width="3" stroke-miterlimit="10" d="M294.831,90.618c0,0,59.617,7.239,71.114,0
		c0,0-4.684,104.755-2.98,108.163c0,0-79.12,4.433-74.521,0C299.94,187.708,294.831,90.618,294.831,90.618z"/>
	<path fill="#FFFFFF" stroke="#33313F" stroke-width="3" stroke-miterlimit="10" d="M303.113,109.141
		c0,0,8.589,13.626,11.497,14.904"/>
	<path fill="#FFFFFF" stroke="#33313F" stroke-width="3" stroke-miterlimit="10" d="M314.61,109.141c0,0-8.21,10.756-9.458,14.401"
		/>
	<path fill="#FFFFFF" stroke="#33313F" stroke-width="3" stroke-miterlimit="10" d="M352.217,137.246h-45.138
		c-3.407,0-3.407,6.311-3.407,6.311h48.545V137.246z"/>
	<path fill="#FFFFFF" stroke="#33313F" stroke-width="3" stroke-miterlimit="10" d="M295.188,98.606c0,0,66.091,4.884,70.341,1.639"
		/>
	<path fill="#FFFFFF" stroke="#33313F" stroke-width="2" stroke-miterlimit="10" d="M357.212,95.587
		c0.901-0.192,1.831,0.081,2.746,0.222c0.916,0.141,1.954,0.123,2.618-0.516"/>
	<path fill="#FFFFFF" stroke="#33313F" stroke-width="2" stroke-miterlimit="10" d="M356.756,97.265
		c1.907,0.335,3.849,0.443,5.782,0.319"/>
	<path fill="#FFFFFF" stroke="#33313F" stroke-width="2" stroke-miterlimit="10" d="M356.747,99.646
		c1.637-0.278,3.287-0.463,4.945-0.554"/>
	<path fill="#FFFFFF" stroke="#33313F" stroke-width="2" stroke-miterlimit="10" d="M298.906,96.477
		c0.799,0.369,1.676,0.546,2.555,0.515c0.555,0.076,1.119-0.046,1.594-0.345c0.559-0.451,0.604-1.277,0.604-1.997
		c0.018-0.219-0.016-0.438-0.094-0.643c-0.107-0.197-0.264-0.361-0.456-0.477c-1.051-0.732-3.005-1.03-4.235-0.532
		C297.186,93.679,297.458,95.689,298.906,96.477z"/>
	<path fill="#FFFFFF" stroke="#33313F" stroke-width="3" stroke-miterlimit="10" d="M317.75,106.476
		c-0.248,3.151,0.506,6.281,1.015,9.402c0.638,3.94,0.891,7.934,0.757,11.924c-6.722,0.408-13.448,0.506-20.186,0.294
		c0.627,0.021,0.468-14.24,0.528-15.552c0.076-1.678-0.28-4.565,1.665-5.195c2.044-0.668,4.924-0.256,7.068-0.358
		C311.647,106.849,314.698,106.677,317.75,106.476z"/>
</g>
<path fill="none" stroke="#33313F" stroke-width="3" stroke-miterlimit="10" d="M143.66,138.736c0,0,16.607-0.851,19.588,0"/>
<path fill="none" stroke="#33313F" stroke-width="3" stroke-miterlimit="10" d="M163.248,129.794c0,0,7.239,7.239,7.239,8.942
	c0,1.704-9.369,7.665-9.369,7.665"/>
<path fill="none" stroke="#33313F" stroke-width="3" stroke-miterlimit="10" d="M140.657,262.804c0,0,16.607-0.851,19.588,0"/>
<path fill="none" stroke="#33313F" stroke-width="3" stroke-miterlimit="10" d="M160.245,253.862c0,0,7.239,7.238,7.239,8.941
	c0,1.704-9.369,7.666-9.369,7.666"/>
<path fill="none" stroke="#33313F" stroke-width="3" stroke-miterlimit="10" d="M258.636,138.736c0,0,16.606-0.851,19.588,0"/>
<path fill="none" stroke="#33313F" stroke-width="3" stroke-miterlimit="10" d="M278.224,129.794c0,0,7.238,7.239,7.238,8.942
	c0,1.704-9.367,7.665-9.367,7.665"/>
<circle opacity="0.1" fill="#FF0000" enable-background="new    " cx="160.676" cy="28.347" r="9.211"/>
<circle opacity="0.1" fill="#FF0000" enable-background="new    " cx="300.823" cy="41.063" r="9.211"/>
<circle opacity="0.1" fill="#FF0000" enable-background="new    " cx="399.254" cy="177.518" r="9.211"/>
<circle opacity="0.1" fill="#FF0000" enable-background="new    " cx="432.201" cy="136.454" r="15.437"/>
<circle opacity="0.1" fill="#FF0000" enable-background="new    " cx="411.764" cy="211.368" r="15.437"/>
<circle opacity="0.1" fill="#FF0000" enable-background="new    " cx="15.437" cy="163.098" r="15.436"/>
<linearGradient id="SVGID_1_" gradientUnits="userSpaceOnUse" x1="615.4385" y1="-227.1621" x2="680.592" y2="-227.1621" gradientTransform="matrix(1 0 0 -1 -310.4004 2.7939)">
	<stop  offset="0" style="stop-color:#808080;stop-opacity:0.25"/>
	<stop  offset="0.54" style="stop-color:#808080;stop-opacity:0.12"/>
	<stop  offset="1" style="stop-color:#808080;stop-opacity:0.1"/>
</linearGradient>
<path fill="url(#SVGID_1_)" d="M369.664,183.833c-0.014-0.515-0.078-1.027-0.192-1.529c-0.387-1.436-1.249-3.176-2.674-3.611
	c-1.469-0.451-2.885-1.049-4.229-1.787c-0.26-4.566,0.791-9.238-0.354-13.661c-0.427-1.619-1.125-3.168-1.316-4.83
	c-0.233-2.056,0.331-4.258-0.49-6.157c-0.646-1.496-2.068-2.555-3.602-3.109c-1.534-0.554-3.178-0.699-4.801-0.852
	c-2.042-0.17-8.66-0.954-10.964,0.877l0,0c-0.159,0.123-0.304,0.266-0.427,0.426l0,0c-0.054,0.069-0.099,0.143-0.141,0.221
	c0.002,0.011,0.002,0.022,0,0.034c-0.043,0.09-0.081,0.183-0.114,0.277l0,0c-0.032,0.103-0.056,0.208-0.069,0.315
	c-0.001,0.035-0.001,0.071,0,0.106c-0.003,0.075-0.003,0.151,0,0.226v0.111c0,0.081,0,0.158,0,0.234c0,0.077,0,0.064,0,0.094
	c0.031,0.379,0.091,0.766,0.091,1.146c0.005,0.188-0.013,0.377-0.051,0.562c-0.144,0.501-0.383,0.968-0.707,1.375l0,0l-0.076,0.11
	l-0.141,0.205l-0.111,0.174l-0.094,0.154c-0.043,0.073-0.078,0.145-0.116,0.222l-0.063,0.119c-0.051,0.118-0.094,0.238-0.127,0.362
	c-0.092,0.371-0.092,0.758,0,1.129c0.114,0.478,0.311,0.934,0.579,1.345c0.105,0.175,0.226,0.345,0.345,0.515
	c0.12,0.171,0.196,0.269,0.299,0.4c-0.06,0.396-0.092,0.797-0.094,1.197c0,2.701,1.241,5.252,3.368,6.919
	c0.167,1.799,0.147,3.609-0.055,5.404c-0.044,0.379-0.085,0.753-0.138,1.128c-0.05,0.375-0.094,0.627-0.14,0.938
	c-0.625,0.088-1.261,0.038-1.866-0.145c-0.277-0.125-0.562-0.234-0.851-0.329c-1.243-0.306-2.509,0.929-3.731,0.555
	c0,0.056-0.038,0.111-0.054,0.17c-0.259-0.157-0.552-0.244-0.854-0.251c-0.725-0.035-1.319-0.562-1.848-1.061l-1.618-1.529
	c-0.107-0.092-0.2-0.197-0.28-0.314c-0.089-0.166-0.154-0.342-0.196-0.523c-0.345-0.862-0.882-1.632-1.572-2.253
	c-0.121-0.152-0.282-0.27-0.468-0.336c-0.069-0.013-0.139-0.013-0.208,0c-0.047-0.059-0.091-0.12-0.141-0.174
	c-0.114-0.124-0.234-0.243-0.359-0.354c-0.77-0.715-0.851-1.329-1.523-2.129c-0.586-0.763-1.117-1.567-1.588-2.406
	c-0.06-0.426-0.136-0.903-0.231-1.371c-0.211-1.062-0.521-2.102-0.927-3.105l0.582-0.638v-0.635l1.04-1.213l-0.072-0.064
	l1.277-1.201l-1.277-0.047l-0.597,0.826l-0.045-0.042l-1.066,1.065l-0.744,0.085l-0.099,0.102c-0.617-0.92-1.277-1.422-1.865-1.303
	c-0.992,0.205-1.486,2.129-1.328,4.646l-2.951,3.087l-0.333,0.349l-1.523,1.955l1.196,1.149l1.836-1.704l0.293-0.319l1.827-1.98
	c0,0.063,0.029,0.127,0.044,0.192c-0.062,0.302-0.092,0.611-0.096,0.919c0,0.362,0.338,0.622,0.506,0.945
	c0.285,0.431,0.432,0.938,0.427,1.452c0,0.18-0.076,0.354-0.08,0.538c0.02,0.398,0.158,0.782,0.396,1.103
	c0.713,1.192,1.422,2.385,2.129,3.577c0.145,0.252,0.299,0.503,0.427,0.75c0.002,0.012,0.002,0.025,0,0.038
	c0.134,0.261,0.329,0.483,0.57,0.651c0.083,0.896,0.321,1.772,0.702,2.589c0.076,0.158,0.158,0.315,0.243,0.468
	c0.572,0.94,1.243,1.814,2.006,2.606l1.018,1.138c0.997,1.119,1.997,2.236,3.083,3.27c0.39,0.414,0.861,0.742,1.383,0.964
	c0.519,0.21,1.11,0.125,1.547-0.222c0,0.528,0,1.056,0,1.579c0.305,0.054,0.574,0.229,0.745,0.485
	c0.115,0.302,0.087,0.641-0.072,0.921c-0.89,2.294-1.793,4.606-3.15,6.668c0.955,0.563,1.841,1.238,2.639,2.01
	c0.521,0.573,0.983,1.199,1.38,1.865c0.035,0.311,0.064,0.626,0.087,0.937c0.313,5.076-1.648,10.114-3.406,14.951
	c-0.505,1.366-1.062,2.808-1.015,4.229c-0.335,0.208-0.655,0.438-0.959,0.689c0.351,0.907,0.214,1.703,0.179,2.696
	c-0.014,0.584-0.135,1.161-0.357,1.702c-0.166,0.378-0.426,0.731-0.608,1.094c-1.103,1.947-1.351,4.259-1.57,6.478
	c-0.134,1.346,0.392,2.98-0.223,4.182c-1.047,2.065-1.981,4.259-2.149,6.549c-0.007,0.519-0.071,1.031-0.192,1.534
	c-0.132,0.425-0.371,0.787-0.491,1.205c-0.121,0.559-0.148,1.134-0.079,1.702c0.079,2.043-0.226,4.08-0.898,6.01
	c-0.532,1.523-1.116,3.15-0.698,4.714c-1.028,1.077-1.663,2.469-1.802,3.951c-0.014,0.38-0.061,0.758-0.143,1.129
	c-0.128,0.38-0.298,0.745-0.506,1.091c-0.856,1.561-1.259,3.33-1.161,5.109c-1.278,1.729-1.913,3.871-2.291,5.995
	c-0.379,2.126-0.551,4.289-1.035,6.389c-0.643,2.779-1.813,5.586-2.049,8.426c-1.38,0.887-1.972,2.594-2.24,4.208
	s-0.307,3.305-0.979,4.799c-0.349,0.775-0.852,1.469-1.183,2.258c-0.237,0.629-0.409,1.281-0.517,1.945
	c-0.202,1.044-0.381,2.198-0.126,3.193c-0.361,0.385-0.784,0.707-1.249,0.955c0.064-0.265,0.123-0.533,0.167-0.801
	c-1.1,1.001-3.088,0.652-3.969,1.849c-0.543,0.803-0.355,1.892,0.425,2.465c0.277,0.167,0.575,0.295,0.886,0.378
	c2.108,0.678,4.319,1.368,6.504,1.006c0.258-0.029,0.508-0.111,0.734-0.237c0.288-0.208,0.522-0.479,0.687-0.793l0.983-1.559
	c0.785,0.234,1.583,0.424,2.389,0.562c0.08,0.678,0.136,1.358,0.167,2.044c0.427,0.085,0.997,0.105,1.196-0.286
	c0.062-0.149,0.088-0.311,0.076-0.472c0-0.307,0.038-0.707,0.069-1.116h0.085c1.299,0.052,2.592-0.212,3.77-0.767
	c-0.462-3.77,1.042-7.457,2.349-11.025c1.377-3.755,2.556-7.583,3.74-11.408c0.851-2.687,1.796-5.296,2.626-7.987
	c1.057-3.406,2.112-6.813,3.164-10.22c0.465-1.5,0.925-2.982,1.457-4.472c1.111-3.017,2.429-5.954,3.944-8.79
	c0.425-0.801,0.851-1.597,1.205-2.437c0.425-1.018,0.728-2.082,1.064-3.129c0.743-2.159,1.638-4.264,2.679-6.297l0.076-0.158
	c0.345,1.409,0.693,2.844,0.919,4.258c0.313,1.737,0.34,3.517,0.072,5.263c-0.204,1.189-0.591,2.364-0.541,3.564
	c0.064,1.669,0.95,3.176,1.389,4.787c0.281,1.201,0.444,2.429,0.482,3.661c0.114,1.912,1.156,4.062,0.425,5.84
	c-2.273,5.624-1.17,11.979-2.475,17.884c-0.664,3.032-2.711,5.886-2.555,8.985c0.114,2.2,0.307,4.396,0.579,6.583
	c0.048,0.67,0.204,1.325,0.464,1.942c0.176,0.329,0.369,0.646,0.585,0.95c-0.185,0.076-0.346,0.269-0.479,0.672
	c-0.399,1.093-0.011,2.318,0.946,2.98c0.383,0.207,0.798,0.351,1.226,0.427c0.579,0.161,1.179,0.244,1.78,0.246
	c0.188-0.009,0.375-0.033,0.559-0.071c0.659,0.277,1.332,0.519,2.019,0.724c0,0.177,0.017,0.35,0.05,0.523
	c0,0.186,0.083,0.362,0.226,0.481c0.105,0.054,0.224,0.075,0.342,0.064h2.312c0-0.192,0-0.389,0-0.579
	c0.536,0.056,1.069-0.119,1.469-0.481c0.206-0.257,0.354-0.559,0.425-0.883c0.631-2.14,1.259-4.279,1.883-6.417
	c0.287-0.903,0.508-1.827,0.66-2.764c0.269-1.505,0.353-3.037,0.252-4.564c-0.818-7.849,0.988-15.722,0.4-23.592
	c-0.355-4.728-0.113-9.483,0.723-14.15c0.192-1.056,0.427-2.129,0.512-3.18c0.182-1.985-0.044-3.991,0.094-5.963
	c0.05-0.689,0.146-1.375,0.23-2.062c0.61-4.254,0.943-8.544,0.995-12.844c-0.009-1.421-0.096-2.843-0.259-4.258
	c0.44-0.118,0.841-0.352,1.158-0.682c0.384-0.497,0.284-1.188,0.281-1.816c0-1.509,0.635-2.936,1.141-4.357
	c0.655-1.953,1.194-3.944,1.614-5.962c0.44-1.632,0.68-3.313,0.714-5.004c0-0.17,0-0.34-0.023-0.515
	c0.159-0.111,0.291-0.257,0.386-0.427c0.113-0.248,0.183-0.515,0.205-0.787c0.157-1.091,0.311-2.176,0.47-3.267
	c0.109-0.78,0.222-1.56,0.335-2.342c0.452-3.146,0.901-6.294,1.351-9.444c0.119-0.821,0.233-1.64,0.354-2.462l0.349-2.439
	c0.043-0.289,0.081-0.578,0.116-0.873C370.767,188.13,369.77,185.808,369.664,183.833z M358.382,219.211
	c-0.506-1.188-0.974-2.41-0.851-3.7h-0.042c0.107-0.397,0.087-0.816-0.061-1.201c-0.132-0.314-0.357-0.579-0.498-0.887
	c-0.152-0.379-0.23-0.785-0.23-1.196c-0.105-2.588,0.098-5.18,0.605-7.72c0.056-0.302,0.114-0.601,0.175-0.903
	c0.176-0.103,0.338-0.228,0.48-0.375c0.224-0.255,0.409-0.541,0.55-0.851c0.479-0.966,0.922-1.949,1.328-2.951
	c0.133-0.328,0.324-0.699,0.651-0.778c-0.067,2.491,0.188,5.033-0.851,7.281c-0.194,0.361-0.337,0.749-0.427,1.149
	c-0.094,0.63,0.17,1.278,0.078,1.907c-0.049,0.324-0.189,0.631-0.248,0.95c-0.083,0.324,0.012,0.668,0.251,0.903
	c0.054,0.04,0.114,0.074,0.179,0.098c-0.025,0.17-0.047,0.345-0.059,0.511c-0.038,0.349-0.052,0.677-0.073,0.881
	c-0.099,1.04-0.139,2.086-0.119,3.131c0,1.127,0.047,2.262,0.025,3.405c0.018,0.331-0.038,0.661-0.161,0.968
	c-0.085,0.157-0.194,0.302-0.324,0.427C358.643,219.88,358.506,219.543,358.382,219.211z"/>
<polygon fill="#33313F" points="326.193,157.167 327.624,155.834 326.348,155.787 325.679,156.809 "/>
<polygon fill="#65617D" points="315.901,166.501 317.417,164.556 317.754,164.206 322.395,159.347 323.975,157.691 324.716,157.606 
	325.78,156.545 326.406,157.094 325.371,158.304 325.393,158.938 323.774,160.693 319.219,165.637 318.926,165.952 317.093,167.647 
	"/>
<polygon fill="#33313F" points="317.754,164.206 322.395,159.347 323.774,160.693 319.219,165.637 "/>
<ellipse transform="matrix(-0.2007 -0.9797 0.9797 -0.2007 228.4664 512.6874)" fill="#FBBEBE" cx="323.386" cy="163.14" rx="6.8" ry="2.402"/>
<path fill="#3F3D56" d="M344.594,306.679c-0.389,1.083-0.002,2.294,0.941,2.954c0.385,0.205,0.798,0.349,1.228,0.427
	c0.575,0.161,1.172,0.244,1.771,0.246c0.74-0.038,1.447-0.324,2.181-0.427c0.085-0.018,0.175-0.003,0.251,0.04
	c0.073,0.078,0.109,0.186,0.098,0.293c0.009,0.42,0.04,0.839,0.094,1.257c-0.037,0.264,0.146,0.507,0.409,0.543
	c0.05,0.009,0.102,0.007,0.152-0.002h2.304c0.054-2.028-0.17-4.055-0.669-6.021c-0.029-0.15-0.088-0.296-0.17-0.427
	c-0.192-0.216-0.449-0.365-0.731-0.426c-0.565-0.234-1.178-0.34-1.789-0.311c-0.74,0.094-1.366,0.579-2.001,0.979
	s-1.5,0.754-2.27,0.545C345.62,306.141,344.985,305.494,344.594,306.679z"/>
<path fill="#FBBEBE" d="M310.688,304.808c-0.646,0.693-1.44,1.234-2.325,1.58l-0.396,0.192c-0.055,0.017-0.102,0.055-0.128,0.105
	c-0.016,0.067-0.002,0.137,0.04,0.192c0.671,1.033,1.945,1.498,3.124,1.138c0.255-0.064,0.49-0.186,0.69-0.359
	c0.324-0.387,0.51-0.87,0.528-1.375c0.125-0.519,0.103-1.061-0.064-1.567C311.579,303.378,311.363,303.982,310.688,304.808z"/>
<path fill="#3F3D56" d="M319.555,310.054c0.014,0.162-0.012,0.324-0.076,0.474c-0.196,0.392-0.758,0.366-1.192,0.284
	c-0.064-1.445-0.238-2.885-0.521-4.305c-0.825-0.038-1.425,0.749-1.864,1.448l-1.141,1.814c-0.166,0.311-0.4,0.581-0.687,0.787
	c-0.227,0.127-0.475,0.208-0.731,0.239c-2.181,0.357-4.383-0.329-6.486-1.005c-0.31-0.085-0.606-0.21-0.882-0.375
	c-0.78-0.572-0.97-1.661-0.425-2.462c0.877-1.192,2.862-0.852,3.956-1.84c-0.112,0.695-0.302,1.377-0.562,2.032
	c1.472-0.222,2.457-1.567,3.645-2.465c0.294-0.257,0.653-0.431,1.038-0.5c0.288-0.022,0.577,0.011,0.854,0.094
	c1.364,0.344,2.642,0.971,3.746,1.845c0.447,0.354,1.146,0.852,1.341,1.396C319.776,308.168,319.552,309.36,319.555,310.054z"/>
<circle fill="#FBBEBE" cx="348.849" cy="160.753" r="8.798"/>
<path fill="#3F3D56" d="M366.181,212.7c-0.036,1.686-0.277,3.36-0.716,4.986c-0.414,2.019-0.952,4.009-1.605,5.963
	c-0.507,1.418-1.146,2.84-1.141,4.343c0,0.626,0.102,1.315-0.277,1.813c-0.344,0.345-0.775,0.591-1.249,0.711
	c-0.475,0.126-0.861,0.472-1.042,0.929c-0.402-0.596-0.703-1.253-0.891-1.946c-0.762-2.339-1.471-4.69-2.129-7.057
	c-0.123-0.275-0.103-0.593,0.055-0.852c0.109-0.096,0.236-0.166,0.375-0.208c0.436-0.181,0.834-0.438,1.176-0.763
	c0.162-0.141,0.296-0.311,0.395-0.503c0.125-0.305,0.181-0.636,0.163-0.966c0-1.125,0-2.252-0.025-3.377
	c-0.02-1.042,0.019-2.084,0.114-3.121c0-0.208,0.038-0.532,0.072-0.881c0.064-0.674,0.192-1.444,0.559-1.704
	c0.536-0.366,2.155,0.123,2.772,0.205c1.056,0.148,2.106,0.318,3.155,0.52C366.091,211.417,366.172,212.057,366.181,212.7z"/>
<path fill="#3F3D56" d="M330.652,170.606c-0.342,0.681-1.158,1.005-1.789,1.439l-2.158,1.483c-0.292,0.26-0.675,0.391-1.064,0.365
	c-0.355-0.13-0.644-0.399-0.796-0.744l-0.026-0.039l-0.427-0.745l-2.129-3.569c-0.235-0.322-0.372-0.705-0.396-1.103
	c0-0.179,0.064-0.354,0.085-0.532c0.002-0.514-0.146-1.017-0.426-1.448c-0.17-0.324-0.516-0.583-0.503-0.941
	c-0.018-0.472,0.064-0.941,0.239-1.38c0.224-0.402,0.541-0.745,0.928-0.996c0.201-0.145,0.426-0.281,0.618-0.425
	c0.115-0.077,0.241-0.132,0.375-0.167c0.349-0.072,0.698,0.217,1.056,0.23c1.541,1.03,2.129,2.98,3.343,4.39
	c0.682,0.796,0.749,1.409,1.521,2.129c0.125,0.11,0.243,0.229,0.354,0.354c0.154,0.164,0.286,0.351,0.387,0.553
	C329.979,169.823,330.831,170.257,330.652,170.606z"/>
<path fill="#FBBEBE" d="M345.752,169.576c0.635,1.341,1.129,2.815,0.946,4.289c-0.036,0.398-0.163,0.783-0.367,1.129
	c-0.612,0.941-1.898,1.105-3.023,1.166c-0.474-0.037-0.945,0.115-1.308,0.426c-0.311,0.447-0.275,1.047,0.081,1.455
	c0.357,0.389,0.805,0.682,1.305,0.854c1.77,0.783,3.679,1.426,5.606,1.243c0.895-0.085,1.764-0.341,2.654-0.474
	c0.964-0.102,1.934-0.152,2.904-0.148c1.158-0.042,2.311-0.158,3.466-0.272l3.053-0.302c0.168,0.002,0.33-0.057,0.456-0.166
	c0.23-0.266-0.064-0.652-0.342-0.852c-1.626-1.207-3.69-2.027-4.611-3.834c-0.425-0.851-0.562-1.86-0.877-2.785
	c-0.316-0.923-0.817-1.745-1.01-2.687c-0.104-0.82-0.15-1.647-0.14-2.474c0.014-0.836-0.292-1.646-0.852-2.265
	c-0.605-0.567-1.486-0.711-2.316-0.75c-2.035-0.086-4.199,0.4-5.646,1.835c-0.387,0.388-0.717,0.831-1.12,1.201
	c-0.404,0.371-0.941,0.452-0.677,0.912c0.264,0.459,0.778,0.741,1.06,1.149C345.284,168.654,345.537,169.106,345.752,169.576z"/>
<path fill="#3F3D56" d="M363.102,181.942c-0.536,3.277-1.402,6.492-2.59,9.594c-0.602,1.401-1.115,2.838-1.533,4.305
	c-0.333,1.319-0.264,2.734-0.57,4.06c-0.374,1.644-0.749,3.299-1.053,4.96c-0.506,2.533-0.709,5.118-0.603,7.699
	c0,0.407,0.077,0.813,0.229,1.193c0.141,0.305,0.371,0.57,0.499,0.881c0.205,0.558,0.161,1.177-0.116,1.702
	c-0.218,0.489-0.515,0.939-0.877,1.333c-3.972,1.185-8.215,0.793-12.348,1.044c-3.834,0.234-7.665,1.018-11.422,0.362
	c-0.425-1.704,0.28-3.483,0.895-5.144c1.763-4.825,3.722-9.85,3.406-14.905c-0.034-0.588-0.104-1.174-0.204-1.755
	c-0.614-3.58,0.056-7.29,1.132-10.765c0.673-2.158,0.644-4.467,0.485-6.721c-0.074-0.729-0.085-1.465-0.029-2.196
	c0.066-0.747,0.344-1.462,0.801-2.056l0.062-0.091c0.049-0.073,0.189-0.029,0.315,0l0,0c0.069,0.03,0.146,0.03,0.214,0
	c0.012-0.014,0.029-0.024,0.047-0.029c0.038-0.022,0.085-0.022,0.123,0c0.099,0.063,0.148,0.264,0.362,0.302
	c0.313,0.051,0.633,0.082,0.95,0.094c0.383,0.012,0.763,0.066,1.132,0.162h0.052c0.554,0.093,1.122,0.044,1.652-0.14
	c0.353-0.089,0.692-0.22,1.013-0.392c0.262-0.105,0.528-0.196,0.801-0.27c0.392-0.238,0.307-1.336,0.389-1.783
	c0.043-0.453,0.147-0.897,0.313-1.321c0.394-0.635,1.077-1.032,1.822-1.06c0.737-0.021,1.471,0.043,2.189,0.195
	c1.583,0.226,3.211,0.184,4.773,0.549c0.783,0.184,1.635,0.464,2.359,0.107c0.191,0.042,0.223,0.217,0.223,0.426
	c-0.016,0.198-0.056,0.395-0.12,0.583c-0.269,1.175,0.655,2.252,1.503,3.108c0.368,0.402,0.8,0.74,1.278,1
	c0.425,0.196,0.851,0.277,1.277,0.491c0.347,0.183,0.64,0.449,0.852,0.778c0.248,0.375,0.412,0.798,0.485,1.24
	C363.353,180.309,363.294,181.14,363.102,181.942z"/>
<path opacity="0.1" enable-background="new    " d="M363.102,181.942c-0.536,3.277-1.402,6.492-2.59,9.594
	c-0.602,1.401-1.115,2.838-1.533,4.305c-0.333,1.319-0.264,2.734-0.57,4.06c-0.374,1.644-0.749,3.299-1.053,4.96
	c-0.088,0.052-0.178,0.094-0.271,0.137c-0.531,0.253-1.091,0.436-1.67,0.541c-1.038,0.123-2.091,0.089-3.121-0.103l-6.089-0.797
	c-2.427-0.323-5.012-0.72-6.813-2.363c-0.997-0.901-1.657-2.095-2.372-3.249c-0.034-0.588-0.104-1.174-0.204-1.755
	c-0.614-3.58,0.056-7.29,1.132-10.765c0.673-2.158,0.644-4.467,0.485-6.721c-0.074-0.729-0.085-1.465-0.029-2.196
	c0.066-0.747,0.344-1.462,0.801-2.056c0.125-0.039,0.25-0.068,0.378-0.091l0,0c0.087-0.016,0.174-0.026,0.261-0.029h0.123
	c0.144,0,0.286,0.018,0.426,0.05c0.286,0.073,0.55,0.228,0.831,0.33h0.052c0.364,0.117,0.747,0.172,1.132,0.161
	c0.562,0,1.142-0.094,1.703-0.128c0.693-0.109,1.406,0.016,2.02,0.357c0.396,0.318,0.771,0.663,1.124,1.031
	c0.43,0.33,0.91,0.591,1.421,0.771c3.666,1.398,7.731,1.312,11.332-0.244c0.347-0.193,0.74-0.292,1.138-0.285
	c0.295,0.058,0.573,0.176,0.821,0.346c0.252,0.148,0.507,0.293,0.762,0.424c0.248,0.375,0.414,0.798,0.487,1.24
	C363.314,180.293,363.276,181.13,363.102,181.942z"/>
<path fill="#FF0000" d="M366.805,179.122c-1.693-0.515-3.323-1.229-4.85-2.129c-0.246-0.172-0.526-0.291-0.821-0.348
	c-0.398-0.008-0.791,0.092-1.138,0.289c-3.601,1.552-7.666,1.637-11.331,0.237c-0.514-0.177-0.994-0.437-1.422-0.77
	c-0.351-0.368-0.725-0.711-1.12-1.032c-1.401-0.906-3.34,0.164-4.91-0.424c-0.271-0.125-0.548-0.234-0.83-0.328
	c-1.238-0.307-2.5,0.924-3.721,0.553c-0.456,1.231-0.789,2.504-0.997,3.799c-0.174,1.488-0.268,2.982-0.277,4.48
	c-0.026,0.893-0.047,1.793,0,2.69c0.305,0.054,0.573,0.229,0.745,0.485c0.111,0.301,0.085,0.633-0.072,0.912
	c-0.89,2.291-1.788,4.598-3.144,6.65c0.955,0.563,1.838,1.238,2.634,2.01c1.494,1.576,2.221,3.781,3.831,5.238
	c1.813,1.644,4.404,2.04,6.813,2.368l6.081,0.834c1.029,0.192,2.082,0.227,3.122,0.102c0.577-0.104,1.139-0.286,1.668-0.541
	c0.345-0.144,0.66-0.352,0.93-0.611c0.224-0.257,0.407-0.543,0.549-0.852c0.478-0.964,0.919-1.947,1.319-2.944
	c0.146-0.352,0.357-0.77,0.742-0.795c2.252-2.036,4.385-4.121,6.639-6.157c0.907-0.752,1.72-1.61,2.422-2.556
	c1.126-1.657,0.103-4.006,0-6.004c-0.009-0.513-0.07-1.024-0.187-1.525C369.085,181.295,368.223,179.558,366.805,179.122z"/>
<path opacity="0.1" enable-background="new    " d="M330.652,170.606c-0.342,0.681-1.158,1.005-1.789,1.439l-2.158,1.483
	c-0.292,0.26-0.675,0.391-1.064,0.365c-0.355-0.13-0.644-0.399-0.796-0.744c0-0.104,0-0.205,0-0.307
	c-0.018-0.346,0.029-0.691,0.135-1.019c0.214-0.481,0.541-0.901,0.955-1.227c0.8-0.761,1.753-1.342,2.797-1.703
	c0.163-0.065,0.344-0.083,0.515-0.051c0.066,0.017,0.127,0.045,0.185,0.082c0.155,0.164,0.286,0.35,0.386,0.553
	C329.979,169.823,330.831,170.257,330.652,170.606z"/>
<path fill="#FF0000" d="M335.737,175.107c-0.725-0.033-1.315-0.562-1.841-1.06l-1.617-1.525c-0.108-0.092-0.203-0.197-0.281-0.314
	c-0.085-0.165-0.149-0.339-0.192-0.52c-0.345-0.859-0.881-1.628-1.565-2.249c-0.125-0.151-0.286-0.268-0.469-0.336
	c-0.175-0.031-0.354-0.011-0.517,0.056c-1.044,0.361-1.997,0.942-2.798,1.704c-0.414,0.322-0.742,0.744-0.954,1.226
	c-0.105,0.329-0.152,0.673-0.135,1.019c0.009,1.131,0.264,2.247,0.745,3.27c0.076,0.158,0.153,0.316,0.238,0.469
	c0.571,0.936,1.242,1.807,2.002,2.597l1.013,1.138c0.997,1.111,1.992,2.228,3.079,3.258c0.385,0.414,0.854,0.742,1.375,0.962
	c0.535,0.219,1.147,0.118,1.584-0.26c0.207-0.234,0.359-0.51,0.451-0.808c0.661-1.705,1.278-3.472,1.316-5.306
	c0.014-0.735-0.018-1.472-0.089-2.202C337.01,175.443,336.464,175.142,335.737,175.107z"/>
<path fill="#33313F" d="M361.543,234.725c-0.024,4.283-0.326,8.561-0.908,12.805c-0.085,0.682-0.179,1.366-0.226,2.057
	c-0.141,1.985,0.085,3.986-0.098,5.962c-0.102,1.065-0.318,2.13-0.511,3.172c-0.832,4.654-1.075,9.396-0.72,14.112
	c0.584,7.849-1.214,15.701-0.4,23.527c0.103,1.522,0.019,3.052-0.246,4.553c-0.154,0.933-0.375,1.854-0.661,2.755
	c-0.627,2.135-1.252,4.265-1.874,6.387c-0.074,0.323-0.22,0.625-0.425,0.883c-0.438,0.383-1.021,0.557-1.597,0.477
	c-2.457-0.081-4.766-1.137-6.997-2.176c-0.257-0.099-0.496-0.242-0.702-0.426c-0.465-0.48-0.427-1.243-0.632-1.875
	c-0.202-0.629-0.761-1.229-1.076-1.886c-0.255-0.615-0.411-1.268-0.465-1.934c-0.284-2.183-0.477-4.37-0.579-6.565
	c-0.157-3.092,1.883-5.937,2.556-8.942c1.299-5.911,0.199-12.248,2.469-17.859c0.713-1.768-0.322-3.913-0.425-5.822
	c-0.034-1.231-0.194-2.455-0.477-3.653c-0.427-1.605-1.321-3.108-1.384-4.77c-0.052-1.201,0.337-2.372,0.541-3.56
	c0.26-1.742,0.236-3.514-0.072-5.246c-0.228-1.431-0.576-2.862-0.921-4.258l-0.076,0.155c-1.039,2.029-1.93,4.129-2.67,6.282
	c-0.337,1.043-0.639,2.104-1.064,3.122c-0.349,0.852-0.775,1.626-1.196,2.428c-1.514,2.825-2.828,5.754-3.936,8.762
	c-0.527,1.474-0.988,2.982-1.451,4.46c-1.048,3.406-2.099,6.813-3.152,10.22c-0.83,2.688-1.787,5.285-2.618,7.967
	c-1.181,3.833-2.359,7.631-3.731,11.374c-1.302,3.561-2.801,7.239-2.346,11c-1.174,0.552-2.462,0.812-3.757,0.762
	c-2.194-0.196-4.347-0.72-6.387-1.554c-0.836-0.234-1.597-0.687-2.202-1.312c-0.948-1.153-0.711-2.844-0.425-4.309
	c0.105-0.662,0.279-1.314,0.515-1.941c0.319-0.789,0.831-1.482,1.18-2.254c0.672-1.489,0.716-3.171,0.979-4.785
	c0.265-1.614,0.853-3.313,2.232-4.196c0.229-2.831,1.399-5.633,2.043-8.399c0.485-2.1,0.646-4.26,1.026-6.389
	c0.38-2.13,1.005-4.259,2.292-5.961c-0.103-1.779,0.296-3.549,1.152-5.111c0.208-0.342,0.378-0.706,0.507-1.085
	c0.081-0.37,0.13-0.746,0.141-1.124c0.139-1.479,0.771-2.867,1.794-3.944c-0.427-1.559,0.17-3.176,0.699-4.685
	c0.672-1.923,0.976-3.954,0.893-5.99c-0.064-0.568-0.035-1.144,0.085-1.704c0.119-0.425,0.354-0.787,0.485-1.199
	c0.127-0.502,0.19-1.015,0.192-1.529c0.17-2.299,1.098-4.472,2.129-6.529c0.608-1.2,0.091-2.832,0.223-4.174
	c0.22-2.223,0.464-4.516,1.562-6.458c0.224-0.354,0.427-0.72,0.608-1.096c0.224-0.539,0.344-1.118,0.354-1.702
	c0.038-0.972,0.176-1.784-0.173-2.688c2.276-1.898,5.39-2.428,8.35-2.533c2.96-0.107,5.961,0.141,8.861-0.494
	c0.852-0.188,1.704-0.456,2.603-0.584c2.044-0.299,4.108,0.17,6.123,0.631c-0.14,1.277,0.328,2.504,0.831,3.691
	C360.425,224.361,361.498,229.513,361.543,234.725z"/>
<path opacity="0.1" enable-background="new    " d="M351.513,235.687l-4.887,11.004c-0.226-1.431-0.576-2.862-0.921-4.258
	l-0.076,0.157l0.021-0.23l2.667-5.868L351.513,235.687z"/>
<path opacity="0.1" enable-background="new    " d="M366.181,212.7c-0.284,0.206-0.621,0.333-0.973,0.362
	c-0.541,0.018-1.08-0.057-1.597-0.219l-3.811-0.965c-0.12-0.026-0.238-0.066-0.349-0.12c0.064-0.673,0.192-1.442,0.559-1.702
	c0.535-0.366,2.154,0.123,2.771,0.204c1.058,0.149,2.107,0.319,3.156,0.519C366.089,211.408,366.17,212.054,366.181,212.7z"/>
<path fill="#FF0000" d="M369.416,187.363c0.085,0.354,0.201,0.702,0.264,1.06c0.114,0.877,0.086,1.765-0.085,2.631l-0.349,2.437
	l-0.351,2.453l-1.349,9.423l-0.336,2.334l-0.465,3.258c-0.024,0.271-0.094,0.535-0.205,0.783c-0.286,0.47-0.787,0.767-1.336,0.789
	c-0.54,0.016-1.077-0.057-1.594-0.219l-3.811-0.962c-0.167-0.029-0.324-0.096-0.465-0.19c-0.239-0.232-0.335-0.576-0.25-0.898
	c0.054-0.324,0.194-0.628,0.246-0.95c0.094-0.631-0.175-1.277-0.076-1.903c0.087-0.4,0.23-0.789,0.427-1.149
	c1.276-2.824,0.536-6.115,0.969-9.183c0.378-2.409,1.382-4.679,2.913-6.578c0.95-1.195,2.046-2.271,3.258-3.198
	c0.482-0.371,1.239-1.138,1.836-1.278C369.454,185.86,369.293,186.825,369.416,187.363z"/>
<path fill="#33313F" d="M340.417,150.681c-0.28,0.89,0.158,1.874-0.043,2.79c-0.223,1.005-1.162,1.704-1.431,2.712
	c-0.427,1.538,0.877,2.939,1.827,4.216c3.533,4.74,3.069,11.306,1.86,17.097c-0.971,4.644-2.317,9.201-4.023,13.628
	c-0.529,1.369-1.12,2.771-2.164,3.802c1.959-0.562,4.036-1.129,6.004-0.583c2.488,0.688,4.633,3.104,7.15,2.555
	c1.521-0.34,2.581-1.703,3.947-2.428c2.556-1.375,5.63-0.512,8.483-0.072c0.612,0.148,1.257,0.117,1.852-0.094
	c0.456-0.245,0.841-0.599,1.125-1.03c1.27-1.632,2.029-3.601,2.185-5.664c0.139-2.077-0.622-4.114-2.091-5.591
	c-0.602-0.57-1.324-1.03-1.789-1.703c-0.454-0.785-0.697-1.673-0.702-2.58c-0.342-4.685,0.801-9.462-0.371-13.994
	c-0.425-1.613-1.123-3.16-1.311-4.816c-0.236-2.052,0.327-4.258-0.49-6.14c-0.647-1.49-2.065-2.556-3.59-3.096
	c-1.55-0.5-3.16-0.786-4.786-0.852C349.726,148.634,341.392,147.637,340.417,150.681z"/>
<g opacity="0.1">
	<path d="M342.628,177.496c-0.97,4.624-2.308,9.163-4.004,13.572c0.293-0.585,0.545-1.196,0.778-1.807
		c1.708-4.427,3.054-8.983,4.026-13.626c1.208-5.787,1.673-12.349-1.862-17.097c-0.852-1.129-1.947-2.355-1.903-3.688
		c-0.315,0.401-0.561,0.855-0.724,1.341c-0.426,1.537,0.878,2.938,1.826,4.216C344.304,165.139,343.84,171.705,342.628,177.496z"/>
	<path d="M340.426,153.037c0.338-0.427,0.593-0.913,0.749-1.435c0.065-0.633,0.049-1.271-0.051-1.899
		c-0.329,0.248-0.575,0.588-0.707,0.979C340.178,151.436,340.455,152.262,340.426,153.037z"/>
	<path d="M365.805,191.396c-0.284,0.434-0.671,0.789-1.129,1.035c-0.593,0.21-1.236,0.243-1.848,0.094
		c-2.853-0.427-5.961-1.307-8.482,0.071c-1.366,0.742-2.431,2.087-3.947,2.424c-2.521,0.562-4.685-1.849-7.155-2.556
		c-1.758-0.489-3.615-0.085-5.394,0.427c-0.353,0.754-0.827,1.442-1.406,2.04c1.959-0.563,4.036-1.128,6.004-0.584
		c2.488,0.69,4.633,3.105,7.15,2.556c1.517-0.342,2.581-1.704,3.947-2.428c2.556-1.376,5.63-0.511,8.483-0.072
		c0.612,0.149,1.257,0.116,1.852-0.094c0.456-0.244,0.841-0.599,1.125-1.03c0.769-1.021,1.363-2.16,1.762-3.373
		C366.482,190.423,366.162,190.923,365.805,191.396z"/>
</g>
<path fill="#FF0000" d="M390.443,264.223c0,0,2.525,3.304-1.162,8.29s-6.737,9.203-5.507,12.303c0,0,5.571-9.262,10.102-9.369
	C398.408,275.341,395.431,269.791,390.443,264.223z"/>
<path opacity="0.1" enable-background="new    " d="M390.443,264.223c0.222,0.318,0.395,0.669,0.517,1.038
	c4.424,5.196,6.778,10.042,2.529,10.165c-3.96,0.114-8.709,7.191-9.85,8.98c0.038,0.141,0.085,0.272,0.135,0.427
	c0,0,5.571-9.262,10.102-9.369C398.408,275.358,395.431,269.791,390.443,264.223z"/>
<path fill="#FFD037" d="M395.142,268.434c0,1.162-0.134,2.104-0.295,2.104s-0.29-0.941-0.29-2.104c0-1.163,0.163-0.617,0.324-0.617
	C395.043,267.816,395.142,267.271,395.142,268.434z"/>
<path fill="#FFD037" d="M396.75,269.822c-1.022,0.553-1.912,0.89-1.988,0.749s0.69-0.707,1.702-1.277
	c1.015-0.57,0.623-0.149,0.699,0C397.241,269.442,397.773,269.264,396.75,269.822z"/>
<path fill="#FF0000" d="M377.119,264.223c0,0-2.524,3.304,1.167,8.29c3.692,4.986,6.733,9.194,5.503,12.303
	c0,0-5.571-9.262-10.102-9.369C369.156,275.341,372.12,269.791,377.119,264.223z"/>
<path opacity="0.1" enable-background="new    " d="M377.119,264.223c-0.221,0.318-0.396,0.669-0.515,1.038
	c-4.425,5.196-6.779,10.042-2.53,10.165c3.96,0.114,8.714,7.191,9.85,8.98c-0.038,0.141-0.085,0.272-0.135,0.427
	c0,0-5.571-9.262-10.102-9.369C369.156,275.358,372.12,269.791,377.119,264.223z"/>
<path fill="#FFD037" d="M372.437,268.434c0,1.162,0.126,2.104,0.287,2.104c0.163,0,0.29-0.941,0.29-2.104
	c0-1.163-0.161-0.617-0.322-0.617C372.529,267.816,372.437,267.271,372.437,268.434z"/>
<path fill="#FFD037" d="M370.8,269.822c1.022,0.553,1.912,0.89,1.988,0.749c0.078-0.141-0.69-0.707-1.702-1.277
	c-1.015-0.57-0.617-0.149-0.699,0C370.306,269.442,369.781,269.264,370.8,269.822z"/>
<path fill="#444053" d="M397.364,280.365l-0.123,1.03l-0.181,1.456l-0.071,0.605l-0.179,1.461l-0.077,0.604l-0.174,1.456
	l-2.023,16.566c-0.179,1.478-2.597,2.632-5.51,2.632h-10.501c-2.913,0-5.328-1.154-5.507-2.632l-2.023-16.566l-0.179-1.456
	l-0.072-0.604l-0.183-1.461l-0.072-0.605l-0.175-1.456l-0.127-1.03c-0.103-0.852,1.205-1.545,2.852-1.545h21.472
	C396.159,278.82,397.47,279.526,397.364,280.365z"/>
<polygon fill="#9D9CB5" points="397.241,281.396 397.061,282.848 370.489,282.848 370.314,281.396 "/>
<polygon fill="#9D9CB5" points="396.989,283.457 396.811,284.913 370.744,284.913 370.565,283.457 "/>
<polygon fill="#9D9CB5" points="396.733,285.521 396.56,286.979 370.995,286.979 370.816,285.521 "/>
<g>
	<path fill="#FFFFFF" stroke="#33313F" stroke-width="3" stroke-miterlimit="10" d="M174.551,215.537c0,0,59.617,7.239,71.115,0
		c0,0-4.684,104.755-2.98,108.163c0,0-79.121,4.432-74.521,0C179.661,312.628,174.551,215.537,174.551,215.537z"/>
	<path fill="#FFFFFF" stroke="#33313F" stroke-width="3" stroke-miterlimit="10" d="M182.833,234.061
		c0,0,8.589,13.626,11.497,14.904"/>
	<path fill="#FFFFFF" stroke="#33313F" stroke-width="3" stroke-miterlimit="10" d="M194.331,234.061c0,0-8.21,10.757-9.458,14.401"
		/>
	<path fill="#FFFFFF" stroke="#33313F" stroke-width="3" stroke-miterlimit="10" d="M231.938,262.165h-45.138
		c-3.407,0-3.407,6.312-3.407,6.312h48.545V262.165z"/>
	<path fill="#FFFFFF" stroke="#33313F" stroke-width="3" stroke-miterlimit="10" d="M174.909,223.525c0,0,66.091,4.884,70.341,1.64"
		/>
	<path fill="#FFFFFF" stroke="#33313F" stroke-width="2" stroke-miterlimit="10" d="M236.932,220.507
		c0.902-0.192,1.832,0.08,2.746,0.221c0.916,0.141,1.955,0.123,2.619-0.516"/>
	<path fill="#FFFFFF" stroke="#33313F" stroke-width="2" stroke-miterlimit="10" d="M236.477,222.185
		c1.906,0.336,3.848,0.443,5.781,0.318"/>
	<path fill="#FFFFFF" stroke="#33313F" stroke-width="2" stroke-miterlimit="10" d="M236.467,224.565
		c1.637-0.279,3.287-0.463,4.945-0.555"/>
	<path fill="#FFFFFF" stroke="#33313F" stroke-width="2" stroke-miterlimit="10" d="M178.626,221.396
		c0.799,0.369,1.676,0.546,2.555,0.515c0.555,0.076,1.119-0.046,1.594-0.345c0.559-0.45,0.604-1.276,0.604-1.997
		c0.018-0.219-0.016-0.438-0.094-0.643c-0.107-0.197-0.264-0.361-0.456-0.477c-1.051-0.732-3.005-1.031-4.235-0.533
		C176.906,218.599,177.178,220.608,178.626,221.396z"/>
	<path fill="#FFFFFF" stroke="#33313F" stroke-width="3" stroke-miterlimit="10" d="M197.47,231.396
		c-0.248,3.15,0.506,6.281,1.015,9.402c0.638,3.939,0.891,7.934,0.757,11.924c-6.722,0.408-13.448,0.506-20.186,0.293
		c0.627,0.021,0.468-14.24,0.528-15.551c0.076-1.678-0.28-4.566,1.665-5.195c2.044-0.669,4.924-0.256,7.068-0.358
		C191.368,231.769,194.418,231.597,197.47,231.396z"/>
</g>
</svg>
