<?xml version="1.0" encoding="utf-8"?>
<!-- Generator: Adobe Illustrator 17.0.0, SVG Export Plug-In . SVG Version: 6.00 Build 0)  -->
<!DOCTYPE svg PUBLIC "-//W3C//DTD SVG 1.1//EN" "http://www.w3.org/Graphics/SVG/1.1/DTD/svg11.dtd">
<svg version="1.1" id="Layer_1" xmlns="http://www.w3.org/2000/svg" xmlns:xlink="http://www.w3.org/1999/xlink" x="0px" y="0px"
	 width="70px" height="70px" viewBox="0 0 70 70" enable-background="new 0 0 70 70" xml:space="preserve">
<g>
	<path fill="#0010B3" d="M3.508,45.572c-1.023,0-1.937,0-2.903,0c0-15.199,0-30.359,0-45.572c22.917,0,45.822,0,68.789,0
		c0,15.169,0,30.327,0,45.547c-0.943,0-1.875,0-2.904,0c0-14.16,0-28.317,0-42.547c-0.399-0.019-0.707-0.047-1.016-0.047
		c-20.285-0.001-40.571,0-60.856,0.001C3.546,2.953,3.55,2.95,3.55,4.03C3.549,17.598,3.548,31.165,3.545,44.733
		C3.545,44.99,3.523,45.247,3.508,45.572z"/>
	<path fill="#0010B3" d="M27.855,34.125c1.043,0,1.976,0,2.955,0c0,7.11,0,14.182,0,21.314c-0.339,0.016-0.65,0.043-0.961,0.043
		c-4.11,0.003-8.22,0.018-12.33-0.013c-0.698-0.005-0.912,0.192-0.885,0.889c0.052,1.364,0.015,2.732,0.015,4.155
		c-4.376,0-8.682,0-13.056,0c0-4.343,0-8.675,0-13.071c4.296,0,8.603,0,13.025,0c0,1.613,0,3.253,0,4.953c3.786,0,7.456,0,11.237,0
		C27.855,46.305,27.855,40.236,27.855,34.125z M6.555,50.424c0,2.4,0,4.705,0,7.061c2.369,0,4.692,0,7.052,0
		c0-2.375,0-4.696,0-7.061C11.24,50.424,8.936,50.424,6.555,50.424z"/>
	<path fill="#0010B3" d="M38.386,55.434c0-4.064,0-8.059,0-12.114c0.949,0,1.881,0,2.94,0c0,3.002,0,6.012,0,9.078
		c4.244,0,8.362,0,12.578,0c0-1.656,0-3.28,0-4.962c4.405,0,8.713,0,13.091,0c0,4.332,0,8.683,0,13.083
		c-0.245,0.016-0.475,0.044-0.705,0.044c-3.846,0.004-7.693-0.011-11.539,0.02c-0.668,0.005-0.865-0.204-0.839-0.852
		c0.045-1.105-0.025-2.214,0.026-3.318c0.032-0.708-0.172-0.95-0.918-0.945c-4.531,0.033-9.062,0.016-13.594,0.013
		C39.091,55.481,38.756,55.452,38.386,55.434z M56.995,50.426c0,2.418,0,4.742,0,7.11c2.225,0,4.38-0.01,6.536,0.007
		c0.557,0.005,0.558-0.324,0.556-0.719c-0.006-1.631-0.003-3.262-0.003-4.892c0-0.487,0-0.975,0-1.505
		C61.648,50.426,59.345,50.426,56.995,50.426z"/>
	<path fill="#0010B3" d="M36.092,38.085c0,1.178,0,2.33,0,3.482c-0.001,4.793,0.014,9.586-0.02,14.379
		c-0.005,0.738,0.216,0.946,0.931,0.918c1.338-0.052,2.68-0.015,4.076-0.015c0.032,0.24,0.082,0.439,0.082,0.637
		c0.005,3.924,0,7.848,0.009,11.772c0.001,0.45-0.041,0.744-0.62,0.742c-4.003-0.019-8.006-0.011-12.009-0.015
		c-0.128,0-0.255-0.036-0.441-0.064c0-4.321,0-8.628,0-13.046c1.62,0,3.259,0,4.975,0c0-6.313,0-12.516,0-18.79
		C34.08,38.085,35.012,38.085,36.092,38.085z M38.107,66.938c0-2.408,0-4.729,0-7.109c-1.803,0-3.534,0.005-5.265-0.001
		c-1.832-0.006-1.829-0.011-1.824,1.803c0.004,1.753,0.001,3.506,0.001,5.308C33.433,66.938,35.756,66.938,38.107,66.938z"/>
	<path fill="#0010B3" d="M26.952,22.526c0-1.631-0.012-3.263,0.003-4.894c0.019-2.133,1.69-3.237,3.602-2.308
		c3.473,1.688,6.916,3.438,10.362,5.181c0.794,0.401,1.328,1.028,1.338,1.982c0.01,0.955-0.506,1.596-1.304,1.999
		c-3.469,1.756-6.934,3.523-10.434,5.217c-1.879,0.909-3.54-0.195-3.563-2.284C26.938,25.789,26.953,24.158,26.952,22.526z
		 M29.983,26.628c2.781-1.392,5.428-2.717,8.238-4.124c-2.849-1.422-5.491-2.74-8.238-4.11C29.983,21.181,29.983,23.8,29.983,26.628
		z"/>
	<path fill="#0010B3" d="M44.035,45.02c0-1.019,0-1.936,0-2.918c6.518,0,13.004,0,19.506,0c0,0.992,0,1.93,0,2.918
		C57.035,45.02,50.571,45.02,44.035,45.02z"/>
	<path fill="#0010B3" d="M10.297,39.183c1.049,0,1.962,0,2.938,0c0,1.934,0,3.859,0,5.886c-0.795,0-1.576,0-2.357,0
		c-1.235,0.001-2.471-0.028-3.705,0.015c-0.604,0.021-0.792-0.195-0.748-0.773c0.041-0.549,0.031-1.104-0.001-1.654
		c-0.03-0.498,0.189-0.645,0.651-0.626c0.63,0.025,1.261,0.017,1.892,0.007c1.435-0.023,1.316,0.23,1.329-1.367
		C10.3,40.202,10.297,39.733,10.297,39.183z"/>
	<path fill="#0010B3" d="M16.72,44.99c0-0.958,0-1.897,0-2.896c0.24-0.019,0.47-0.052,0.7-0.053
		c2.422-0.004,4.845,0.013,7.267-0.014c0.583-0.006,0.815,0.163,0.764,0.762c-0.046,0.549-0.027,1.106-0.007,1.658
		c0.015,0.419-0.105,0.627-0.573,0.625c-2.607-0.015-5.213-0.009-7.82-0.013C16.95,45.06,16.851,45.019,16.72,44.99z"/>
	<path fill="#0010B3" d="M55.383,5.063c2.407,0,4.71,0,7.113,0c0,0.897,0.021,1.757-0.023,2.613
		c-0.006,0.124-0.318,0.331-0.491,0.333c-2.026,0.024-4.053,0.026-6.079-0.003c-0.175-0.002-0.488-0.256-0.497-0.406
		C55.357,6.769,55.383,5.935,55.383,5.063z"/>
	<path fill="#0010B3" d="M6.523,5.053c1.222,0,2.294,0,3.496,0c0,0.884,0.021,1.742-0.022,2.596C9.99,7.783,9.698,8.004,9.53,8.011
		c-0.841,0.035-1.686,0.038-2.526-0.01c-0.168-0.01-0.45-0.283-0.459-0.447C6.497,6.746,6.523,5.934,6.523,5.053z"/>
</g>
</svg>
