<?xml version="1.0" encoding="utf-8"?>
<!-- Generator: Adobe Illustrator 17.0.0, SVG Export Plug-In . SVG Version: 6.00 Build 0)  -->
<!DOCTYPE svg PUBLIC "-//W3C//DTD SVG 1.1//EN" "http://www.w3.org/Graphics/SVG/1.1/DTD/svg11.dtd">
<svg version="1.1" id="Layer_1" xmlns="http://www.w3.org/2000/svg" xmlns:xlink="http://www.w3.org/1999/xlink" x="0px" y="0px"
	 width="70px" height="70px" viewBox="0 0 70 70" enable-background="new 0 0 70 70" xml:space="preserve">
<g>
	<path fill="#0010B3" d="M24.426,59.689c0.358-2.918,0.709-5.778,1.067-8.698c-0.167,0-0.319,0-0.471,0c-8.118,0-16.235,0-24.353,0
		c-0.634,0-0.67-0.036-0.67-0.663C0,36.426,0,22.525,0,8.623c0-0.632,0.035-0.667,0.665-0.667c20.681,0,41.361,0,62.042,0
		c0.632,0,0.675,0.042,0.675,0.663c0,6.73,0,13.46,0,20.189c0,0.13,0,0.259,0,0.389c0.022,0.006,0.045,0.011,0.067,0.017
		c0.077-0.174,0.16-0.345,0.23-0.521c0.169-0.42,0.472-0.647,0.928-0.656c0.245-0.004,0.491-0.005,0.736,0.003
		c0.432,0.013,0.737,0.209,0.926,0.61c1.156,2.453,2.329,4.898,3.468,7.359c0.165,0.356,0.247,0.782,0.248,1.176
		c0.015,7.688,0.016,15.375,0.011,23.063c-0.001,1.101-0.704,1.786-1.814,1.79c-2.137,0.008-4.274,0.005-6.41,0.002
		c-1.111-0.002-1.798-0.682-1.8-1.79c-0.005-2.91-0.002-5.821-0.002-8.732c0-0.144,0-0.287,0-0.449c-7.381,0-14.719,0-22.105,0
		c0.352,2.861,0.701,5.704,1.058,8.603c0.144,0,0.285,0,0.426,0c2.739,0,5.477,0,8.216,0c0.536,0,0.61,0.076,0.612,0.62
		c0.001,0.405,0,0.811,0,1.216c0,0.311-0.132,0.49-0.467,0.47c-0.073-0.005-0.147,0-0.221,0c-10.549,0-21.098,0-31.647,0
		c-0.672,0-0.68-0.008-0.681-0.677c0-0.356-0.002-0.712,0.001-1.068c0.004-0.445,0.096-0.54,0.542-0.541
		c1.339-0.003,2.677-0.001,4.016-0.001c1.425,0,2.849,0,4.274,0C24.128,59.689,24.26,59.689,24.426,59.689z M2.375,10.298
		c0,12.776,0,25.525,0,38.283c19.208,0,38.385,0,57.6,0c0-0.153,0-0.285,0-0.417c0.003-3.525-0.013-7.049,0.025-10.574
		c0.007-0.622,0.138-1.285,0.387-1.853c0.444-1.014,0.654-2.04,0.652-3.141c-0.015-7.295-0.014-14.59-0.019-21.884
		c0-0.132,0-0.263,0-0.415C41.456,10.298,21.933,10.298,2.375,10.298z M67.604,38.462c-0.814,0-1.587-0.006-2.36,0.003
		c-0.343,0.004-0.497-0.144-0.485-0.488c0.011-0.307,0.014-0.615-0.001-0.921c-0.017-0.337,0.145-0.467,0.462-0.465
		c0.528,0.004,1.056,0.001,1.584,0c0.199,0,0.398,0,0.65,0c-0.837-1.744-1.634-3.408-2.453-5.114
		c-0.065,0.095-0.096,0.13-0.115,0.171c-0.774,1.629-1.563,3.251-2.308,4.894c-0.161,0.355-0.229,0.782-0.231,1.177
		c-0.017,5.194-0.015,10.389-0.018,15.583c0,0.132,0,0.263,0,0.415c1.777,0,3.515,0,5.275,0
		C67.604,48.634,67.604,43.569,67.604,38.462z M37.01,59.63c-0.018-0.213-0.028-0.383-0.049-0.551
		c-0.308-2.545-0.625-5.088-0.919-7.635c-0.04-0.348-0.159-0.451-0.5-0.449c-2.344,0.012-4.689,0.006-7.033,0.006
		c-0.378,0-0.757,0-1.163,0c-0.354,2.892-0.704,5.754-1.055,8.629C29.892,59.63,33.424,59.63,37.01,59.63z M62.394,55.729
		c0,1.303,0,2.584,0,3.861c1.762,0,3.497,0,5.233,0c0-1.299,0-2.571,0-3.861C65.883,55.729,64.158,55.729,62.394,55.729z"/>
	<path fill="#0010B3" d="M31.63,42.973c-8.94,0-17.88,0-26.82,0c-0.718,0-0.741-0.024-0.741-0.749c0-9.787,0-19.574,0-29.362
		c0-0.721,0.047-0.768,0.773-0.768c17.867,0,35.735,0,53.602,0c0.73,0,0.777,0.047,0.777,0.763c0,9.787,0,19.574,0,29.362
		c0,0.73-0.023,0.754-0.735,0.754C49.534,42.973,40.582,42.973,31.63,42.973z M57.277,28.543c0.031-0.025,0.061-0.05,0.092-0.074
		c0-4.817,0-9.634,0-14.452c-11.614,0-23.201,0-34.795,0c0,4.859,0,9.699,0,14.546c0.075,0.007,0.123,0.016,0.17,0.016
		c2.259-0.004,4.518-0.014,6.778-0.01c0.368,0.001,0.634-0.168,0.87-0.41c2.139-2.2,4.276-4.402,6.41-6.607
		c0.321-0.332,0.44-0.345,0.781-0.009c0.481,0.474,0.963,0.947,1.437,1.428c0.435,0.442,0.86,0.895,1.337,1.393
		c0.177-0.204,0.289-0.352,0.419-0.481c2.108-2.095,4.217-4.187,6.327-6.279c0.304-0.302,0.451-0.295,0.722,0.022
		c2.866,3.346,5.73,6.692,8.6,10.035C56.691,27.968,56.992,28.248,57.277,28.543z M27.789,30.496c0,2.604,0,5.188,0,7.737
		c0.139-0.067,0.282-0.191,0.429-0.196c0.638-0.022,1.277-0.015,1.915-0.008c0.26,0.003,0.411,0.145,0.415,0.414
		c0.004,0.295-0.002,0.589,0.004,0.884c0.008,0.354-0.159,0.517-0.512,0.514c-0.577-0.005-1.155,0.014-1.731-0.011
		c-0.181-0.008-0.357-0.124-0.519-0.185c0,0.452,0,0.95,0,1.461c9.864,0,19.706,0,29.567,0c0-2.507,0-4.993,0-7.513
		c-0.535,0-1.049,0.006-1.562-0.002c-0.395-0.006-0.497-0.113-0.507-0.511c-0.007-0.27-0.004-0.54-0.001-0.81
		c0.005-0.485,0.098-0.579,0.586-0.581c0.499-0.003,0.999-0.001,1.499-0.001c0-0.426,0-0.81,0-1.192
		C47.499,30.496,37.654,30.496,27.789,30.496z M25.803,39.817c-0.173,0-0.306,0-0.439,0c-0.626,0-1.253-0.007-1.879,0.002
		c-0.341,0.005-0.5-0.148-0.493-0.486c0.005-0.233,0-0.467,0.001-0.7c0.001-0.553,0.059-0.612,0.612-0.612
		c0.733-0.001,1.466,0,2.215,0c0-2.528,0-5.015,0-7.523c-6.61,0-13.199,0-19.812,0c0,0.412,0,0.809,0,1.239
		c0.364,0,0.706,0.002,1.047-0.001c0.273-0.002,0.41,0.132,0.412,0.403c0.003,0.332-0.008,0.663,0.005,0.995
		c0.014,0.363-0.155,0.514-0.508,0.505c-0.326-0.009-0.652-0.002-0.985-0.002c0,2.506,0,4.956,0,7.408c6.62,0,13.217,0,19.823,0
		C25.803,40.631,25.803,40.254,25.803,39.817z M5.983,28.494c4.887,0,9.741,0,14.607,0c0-4.839,0-9.655,0-14.475
		c-4.881,0-9.737,0-14.607,0C5.983,18.849,5.983,23.657,5.983,28.494z M32.824,28.498c7.333,0,14.577,0,21.875,0
		c-2.497-2.902-4.957-5.762-7.453-8.662c-0.107,0.127-0.188,0.235-0.281,0.332c-2.071,2.146-4.142,4.292-6.215,6.436
		c-0.393,0.406-0.476,0.394-0.893-0.005c-0.841-0.807-1.692-1.604-2.557-2.423C35.88,25.549,34.376,27.001,32.824,28.498z"/>
	<path fill="#0010B3" d="M56.261,47.108c-0.683-0.004-1.183-0.45-1.177-1.051c0.006-0.535,0.724-1.397,1.168-1.402
		c0.445-0.005,1.129,0.838,1.138,1.403C57.401,46.662,56.917,47.112,56.261,47.108z"/>
	<path fill="#0010B3" d="M52.081,45.972c-0.005-0.708,0.438-1.169,1.13-1.175c0.694-0.006,1.177,0.522,1.201,1.313
		c0.011,0.382-0.758,0.973-1.279,0.982C52.514,47.103,52.086,46.647,52.081,45.972z"/>
	<path fill="#0010B3" d="M32.333,15.231c1.721,0.001,3.111,1.394,3.109,3.116c-0.002,1.728-1.382,3.095-3.122,3.093
		c-1.691-0.001-3.077-1.403-3.075-3.109C29.248,16.637,30.649,15.23,32.333,15.231z M32.362,19.524
		c0.673-0.007,1.219-0.555,1.212-1.217c-0.007-0.673-0.581-1.221-1.266-1.208c-0.66,0.013-1.211,0.585-1.194,1.24
		C31.132,19.003,31.688,19.531,32.362,19.524z"/>
	<path fill="#0010B3" d="M51.314,33.533c-0.921,0-1.841-0.009-2.761,0.004c-0.354,0.005-0.49-0.159-0.488-0.487
		c0.002-0.258-0.003-0.516,0.001-0.773c0.007-0.417,0.104-0.518,0.53-0.519c1.375-0.004,2.749-0.001,4.124-0.001
		c0.454,0,0.908,0.004,1.362-0.001c0.305-0.003,0.456,0.133,0.451,0.443c-0.005,0.294-0.013,0.59,0.002,0.884
		c0.018,0.337-0.134,0.458-0.46,0.455C53.155,33.527,52.235,33.533,51.314,33.533z"/>
	<path fill="#0010B3" d="M40.581,34.888c0.724,0,1.448-0.002,2.173,0.001c0.476,0.002,0.566,0.091,0.57,0.554
		c0.003,0.258,0.001,0.516,0,0.773c-0.002,0.293-0.135,0.46-0.445,0.46c-1.547-0.001-3.093,0-4.64,0
		c-0.31,0-0.482-0.143-0.482-0.466c-0.001-1.483-0.125-1.315,1.204-1.322C39.501,34.885,40.041,34.888,40.581,34.888z"/>
	<path fill="#0010B3" d="M49.332,39.81c-0.699,0-1.398,0.004-2.097-0.001c-0.396-0.003-0.5-0.108-0.508-0.501
		c-0.006-0.282-0.003-0.564,0.001-0.846c0.004-0.283,0.154-0.431,0.435-0.431c1.447-0.002,2.894-0.002,4.341,0
		c0.258,0,0.423,0.125,0.43,0.396c0.009,0.331,0.014,0.662,0,0.993c-0.012,0.288-0.191,0.395-0.469,0.393
		C50.754,39.805,50.043,39.81,49.332,39.81z"/>
	<path fill="#0010B3" d="M30.708,31.748c0.625,0,1.25,0.008,1.875-0.003c0.313-0.006,0.452,0.126,0.445,0.436
		c-0.007,0.331-0.001,0.662-0.004,0.992c-0.003,0.237-0.122,0.362-0.364,0.362c-1.323,0-2.647,0.001-3.97,0
		c-0.259,0-0.379-0.155-0.386-0.395c-0.01-0.318-0.004-0.637-0.003-0.956c0.001-0.304,0.153-0.441,0.459-0.438
		C29.41,31.753,30.059,31.748,30.708,31.748z"/>
	<path fill="#0010B3" d="M43.717,39.8c-0.588,0-1.176-0.006-1.763,0.002c-0.313,0.005-0.45-0.149-0.455-0.443
		c-0.005-0.294,0-0.588-0.001-0.882c-0.002-0.305,0.159-0.45,0.453-0.451c1.188-0.002,2.375-0.003,3.563,0.001
		c0.277,0.001,0.433,0.145,0.435,0.432c0.002,0.294,0.003,0.588,0.001,0.882c-0.002,0.31-0.135,0.471-0.47,0.463
		C44.893,39.79,44.305,39.8,43.717,39.8z"/>
	<path fill="#0010B3" d="M35.785,33.537c-0.503,0-1.006-0.008-1.508,0.003c-0.321,0.007-0.481-0.112-0.463-0.453
		c0.016-0.293,0.007-0.588,0.002-0.883c-0.004-0.284,0.121-0.443,0.413-0.444c1.03-0.002,2.06-0.001,3.09,0
		c0.295,0,0.46,0.139,0.459,0.446c0,0.294,0.002,0.589-0.001,0.883c-0.003,0.318-0.158,0.461-0.484,0.452
		C36.791,33.527,36.288,33.537,35.785,33.537z"/>
	<path fill="#0010B3" d="M45.52,36.696c-0.331,0-0.661-0.009-0.991,0.003c-0.301,0.01-0.426-0.147-0.433-0.421
		c-0.008-0.318-0.006-0.637,0-0.955c0.005-0.279,0.144-0.427,0.434-0.425c0.673,0.003,1.346-0.001,2.02,0.003
		c0.265,0.001,0.407,0.128,0.401,0.408c-0.007,0.33-0.003,0.661-0.001,0.991c0.002,0.271-0.117,0.406-0.401,0.398
		C46.206,36.688,45.863,36.695,45.52,36.696z"/>
	<path fill="#0010B3" d="M35.761,36.689c-0.269,0-0.538,0.004-0.808-0.001c-0.251-0.004-0.385-0.138-0.39-0.389
		c-0.005-0.281-0.008-0.563,0-0.844c0.007-0.261,0.141-0.409,0.413-0.409c0.538,0,1.077-0.004,1.615,0.002
		c0.259,0.003,0.413,0.118,0.402,0.405c-0.01,0.269-0.004,0.538-0.002,0.807c0.003,0.288-0.136,0.431-0.424,0.43
		c-0.269-0.001-0.538,0-0.808,0C35.761,36.69,35.761,36.689,35.761,36.689z"/>
	<path fill="#0010B3" d="M18.531,36.688c-0.823,0-1.645,0.002-2.468-0.001c-0.425-0.002-0.52-0.099-0.524-0.519
		c-0.003-0.27,0.009-0.541-0.003-0.81c-0.014-0.31,0.118-0.451,0.431-0.451c1.731,0.004,3.462,0.002,5.193,0.001
		c0.294,0,0.423,0.156,0.425,0.435c0.002,0.295-0.002,0.589,0.001,0.884c0.004,0.325-0.157,0.464-0.478,0.462
		C20.25,36.684,19.391,36.688,18.531,36.688z"/>
	<path fill="#0010B3" d="M12.918,36.693c-0.453,0-0.906-0.001-1.358,0c-0.285,0.001-0.433-0.132-0.431-0.424
		c0.003-0.318-0.005-0.636,0.003-0.954c0.006-0.263,0.141-0.406,0.414-0.406c0.918,0.001,1.836,0.002,2.753-0.001
		c0.292-0.001,0.426,0.15,0.431,0.428c0.005,0.306-0.002,0.612,0.003,0.918c0.004,0.313-0.159,0.441-0.456,0.439
		C13.823,36.691,13.37,36.693,12.918,36.693z"/>
	<path fill="#0010B3" d="M20.572,39.8c-0.429,0-0.857-0.007-1.286,0.002c-0.314,0.007-0.447-0.134-0.437-0.443
		c0.01-0.294,0.009-0.588,0-0.882c-0.009-0.297,0.147-0.435,0.421-0.437c0.857-0.007,1.715-0.005,2.572-0.001
		c0.296,0.001,0.449,0.155,0.446,0.459c-0.003,0.282-0.001,0.563,0,0.845c0.001,0.314-0.134,0.473-0.469,0.461
		C21.405,39.789,20.988,39.8,20.572,39.8z"/>
	<path fill="#0010B3" d="M9.261,31.748c0.184,0,0.368,0.01,0.55-0.002c0.327-0.021,0.478,0.134,0.481,0.451
		c0.003,0.281,0.003,0.563-0.001,0.844c-0.004,0.296-0.153,0.453-0.453,0.454c-0.391,0.001-0.783,0.004-1.174-0.001
		c-0.299-0.004-0.443-0.155-0.431-0.463c0.011-0.281,0.007-0.563,0.001-0.844c-0.007-0.304,0.122-0.457,0.439-0.44
		C8.869,31.757,9.065,31.748,9.261,31.748z"/>
	<path fill="#0010B3" d="M14.852,16.319c1.007,0,2.014-0.002,3.02,0.001c0.484,0.002,0.561,0.08,0.565,0.548
		c0.002,0.246-0.011,0.492,0.003,0.737c0.02,0.353-0.155,0.491-0.486,0.484c-0.172-0.004-0.344,0-0.516,0
		c-1.842,0-3.683,0.001-5.525,0c-0.563,0-0.631-0.074-0.635-0.641c-0.009-1.23-0.049-1.128,1.106-1.128
		C13.207,16.319,14.03,16.319,14.852,16.319z"/>
	<path fill="#0010B3" d="M14.875,25.972c-1.005,0-2.011,0.003-3.016-0.001c-0.466-0.002-0.555-0.097-0.562-0.565
		c-0.004-0.233-0.006-0.466,0.001-0.699c0.013-0.411,0.116-0.521,0.536-0.522c2.035-0.005,4.071-0.001,6.106-0.003
		c0.325,0,0.51,0.125,0.493,0.482c-0.014,0.281-0.015,0.565,0,0.846c0.02,0.371-0.19,0.463-0.505,0.463
		C16.91,25.971,15.892,25.972,14.875,25.972z"/>
	<path fill="#0010B3" d="M14.857,20.259c1.018,0,2.035-0.002,3.053,0.001c0.397,0.001,0.495,0.102,0.502,0.502
		c0.004,0.233,0.004,0.466,0,0.699c-0.008,0.455-0.107,0.555-0.573,0.555c-2.011,0.002-4.021,0.002-6.032,0
		c-0.425,0-0.522-0.098-0.532-0.515c-0.006-0.233-0.002-0.466-0.001-0.699c0.003-0.463,0.078-0.542,0.53-0.543
		C12.822,20.258,13.84,20.259,14.857,20.259z"/>
	<path fill="#0010B3" d="M9.222,19.971c0.673,0.011,1.177,0.48,1.159,1.079c-0.015,0.504-0.657,1.297-1.039,1.285
		c-0.719-0.023-1.3-0.568-1.287-1.205C8.07,20.446,8.559,19.959,9.222,19.971z"/>
	<path fill="#0010B3" d="M10.386,25.056c0.011,0.683-0.46,1.165-1.14,1.168c-0.677,0.002-1.154-0.411-1.167-1.01
		c-0.011-0.525,0.58-1.304,0.99-1.306C9.816,23.904,10.375,24.392,10.386,25.056z"/>
	<path fill="#0010B3" d="M9.226,16.057c0.688-0.002,1.165,0.469,1.16,1.145c-0.006,0.685-0.559,1.162-1.335,1.152
		c-0.405-0.005-0.963-0.742-0.965-1.274C8.083,16.473,8.544,16.059,9.226,16.057z"/>
</g>
</svg>
