<?xml version="1.0" encoding="utf-8"?>
<!-- Generator: Adobe Illustrator 17.0.0, SVG Export Plug-In . SVG Version: 6.00 Build 0)  -->
<!DOCTYPE svg PUBLIC "-//W3C//DTD SVG 1.1//EN" "http://www.w3.org/Graphics/SVG/1.1/DTD/svg11.dtd">
<svg version="1.1" id="Layer_1" xmlns="http://www.w3.org/2000/svg" xmlns:xlink="http://www.w3.org/1999/xlink" x="0px" y="0px"
	 width="776.04px" height="859.54px" viewBox="-163.02 -258.183 776.04 859.54"
	 enable-background="new -163.02 -258.183 776.04 859.54" xml:space="preserve">
<g>
	<circle fill="#FF6584" cx="550.066" cy="12.98" r="60.761"/>
	
		<line fill="none" stroke="#3F3D56" stroke-width="1.9862" stroke-miterlimit="10" x1="318.629" y1="411.845" x2="318.629" y2="301.627"/>
	<circle fill="#3F3D56" cx="318.629" cy="301.627" r="15.586"/>
	<path fill="#3F3D56" d="M318.629,369.557c0,0-2.226-47.889-47.873-42.324"/>
	
		<line fill="none" stroke="#3F3D56" stroke-width="1.9862" stroke-miterlimit="10" x1="538.186" y1="412.618" x2="538.186" y2="44.983"/>
	<circle fill="#3F3D56" cx="538.186" cy="44.807" r="15.586"/>
	<circle fill="#3F3D56" cx="490.313" cy="310.795" r="15.586"/>
	<path fill="#3F3D56" d="M538.186,124.424c0,0-2.226-47.889-47.873-42.324"/>
	<path fill="#3F3D56" d="M538.186,260.187c0,0-2.226-47.889-47.873-42.324"/>
	<path fill="none" stroke="#3F3D56" stroke-width="1.9862" stroke-miterlimit="10" d="M538.186,408.333
		c0,0,10.02-93.085-47.873-97.54"/>
	<circle fill="#3F3D56" cx="586.065" cy="310.795" r="15.586"/>
	<path fill="none" stroke="#3F3D56" stroke-width="1.9862" stroke-miterlimit="10" d="M538.193,408.333
		c0,0-10.02-93.085,47.873-97.54"/>
	<circle fill="#3F3D56" cx="587.014" cy="164.588" r="15.586"/>
	<path fill="none" stroke="#3F3D56" stroke-width="1.9862" stroke-miterlimit="10" d="M539.143,257.162
		c0,0-10.02-88.121,47.873-92.574"/>
	
		<line fill="none" stroke="#3F3D56" stroke-width="1.9862" stroke-miterlimit="10" x1="434.926" y1="412.099" x2="434.926" y2="187.692"/>
	<circle fill="#3F3D56" cx="434.926" cy="187.692" r="15.586"/>
	<path fill="#3F3D56" d="M434.926,251.168c0,0-2.226-47.889-47.873-42.324"/>
	<path fill="none" stroke="#3F3D56" stroke-width="1.9862" stroke-miterlimit="10" d="M434.926,407.816
		c0,0,10.02-92.093-47.873-96.546"/>
	<circle fill="#3F3D56" cx="387.053" cy="311.269" r="15.586"/>
	
		<line fill="none" stroke="#3F3D56" stroke-width="1.9862" stroke-miterlimit="10" x1="262.975" y1="411.884" x2="584.725" y2="411.884"/>
	
		<rect x="34.587" y="-108.211" fill="none" stroke="#3F3D56" stroke-width="1.9862" stroke-miterlimit="10" width="444.419" height="519.482"/>
	
		<line fill="none" stroke="#3F3D56" stroke-width="1.9862" stroke-miterlimit="10" x1="34.587" y1="-63.358" x2="479.006" y2="-63.358"/>
	<circle fill="#FFFFFF" stroke="#000000" stroke-width="0.993" stroke-miterlimit="10" cx="458.751" cy="-85.574" r="7.745"/>
	
		<line fill="none" stroke="#000000" stroke-width="0.993" stroke-miterlimit="10" x1="455.265" y1="-89.059" x2="462.236" y2="-82.088"/>
	
		<line fill="none" stroke="#000000" stroke-width="0.993" stroke-miterlimit="10" x1="462.236" y1="-89.059" x2="455.265" y2="-82.088"/>
	<circle fill="none" stroke="#3F3D56" stroke-width="1.9862" stroke-miterlimit="10" cx="458.751" cy="-85.574" r="7.745"/>
	
		<line fill="none" stroke="#3F3D56" stroke-width="1.9862" stroke-miterlimit="10" x1="455.265" y1="-89.059" x2="462.236" y2="-82.088"/>
	
		<line fill="none" stroke="#3F3D56" stroke-width="1.9862" stroke-miterlimit="10" x1="462.236" y1="-89.059" x2="455.265" y2="-82.088"/>
	<rect x="66.756" y="-90.339" fill="#3F3D56" width="69.105" height="9.531"/>
	<rect x="187.096" y="-90.339" fill="#3F3D56" width="69.105" height="9.531"/>
	<rect x="307.434" y="-90.339" fill="#3F3D56" width="69.105" height="9.531"/>
	<rect x="135.863" y="6.171" fill="#3F3D56" width="240.677" height="28.596"/>
	<rect x="60.8" y="114.594" fill="#FF0000" width="390.803" height="200.167"/>
	<circle fill="#3F3D56" cx="239.52" cy="383.866" r="5.957"/>
	<circle fill="#3F3D56" cx="256.201" cy="383.866" r="5.957"/>
	<circle fill="#3F3D56" cx="272.882" cy="383.866" r="5.957"/>
	<rect x="96.919" y="46.392" fill="#F2F2F2" width="382.463" height="51.233"/>
	
		<rect x="86.817" y="37.148" fill="none" stroke="#3F3D56" stroke-width="1.9862" stroke-miterlimit="10" width="382.463" height="51.233"/>
	<rect x="123.156" y="57.999" fill="#3F3D56" width="69.105" height="9.531"/>
	<rect x="243.496" y="57.999" fill="#3F3D56" width="69.105" height="9.531"/>
	<rect x="363.834" y="57.999" fill="#3F3D56" width="69.105" height="9.531"/>
	<rect x="-25.271" y="70.624" fill="#F2F2F2" width="70.623" height="76.591"/>
	
		<rect x="-16.553" y="65.077" fill="none" stroke="#3F3D56" stroke-width="1.9862" stroke-miterlimit="10" width="70.623" height="76.591"/>
	<path fill="#2F2E41" d="M-100.844,424.361c0,0,36.278,19.796,34.797,25.955c-0.803,3.34-20.309-1.649-38.658-8.013
		c-15.475-5.367,8.587-2.99,6.661-6.135C-102.253,429.293-100.844,424.361-100.844,424.361z"/>
	<path fill="#2F2E41" d="M-13.636,418.571c0,0,39.901,10.767,39.901,17.101s-68.4,0-74.101-5.701
		C-53.536,424.272-13.636,418.571-13.636,418.571z"/>
	<path fill="#2F2E41" d="M-82.037,139.901l17.101,28.501c0,0,28.501,74.101,34.2,119.702c5.701,45.6,39.901,125.401,28.501,136.801
		c-11.4,11.4-68.4,12.033-68.4,0V191.202L-82.037,139.901z"/>
	<path opacity="0.1" enable-background="new    " d="M-82.037,139.901l17.101,28.501c0,0,28.501,74.101,34.2,119.702
		c5.701,45.6,39.901,125.401,28.501,136.801c-11.4,11.4-68.4,12.033-68.4,0V191.202L-82.037,139.901z"/>
	<path fill="#A0616A" d="M-127.637,117.101v22.8c0,5.701,34.2,5.701,34.2,5.701v-22.8L-127.637,117.101z"/>
	<path fill="#2F2E41" d="M-110.536,128.501l-16.783,5.383c0,0-17.418,33.251-11.717,50.985s22.8,114.634,22.8,114.634v62.701
		c0,0-34.2,57-17.101,68.4c17.099,11.4,51.301,23.433,57,17.101c5.699-6.332,11.4-245.102,11.4-245.102v-34.2l-5.701-45.6
		L-110.536,128.501z"/>
	<circle fill="#2F2E41" cx="-80.903" cy="-27.093" r="33.385"/>
	<circle fill="#2F2E41" cx="-117.07" cy="-71.048" r="33.385"/>
	<path fill="#2F2E41" d="M-145.865-43.405c14.944,10.801,35.815,7.443,46.616-7.502c2.198-3.042,3.868-6.431,4.939-10.028
		c-2.3,18.294-18.997,31.26-37.29,28.959c-18.297-2.298-31.262-18.993-28.962-37.289c0.229-1.815,0.604-3.607,1.127-5.359
		C-160.957-62.519-155.755-50.549-145.865-43.405z"/>
	<ellipse fill="#2F2E41" cx="-69.219" cy="-30.708" rx="21.7" ry="16.97"/>
	<circle fill="#A0616A" cx="-76.019" cy="-20.016" r="28.183"/>
	<path fill="#A0616A" d="M-93.437-2.601c0,0,5.701,11.4-5.701,17.101c-11.4,5.701,22.8,28.501,22.8,28.501l11.4-39.901
		L-93.437-2.601z"/>
	<path fill="#FF0000" d="M-87.736,20.199c0,0-11.4-17.101-17.101-5.701c-5.701,11.4-34.2,45.6-34.2,79.801s0,34.2,5.701,34.2
		c5.701,0,22.8-5.701,28.501,0c5.701,5.701,28.501,0,28.501,0l5.701-51.301c0,0,5.701-28.501,0-34.2
		C-76.336,37.3-87.736,20.199-87.736,20.199z"/>
	<path fill="#FF0000" d="M-116.237,43.001c0,0-17.101,85.501,0,91.201c17.101,5.699,68.4,27.866,68.4,22.167
		c0-5.701,5.701-11.4,5.701-11.4s5.701,5.701,5.701,0v-10.767l-57-22.8v-57c0,0,11.4-28.501,0-28.501
		S-116.237,43.001-116.237,43.001z"/>
	<path fill="#A0616A" d="M-42.136,134.202c0,0,39.266,0,39.901,11.4c0.633,11.4-39.901-0.633-39.901-0.633V134.202z"/>
	
		<ellipse transform="matrix(-0.9538 0.3005 -0.3005 -0.9538 -166.9674 -51.7297)" fill="#2F2E41" cx="-79.506" cy="-38.705" rx="25.651" ry="14.251"/>
	<path fill="#FF0000" d="M18.76,85.417c-9.918,0-17.956,8.04-17.956,17.956c0,9.918,8.04,17.956,17.956,17.956
		c9.918,0,17.956-8.04,17.956-17.956l0,0C36.712,93.457,28.674,85.42,18.76,85.417z M15.169,111.454v-16.16l10.774,8.079
		L15.169,111.454z"/>
</g>
</svg>
