<?xml version="1.0" encoding="utf-8"?>
<!-- Generator: Adobe Illustrator 17.0.0, SVG Export Plug-In . SVG Version: 6.00 Build 0)  -->
<!DOCTYPE svg PUBLIC "-//W3C//DTD SVG 1.1//EN" "http://www.w3.org/Graphics/SVG/1.1/DTD/svg11.dtd">
<svg version="1.1" id="Layer_1" xmlns="http://www.w3.org/2000/svg" xmlns:xlink="http://www.w3.org/1999/xlink" x="0px" y="0px"
	 width="450px" height="343.174px" viewBox="0 0 450 343.174" enable-background="new 0 0 450 343.174" xml:space="preserve">
<g>
	<ellipse fill="#3F3D56" cx="381.91" cy="320.976" rx="54.529" ry="7.076"/>
	<rect x="13.561" y="25.128" fill="#F2F2F2" width="164.62" height="102.699"/>
	
		<rect x="23.944" y="15.122" fill="none" stroke="#3F3D56" stroke-width="0.7551" stroke-miterlimit="10" width="164.62" height="102.699"/>
	<path fill="#3F3D56" d="M131.539,91.379c13.86-13.86,13.86-36.332,0-50.193c-6.656-6.656-15.683-10.395-25.096-10.395v35.492
		L131.539,91.379z"/>
	<path fill="#FF0000" d="M106.443,30.791c-19.604,0.002-35.494,15.896-35.492,35.5c0.002,12.994,7.103,24.948,18.513,31.165
		l16.979-31.174V30.791z"/>
	<path fill="#575A89" d="M131.539,91.379l-25.096-25.096L89.465,97.456C103.287,104.977,120.41,102.503,131.539,91.379
		L131.539,91.379z"/>
	<rect x="30.174" y="96.488" fill="#FF0000" width="6.796" height="6.796"/>
	<rect x="39.991" y="96.488" fill="#3F3D56" width="6.796" height="6.796"/>
	<rect x="49.808" y="96.488" fill="#575A89" width="6.796" height="6.796"/>
	<rect x="147.598" y="97.999" fill="#3F3D56" width="27.94" height="1.133"/>
	<rect x="147.598" y="101.397" fill="#3F3D56" width="27.94" height="1.133"/>
	<rect x="147.598" y="104.795" fill="#3F3D56" width="27.94" height="1.133"/>
	<rect x="65.288" y="168.227" fill="#F2F2F2" width="93.637" height="102.699"/>
	
		<rect x="74.727" y="158.41" fill="none" stroke="#3F3D56" stroke-width="0.7551" stroke-miterlimit="10" width="93.637" height="102.699"/>
	<rect x="79.636" y="249.523" fill="#FF0000" width="5.049" height="5.049"/>
	<rect x="86.928" y="249.523" fill="#3F3D56" width="5.049" height="5.049"/>
	<rect x="94.221" y="249.523" fill="#575A89" width="5.049" height="5.049"/>
	<rect x="136.271" y="251.715" fill="#3F3D56" width="19.634" height="0.796"/>
	<rect x="136.271" y="254.103" fill="#3F3D56" width="19.634" height="0.796"/>
	<rect x="136.271" y="256.491" fill="#3F3D56" width="19.634" height="0.796"/>
	<path fill="#3F3D56" d="M121.546,176.533v8.307c13.763,0,24.92,11.157,24.92,24.92c0,6.609-2.625,12.947-7.299,17.621l5.874,5.874
		c12.976-12.976,12.976-34.013,0-46.989C138.809,180.034,130.358,176.533,121.546,176.533z"/>
	<path fill="#575A89" d="M145.04,233.254l-5.874-5.874c-8.811,8.813-22.778,9.76-32.698,2.217l-5.028,6.615
		C114.67,246.266,133.292,245.003,145.04,233.254z"/>
	<path fill="#FF0000" d="M96.626,209.759c0-13.763,11.157-24.92,24.92-24.92v-8.307c-18.35,0-33.226,14.875-33.226,33.225
		c0,10.384,4.854,20.171,13.122,26.454l5.028-6.615C100.264,224.89,96.621,217.548,96.626,209.759z"/>
	<path fill="#FFB9B9" d="M365.314,67.979c0,0-1.541,11.444,2.421,12.765s2.861,11.444,2.861,11.444l-11.885,9.023l-10.564,0.88
		l-2.641-13.645l1.541-3.521c0,0,5.942-7.043,1.761-14.305S365.314,67.979,365.314,67.979z"/>
	<path opacity="0.1" enable-background="new    " d="M365.314,67.979c0,0-1.541,11.444,2.421,12.765s2.861,11.444,2.861,11.444
		l-11.885,9.023l-10.564,0.88l-2.641-13.645l1.541-3.521c0,0,5.942-7.043,1.761-14.305S365.314,67.979,365.314,67.979z"/>
	<path fill="#575A89" d="M354.31,157.113l-13.865,32.572c0,0-10.784-6.162-17.167-5.502c-6.382,0.66-14.305-7.043-14.305-7.043
		l7.923-38.295l14.746-40.716l20.468,12.985L354.31,157.113z"/>
	<path opacity="0.1" enable-background="new    " d="M354.31,157.113l-13.865,32.572c0,0-10.784-6.162-17.167-5.502
		c-6.382,0.66-14.305-7.043-14.305-7.043l7.923-38.295l14.746-40.716l20.468,12.985L354.31,157.113z"/>
	<polygon fill="#575A89" points="376.098,295.546 376.098,306.11 366.194,306.11 367.735,293.785 	"/>
	<polygon fill="#575A89" points="401.848,277.279 409.111,281.681 403.829,293.785 398.327,293.125 393.045,285.642 	"/>
	<path fill="#2F2E41" d="M378.079,154.032l12.985,30.592c0,0-4.622,33.893-4.402,36.754c0.22,2.861,0.44,3.962-0.66,6.382
		c-1.1,2.421-1.541,3.962-0.88,6.823c0.66,2.861,0.88,3.962,0.44,5.062c-0.44,1.1-3.521,46.438-5.062,49.519
		c-1.541,3.081,0.88,8.143-0.66,8.583c-1.541,0.44-12.985-0.66-13.645-3.301c-0.66-2.641,2.201-9.023,0.66-11.004
		s0.22-73.288-1.981-78.13c-2.201-4.842-26.41-9.244-26.41-9.244s-2.201-14.085-0.88-16.286c1.321-2.201,3.081-16.066,3.081-16.066
		L378.079,154.032z"/>
	<path fill="#2F2E41" d="M365.314,304.349c0,0,6.162-7.263,11.444,0c0,0,0.44,8.583,4.182,10.344
		c3.741,1.761,1.981,8.803-3.301,9.023c-5.282,0.22-12.105,1.1-12.325-1.761c-0.22-2.861,0.88-4.622-1.1-5.502
		c-1.981-0.88,0-5.942,0-5.942L365.314,304.349z"/>
	<path fill="#2F2E41" d="M365.974,199.149c0,0-0.22,15.846-1.761,18.047c-1.541,2.201-2.421,3.521-1.541,5.942
		s2.201,6.823,1.541,7.703c-0.66,0.88,0.66,5.502,0.66,5.502s16.946,8.143,24.87,25.09c0,0,8.143,13.425,10.564,13.645
		c2.421,0.22,5.282-1.541,3.962,3.521c-1.32,5.062-6.382,11.664-10.124,11.004c-3.741-0.66-6.603-7.043-6.603-7.043
		s-29.271-29.711-32.352-30.592c-3.081-0.88-11.885-7.923-13.425-12.325c-1.541-4.402-4.842-41.156-3.301-43.577
		s7.263-5.722,7.263-5.722L365.974,199.149z"/>
	<path fill="#2F2E41" d="M404.049,276.399c0,0,13.645,0.44,13.865,3.741s-5.722,22.889-4.842,27.51
		c0.88,4.622-6.823,15.186-11.885,12.985c-5.062-2.201-1.1-13.645-1.1-13.645s-5.062-15.626-4.182-15.846
		c0.88-0.22,9.684-2.861,9.244-5.502C404.709,283.001,404.049,276.399,404.049,276.399z"/>
	<circle fill="#FFB9B9" cx="355.08" cy="66.109" r="13.645"/>
	<path fill="#FF0000" d="M368.835,87.127c0,0-7.483,7.923-12.985,6.603c-5.502-1.321-8.363-10.784-8.363-10.784l-9.904-1.761
		c0,0-7.043,31.252-7.043,34.333s7.043,36.314,7.043,42.256s-5.722,9.464,3.081,9.244c8.803-0.22,4.622-3.081,17.387-3.301
		s14.746,2.641,17.387-1.981c1.801-3.015,4.025-5.758,6.603-8.143l-4.622-16.286l-0.66-45.998c0,0-5.643-11.004-8.213-10.124
		C368.545,81.184,369.936,86.026,368.835,87.127z"/>
	<path fill="#575A89" d="M366.125,79.238c0,0,11.734,1.286,15.036,3.707c3.301,2.421,12.545,4.182,12.325,5.942
		c-0.22,1.761-10.784,26.85-10.784,26.85s-4.842,19.808-0.66,24.429c4.182,4.622,19.808,55.021,17.167,59.203
		c-2.641,4.182-11.004-12.765-11.004-12.765s-11.224-36.314-17.387-42.476c-6.162-6.162-6.603-39.395-6.603-40.936
		S366.125,79.238,366.125,79.238z"/>
	<path fill="#575A89" d="M348.961,81.79c0,0-14.459-5.448-19.521-3.247c-5.062,2.201-8.143,2.641-8.143,2.641l-1.761,21.568
		c0,0-0.66,31.032-6.382,38.515c-5.722,7.483-9.464,38.735-8.583,41.816c0.88,3.081-1.541,8.363,2.201,7.043
		c3.741-1.321,14.085-31.692,14.085-31.692s0-17.387,6.162-22.228c6.162-4.842,16.286-24.869,16.726-29.711
		c0.44-4.842,4.622-18.267,4.622-18.267L348.961,81.79z"/>
	<path fill="#FFB9B9" d="M398.547,151.171c0,0-6.603,12.325-7.483,14.526c-0.88,2.201-7.043,17.167-15.846,13.865
		c-8.803-3.301,8.583-19.367,8.583-19.367l3.962-13.425C387.763,146.769,398.107,144.568,398.547,151.171z"/>
	<path fill="#575A89" d="M323.498,81.184h-2.201c0,0-2.201-1.761-4.842-0.66c-2.641,1.1-8.803-0.44-8.803,0.22
		c0,0.66-6.823-1.981-9.684-0.66s-13.205,1.761-13.205,1.761s-4.182,10.564-1.32,12.545s7.043,0.44,9.023,1.981
		s5.722-0.22,7.043,1.761c1.32,1.981,6.162,5.502,7.263,3.301c1.1-2.201-1.1-4.182,3.521-1.761
		c4.622,2.421,11.885,2.421,11.885,2.421L323.498,81.184z"/>
	<path fill="#2F2E41" d="M356.31,56.027c-1.846-0.427-3.763,0.046-5.633,0.353c-1.87,0.306-3.931,0.408-5.513-0.636
		c-1.168-0.771-1.887-2.045-2.561-3.272c-0.281-0.438-0.469-0.93-0.551-1.444c-0.079-0.907,0.497-1.734,1.11-2.408
		c2.846-3.128,7.004-4.84,11.198-5.384c3.447-0.447,7.042-0.148,10.225,1.249c3.184,1.396,5.92,3.953,7.172,7.196
		c0.576,1.66,0.936,3.387,1.071,5.139c0.189,1.289,0.213,2.597,0.072,3.892c-0.169,0.96-0.421,1.904-0.754,2.82l-2.073,6.26
		c-0.149,0.592-0.427,1.143-0.815,1.614c-0.409,0.474-1.082,0.621-1.652,0.362c0.166-0.68,0.191-1.387,0.074-2.077
		c-0.133-0.704-0.68-1.256-1.383-1.394c-0.764-0.081-1.417,0.511-2.142,0.766c-1.395,0.414-2.862-0.382-3.275-1.777
		c-0.02-0.067-0.037-0.135-0.051-0.203c-0.114-0.716,0.078-1.482-0.194-2.154c-0.318-0.787-1.161-1.2-1.794-1.766
		c-1.18-1.089-1.622-2.762-1.133-4.291c0.17-0.521,0.648-0.758,0.552-1.356C358.135,56.73,356.977,56.181,356.31,56.027z"/>
	<rect x="204.989" y="104.04" fill="#F2F2F2" width="93.637" height="102.699"/>
	
		<rect x="214.428" y="94.223" fill="none" stroke="#3F3D56" stroke-width="0.7551" stroke-miterlimit="10" width="93.637" height="102.699"/>
	<polyline fill="none" stroke="#3F3D56" stroke-width="0.7551" stroke-miterlimit="10" points="223.49,100.642 223.49,179.176 
		299.381,179.176 	"/>
	<rect x="227.643" y="151.613" fill="#575A89" width="16.991" height="27.185"/>
	<rect x="252.185" y="133.113" fill="#3F3D56" width="16.991" height="45.686"/>
	<rect x="276.727" y="111.591" fill="#FF0000" width="16.991" height="67.207"/>
	<rect x="222.357" y="185.336" fill="#FF0000" width="5.049" height="5.049"/>
	<rect x="229.649" y="185.336" fill="#3F3D56" width="5.049" height="5.049"/>
	<rect x="236.942" y="185.336" fill="#575A89" width="5.049" height="5.049"/>
	<rect x="278.992" y="187.528" fill="#3F3D56" width="19.634" height="0.796"/>
	<rect x="278.992" y="189.916" fill="#3F3D56" width="19.634" height="0.796"/>
	<rect x="278.992" y="192.304" fill="#3F3D56" width="19.634" height="0.796"/>
	<path fill="#FFB9B9" d="M287.038,81.832c4.013,0.174,6.995,3.814,6.561,7.807c-0.393,3.618-1.844,8.12-6.414,9.849
		c-8.143,3.081-7.703-14.305-6.162-14.966C282.049,84.082,283.663,81.685,287.038,81.832z"/>
	<path fill="#575A89" d="M391.064,87.711l2.421,1.176c0,0,5.282,10.784,5.502,12.325c0.22,1.541,3.741,7.263,2.421,8.803
		c-1.32,1.541-3.301,5.502-1.981,7.043c1.32,1.541,4.402,7.703,4.402,9.904s-3.301,8.143-1.1,8.803
		c2.201,0.66,1.541,9.244,1.1,9.904c-0.44,0.66-6.162,11.444-6.162,11.444s-1.1-12.325-11.885-7.263c0,0-0.88-6.162,0-6.603
		c0.88-0.44,3.081-3.081,1.32-3.521c-1.761-0.44-4.182-5.722-3.741-6.382c0.44-0.66,1.541-1.541,0.44-2.201
		c-1.1-0.66-1.981-4.402-1.761-5.062c0.22-0.66-2.421-3.741-2.421-3.741L391.064,87.711z"/>
</g>
</svg>
