<?xml version="1.0" encoding="utf-8"?>
<!-- Generator: Adobe Illustrator 17.0.0, SVG Export Plug-In . SVG Version: 6.00 Build 0)  -->
<!DOCTYPE svg PUBLIC "-//W3C//DTD SVG 1.1//EN" "http://www.w3.org/Graphics/SVG/1.1/DTD/svg11.dtd">
<svg version="1.1" id="Layer_1" xmlns="http://www.w3.org/2000/svg" xmlns:xlink="http://www.w3.org/1999/xlink" x="0px" y="0px"
	 width="450px" height="343.174px" viewBox="0 0 450 343.174" enable-background="new 0 0 450 343.174" xml:space="preserve">
<g>
	<path opacity="0.1" fill="#FF0000" enable-background="new    " d="M399.188,307.099l-42.165-73.033
		c-0.368-0.643-1.187-0.867-1.83-0.499c-0.208,0.119-0.38,0.291-0.499,0.499l-42.165,73.033c-0.382,0.635-0.176,1.459,0.459,1.841
		c0.212,0.128,0.456,0.194,0.704,0.192h12.578c0.742,0.002,1.343,0.603,1.346,1.346v15.59c0,0.742,0.6,1.343,1.342,1.346h16.395
		c0.743,0,1.346-0.602,1.346-1.346v-7.537c0-0.741,0.601-1.342,1.342-1.342h15.607c0.742,0,1.343,0.6,1.346,1.342v7.537
		c0,0.743,0.602,1.346,1.346,1.346h16.416c0.743,0,1.346-0.602,1.346-1.346v-15.607c0-0.743,0.602-1.346,1.346-1.346h12.578
		c0.743,0,1.346-0.602,1.346-1.345C399.367,307.535,399.305,307.304,399.188,307.099z M340.399,315.181
		c-0.25,0.257-0.593,0.404-0.951,0.407h-5.919c-0.743-0.001-1.345-0.604-1.344-1.347c0.001-0.742,0.602-1.343,1.344-1.344h5.919
		c0.743,0,1.345,0.603,1.345,1.346c0,0.357-0.142,0.699-0.394,0.951V315.181z M379.134,315.181c-0.25,0.257-0.593,0.404-0.951,0.407
		h-5.915c-0.743-0.001-1.345-0.604-1.344-1.347c0.001-0.742,0.602-1.343,1.344-1.344h5.915c0.743,0,1.345,0.603,1.345,1.346
		c0,0.357-0.142,0.699-0.394,0.951L379.134,315.181z"/>
	<path opacity="0.1" fill="#FF0000" enable-background="new    " d="M138.566,307.742l-42.165-73.033
		c-0.372-0.643-1.195-0.863-1.839-0.491c-0.204,0.118-0.373,0.287-0.491,0.491L57.65,297.79c4.555,5.735,9.666,11.006,15.257,15.737
		h5.919c0.743,0.001,1.345,0.604,1.344,1.347c-0.001,0.742-0.602,1.343-1.344,1.344h-2.504c3.067,2.307,6.332,4.338,9.757,6.069
		v-3.11c0-0.743,0.602-1.346,1.346-1.346h15.635c0.742,0.002,1.342,0.604,1.342,1.346v7.529c-0.001,0.195,0.042,0.388,0.126,0.565
		c0.22,0.475,0.696,0.78,1.22,0.781h16.412c0.422,0.002,0.82-0.199,1.069-0.541c0.181-0.232,0.277-0.519,0.272-0.813v-15.59
		c0-0.743,0.602-1.346,1.346-1.346h12.578c0.743-0.012,1.336-0.624,1.324-1.367C138.743,308.165,138.681,307.941,138.566,307.742z
		 M110.694,313.921c0.25-0.257,0.593-0.404,0.951-0.407h5.919c0.743,0.001,1.345,0.604,1.344,1.347
		c-0.001,0.742-0.602,1.343-1.344,1.344h-5.919c-0.743,0-1.345-0.603-1.345-1.346c0-0.357,0.142-0.699,0.394-0.951V313.921z
		 M84.209,286.895c-0.743,0-1.346-0.602-1.346-1.346v-10.22c0-0.743,0.602-1.346,1.346-1.346h22.058
		c0.742,0.002,1.342,0.604,1.342,1.346v10.22c0,0.742-0.6,1.343-1.342,1.346H84.209z"/>
	<path opacity="0.1" fill="#FF0000" enable-background="new    " d="M305.235,176.547h-52.166v-11.285
		c0-1.491-1.209-2.699-2.699-2.699l0,0h-15.334v-12.021c0-0.938-0.761-1.699-1.699-1.699h-19.737c-0.938,0-1.699,0.761-1.699,1.699
		v12.021h-18.013c-1.491,0-2.699,1.209-2.699,2.699l0,0v11.285h-49.755c-0.301,0.002-0.545,0.247-0.545,0.549V326.91
		c0,0.302,0.243,0.547,0.545,0.549h33.067c0.303,0,0.549-0.246,0.549-0.549v-20.156c0.002-0.302,0.247-0.547,0.549-0.549h13.968
		c0.302,0.002,0.547,0.247,0.549,0.549v20.156c0,0.302,0.243,0.547,0.545,0.549h65.35c0.302-0.002,0.547-0.247,0.549-0.549v-20.156
		c0-0.302,0.243-0.547,0.545-0.549h13.968c0.303,0,0.549,0.246,0.549,0.549v20.156c0.002,0.302,0.247,0.547,0.549,0.549h33.067
		c0.302-0.002,0.547-0.247,0.549-0.549V177.095C305.781,176.793,305.537,176.549,305.235,176.547z M169.129,299.205
		c0,0.301-0.244,0.545-0.545,0.545h0H148.16c-0.301,0.002-0.547-0.24-0.549-0.541c0-0.001,0-0.003,0-0.004v-6.976
		c0-0.303,0.246-0.549,0.549-0.549h20.424c0.302,0.002,0.545,0.247,0.545,0.549V299.205z M169.129,281.179
		c0.002,0.301-0.24,0.547-0.541,0.549c-0.001,0-0.003,0-0.004,0H148.16c-0.301,0.002-0.547-0.24-0.549-0.541
		c0-0.003,0-0.005,0-0.008v-6.972c-0.002-0.301,0.24-0.547,0.541-0.549c0.003,0,0.005,0,0.008,0h20.424
		c0.301,0,0.545,0.244,0.545,0.545c0,0.001,0,0.003,0,0.004V281.179z M169.129,263.158c0,0.302-0.243,0.547-0.545,0.549H148.16
		c-0.303,0-0.549-0.246-0.549-0.549v-6.976c0-0.303,0.246-0.549,0.549-0.549h20.424c0.302,0.002,0.545,0.247,0.545,0.549V263.158z
		 M169.129,245.132c0.002,0.301-0.24,0.547-0.541,0.549c-0.001,0-0.003,0-0.004,0H148.16c-0.301,0.002-0.547-0.24-0.549-0.541
		c0-0.003,0-0.005,0-0.008v-6.972c-0.002-0.301,0.24-0.547,0.541-0.549c0.003,0,0.005,0,0.008,0h20.424
		c0.301,0,0.545,0.244,0.545,0.545c0,0.001,0,0.003,0,0.004V245.132z M169.129,227.111c0,0.302-0.243,0.547-0.545,0.549H148.16
		c-0.303,0-0.549-0.246-0.549-0.549v-6.976c0-0.301,0.244-0.545,0.545-0.545c0.001,0,0.003,0,0.004,0h20.424
		c0.301,0,0.545,0.244,0.545,0.545l0,0V227.111z M169.129,209.089c0,0.301-0.244,0.545-0.545,0.545h0H148.16
		c-0.301,0.002-0.547-0.24-0.549-0.541c0-0.001,0-0.003,0-0.004v-6.976c0-0.303,0.246-0.549,0.549-0.549h20.424
		c0.302,0.002,0.545,0.247,0.545,0.549V209.089z M169.129,191.064c0.002,0.301-0.24,0.547-0.541,0.549c-0.001,0-0.003,0-0.004,0
		H148.16c-0.301,0.002-0.547-0.24-0.549-0.541c0-0.003,0-0.005,0-0.008v-6.972c-0.002-0.301,0.24-0.547,0.541-0.549
		c0.003,0,0.005,0,0.008,0h20.424c0.301,0,0.545,0.244,0.545,0.545c0,0.001,0,0.003,0,0.004V191.064z M217.55,299.201
		c0,0.301-0.244,0.545-0.545,0.545c-0.001,0-0.003,0-0.004,0h-20.44c-0.302,0-0.547-0.243-0.549-0.545v-6.972
		c0.002-0.302,0.247-0.547,0.549-0.549h20.424c0.303,0,0.549,0.246,0.549,0.549L217.55,299.201z M217.55,281.175
		c0.002,0.301-0.24,0.547-0.541,0.549c-0.003,0-0.005,0-0.008,0h-20.44c-0.303,0-0.549-0.246-0.549-0.549v-6.968
		c0-0.303,0.246-0.549,0.549-0.549h20.424c0.301-0.002,0.547,0.24,0.549,0.541c0,0.003,0,0.005,0,0.008L217.55,281.175z
		 M217.55,263.154c0,0.303-0.246,0.549-0.549,0.549h-20.44c-0.302-0.002-0.547-0.247-0.549-0.549v-6.972
		c0.002-0.302,0.247-0.547,0.549-0.549h20.424c0.303,0,0.549,0.246,0.549,0.549L217.55,263.154z M217.55,245.128
		c0.002,0.301-0.24,0.547-0.541,0.549c-0.003,0-0.005,0-0.008,0h-20.44c-0.303,0-0.549-0.246-0.549-0.549v-6.968
		c0-0.303,0.246-0.549,0.549-0.549h20.424c0.301-0.002,0.547,0.24,0.549,0.541c0,0.003,0,0.005,0,0.008L217.55,245.128z
		 M217.55,227.107c0,0.303-0.246,0.549-0.549,0.549h-20.44c-0.302-0.002-0.547-0.247-0.549-0.549v-6.972
		c0.002-0.302,0.247-0.545,0.549-0.545h20.424c0.301-0.002,0.547,0.24,0.549,0.541c0,0.001,0,0.003,0,0.004L217.55,227.107z
		 M217.55,209.085c0,0.301-0.244,0.545-0.545,0.545c-0.001,0-0.003,0-0.004,0h-20.44c-0.302,0-0.547-0.243-0.549-0.545v-6.972
		c0.002-0.302,0.247-0.547,0.549-0.549h20.424c0.303,0,0.549,0.246,0.549,0.549L217.55,209.085z M217.55,191.06
		c0.002,0.301-0.24,0.547-0.541,0.549c-0.003,0-0.005,0-0.008,0h-20.44c-0.303,0-0.549-0.246-0.549-0.549v-6.968
		c0-0.303,0.246-0.549,0.549-0.549h20.424c0.301-0.002,0.547,0.24,0.549,0.541c0,0.003,0,0.005,0,0.008L217.55,191.06z
		 M250.638,299.196c0,0.301-0.244,0.545-0.545,0.545c-0.001,0-0.003,0-0.004,0h-20.424c-0.302,0-0.547-0.243-0.549-0.545v-6.968
		c0.002-0.302,0.247-0.547,0.549-0.549h20.424c0.303,0,0.549,0.246,0.549,0.549L250.638,299.196z M250.638,281.171
		c0.002,0.301-0.24,0.547-0.541,0.549c-0.003,0-0.005,0-0.008,0h-20.424c-0.303,0-0.549-0.246-0.549-0.549v-6.964
		c0-0.303,0.246-0.549,0.549-0.549h20.424c0.301-0.002,0.547,0.24,0.549,0.541c0,0.003,0,0.005,0,0.008L250.638,281.171z
		 M250.638,263.149c0,0.303-0.246,0.549-0.549,0.549h-20.424c-0.302-0.002-0.547-0.247-0.549-0.549v-6.968
		c0.002-0.302,0.247-0.547,0.549-0.549h20.424c0.303,0,0.549,0.246,0.549,0.549L250.638,263.149z M250.638,245.124
		c0.002,0.301-0.24,0.547-0.541,0.549c-0.003,0-0.005,0-0.008,0h-20.424c-0.303,0-0.549-0.246-0.549-0.549v-6.964
		c0-0.303,0.246-0.549,0.549-0.549h20.424c0.301-0.002,0.547,0.24,0.549,0.541c0,0.003,0,0.005,0,0.008L250.638,245.124z
		 M250.638,227.103c0,0.303-0.246,0.549-0.549,0.549h-20.424c-0.302-0.002-0.547-0.247-0.549-0.549v-6.968
		c0.002-0.302,0.247-0.545,0.549-0.545h20.424c0.301-0.002,0.547,0.24,0.549,0.541c0,0.001,0,0.003,0,0.004L250.638,227.103z
		 M250.638,209.081c0,0.301-0.244,0.545-0.545,0.545c-0.001,0-0.003,0-0.004,0h-20.424c-0.302,0-0.547-0.243-0.549-0.545v-6.968
		c0.002-0.302,0.247-0.547,0.549-0.549h20.424c0.303,0,0.549,0.246,0.549,0.549L250.638,209.081z M250.638,191.056
		c0.002,0.301-0.24,0.547-0.541,0.549c-0.003,0-0.005,0-0.008,0h-20.424c-0.303,0-0.549-0.246-0.549-0.549v-6.964
		c0-0.303,0.246-0.549,0.549-0.549h20.424c0.301-0.002,0.547,0.24,0.549,0.541c0,0.003,0,0.005,0,0.008L250.638,191.056z
		 M299.06,299.192c-0.002,0.302-0.247,0.545-0.549,0.545h-20.424c-0.301,0.002-0.547-0.24-0.549-0.541c0-0.001,0-0.003,0-0.004
		v-6.964c0-0.303,0.246-0.549,0.549-0.549h20.424c0.302,0.002,0.547,0.247,0.549,0.549V299.192z M299.06,281.167
		c0,0.303-0.246,0.549-0.549,0.549h-20.424c-0.301,0.002-0.547-0.24-0.549-0.541c0-0.003,0-0.005,0-0.008v-6.96
		c-0.002-0.301,0.24-0.547,0.541-0.549c0.003,0,0.005,0,0.008,0h20.424c0.303,0,0.549,0.246,0.549,0.549V281.167z M299.06,263.145
		c-0.002,0.302-0.247,0.547-0.549,0.549h-20.424c-0.303,0-0.549-0.246-0.549-0.549v-6.964c0-0.303,0.246-0.549,0.549-0.549h20.424
		c0.302,0.002,0.547,0.247,0.549,0.549V263.145z M299.06,245.12c0,0.303-0.246,0.549-0.549,0.549h-20.424
		c-0.301,0.002-0.547-0.24-0.549-0.541c0-0.003,0-0.005,0-0.008v-6.96c-0.002-0.301,0.24-0.547,0.541-0.549c0.003,0,0.005,0,0.008,0
		h20.424c0.303,0,0.549,0.246,0.549,0.549V245.12z M299.06,227.098c-0.002,0.302-0.247,0.547-0.549,0.549h-20.424
		c-0.303,0-0.549-0.246-0.549-0.549v-6.964c0-0.301,0.244-0.545,0.545-0.545c0.001,0,0.003,0,0.004,0h20.424
		c0.302,0,0.547,0.243,0.549,0.545V227.098z M299.06,209.077c-0.002,0.302-0.247,0.545-0.549,0.545h-20.424
		c-0.301,0.002-0.547-0.24-0.549-0.541c0-0.001,0-0.003,0-0.004v-6.964c0-0.303,0.246-0.549,0.549-0.549h20.424
		c0.302,0.002,0.547,0.247,0.549,0.549V209.077z M299.06,191.051c0,0.303-0.246,0.549-0.549,0.549h-20.424
		c-0.301,0.002-0.547-0.24-0.549-0.541c0-0.003,0-0.005,0-0.008v-6.96c-0.002-0.301,0.24-0.547,0.541-0.549c0.003,0,0.005,0,0.008,0
		h20.424c0.303,0,0.549,0.246,0.549,0.549V191.051z"/>
	<g opacity="0.1">
		<path fill="#3F3D56" d="M55.553,277.171c0.017,1.764-0.436,3.501-1.313,5.033c1.751,3.127,1.751,6.939,0,10.066
			c0.445,0.762,0.779,1.583,0.992,2.439c-4.438-5.849-8.522-11.958-12.232-18.294l0,0c0.089-1.511,0.529-2.981,1.285-4.293
			c-0.871-1.522-1.324-3.247-1.313-5c-0.005-1.192,0.196-2.376,0.594-3.5c0.189-0.533,0.43-1.046,0.72-1.533
			c1.146-1.947,2.951-3.203,4.976-3.203s3.834,1.256,4.98,3.203c0.279,0.472,0.514,0.969,0.703,1.484
			c0.408,1.139,0.614,2.34,0.61,3.549c0.017,1.764-0.436,3.502-1.313,5.033C55.113,273.681,55.566,275.412,55.553,277.171z"/>
		<ellipse fill="#3F3D56" cx="49.259" cy="257.039" rx="6.289" ry="8.236"/>
		<ellipse fill="#3F3D56" cx="49.259" cy="246.974" rx="6.289" ry="8.236"/>
		<path fill="#FF0000" d="M79.261,196.723c0.01,6.76-2.263,13.325-6.452,18.631c10.289,13.082,8.024,32.029-5.058,42.318
			c-3.75,2.949-8.147,4.966-12.829,5.885c-0.724,0.146-1.459,0.26-2.203,0.35c-2.295,0.274-4.613,0.287-6.911,0.037
			c-0.764-0.081-1.519-0.194-2.264-0.337c-3.286-0.607-6.447-1.763-9.35-3.419c-5.425-11.058-10.165-22.439-14.192-34.079
			c1.056-3.912,2.894-7.57,5.403-10.753c-6.293-8.008-8.121-18.65-4.858-28.298l22.879,7.679l-21.457-11.147
			c0.957-1.951,2.12-3.794,3.472-5.496c-10.292-13.08-8.032-32.027,5.048-42.319c13.08-10.292,32.027-8.032,42.319,5.048
			c0.885,1.124,1.688,2.311,2.405,3.549l-22.119,16.261l23.985-12.44c3.1,7.699,2.891,16.335-0.577,23.875l-17.887-0.134
			l16.529,2.716c-0.702,1.202-1.485,2.354-2.346,3.447C76.989,183.399,79.267,189.963,79.261,196.723z"/>
		<path opacity="0.1" enable-background="new    " d="M79.261,233.985c-0.002,14.4-10.19,26.788-24.319,29.571
			c-0.724,0.146-1.459,0.26-2.203,0.35c-2.295,0.274-4.613,0.287-6.911,0.037c-0.764-0.081-1.519-0.194-2.264-0.337
			c-3.286-0.607-6.447-1.763-9.35-3.419c-5.425-11.058-10.165-22.439-14.192-34.079c1.056-3.912,2.894-7.57,5.403-10.753
			c-4.186-5.307-6.458-11.872-6.448-18.631c0-3.382,57.857,13.505,53.816,18.631C76.988,220.658,79.267,227.223,79.261,233.985z"/>
	</g>
	<g opacity="0.1">
		<path fill="#3F3D56" d="M418.4,269.333c-1.179,3.764-2.439,7.5-3.732,11.151c-0.359-1.076-0.54-2.203-0.537-3.338
			C414.132,273.516,415.92,270.431,418.4,269.333z"/>
		<path fill="#FF0000" d="M431.043,204.463c0,7.139-1.439,18.408-4.065,31.303c-2.301,11.326-5.17,22.53-8.598,33.567
			c-1.179,3.764-2.439,7.5-3.732,11.151c-1.484,4.143-3.049,8.175-4.687,12.033c-15.682-5.755-23.729-23.133-17.974-38.814
			c1.091-2.972,2.641-5.754,4.595-8.245c-6.301-8.029-8.135-18.691-4.878-28.364l22.879,7.696l-21.457-11.171
			c0.945-1.954,2.097-3.8,3.435-5.508c-10.308-13.142-8.011-32.151,5.131-42.459c2.055-1.612,4.309-2.95,6.707-3.983
			c9.235,6.3,16.187,15.416,19.818,25.989l-4.004,2.947l4.252-2.207c1.426,4.384,2.259,8.94,2.476,13.546h-1.195l1.22,0.199
			C431.027,202.89,431.043,203.703,431.043,204.463z"/>
		<path opacity="0.1" enable-background="new    " d="M426.998,235.766c-2.301,11.326-5.17,22.53-8.598,33.567
			c-1.179,3.764-2.439,7.5-3.732,11.151c-1.484,4.143-3.049,8.175-4.687,12.033c-15.682-5.755-23.729-23.133-17.974-38.814
			c1.091-2.972,2.641-5.754,4.595-8.245c-4.187-5.324-6.458-11.903-6.448-18.676C390.155,224.737,411.18,230.078,426.998,235.766z"
			/>
	</g>
	<path opacity="0.1" fill="#FF0000" enable-background="new    " d="M150.518,65.202c-2.292-0.433-4.661-0.174-6.805,0.744
		c-2.605,1.163-5.582,1.163-8.188,0c-3.081-1.35-6.6-1.282-9.627,0.187c-0.854,0.454-1.806,0.692-2.773,0.695
		c-3.903,0-7.151-3.931-7.826-9.118c0.779-0.571,1.441-1.286,1.951-2.106c2.289-3.687,5.834-6.053,9.814-6.053
		s7.48,2.338,9.757,5.988c1.394,2.232,3.853,3.574,6.484,3.541h0.102C146.518,59.08,149.209,61.572,150.518,65.202z"/>
	<path opacity="0.1" fill="#FF0000" enable-background="new    " d="M162.413,48.921l-6.309,4.004l3.825-6.956
		c-1.086-0.865-2.429-1.344-3.817-1.362h-0.102c-0.438,0.008-0.876-0.024-1.309-0.093l-2.138,1.354l0.919-1.667
		c-1.516-0.529-2.826-1.526-3.74-2.846l-3.83,2.439l2.419-4.395c-2.24-2.687-5.256-4.338-8.574-4.338
		c-3.98,0-7.525,2.37-9.814,6.057c-1.378,2.254-3.864,3.59-6.504,3.496h-0.215c-4.395,0-7.956,4.984-7.956,11.127
		s3.561,11.127,7.956,11.127c0.966-0.003,1.918-0.24,2.773-0.691c3.026-1.472,6.545-1.542,9.627-0.191
		c2.602,1.169,5.579,1.177,8.187,0.02c3.058-1.325,6.54-1.258,9.545,0.183c0.846,0.443,1.785,0.675,2.74,0.679
		c4.395,0,7.956-4.98,7.956-11.127C164.087,53.367,163.524,51.021,162.413,48.921z"/>
	<path opacity="0.1" fill="#FF0000" enable-background="new    " d="M331.423,131.662c-1.607-0.305-3.269-0.124-4.773,0.52
		c-1.824,0.816-3.908,0.816-5.732,0c-2.158-0.945-4.621-0.897-6.74,0.13c-0.597,0.317-1.263,0.484-1.939,0.488
		c-2.732,0-5.004-2.756-5.476-6.387c0.546-0.398,1.009-0.898,1.366-1.472c1.602-2.581,4.065-4.236,6.866-4.236
		s5.24,1.626,6.842,4.187c0.973,1.567,2.693,2.513,4.537,2.496h0.073C328.622,127.377,330.505,129.121,331.423,131.662z"/>
	<path opacity="0.1" fill="#FF0000" enable-background="new    " d="M339.745,120.267l-4.415,2.801l2.679-4.878
		c-0.758-0.608-1.699-0.945-2.671-0.955h-0.069c-0.306,0.008-0.613-0.015-0.915-0.069l-1.5,0.951l0.642-1.167
		c-1.06-0.371-1.976-1.066-2.618-1.988l-2.679,1.699l1.691-3.077c-1.565-1.878-3.679-3.033-6-3.033c-2.785,0-5.285,1.655-6.87,4.236
		c-0.967,1.568-2.7,2.498-4.541,2.439h-0.15c-3.073,0-5.569,3.488-5.569,7.789c0,4.301,2.496,7.789,5.569,7.789
		c0.677-0.001,1.342-0.169,1.939-0.488c2.12-1.027,4.583-1.075,6.74-0.13c0.907,0.405,1.889,0.615,2.882,0.618
		c0.98-0.001,1.95-0.208,2.846-0.606c2.14-0.927,4.577-0.879,6.679,0.13c0.592,0.31,1.25,0.473,1.919,0.476
		c3.077,0,5.569-3.488,5.569-7.789C340.92,123.36,340.522,121.728,339.745,120.267z"/>
	<path opacity="0.1" fill="#FF0000" enable-background="new    " d="M96.722,113.368c1.607-0.305,3.269-0.124,4.773,0.52
		c1.822,0.816,3.906,0.816,5.728,0c2.158-0.945,4.621-0.897,6.74,0.13c0.598,0.317,1.263,0.484,1.939,0.488
		c2.732,0,5.008-2.756,5.48-6.387c-0.547-0.397-1.011-0.897-1.366-1.472c-1.602-2.581-4.065-4.236-6.87-4.236
		c-2.805,0-5.236,1.626-6.838,4.187c-0.974,1.568-2.695,2.514-4.541,2.496h-0.069C99.523,109.083,97.636,110.827,96.722,113.368z"/>
	<path opacity="0.1" fill="#FF0000" enable-background="new    " d="M88.396,101.973l4.419,2.801l-2.683-4.878
		c0.759-0.608,1.699-0.944,2.671-0.955h0.094c0.306,0.008,0.613-0.016,0.915-0.069l1.496,0.951l-0.642-1.167
		c1.061-0.37,1.979-1.066,2.622-1.988l2.679,1.699l-1.695-3.077c1.569-1.878,3.679-3.033,6.004-3.033
		c2.785,0,5.265,1.655,6.87,4.236c0.967,1.568,2.699,2.499,4.541,2.439h0.146c3.077,0,5.569,3.488,5.569,7.789
		s-2.492,7.789-5.569,7.789c-0.676-0.002-1.342-0.17-1.939-0.488c-2.119-1.027-4.583-1.075-6.74-0.13
		c-0.906,0.405-1.886,0.615-2.878,0.618c-0.981,0-1.95-0.207-2.846-0.606c-2.141-0.927-4.58-0.879-6.683,0.13
		c-0.592,0.311-1.25,0.474-1.919,0.476c-3.073,0-5.569-3.488-5.569-7.789C87.235,105.068,87.626,103.436,88.396,101.973z"/>
	<path fill="#192534" d="M122.374,178.547l89.205,43.092c2.321,1.106,5.431,1.687,8.488,1.687s6.167-0.581,8.488-1.687
		l89.205-43.092c4.695-2.268,4.695-5.96,0-8.224l-89.205-43.092c-2.321-1.106-5.431-1.687-8.488-1.687s-6.167,0.581-8.488,1.687
		l-89.205,43.092C117.695,172.587,117.695,176.278,122.374,178.547z"/>
	<path fill="#192534" d="M317.76,222.676c0,0-16.29-7.854-18.452-8.911c-2.163-1.057-2.74-1-5.008,0.053
		c-2.268,1.053-65.797,31.758-65.797,31.758c-2.374,1.11-5.431,1.687-8.488,1.687c-3.057,0-6.167-0.577-8.488-1.687
		c0,0-61.845-29.839-64.744-31.262c-3.163-1.529-4.065-1.529-6.911-0.159l-17.607,8.488c-4.695,2.268-4.695,5.956,0,8.224
		l89.205,43.092c2.321,1.106,5.431,1.687,8.488,1.687s6.167-0.581,8.488-1.687l89.205-43.092c4.801-2.216,4.801-5.903,0.106-8.171
		L317.76,222.676z"/>
	<path fill="#192534" d="M317.76,275.028c0,0-16.29-7.854-18.452-8.911c-2.163-1.057-2.74-1-5.008,0.053
		c-2.268,1.053-65.744,31.791-65.744,31.791c-2.374,1.11-5.431,1.691-8.488,1.691c-3.057,0-6.167-0.581-8.488-1.691
		c0,0-61.845-29.839-64.744-31.262c-3.163-1.529-4.065-1.529-6.911-0.159l-17.607,8.488c-4.695,2.268-4.695,5.96,0,8.224
		l89.205,43.092c2.321,1.159,5.431,1.687,8.488,1.687s6.167-0.581,8.488-1.687l89.209-43.092
		C322.455,280.988,322.455,277.297,317.76,275.028z"/>
	<ellipse fill="#192534" cx="165.925" cy="101.225" rx="19.367" ry="26.9"/>
	<rect x="163.775" y="145.341" fill="#FF0000" width="17.217" height="17.217"/>
	<path fill="#FBBEBE" d="M150.623,228.294l5.655,7.952c-0.007-3.235,1.506-6.285,4.086-8.236c-2.443-2.407-5.125-4.558-8.005-6.419
		c-0.128-0.111-0.295-0.166-0.463-0.154c-0.14,0.045-0.262,0.135-0.346,0.256c-0.842,0.996-1.911,2.313-2.272,3.59
		C148.932,226.468,149.932,227.351,150.623,228.294z"/>
	<path fill="#F2F2F2" d="M161.868,227.208c0.874,0,1.683,0.407,2.439,0.842c1.015,0.485,1.96,1.104,2.809,1.842
		c0.854,0.751,1.372,1.812,1.439,2.947c0,0.907-0.374,1.764-0.699,2.61c-1.497,3.941-1.861,8.222-1.049,12.358
		c0.264,1.35,0.655,2.764,0.236,4.065c-0.378,1.195-1.362,2.081-2.325,2.882c-1.537,1.272-3.228,2.516-5.208,2.785
		c-1.98,0.268-4.269-0.813-4.708-2.74c-0.26-1.146,0.15-2.321,0.435-3.46c0.679-2.72,0.663-5.557,0.642-8.362
		c0.024-0.852-0.047-1.704-0.211-2.541c-0.134-0.585-0.362-1.146-0.553-1.72c-0.512-1.541-0.736-3.252-0.15-4.777
		c0.341-0.779,0.786-1.51,1.321-2.171C157.669,229.92,159.161,227.196,161.868,227.208z"/>
	<path fill="#FBBEBE" d="M158.799,108.051c0.049,1.008,0.085,2.073-0.382,2.968c-0.407,0.793-1.159,1.342-1.882,1.866l-2.411,1.744
		c-0.122,0.085-0.256,0.195-0.268,0.341c0.013,0.17,0.111,0.323,0.26,0.407c0.982,0.761,2.127,1.283,3.346,1.524
		c0.858,0.144,1.727,0.218,2.598,0.22c4.521,0.134,9.118,0.236,13.481-0.951c0.793-0.182,1.547-0.503,2.228-0.947
		c0.686-0.453,1.143-1.181,1.252-1.996c-1.114-0.061-2.098-0.715-3.016-1.346c-0.919-0.63-1.858-1.317-2.151-2.366
		c-0.183-0.655-0.077-1.362-0.228-2.033c-0.252-1.081-1.155-1.89-2.122-2.439c-2.496-1.415-5.443-1.5-8.163-2.24
		c-0.976-0.264-2.72-1.435-2.785,0.146C158.486,104.628,158.717,106.376,158.799,108.051z"/>
	<path opacity="0.1" enable-background="new    " d="M158.799,108.051c0.049,1.008,0.085,2.073-0.382,2.968
		c-0.407,0.793-1.159,1.342-1.882,1.866l-2.411,1.744c-0.122,0.085-0.256,0.195-0.268,0.341c0.013,0.17,0.111,0.323,0.26,0.407
		c0.982,0.761,2.127,1.283,3.346,1.524c0.858,0.144,1.727,0.218,2.598,0.22c4.521,0.134,9.118,0.236,13.481-0.951
		c0.793-0.182,1.547-0.503,2.228-0.947c0.686-0.453,1.143-1.181,1.252-1.996c-1.114-0.061-2.098-0.715-3.016-1.346
		c-0.919-0.63-1.858-1.317-2.151-2.366c-0.183-0.655-0.077-1.362-0.228-2.033c-0.252-1.081-1.155-1.89-2.122-2.439
		c-2.496-1.415-5.443-1.5-8.163-2.24c-0.976-0.264-2.72-1.435-2.785,0.146C158.486,104.628,158.717,106.376,158.799,108.051z"/>
	<path fill="#01E7C0" d="M154.4,164.558c-3.512-0.862-7.208,0.407-10.391,2.102c-3.183,1.695-6.126,3.915-9.509,5.195
		c-2.712,1.029-5.732,1.484-8.013,3.277c-2.033,1.626-3.208,4.094-3.964,6.586c-0.492,1.394-0.683,2.877-0.561,4.35
		c0.196,1.13,0.556,2.226,1.069,3.252c2.358,5.22,5.334,10.127,8.305,15.042c5.326,8.785,10.7,17.635,17.603,25.25
		c2.203-1.512,1.988-5.155,4.171-6.691c0.549-0.407,1.22-0.61,1.679-1.094c1.033-1.069,0.63-2.817,0.142-4.22
		c-3.018-8.719-6.605-17.231-10.736-25.481c5.939,0.041,10.919-4.602,16.769-5.643c1.623-0.239,3.262-0.347,4.903-0.325
		c5.785-0.105,11.56-0.512,17.302-1.22c2.081-0.26,4.289-0.614,5.854-2.012c1.626-1.455,2.203-3.724,2.695-5.85
		c1.033-4.427,3.622-8.314,5.216-12.57c0.407-1.098,0.813-2.199,1.313-3.252c0.439-0.902,0.959-1.764,1.423-2.655
		c1.464-2.846,2.293-5.964,3.004-9.082c0.854-3.74,1.626-7.561,2.415-11.318c0.528-2.586,1.557-5.391,0.329-7.724
		c-0.695-1.321-2.008-2.212-3.366-2.846c-1.451-0.663-3.069-1.094-4.647-0.846c-3.106,0.492-5.2,3.338-6.944,5.948l-2.724,4.102
		c-0.657,0.943-1.257,1.925-1.797,2.939c-1.024,2.008-1.581,4.212-2.366,6.322c-2.118,5.667-6.098,10.785-11.505,13.485
		c-1.439,0.72-2.96,1.26-4.407,1.955c-1.134,0.545-2.224,1.183-3.37,1.703C161.193,164.676,157.738,165.375,154.4,164.558z"/>
	<circle fill="#FBBEBE" cx="168.08" cy="97.997" r="10.761"/>
	<path fill="#FF0000" d="M172.771,110.23c-0.455,1.22-0.935,2.484-1.793,3.476c-1.537,1.772-4.021,2.403-6.366,2.496
		c-2.61,0.103-5.213-0.339-7.643-1.297c-1.041-0.407-2.102-0.927-3.212-0.813c-1.606,0.142-2.797,1.492-4.212,2.268
		c-0.707,0.407-1.484,0.638-2.228,0.959c-3.71,1.649-6.376,5.012-7.135,9.001c-0.813,4.586,2.878,8.944,5.114,13.033
		c0.98,1.797,2.122,3.537,2.667,5.504c0.915,3.309,0.033,6.834-1.126,10.066c-1.159,3.232-2.606,6.427-2.846,9.85
		c-0.073,1.004,0.276,2.358,1.285,2.346c0.372-0.046,0.726-0.186,1.029-0.407c1.8-1.027,3.896-1.413,5.943-1.094
		c1.427,0.232,2.785,0.813,4.212,1.012c2.805,0.407,5.602-0.577,8.257-1.553c2.533-0.931,5.167-1.931,6.972-3.939
		c1.354-1.504,2.13-3.468,3.521-4.939c1.829-1.931,4.59-2.878,6.118-5.053c0.898-1.281,1.264-2.846,1.785-4.317
		s1.301-2.976,2.675-3.72c-0.736-1.285-1.557-2.663-1.468-4.143c0.077-1.289,0.793-2.439,1.321-3.618
		c0.346-0.776,0.618-1.585,0.89-2.39l0.878-2.614c0.236-0.711,0.476-1.419,0.655-2.146c0.305-1.22,0.431-2.52,0.789-3.744
		c0.911-3.159,3.228-5.691,5.37-8.171c-1.873-0.723-3.806-1.28-5.777-1.667c-0.662-0.093-1.312-0.262-1.935-0.504
		c-0.711-0.313-1.313-0.813-2-1.187c-1.073-0.557-2.305-0.707-3.5-0.89C178.218,111.668,175.462,111.064,172.771,110.23z"/>
	<path fill="#FBBEBE" d="M136.46,158.111c-0.098,0.948-0.067,1.906,0.094,2.846c0.262,0.97,0.655,1.9,1.167,2.764
		c2.236,4.273,4.065,8.744,5.907,13.208c0.52,1.145,0.916,2.341,1.183,3.569c0.171,0.927,0.191,1.878,0.313,2.813
		c0.103,0.921,0.348,1.821,0.728,2.667c0.431,0.919,2.764,5.826,3.659,6.305c1.923,1.045,4.504,0.081,5.728-1.736
		c1.224-1.817-0.407-8.277-0.968-10.387c-0.561-2.11-1.724-4.012-2.797-5.919c-1.878-3.334-3.578-6.764-5.094-10.277
		c-1.293-3-2.472-6.244-1.927-9.468c0.305-1.813,1.142-3.492,1.772-5.22c0.63-1.728,1.057-3.638,0.52-5.403
		c-0.081-0.309-0.219-0.6-0.407-0.858c-0.312-0.337-0.703-0.59-1.138-0.736c-1.903-0.768-5.793-1.407-6.614,1.15
		c-0.337,1.061-0.407,2.22-0.691,3.305c-0.434,1.726-0.752,3.48-0.951,5.248C136.696,154.013,136.578,156.062,136.46,158.111z"/>
	<path fill="#FBBEBE" d="M175.893,165.753c-2.399,2.829-4.732,5.714-7,8.655l5.87,4.338c0.212-0.771,0.498-1.52,0.854-2.236
		c0.4-0.701,0.867-1.361,1.394-1.972l5.948-7.37c-1.395-0.874-2.975-1.408-4.614-1.561
		C177.56,165.721,176.678,165.639,175.893,165.753z"/>
	<path fill="#FBBEBE" d="M201.663,119.112c1.553,0.354,3.106,0.707,4.638,1.138c3.183,0.898,6.403,2.203,8.606,4.671
		c0.488,0.545,0.931,1.374,0.5,1.968c-0.151,0.172-0.323,0.325-0.512,0.455c-0.598,0.496-0.931,1.22-1.301,1.915
		c-0.72,1.331-1.637,2.545-2.72,3.602c-0.866-0.948-1.881-1.748-3.004-2.37l-2.439-1.524c-1.077-0.679-2.195-1.37-3.456-1.565
		c-1.447-0.224-2.907,0.232-4.37,0.341c-1.859,0.139-3.716-0.286-5.33-1.22c-0.204-0.098-0.378-0.248-0.504-0.435
		c-0.075-0.147-0.121-0.307-0.134-0.472c-0.151-1.688,0.374-3.366,1.459-4.667c0.752-0.955,2.439-2.744,3.736-2.911
		c0.638-0.081,1.545,0.337,2.175,0.48L201.663,119.112z"/>
	<path fill="#01E7C0" d="M199.773,129.158c-0.438,0.169-0.865,0.367-1.277,0.594c-3.187,1.663-6.476,3.411-8.667,6.261
		c-1.039,1.461-1.916,3.03-2.618,4.679l-5.309,11.293l-1.114,2.37l-1.707,3.586l-4.342,9.236c1.549-0.268,3.208-0.252,4.618,0.439
		c1.411,0.691,2.508,2.175,2.39,3.744c1.26-0.11,1.931-1.48,2.817-2.382c0.724-0.74,1.675-1.22,2.512-1.817
		c1.092-0.857,2.09-1.825,2.98-2.89c2.793-3.106,5.805-6.008,9.013-8.683c0.627-0.498,1.225-1.033,1.789-1.602
		c1.178-1.349,2.101-2.902,2.724-4.582c1.319-3.19,2.218-6.538,2.675-9.96c0.276-2.081,0.374-4.277-0.476-6.195
		c-1.359-2.876-4.505-4.454-7.622-3.821"/>
	<path opacity="0.1" enable-background="new    " d="M199.366,129.564c-0.438,0.169-0.865,0.367-1.277,0.594
		c-3.187,1.663-6.476,3.411-8.667,6.261c-1.039,1.461-1.916,3.03-2.618,4.679l-5.309,11.293l-1.114,2.37l-1.707,3.586l-4.342,9.236
		c1.549-0.268,3.208-0.252,4.618,0.439s2.508,2.175,2.39,3.744c1.26-0.11,1.931-1.48,2.817-2.382c0.724-0.74,1.675-1.22,2.512-1.817
		c1.092-0.857,2.09-1.825,2.98-2.89c2.793-3.106,5.805-6.008,9.013-8.683c0.627-0.498,1.225-1.033,1.789-1.602
		c1.178-1.349,2.101-2.902,2.724-4.582c1.319-3.19,2.218-6.538,2.675-9.96c0.276-2.081,0.374-4.277-0.476-6.196
		c-1.359-2.876-4.505-4.454-7.622-3.821"/>
	<path fill="#F2F2F2" d="M171.377,172.945l-4.447-0.488c-0.122-0.023-0.249-0.013-0.366,0.028c-0.116,0.074-0.206,0.184-0.256,0.313
		c-1.431,2.694-2.767,5.437-4.008,8.228c-0.691,1.549-1.337,3.407-0.463,4.878c0.26,0.431,0.638,0.789,0.882,1.22
		c0.553,1.012,0.301,2.272-0.098,3.358c-0.151,0.306-0.211,0.649-0.171,0.988c0.11,0.455,0.569,0.728,0.992,0.935
		c3.492,1.718,7.248,2.839,11.11,3.317c0.294,0.074,0.605,0.028,0.866-0.126c0.169-0.161,0.285-0.369,0.333-0.598
		c0.149-0.434,0.27-0.876,0.362-1.325c0.293-1.602-0.159-3.252-0.5-4.83c-0.553-2.586-0.813-5.309-0.065-7.842
		c0.315-1.061,0.795-2.065,1.423-2.976c0.707-1.033-1.711-2.004-2.354-2.728C173.527,174.059,173.194,173.144,171.377,172.945z"/>
	<path fill="#FF0000" d="M138.602,137.134l-1.35,8.261c1.134-1.073,2.821-1.268,4.382-1.301c1.561-0.033,3.378,0.118,4.472,1.289
		c0.443,0.48,0.724,1.085,1.155,1.577s1.102,0.862,1.716,0.65c0.438-0.184,0.761-0.566,0.87-1.029
		c0.1-0.458,0.127-0.928,0.081-1.394l-0.443-9.114c-0.11-2.199-0.224-4.447-1.033-6.504c-0.445-1.128-1.088-2.168-1.898-3.069
		c-0.231-0.277-0.506-0.515-0.813-0.703c-0.339-0.166-0.703-0.275-1.077-0.321c-1.057-0.167-2.777-0.443-3.76,0.13
		c-0.813,0.484-0.89,1.626-0.984,2.472C139.578,131.117,139.098,134.129,138.602,137.134z"/>
	<ellipse fill="#192534" cx="168.08" cy="91.541" rx="15.066" ry="6.456"/>
	<circle fill="#192534" cx="148.709" cy="82.931" r="8.606"/>
	<circle fill="#192534" cx="178.841" cy="80.781" r="8.606"/>
	<path opacity="0.1" enable-background="new    " d="M182.922,75.878c3.371,2.73,4.184,7.542,1.898,11.228
		c0.259-0.25,0.504-0.514,0.732-0.793c2.935-3.741,2.282-9.154-1.46-12.089c-3.661-2.872-8.941-2.316-11.923,1.255
		c-0.225,0.282-0.432,0.576-0.622,0.882C174.676,73.357,179.55,73.15,182.922,75.878z"/>
	<path opacity="0.1" enable-background="new    " d="M146.457,76.931c3.986-1.706,8.619-0.182,10.814,3.557
		c-0.099-0.346-0.218-0.685-0.358-1.016c-1.962-4.332-7.064-6.253-11.396-4.291c-4.21,1.907-6.164,6.797-4.427,11.08
		c0.141,0.331,0.304,0.651,0.488,0.959C140.379,83.051,142.47,78.641,146.457,76.931z"/>
	<path opacity="0.1" enable-background="new    " d="M168.08,95.842c-7.464,0-13.655-2.325-14.855-5.378
		c-0.136,0.343-0.208,0.708-0.211,1.077c0,3.565,6.744,6.456,15.066,6.456s15.066-2.89,15.066-6.456
		c-0.001-0.369-0.073-0.735-0.211-1.077C181.735,93.533,175.544,95.842,168.08,95.842z"/>
	<path fill="#BE000F" d="M331.122,69.142c-4.901-0.002-8.877,3.969-8.879,8.87c-0.002,3.528,2.086,6.721,5.318,8.135
		c-0.037-0.681,0.015-1.365,0.154-2.033l1.142-4.838c-0.194-0.442-0.291-0.92-0.285-1.403c0-1.317,0.76-2.297,1.711-2.297
		c0.813,0,1.195,0.606,1.195,1.329c0,0.813-0.52,2.033-0.785,3.151c-0.188,0.733,0.255,1.479,0.988,1.667
		c0.135,0.035,0.275,0.048,0.415,0.041c1.679,0,2.813-2.159,2.813-4.72c0-1.943-1.313-3.399-3.691-3.399
		c-2.32-0.092-4.275,1.713-4.367,4.033c-0.003,0.073-0.004,0.146-0.003,0.219c-0.027,0.632,0.182,1.252,0.585,1.74
		c0.152,0.114,0.204,0.319,0.126,0.492c-0.045,0.163-0.138,0.557-0.183,0.715c-0.024,0.164-0.177,0.278-0.341,0.254
		c-0.036-0.005-0.07-0.017-0.102-0.034c-1.24-0.504-1.817-1.862-1.817-3.39c0-2.52,2.126-5.541,6.342-5.541
		c3.386,0,5.618,2.439,5.618,5.082c0,3.484-1.939,6.098-4.789,6.098c-0.863,0.022-1.678-0.394-2.167-1.106
		c0,0-0.516,2.033-0.626,2.439c-0.205,0.674-0.506,1.315-0.894,1.903c4.713,1.346,9.624-1.384,10.97-6.097
		c1.346-4.713-1.384-9.624-6.097-10.97C332.71,69.264,331.919,69.149,331.122,69.142z"/>
	<path fill="#55ACEE" d="M307.109,25.054c-0.699,0.31-1.44,0.515-2.199,0.61c0.799-0.483,1.398-1.238,1.687-2.126
		c-0.754,0.447-1.579,0.762-2.439,0.931c-1.446-1.547-3.871-1.629-5.418-0.184c-0.777,0.726-1.217,1.742-1.216,2.806
		c-0.001,0.295,0.032,0.59,0.098,0.878c-3.086-0.153-5.961-1.612-7.907-4.012c-1.014,1.756-0.491,3.997,1.195,5.122
		c-0.612-0.012-1.211-0.176-1.744-0.476v0.045c-0.001,1.828,1.286,3.402,3.077,3.764c-0.329,0.088-0.668,0.133-1.008,0.134
		c-0.243,0-0.485-0.023-0.724-0.069c0.502,1.563,1.944,2.634,3.586,2.663c-1.36,1.063-3.039,1.635-4.765,1.626
		c-0.306,0-0.611-0.019-0.915-0.057c1.746,1.137,3.786,1.74,5.87,1.736c7.061,0,10.923-5.85,10.923-10.928c0-0.167,0-0.329,0-0.492
		C305.954,26.485,306.597,25.817,307.109,25.054z"/>
	<path fill="#3B5998" d="M178.133,15.122H164.6c-0.465,0-0.842,0.377-0.842,0.842v0v13.529c0,0.465,0.377,0.842,0.842,0.842l0,0
		h6.757v-6.021h-1.817v-2.22h1.817v-1.626c0-1.968,1.362-3.037,3.118-3.037c0.842,0,1.744,0.065,1.951,0.094v2.033h-1.398
		c-0.951,0-1.134,0.455-1.134,1.118v1.415h2.272l-0.297,2.22h-1.976v6.021h4.232c0.463-0.002,0.837-0.378,0.837-0.842V15.964
		C178.963,15.503,178.593,15.129,178.133,15.122z"/>
	<path fill="#DD4B39" d="M222.205,54.255l-0.061-0.276h-6.204v2.561h3.59c-0.37,1.781-1.915,2.52-3.329,2.52
		c-0.999,0.034-1.972-0.326-2.707-1.004c-1.505-1.535-1.526-3.984-0.049-5.545c0.733-0.69,1.714-1.054,2.72-1.008
		c0.844-0.013,1.663,0.285,2.301,0.837l1.903-1.89c-1.175-1.045-2.692-1.624-4.264-1.626c-3.515-0.077-6.427,2.711-6.504,6.226
		c-0.002,0.077-0.002,0.153-0.001,0.23c-0.005,1.661,0.627,3.261,1.764,4.472c1.293,1.289,3.053,1.999,4.878,1.968
		c1.647,0.014,3.227-0.649,4.37-1.833c1.112-1.22,1.713-2.821,1.679-4.472c0.003-0.386-0.024-0.772-0.081-1.155L222.205,54.255z
		 M229.885,53.982h-2.26v-2.256h-1.626v2.256h-2.26v1.626h2.26v2.256h1.626v-2.256h2.272L229.885,53.982z"/>
	<path fill="#E53C5F" d="M105.174,67.979c1.748,0.007,3.162,1.423,3.167,3.171v6.338c-0.001,0.839-0.336,1.644-0.931,2.236
		c-0.59,0.599-1.396,0.934-2.236,0.931h-6.342c-1.746-0.007-3.16-1.421-3.167-3.167V71.15c0.004-1.748,1.419-3.164,3.167-3.171
		H105.174 M105.174,66.711h-6.342c-2.448,0.007-4.431,1.991-4.435,4.439v6.338c0.007,2.447,1.989,4.429,4.435,4.435h6.342
		c2.447-0.007,4.429-1.989,4.435-4.435V71.15c0-2.451-1.984-4.441-4.435-4.447V66.711z"/>
	<path fill="#E53C5F" d="M106.121,71.15c-0.525,0-0.951-0.426-0.951-0.951s0.426-0.951,0.951-0.951c0.525,0,0.951,0.426,0.951,0.951
		l0,0c0.002,0.523-0.42,0.949-0.943,0.951C106.126,71.15,106.123,71.15,106.121,71.15z M102.003,71.784
		c1.401,0,2.537,1.136,2.537,2.537s-1.136,2.537-2.537,2.537c-1.401,0-2.537-1.136-2.537-2.537c0-0.001,0-0.003,0-0.004
		C99.468,72.917,100.603,71.784,102.003,71.784 M102.003,70.516c-2.102,0-3.805,1.704-3.805,3.805c0,2.102,1.704,3.805,3.805,3.805
		c2.102,0,3.805-1.704,3.805-3.805c0-0.001,0-0.003,0-0.004c0-2.099-1.702-3.801-3.801-3.801
		C102.005,70.516,102.004,70.516,102.003,70.516z"/>
	<path fill="#007BB6" d="M282.258,105.729h-12.692c-0.684-0.034-1.266,0.492-1.3,1.176c0,0.004,0,0.007,0,0.011v12.72
		c0.019,0.71,0.591,1.282,1.301,1.301h12.688c0.693-0.029,1.236-0.607,1.22-1.301v-12.712c0.016-0.644-0.493-1.18-1.137-1.196
		C282.31,105.728,282.284,105.728,282.258,105.729z M272.989,118.417h-2.179v-6.777h2.179V118.417z M271.972,110.612
		L271.972,110.612c-0.646-0.013-1.16-0.548-1.146-1.195c0.013-0.646,0.548-1.16,1.195-1.146c0.637,0.013,1.146,0.533,1.146,1.17
		c0.03,0.617-0.446,1.141-1.063,1.17c-0.052,0.003-0.104,0.001-0.156-0.003L271.972,110.612z M280.949,118.417h-2.187v-3.708
		c0-0.886-0.317-1.492-1.106-1.492c-0.507,0.005-0.954,0.332-1.114,0.813c-0.059,0.171-0.085,0.352-0.077,0.533v3.862h-2.179v-6.785
		h2.179v0.943c0.405-0.7,1.16-1.122,1.968-1.102c1.427,0,2.508,0.943,2.508,2.976L280.949,118.417z"/>
	<polygon fill="#464A5F" points="191.488,175.124 192.565,177.071 227.62,169.64 226.234,167.436 	"/>
	<path fill="#464A5F" d="M187.288,177.018l-5.309-31.49c-0.091-0.549,0.281-1.068,0.83-1.159c0.019-0.003,0.037-0.006,0.056-0.008
		l40.246-4.293c0.54-0.058,1.028,0.324,1.102,0.862l3.764,27.583L187.288,177.018z"/>
	<path opacity="0.1" enable-background="new    " d="M187.288,177.018l-5.309-31.49c-0.091-0.549,0.281-1.068,0.83-1.159
		c0.019-0.003,0.037-0.006,0.056-0.008l40.246-4.293c0.54-0.058,1.028,0.324,1.102,0.862l3.764,27.583L187.288,177.018z"/>
	<path fill="#464A5F" d="M187.902,177.018l-5.305-31.49c-0.093-0.547,0.275-1.065,0.822-1.158c0.02-0.003,0.04-0.006,0.061-0.008
		l40.246-4.293c0.54-0.058,1.028,0.324,1.102,0.862l3.76,27.583L187.902,177.018z"/>
	<polygon fill="#FF0000" points="185.39,146.935 189.748,173.689 226.132,166.205 222.75,142.427 	"/>
	<path fill="#9C9CA1" d="M192.362,176.465l-0.256-0.516l-4.817,1.077l12.269,18.749c0.382,0.585,1.102,0.851,1.772,0.654
		l43.092-12.525c0.841-0.242,1.327-1.121,1.084-1.962c-0.095-0.33-0.294-0.62-0.568-0.826l-16.7-12.647l-3.484,0.813l0.154,0.358
		L192.362,176.465z"/>
	<path opacity="0.1" enable-background="new    " d="M192.362,176.465l-0.256-0.516l-4.817,1.077l12.269,18.749
		c0.382,0.585,1.102,0.851,1.772,0.654l43.092-12.525c0.841-0.242,1.327-1.121,1.084-1.962c-0.095-0.33-0.294-0.62-0.568-0.826
		l-16.7-12.647l-3.484,0.813l0.154,0.358L192.362,176.465z"/>
	<path fill="#9C9CA1" d="M192.976,176.465l-0.256-0.516l-4.817,1.077l12.269,18.749c0.382,0.585,1.102,0.851,1.772,0.654
		l43.092-12.525c0.841-0.244,1.325-1.124,1.081-1.965c-0.095-0.329-0.295-0.618-0.568-0.824l-16.7-12.647l-3.484,0.813l0.154,0.358
		L192.976,176.465z"/>
	<path opacity="0.1" enable-background="new    " d="M212.196,184.137l13.846-3.606c0.088-0.022,0.181,0.001,0.248,0.061
		l6.151,5.582c0.109,0.1,0.117,0.27,0.017,0.379c-0.033,0.036-0.075,0.062-0.122,0.076l-14.635,4.325
		c-0.101,0.029-0.209-0.005-0.276-0.085l-5.354-6.305c-0.093-0.118-0.073-0.289,0.045-0.383
		C212.139,184.162,212.167,184.147,212.196,184.137z"/>
	<path fill="#939498" d="M212.505,183.832l13.846-3.598c0.088-0.023,0.181,0,0.248,0.061l6.143,5.578
		c0.109,0.1,0.117,0.27,0.017,0.379c-0.033,0.036-0.075,0.062-0.122,0.076l-14.635,4.325c-0.102,0.029-0.212-0.005-0.281-0.085
		l-5.35-6.305c-0.096-0.11-0.086-0.277,0.024-0.373C212.427,183.862,212.464,183.842,212.505,183.832z"/>
	<g opacity="0.1">
		<path d="M193,179.071l0.622,1c0.026,0.043,0.076,0.066,0.126,0.057l2.102-0.468c0.065-0.017,0.104-0.084,0.086-0.149
			c-0.004-0.014-0.009-0.026-0.017-0.038l-0.695-0.976c-0.027-0.04-0.075-0.059-0.122-0.049l-2.033,0.435
			c-0.064,0.014-0.104,0.076-0.091,0.14C192.982,179.041,192.989,179.057,193,179.071z"/>
		<path d="M195.748,178.498l0.618,1.004c0.029,0.042,0.08,0.063,0.13,0.053l2.098-0.468c0.064-0.014,0.104-0.076,0.091-0.14
			c-0.004-0.017-0.011-0.033-0.022-0.047l-0.691-0.968c-0.028-0.039-0.075-0.058-0.122-0.049l-2.033,0.435
			c-0.063,0.016-0.101,0.081-0.085,0.144C195.736,178.475,195.741,178.487,195.748,178.498z"/>
		<path d="M198.407,177.921l0.622,1c0.027,0.042,0.077,0.063,0.126,0.053l2.102-0.468c0.065-0.017,0.104-0.084,0.087-0.149
			c-0.004-0.014-0.009-0.026-0.017-0.038l-0.699-0.968c-0.028-0.038-0.075-0.057-0.122-0.049l-2.033,0.435
			c-0.064,0.02-0.1,0.089-0.079,0.153C198.396,177.902,198.401,177.911,198.407,177.921z"/>
		<path d="M201.033,177.352l0.614,0.988c0.029,0.046,0.085,0.069,0.138,0.057l2.081-0.463c0.069-0.019,0.11-0.09,0.091-0.16
			c-0.004-0.014-0.01-0.028-0.018-0.04l-0.683-0.955c-0.03-0.041-0.081-0.06-0.13-0.049l-2.033,0.431
			c-0.067,0.027-0.099,0.103-0.072,0.169C201.025,177.337,201.029,177.345,201.033,177.352z"/>
		<path d="M200.818,178.88l0.622,1c0.026,0.044,0.077,0.065,0.126,0.053l2.098-0.467c0.062-0.011,0.103-0.07,0.092-0.132
			c-0.003-0.019-0.011-0.036-0.023-0.051l-0.691-0.972c-0.028-0.038-0.076-0.056-0.122-0.045l-2.033,0.435
			c-0.063,0.016-0.101,0.081-0.085,0.144C200.805,178.857,200.811,178.869,200.818,178.88z"/>
		<path d="M198.098,179.457l0.622,1c0.028,0.043,0.08,0.064,0.13,0.053l2.098-0.468c0.064-0.014,0.104-0.076,0.091-0.14
			c-0.004-0.017-0.011-0.033-0.022-0.047l-0.695-0.951c-0.027-0.039-0.076-0.057-0.122-0.045l-2.033,0.435
			c-0.063,0.024-0.095,0.094-0.071,0.157C198.096,179.454,198.097,179.456,198.098,179.457z"/>
		<path d="M199.866,180.685l0.622,1.004c0.029,0.042,0.08,0.062,0.13,0.053l2.098-0.468c0.064-0.014,0.104-0.076,0.091-0.14
			c-0.004-0.017-0.011-0.033-0.022-0.047l-0.695-0.963c-0.027-0.04-0.075-0.059-0.122-0.049l-2.033,0.435
			c-0.064,0.021-0.099,0.09-0.078,0.154C199.86,180.671,199.863,180.678,199.866,180.685z"/>
		<path d="M202.367,181.75l0.622,1c0.026,0.044,0.077,0.065,0.126,0.053l2.098-0.468c0.064-0.013,0.105-0.075,0.092-0.139
			c-0.003-0.016-0.01-0.031-0.019-0.044l-0.695-0.972c-0.028-0.038-0.076-0.056-0.122-0.045l-2.033,0.435
			c-0.063,0.016-0.101,0.081-0.085,0.144C202.354,181.727,202.359,181.739,202.367,181.75z"/>
		<path d="M202.801,183.502l1.004,1.26c0.029,0.036,0.077,0.052,0.122,0.041l2.114-0.549c0.065-0.018,0.103-0.085,0.085-0.15
			c-0.004-0.015-0.011-0.029-0.02-0.041l-1.041-1.268c-0.029-0.036-0.077-0.052-0.122-0.041l-2.081,0.561
			c-0.063,0.017-0.1,0.082-0.082,0.145C202.784,183.476,202.792,183.49,202.801,183.502z"/>
		<path d="M205.566,182.811l1.033,1.297c0.029,0.036,0.077,0.052,0.122,0.041l2.76-0.764c0.064-0.02,0.101-0.088,0.081-0.152
			c-0.004-0.014-0.011-0.027-0.02-0.039l-1.041-1.272c-0.029-0.036-0.077-0.052-0.122-0.041l-2.748,0.74
			c-0.065,0.018-0.103,0.085-0.085,0.15C205.55,182.785,205.557,182.799,205.566,182.811z"/>
		<path d="M200.098,184.189l1.004,1.26c0.029,0.036,0.077,0.052,0.122,0.041l2.114-0.549c0.065-0.018,0.103-0.085,0.085-0.15
			c-0.004-0.015-0.011-0.029-0.02-0.041l-1.041-1.272c-0.029-0.036-0.078-0.05-0.122-0.037l-2.081,0.557
			c-0.064,0.02-0.101,0.088-0.081,0.152C200.082,184.165,200.089,184.178,200.098,184.189z"/>
		<path d="M197.24,184.913l1.004,1.256c0.029,0.036,0.077,0.052,0.122,0.041l2.114-0.549c0.065-0.018,0.103-0.085,0.085-0.15
			c-0.004-0.015-0.011-0.029-0.02-0.041l-1.037-1.281c-0.031-0.036-0.08-0.052-0.126-0.041l-2.081,0.561
			c-0.066,0.015-0.107,0.08-0.092,0.146C197.214,184.877,197.225,184.897,197.24,184.913z"/>
		<path d="M203.655,176.738l0.61,0.988c0.029,0.046,0.085,0.069,0.138,0.057l2.081-0.463c0.068-0.015,0.111-0.082,0.096-0.15
			c-0.004-0.018-0.012-0.034-0.023-0.049l-0.683-0.955c-0.03-0.041-0.081-0.06-0.13-0.049l-2.008,0.431
			c-0.067,0.01-0.112,0.072-0.102,0.139C203.637,176.704,203.644,176.722,203.655,176.738z"/>
		<path d="M203.472,178.274l0.61,0.988c0.029,0.046,0.085,0.069,0.138,0.057l2.081-0.463c0.068-0.015,0.111-0.082,0.096-0.15
			c-0.004-0.018-0.012-0.034-0.023-0.049l-0.667-0.972c-0.03-0.041-0.081-0.06-0.13-0.049l-2.008,0.455
			c-0.069,0.008-0.119,0.071-0.111,0.14C203.461,178.246,203.465,178.261,203.472,178.274z"/>
		<path d="M206.204,176.16l0.61,0.988c0.029,0.046,0.085,0.069,0.138,0.057l2.081-0.463c0.068-0.015,0.111-0.082,0.096-0.15
			c-0.004-0.018-0.012-0.034-0.023-0.049l-0.683-0.955c-0.03-0.041-0.081-0.06-0.13-0.049l-2.008,0.431
			c-0.068,0.014-0.112,0.08-0.098,0.149C206.19,176.133,206.196,176.147,206.204,176.16z"/>
		<path d="M213.66,174.534l0.862,0.919c0.026,0.024,0.062,0.035,0.098,0.028l1.858-0.431c0.055-0.011,0.091-0.064,0.08-0.119
			c-0.004-0.021-0.015-0.041-0.031-0.055l-0.972-0.919c-0.027-0.023-0.063-0.033-0.098-0.024l-1.748,0.431
			c-0.055,0.013-0.089,0.067-0.076,0.122C213.637,174.504,213.647,174.521,213.66,174.534z"/>
		<path d="M216.042,173.981l0.866,0.919c0.025,0.027,0.062,0.038,0.098,0.028l1.858-0.431c0.053-0.01,0.088-0.061,0.078-0.114
			c-0.004-0.022-0.016-0.042-0.033-0.057l-0.972-0.923c-0.027-0.022-0.063-0.031-0.098-0.024l-1.748,0.431
			c-0.056,0.017-0.087,0.076-0.07,0.132C216.025,173.957,216.032,173.97,216.042,173.981z"/>
		<path d="M213.709,176.018l0.866,0.919c0.025,0.027,0.062,0.038,0.098,0.028l1.858-0.427c0.055-0.011,0.091-0.064,0.08-0.119
			c-0.004-0.021-0.015-0.041-0.031-0.055l-0.976-0.919c-0.024-0.025-0.06-0.036-0.093-0.028l-1.748,0.435
			c-0.055,0.013-0.089,0.067-0.076,0.122C213.689,175.99,213.697,176.005,213.709,176.018z"/>
		<path d="M211.265,176.587l0.813,0.878c0.031,0.033,0.078,0.047,0.122,0.037l1.801-0.407c0.069-0.018,0.111-0.09,0.092-0.159
			c-0.006-0.023-0.018-0.044-0.036-0.061l-0.931-0.878c-0.031-0.03-0.076-0.041-0.118-0.028l-1.691,0.407
			c-0.068,0.023-0.104,0.098-0.08,0.165C211.244,176.558,211.253,176.574,211.265,176.587z"/>
		<path d="M213.123,179.356l0.813,0.878c0.032,0.032,0.078,0.046,0.122,0.037l1.801-0.407c0.068-0.016,0.11-0.083,0.094-0.151
			c-0.006-0.025-0.019-0.047-0.037-0.064l-0.931-0.878c-0.032-0.029-0.076-0.041-0.118-0.033l-1.691,0.407
			c-0.068,0.023-0.104,0.098-0.08,0.165C213.102,179.327,213.111,179.343,213.123,179.356z"/>
		<path d="M210.574,179.933l0.813,0.878c0.032,0.032,0.078,0.046,0.122,0.037l1.797-0.407c0.068-0.014,0.112-0.08,0.098-0.149
			c-0.005-0.026-0.018-0.049-0.037-0.067l-0.931-0.878c-0.031-0.03-0.076-0.042-0.118-0.033l-1.695,0.407
			c-0.067,0.025-0.101,0.1-0.076,0.167C210.553,179.905,210.562,179.92,210.574,179.933z"/>
		<path d="M207.985,180.571l0.813,0.878c0.031,0.033,0.078,0.047,0.122,0.037l1.801-0.407c0.069-0.018,0.111-0.09,0.092-0.159
			c-0.006-0.023-0.018-0.044-0.036-0.061l-0.931-0.878c-0.031-0.03-0.076-0.041-0.118-0.028l-1.691,0.407
			c-0.067,0.019-0.105,0.089-0.086,0.156C207.958,180.537,207.969,180.556,207.985,180.571z"/>
		<path d="M205.249,181.112l0.837,0.89c0.029,0.031,0.072,0.045,0.114,0.037l1.817-0.407c0.064-0.012,0.106-0.074,0.094-0.138
			c-0.005-0.025-0.018-0.048-0.037-0.065l-0.943-0.898c-0.029-0.028-0.071-0.038-0.11-0.028l-1.712,0.407
			c-0.063,0.005-0.109,0.06-0.104,0.122C205.208,181.063,205.224,181.092,205.249,181.112z"/>
		<path d="M210.55,178.331l0.813,0.878c0.031,0.033,0.078,0.046,0.122,0.037l1.797-0.407c0.068-0.014,0.112-0.08,0.098-0.149
			c-0.005-0.026-0.018-0.049-0.037-0.067l-0.927-0.89c-0.031-0.03-0.076-0.042-0.118-0.033l-1.695,0.407
			c-0.068,0.013-0.113,0.079-0.1,0.148C210.509,178.286,210.526,178.313,210.55,178.331z"/>
		<path d="M208.062,178.905l0.813,0.874c0.03,0.035,0.078,0.049,0.122,0.037l1.801-0.407c0.068-0.016,0.11-0.083,0.094-0.151
			c-0.006-0.025-0.019-0.047-0.037-0.064l-0.931-0.878c-0.03-0.033-0.076-0.045-0.118-0.033l-1.691,0.407
			c-0.067,0.017-0.108,0.086-0.09,0.154C208.031,178.867,208.044,178.888,208.062,178.905z"/>
		<path d="M205.399,179.47l0.813,0.878c0.031,0.033,0.078,0.047,0.122,0.037l1.797-0.407c0.07-0.017,0.113-0.087,0.097-0.157
			c-0.006-0.024-0.018-0.046-0.036-0.063l-0.931-0.878c-0.032-0.029-0.076-0.04-0.118-0.028l-1.695,0.407
			c-0.066,0.021-0.103,0.092-0.082,0.158C205.372,179.437,205.384,179.455,205.399,179.47z"/>
		<path d="M202.659,180.124l0.837,0.89c0.032,0.029,0.076,0.041,0.118,0.033l1.817-0.407c0.064-0.014,0.104-0.077,0.09-0.141
			c-0.005-0.024-0.018-0.046-0.037-0.063l-0.943-0.89c-0.03-0.027-0.071-0.038-0.11-0.028l-1.712,0.407
			c-0.065,0.017-0.105,0.083-0.088,0.148C202.637,180.092,202.646,180.11,202.659,180.124z"/>
		<path d="M213.111,177.73l0.813,0.874c0.03,0.035,0.077,0.05,0.122,0.041l1.797-0.407c0.068-0.014,0.112-0.08,0.098-0.149
			c-0.005-0.026-0.018-0.049-0.037-0.067l-0.931-0.878c-0.03-0.032-0.076-0.044-0.118-0.033l-1.695,0.407
			c-0.067,0.025-0.101,0.1-0.076,0.167C213.09,177.702,213.099,177.717,213.111,177.73z"/>
		<path d="M208.757,177.23l0.813,0.878c0.031,0.033,0.078,0.046,0.122,0.037l1.797-0.407c0.068-0.016,0.11-0.083,0.094-0.151
			c-0.006-0.025-0.019-0.047-0.037-0.064l-0.927-0.878c-0.031-0.03-0.076-0.042-0.118-0.033l-1.695,0.407
			c-0.066,0.021-0.103,0.092-0.082,0.158C208.73,177.197,208.742,177.215,208.757,177.23z"/>
		<path d="M218.343,173.4l0.907,0.959c0.018,0.021,0.046,0.03,0.073,0.024l1.919-0.447c0.042-0.01,0.067-0.051,0.057-0.093
			c-0.003-0.014-0.011-0.027-0.021-0.037l-1.02-0.963c-0.023-0.012-0.05-0.012-0.073,0l-1.805,0.447
			c-0.038,0.013-0.058,0.055-0.045,0.093C218.337,173.389,218.34,173.395,218.343,173.4z"/>
		<path d="M220.66,172.884l0.907,0.963c0.019,0.019,0.046,0.028,0.073,0.024l1.919-0.447c0.042-0.01,0.067-0.051,0.057-0.093
			c-0.003-0.014-0.011-0.027-0.021-0.037l-1.016-0.963c-0.021-0.012-0.048-0.012-0.069,0l-1.809,0.447
			c-0.038,0.013-0.059,0.054-0.047,0.092C220.656,172.875,220.658,172.88,220.66,172.884z"/>
		<path d="M223.047,172.339l0.813,0.89c0.018,0.023,0.049,0.033,0.077,0.024l1.789-0.488c0.042-0.016,0.063-0.063,0.048-0.105
			c-0.004-0.011-0.011-0.021-0.019-0.029l-0.923-0.776c-0.021-0.009-0.044-0.009-0.065,0l-1.695,0.374
			c-0.036,0.019-0.05,0.063-0.032,0.099C223.042,172.332,223.044,172.336,223.047,172.339z"/>
		<path d="M225.543,173.168l0.813,0.894c0.019,0.02,0.046,0.029,0.073,0.024l1.789-0.488c0.041-0.011,0.065-0.054,0.054-0.095
			c-0.004-0.015-0.013-0.029-0.025-0.039l-0.923-0.776c-0.02-0.012-0.045-0.012-0.065,0l-1.691,0.37
			c-0.037,0.022-0.049,0.069-0.027,0.106C225.541,173.166,225.542,173.167,225.543,173.168z"/>
		<path d="M225.242,174.795l0.785,0.846c0.025,0.03,0.065,0.041,0.102,0.028l1.724-0.468c0.055-0.012,0.089-0.067,0.077-0.122
			c-0.005-0.023-0.018-0.043-0.036-0.057l-0.874-0.74c-0.025-0.021-0.058-0.028-0.089-0.02l-1.626,0.362
			c-0.056,0.007-0.095,0.058-0.088,0.114C225.218,174.759,225.227,174.779,225.242,174.795z"/>
		<path d="M223.205,176.872l0.785,0.85c0.026,0.028,0.065,0.039,0.102,0.028l1.74-0.472c0.054-0.014,0.086-0.07,0.072-0.124
			c-0.005-0.02-0.016-0.037-0.031-0.05l-0.874-0.74c-0.028-0.014-0.061-0.014-0.089,0l-1.626,0.358
			c-0.058,0.01-0.096,0.064-0.086,0.122C223.198,176.853,223.201,176.863,223.205,176.872z"/>
		<path d="M220.758,177.498l0.785,0.846c0.025,0.03,0.065,0.041,0.102,0.028l1.724-0.468c0.055-0.012,0.089-0.067,0.077-0.122
			c-0.005-0.023-0.018-0.043-0.036-0.057l-0.874-0.74c-0.028-0.014-0.061-0.014-0.089,0l-1.626,0.362
			c-0.054,0.014-0.086,0.07-0.072,0.124C220.749,177.481,220.753,177.49,220.758,177.498z"/>
		<path d="M225.51,176.254l0.785,0.846c0.026,0.028,0.064,0.04,0.102,0.033l1.728-0.472c0.054-0.014,0.087-0.07,0.073-0.124
			c-0.006-0.022-0.018-0.041-0.036-0.055l-0.874-0.736c-0.025-0.02-0.058-0.029-0.089-0.024l-1.626,0.362
			c-0.057,0.011-0.094,0.067-0.083,0.124C225.492,176.225,225.499,176.241,225.51,176.254z"/>
		<path d="M225.112,178.091l1.183,1.065c0.031,0.014,0.066,0.014,0.098,0l1.711-0.484c0.054-0.014,0.087-0.07,0.072-0.124
			c-0.005-0.02-0.016-0.037-0.031-0.05l-1.277-1.118c-0.03-0.018-0.068-0.018-0.098,0l-1.626,0.541
			c-0.052,0.015-0.081,0.069-0.066,0.121C225.084,178.061,225.096,178.079,225.112,178.091z"/>
		<path d="M220.953,174.323l0.813,0.894c0.018,0.021,0.047,0.029,0.073,0.02l1.789-0.488c0.04-0.009,0.065-0.047,0.056-0.087
			c-0.004-0.017-0.014-0.033-0.028-0.043l-0.923-0.781c-0.02-0.01-0.045-0.01-0.065,0l-1.691,0.374
			c-0.037,0.022-0.049,0.069-0.027,0.106C220.951,174.32,220.952,174.322,220.953,174.323z"/>
		<path d="M218.656,174.896l0.785,0.846c0.026,0.028,0.064,0.04,0.102,0.033l1.728-0.472c0.054-0.014,0.087-0.07,0.073-0.124
			c-0.006-0.022-0.018-0.041-0.036-0.055l-0.874-0.736c-0.025-0.02-0.058-0.029-0.089-0.024l-1.626,0.362
			c-0.056,0.007-0.095,0.058-0.088,0.114C218.632,174.86,218.641,174.88,218.656,174.896z"/>
		<path d="M218.185,176.534l0.785,0.85c0.026,0.028,0.065,0.039,0.102,0.028l1.724-0.472c0.054-0.014,0.087-0.07,0.072-0.124
			c-0.005-0.02-0.016-0.037-0.031-0.05l-0.878-0.74c-0.025-0.021-0.058-0.028-0.089-0.02l-1.626,0.358
			c-0.055,0.009-0.093,0.061-0.084,0.117C218.161,176.501,218.17,176.52,218.185,176.534z"/>
		<path d="M215.749,177.124l0.785,0.85c0.026,0.028,0.065,0.039,0.102,0.028l1.724-0.472c0.054-0.014,0.087-0.07,0.072-0.124
			c-0.005-0.02-0.016-0.037-0.031-0.05l-0.878-0.74c-0.023-0.021-0.055-0.028-0.085-0.02l-1.626,0.358
			c-0.056,0.007-0.095,0.058-0.088,0.114C215.725,177.088,215.735,177.108,215.749,177.124z"/>
		<path d="M216.184,175.445l0.785,0.85c0.025,0.03,0.065,0.041,0.102,0.028l1.724-0.472c0.054-0.014,0.087-0.07,0.072-0.124
			c-0.005-0.02-0.016-0.037-0.031-0.05l-0.874-0.74c-0.025-0.021-0.058-0.028-0.089-0.02l-1.626,0.362
			c-0.055,0.009-0.093,0.061-0.084,0.116C216.164,175.413,216.172,175.431,216.184,175.445z"/>
		<path d="M218.221,178.047l0.785,0.85c0.026,0.028,0.065,0.039,0.102,0.028l1.724-0.472c0.054-0.014,0.086-0.07,0.072-0.124
			c-0.005-0.02-0.016-0.037-0.031-0.05l-0.874-0.74c-0.025-0.021-0.058-0.028-0.089-0.02l-1.626,0.358
			c-0.057,0.011-0.094,0.067-0.083,0.124C218.203,178.017,218.21,178.033,218.221,178.047z"/>
		<path d="M215.831,178.693l0.744,0.813c0.031,0.036,0.08,0.05,0.126,0.037l1.663-0.451c0.069-0.02,0.109-0.092,0.089-0.161
			c-0.007-0.024-0.021-0.046-0.04-0.063l-0.813-0.699c-0.03-0.026-0.071-0.035-0.11-0.024l-1.577,0.346
			c-0.069,0.01-0.117,0.073-0.107,0.142C215.808,178.654,215.817,178.675,215.831,178.693z"/>
		<path d="M223.327,173.733l0.813,0.894c0.024,0.014,0.053,0.014,0.077,0l1.789-0.488c0.04-0.009,0.065-0.047,0.056-0.087
			c-0.004-0.017-0.014-0.033-0.028-0.043l-0.923-0.781c-0.021-0.008-0.044-0.008-0.065,0l-1.691,0.374
			c-0.041,0.013-0.063,0.057-0.049,0.097C223.31,173.713,223.318,173.725,223.327,173.733z"/>
		<path d="M222.986,175.343l0.785,0.85c0.026,0.028,0.065,0.039,0.102,0.028l1.724-0.472c0.054-0.014,0.086-0.07,0.072-0.124
			c-0.005-0.02-0.016-0.037-0.031-0.05l-0.862-0.736c-0.025-0.021-0.058-0.028-0.089-0.02l-1.626,0.358
			c-0.056,0.003-0.099,0.05-0.097,0.106C222.963,175.305,222.971,175.326,222.986,175.343z"/>
		<path d="M220.656,175.986l0.785,0.846c0.026,0.028,0.064,0.041,0.102,0.033l1.724-0.472c0.056-0.017,0.087-0.076,0.07-0.132
			c-0.006-0.018-0.016-0.034-0.03-0.047l-0.878-0.736c-0.024-0.02-0.055-0.029-0.085-0.024l-1.626,0.362
			c-0.056,0.007-0.095,0.058-0.088,0.114C220.632,175.95,220.641,175.97,220.656,175.986z"/>
		<path d="M211.225,175.059l0.866,0.919c0.026,0.026,0.062,0.036,0.098,0.028l1.858-0.431c0.055-0.013,0.089-0.067,0.076-0.122
			c-0.005-0.02-0.016-0.039-0.031-0.053l-0.972-0.919c-0.026-0.024-0.063-0.033-0.098-0.024l-1.748,0.431
			c-0.056,0.017-0.087,0.076-0.07,0.132C211.208,175.034,211.215,175.047,211.225,175.059z"/>
		<path d="M208.757,175.652l0.813,0.878c0.031,0.033,0.078,0.047,0.122,0.037l1.801-0.407c0.069-0.018,0.111-0.09,0.092-0.159
			c-0.006-0.023-0.018-0.044-0.036-0.061l-0.931-0.878c-0.031-0.03-0.076-0.041-0.118-0.028l-1.691,0.407
			c-0.068,0.023-0.104,0.098-0.08,0.165C208.736,175.623,208.745,175.639,208.757,175.652z"/>
		<path d="M206.086,177.726l0.614,0.984c0.029,0.047,0.085,0.07,0.138,0.057l2.077-0.463c0.068-0.013,0.113-0.079,0.1-0.147
			c-0.004-0.019-0.011-0.036-0.023-0.052l-0.683-0.951c-0.031-0.04-0.08-0.06-0.13-0.053l-2.033,0.431
			c-0.067,0.026-0.101,0.101-0.075,0.168C206.076,177.708,206.08,177.717,206.086,177.726z"/>
		<path d="M192.463,178.091l2.053-0.476c0.046-0.011,0.094,0.007,0.122,0.045l0.362,0.476c0.04,0.052,0.03,0.126-0.022,0.165
			c-0.014,0.011-0.03,0.018-0.047,0.022l-2.126,0.496c-0.051,0.012-0.104-0.011-0.13-0.057l-0.289-0.496
			c-0.033-0.056-0.014-0.128,0.042-0.161C192.439,178.099,192.451,178.094,192.463,178.091z"/>
		<path d="M195.289,177.478l2.033-0.476c0.046-0.012,0.095,0.006,0.122,0.045l0.362,0.472c0.04,0.054,0.029,0.13-0.025,0.171
			c-0.013,0.01-0.028,0.017-0.044,0.02l-2.126,0.496c-0.051,0.011-0.103-0.012-0.13-0.057l-0.289-0.496
			c-0.031-0.057-0.011-0.129,0.046-0.16C195.253,177.483,195.271,177.478,195.289,177.478z"/>
		<path d="M198.017,176.872l2.033-0.472c0.045-0.013,0.094,0.003,0.122,0.041l0.362,0.476c0.04,0.052,0.03,0.126-0.022,0.165
			c-0.014,0.011-0.03,0.018-0.047,0.022l-2.126,0.496c-0.051,0.012-0.104-0.011-0.13-0.057l-0.289-0.492
			c-0.032-0.059-0.009-0.133,0.05-0.165C197.984,176.878,198,176.873,198.017,176.872z"/>
		<path d="M200.671,176.282l2.033-0.472c0.046-0.012,0.095,0.006,0.122,0.045l0.362,0.472c0.04,0.054,0.029,0.131-0.025,0.171
			c-0.013,0.01-0.028,0.017-0.044,0.02l-2.085,0.492c-0.05,0.014-0.104-0.007-0.13-0.053l-0.289-0.496
			c-0.036-0.057-0.02-0.132,0.037-0.169C200.658,176.289,200.664,176.285,200.671,176.282z"/>
		<path d="M203.379,175.685l2.033-0.472c0.049-0.009,0.099,0.01,0.13,0.049l0.35,0.459c0.043,0.058,0.03,0.139-0.028,0.182
			c-0.014,0.01-0.029,0.017-0.045,0.021l-2.11,0.492c-0.054,0.011-0.11-0.013-0.138-0.061l-0.281-0.48
			c-0.035-0.063-0.012-0.142,0.05-0.177C203.352,175.692,203.365,175.687,203.379,175.685z"/>
		<path d="M206.005,175.14l2.033-0.472c0.048-0.013,0.1,0.004,0.13,0.045l0.35,0.459c0.043,0.058,0.03,0.139-0.028,0.182
			c-0.014,0.01-0.029,0.017-0.045,0.021l-2.11,0.492c-0.054,0.011-0.11-0.013-0.138-0.061l-0.285-0.48
			c-0.034-0.061-0.013-0.137,0.048-0.172C205.973,175.147,205.989,175.142,206.005,175.14z"/>
		<path d="M208.57,174.603l1.882-0.455c0.044-0.012,0.091,0.002,0.122,0.037l0.366,0.382c0.049,0.049,0.049,0.129-0.001,0.178
			c-0.017,0.016-0.037,0.028-0.06,0.033l-1.862,0.467c-0.042,0.012-0.088-0.001-0.118-0.033l-0.407-0.407
			c-0.042-0.058-0.029-0.14,0.029-0.182C208.536,174.615,208.553,174.607,208.57,174.603z"/>
		<path d="M211.066,174.026l1.939-0.472c0.035-0.01,0.073,0.001,0.098,0.028l0.407,0.427c0.039,0.037,0.041,0.099,0.004,0.138
			c-0.014,0.015-0.032,0.025-0.053,0.029l-1.915,0.484c-0.035,0.008-0.072-0.003-0.098-0.028l-0.427-0.435
			c-0.04-0.039-0.041-0.104-0.001-0.144C211.033,174.04,211.049,174.031,211.066,174.026z"/>
		<path d="M213.554,173.445l1.939-0.472c0.035-0.012,0.074,0,0.098,0.028l0.407,0.407c0.038,0.044,0.034,0.111-0.01,0.149
			c-0.011,0.01-0.025,0.017-0.039,0.022l-1.907,0.5c-0.035,0.007-0.072-0.004-0.098-0.028l-0.439-0.431
			c-0.041-0.038-0.044-0.102-0.007-0.144C213.513,173.46,213.533,173.449,213.554,173.445z"/>
		<path d="M216.042,172.933l1.939-0.472c0.035-0.008,0.072,0.003,0.098,0.028l0.407,0.407c0.038,0.044,0.034,0.111-0.01,0.149
			c-0.011,0.01-0.025,0.017-0.039,0.022l-1.915,0.48c-0.037,0.009-0.075-0.002-0.102-0.028l-0.427-0.431
			c-0.031-0.049-0.017-0.115,0.032-0.146C216.031,172.938,216.036,172.935,216.042,172.933z"/>
		<path d="M218.4,172.368l2-0.484c0.023-0.013,0.051-0.013,0.073,0l0.443,0.467c0.03,0.027,0.032,0.074,0.005,0.103
			c-0.011,0.012-0.025,0.02-0.041,0.023l-1.959,0.516c-0.022,0.014-0.051,0.014-0.073,0l-0.472-0.476
			c-0.04-0.014-0.062-0.058-0.048-0.098C218.338,172.389,218.367,172.368,218.4,172.368z"/>
		<path d="M220.782,171.859l2-0.488c0.027-0.004,0.054,0.005,0.073,0.024l0.447,0.467c0.029,0.032,0.026,0.081-0.006,0.109
			c-0.009,0.008-0.019,0.014-0.031,0.017l-1.976,0.496c-0.023,0.013-0.051,0.013-0.073,0l-0.472-0.492
			c-0.032-0.028-0.035-0.077-0.007-0.109C220.75,171.871,220.765,171.863,220.782,171.859z"/>
		<path d="M223.161,171.315l1.846-0.407c0.029-0.006,0.059,0.005,0.077,0.028l0.358,0.439c0.026,0.031,0.021,0.077-0.01,0.103
			c-0.009,0.007-0.019,0.012-0.031,0.015l-1.736,0.459c-0.026,0.008-0.055,0-0.073-0.02l-0.472-0.476
			c-0.039-0.011-0.062-0.052-0.051-0.091C223.08,171.326,223.121,171.303,223.161,171.315z"/>
		<path d="M225.425,170.794l1.85-0.407c0.028-0.008,0.059,0.001,0.077,0.024l0.358,0.439c0.026,0.034,0.02,0.082-0.014,0.108
			c-0.008,0.006-0.017,0.011-0.027,0.014l-1.736,0.459c-0.023,0.01-0.05,0.01-0.073,0l-0.472-0.48
			c-0.044-0.01-0.071-0.054-0.061-0.098C225.337,170.811,225.381,170.784,225.425,170.794L225.425,170.794z"/>
		<path d="M193.903,180.531l0.683,0.972c0.028,0.041,0.078,0.061,0.126,0.049l3.557-0.813c0.063-0.015,0.102-0.079,0.087-0.142
			c-0.004-0.016-0.011-0.031-0.022-0.045l-0.752-0.996c-0.03-0.037-0.08-0.053-0.126-0.041l-3.48,0.85
			c-0.065,0.024-0.099,0.096-0.075,0.162C193.901,180.527,193.902,180.529,193.903,180.531z"/>
		<path d="M194.98,181.844l0.683,1.081c0.026,0.044,0.077,0.065,0.126,0.053l4.297-1.02c0.064-0.014,0.104-0.077,0.09-0.14
			c-0.004-0.019-0.013-0.036-0.025-0.051l-0.85-1.053c-0.029-0.036-0.077-0.052-0.122-0.041l-4.126,0.992
			c-0.064,0.014-0.103,0.077-0.089,0.141C194.967,181.819,194.972,181.832,194.98,181.844z"/>
		<path d="M195.951,183.275l0.813,1.175c0.028,0.041,0.078,0.061,0.126,0.049l5.691-1.407c0.065-0.016,0.106-0.082,0.09-0.147
			c-0.004-0.016-0.011-0.031-0.02-0.044l-0.919-1.175c-0.028-0.038-0.076-0.056-0.122-0.045l-5.626,1.411
			c-0.058,0.031-0.079,0.102-0.049,0.159C195.94,183.26,195.945,183.268,195.951,183.275z"/>
		<path d="M208.981,181.99l1.041,1.256c0.032,0.037,0.083,0.053,0.13,0.041l12.521-3.126c0.066-0.013,0.109-0.077,0.096-0.143
			c-0.005-0.026-0.019-0.05-0.039-0.068l-1.277-1.272c-0.031-0.033-0.078-0.045-0.122-0.033l-12.285,3.142
			c-0.067,0.017-0.108,0.086-0.091,0.153C208.96,181.959,208.969,181.976,208.981,181.99z"/>
		<path d="M221.908,178.75l1.22,1.22c0.026,0.027,0.065,0.038,0.102,0.028l2.565-0.687c0.054-0.015,0.086-0.07,0.072-0.125
			c-0.005-0.018-0.014-0.033-0.027-0.046l-1.272-1.248c-0.025-0.026-0.063-0.036-0.098-0.024l-2.52,0.695
			c-0.056,0.007-0.095,0.058-0.088,0.114C221.865,178.707,221.883,178.734,221.908,178.75z"/>
		<path d="M228.108,177.974l0.557,0.594c0.019,0.02,0.047,0.028,0.073,0.02l1.903-0.512c0.039-0.009,0.064-0.048,0.055-0.088
			c-0.003-0.015-0.011-0.028-0.023-0.038l-0.679-0.638c-0.023-0.012-0.05-0.012-0.073,0l-1.781,0.557
			c-0.037,0.016-0.054,0.06-0.037,0.096C228.104,177.968,228.106,177.971,228.108,177.974z"/>
		<path d="M229.726,176.709l0.667,0.699c0.019,0.022,0.05,0.031,0.077,0.02l1.744-0.606c0.039-0.011,0.062-0.051,0.051-0.09
			c-0.004-0.014-0.012-0.027-0.023-0.036l-0.65-0.589c-0.023-0.012-0.05-0.012-0.073,0l-1.76,0.492
			c-0.038,0.018-0.055,0.065-0.036,0.103C229.723,176.705,229.725,176.707,229.726,176.709z"/>
		<path d="M231.011,177.921l-0.48-0.407c-0.032-0.028-0.035-0.077-0.006-0.109c0.008-0.009,0.019-0.017,0.031-0.021l1.736-0.602
			c0.025-0.016,0.057-0.016,0.081,0l0.541,0.524c0.031,0.03,0.032,0.078,0.002,0.109c-0.01,0.01-0.022,0.017-0.035,0.021
			l-1.805,0.467C231.057,177.919,231.034,177.925,231.011,177.921z"/>
		<path d="M232.791,176.847c0.15,0.142,0.407,0.431,0.516,0.528c0.019,0.019,0.047,0.027,0.073,0.02l1.809-0.492
			c0.041-0.012,0.065-0.054,0.053-0.095c-0.004-0.013-0.011-0.025-0.021-0.035l-0.642-0.577c-0.022-0.014-0.051-0.014-0.073,0
			l-1.683,0.541c-0.037,0.015-0.056,0.058-0.04,0.095C232.785,176.838,232.788,176.843,232.791,176.847z"/>
		<path d="M227.714,175.701l0.972,0.935c0.017,0.02,0.044,0.028,0.069,0.02l4.671-1.22c0.039-0.008,0.065-0.047,0.056-0.087
			c-0.004-0.017-0.014-0.033-0.028-0.043l-1.118-0.951c-0.021-0.012-0.048-0.012-0.069,0l-4.504,1.22
			c-0.04,0.001-0.072,0.035-0.071,0.075C227.692,175.669,227.7,175.688,227.714,175.701z"/>
		<path d="M227.397,174.262l1,0.89c0.022,0.01,0.047,0.01,0.069,0l3.512-0.813c0.042-0.01,0.067-0.051,0.058-0.093
			c-0.004-0.016-0.013-0.031-0.025-0.041l-1.15-0.963c-0.022-0.01-0.047-0.01-0.069,0l-3.362,0.907
			c-0.039,0.017-0.056,0.063-0.039,0.102C227.392,174.254,227.394,174.258,227.397,174.262z"/>
		<path d="M227.718,172.729l0.947,0.846c0.022,0.012,0.048,0.012,0.069,0l1.801-0.407c0.043-0.012,0.068-0.057,0.056-0.101
			c-0.004-0.013-0.01-0.024-0.019-0.034l-1.122-0.968c-0.023-0.012-0.05-0.012-0.073,0l-1.626,0.52
			c-0.042,0.005-0.073,0.043-0.068,0.085C227.684,172.696,227.698,172.717,227.718,172.729z"/>
		<path d="M225.25,171.888l0.919,0.833c0.022,0.01,0.047,0.01,0.069,0l2.846-0.679c0.041-0.012,0.065-0.054,0.053-0.095
			c-0.004-0.013-0.011-0.025-0.021-0.035l-1.094-0.915c-0.022-0.01-0.047-0.01-0.069,0l-2.683,0.76
			c-0.039,0.016-0.058,0.062-0.042,0.101C225.234,171.87,225.241,171.88,225.25,171.888z"/>
	</g>
	<path fill="#464A5F" d="M193,178.766l0.622,1c0.027,0.042,0.077,0.063,0.126,0.053l2.102-0.467
		c0.065-0.017,0.104-0.084,0.086-0.149c-0.004-0.013-0.009-0.026-0.017-0.038l-0.695-0.968c-0.028-0.038-0.075-0.057-0.122-0.049
		l-2.033,0.435c-0.065,0.019-0.102,0.086-0.084,0.151C192.989,178.746,192.994,178.756,193,178.766z"/>
	<path fill="#464A5F" d="M195.748,178.189l0.618,1c0.028,0.043,0.08,0.064,0.13,0.053l2.098-0.468
		c0.064-0.014,0.104-0.076,0.091-0.14c-0.004-0.017-0.011-0.033-0.022-0.047l-0.691-0.968c-0.028-0.038-0.076-0.056-0.122-0.045
		l-2.033,0.435c-0.063,0.016-0.101,0.081-0.085,0.144C195.736,178.166,195.741,178.178,195.748,178.189z"/>
	<path fill="#464A5F" d="M198.407,177.612l0.622,1c0.026,0.044,0.077,0.065,0.126,0.053l2.102-0.467
		c0.063-0.015,0.103-0.078,0.088-0.142c-0.004-0.015-0.01-0.029-0.019-0.041l-0.699-0.972c-0.028-0.038-0.076-0.056-0.122-0.045
		l-2.033,0.435c-0.063,0.018-0.099,0.084-0.08,0.146C198.395,177.591,198.4,177.602,198.407,177.612z"/>
	<path fill="#464A5F" d="M201.033,177.043l0.614,0.988c0.029,0.047,0.085,0.07,0.138,0.057l2.081-0.463
		c0.069-0.019,0.11-0.09,0.091-0.16c-0.004-0.014-0.01-0.027-0.018-0.04l-0.691-0.959c-0.029-0.042-0.08-0.063-0.13-0.053
		l-2.033,0.431c-0.066,0.028-0.097,0.104-0.07,0.17C201.021,177.024,201.026,177.034,201.033,177.043z"/>
	<path fill="#464A5F" d="M200.818,178.571l0.622,1.004c0.028,0.041,0.077,0.062,0.126,0.053l2.098-0.467
		c0.064-0.014,0.104-0.076,0.091-0.14c-0.004-0.017-0.011-0.033-0.022-0.047l-0.691-0.968c-0.028-0.039-0.075-0.058-0.122-0.049
		l-2.033,0.435c-0.063,0.016-0.101,0.081-0.085,0.144C200.805,178.548,200.811,178.56,200.818,178.571z"/>
	<path fill="#464A5F" d="M198.098,179.148l0.622,1c0.028,0.043,0.079,0.065,0.13,0.057l2.098-0.468
		c0.064-0.014,0.104-0.076,0.091-0.14c-0.004-0.017-0.011-0.033-0.022-0.047l-0.695-0.968c-0.027-0.04-0.075-0.059-0.122-0.049
		l-2.033,0.435c-0.064,0.02-0.101,0.088-0.081,0.152C198.089,179.131,198.093,179.14,198.098,179.148z"/>
	<path fill="#464A5F" d="M199.866,180.38l0.622,1c0.027,0.044,0.08,0.066,0.13,0.053l2.098-0.467
		c0.064-0.014,0.104-0.076,0.091-0.14c-0.004-0.017-0.011-0.033-0.022-0.047l-0.695-0.968c-0.027-0.039-0.076-0.057-0.122-0.045
		l-2.033,0.431c-0.065,0.019-0.102,0.086-0.084,0.151C199.855,180.359,199.86,180.37,199.866,180.38z"/>
	<path fill="#464A5F" d="M202.367,181.453l0.622,1.004c0.026,0.043,0.077,0.064,0.126,0.053l2.098-0.467
		c0.066-0.015,0.106-0.081,0.091-0.147c-0.003-0.014-0.009-0.028-0.018-0.04l-0.695-0.968c-0.028-0.039-0.075-0.058-0.122-0.049
		l-2.033,0.435c-0.063,0.016-0.101,0.081-0.085,0.144C202.354,181.431,202.359,181.443,202.367,181.453z"/>
	<path fill="#464A5F" d="M202.801,183.197l1.004,1.256c0.029,0.036,0.077,0.052,0.122,0.041l2.114-0.549
		c0.065-0.018,0.103-0.085,0.085-0.15c-0.004-0.015-0.011-0.029-0.02-0.041l-1.041-1.268c-0.029-0.036-0.077-0.052-0.122-0.041
		l-2.081,0.561c-0.064,0.02-0.101,0.088-0.081,0.152C202.786,183.173,202.793,183.186,202.801,183.197z"/>
	<path fill="#464A5F" d="M205.566,182.502l1.033,1.297c0.029,0.036,0.077,0.052,0.122,0.041l2.76-0.764
		c0.064-0.02,0.101-0.088,0.081-0.152c-0.004-0.014-0.011-0.027-0.02-0.039l-1.041-1.268c-0.029-0.036-0.077-0.052-0.122-0.041
		l-2.748,0.74c-0.063,0.015-0.102,0.079-0.087,0.142C205.548,182.474,205.556,182.489,205.566,182.502z"/>
	<path fill="#464A5F" d="M200.098,183.864l1.004,1.256c0.029,0.036,0.077,0.052,0.122,0.041l2.114-0.549
		c0.065-0.018,0.103-0.085,0.085-0.15c-0.004-0.015-0.011-0.029-0.02-0.041l-1.041-1.268c-0.029-0.036-0.077-0.052-0.122-0.041
		l-2.081,0.561c-0.064,0.02-0.101,0.088-0.081,0.152C200.082,183.839,200.089,183.853,200.098,183.864z"/>
	<path fill="#464A5F" d="M197.24,184.596l1.004,1.26c0.029,0.036,0.077,0.052,0.122,0.041l2.114-0.549
		c0.065-0.018,0.103-0.085,0.085-0.15c-0.004-0.015-0.011-0.029-0.02-0.041l-1.037-1.268c-0.031-0.036-0.08-0.052-0.126-0.041
		l-2.081,0.561c-0.063,0.017-0.1,0.082-0.082,0.145C197.223,184.569,197.23,184.584,197.24,184.596z"/>
	<path fill="#464A5F" d="M203.655,176.429l0.61,0.988c0.029,0.046,0.085,0.069,0.138,0.057l2.081-0.463
		c0.068-0.015,0.111-0.082,0.096-0.15c-0.004-0.018-0.012-0.034-0.023-0.049l-0.683-0.955c-0.03-0.041-0.081-0.06-0.13-0.049
		l-2.008,0.431c-0.068,0.014-0.112,0.08-0.098,0.149C203.641,176.401,203.647,176.416,203.655,176.429z"/>
	<path fill="#464A5F" d="M203.472,177.965l0.61,0.988c0.029,0.046,0.085,0.069,0.138,0.057l2.081-0.463
		c0.068-0.015,0.111-0.082,0.096-0.15c-0.004-0.018-0.012-0.034-0.023-0.049l-0.683-0.951c-0.029-0.042-0.08-0.063-0.13-0.053
		l-2.008,0.431c-0.068,0.014-0.112,0.08-0.098,0.149C203.458,177.938,203.464,177.952,203.472,177.965z"/>
	<path fill="#464A5F" d="M206.204,175.851l0.61,0.988c0.029,0.046,0.085,0.069,0.138,0.057l2.081-0.463
		c0.068-0.015,0.111-0.082,0.096-0.15c-0.004-0.018-0.012-0.034-0.023-0.049l-0.683-0.955c-0.03-0.04-0.081-0.059-0.13-0.049
		l-2.008,0.423c-0.069,0.011-0.115,0.076-0.104,0.145C206.184,175.817,206.192,175.835,206.204,175.851z"/>
	<path fill="#464A5F" d="M213.66,174.225l0.862,0.919c0.026,0.024,0.062,0.035,0.098,0.028l1.858-0.431
		c0.055-0.011,0.091-0.064,0.08-0.119c-0.004-0.021-0.015-0.041-0.031-0.055l-0.972-0.919c-0.027-0.023-0.063-0.033-0.098-0.024
		l-1.748,0.431c-0.055,0.013-0.089,0.067-0.076,0.122C213.637,174.195,213.647,174.212,213.66,174.225z"/>
	<path fill="#464A5F" d="M216.042,173.677l0.866,0.915c0.024,0.028,0.062,0.041,0.098,0.033l1.858-0.431
		c0.055-0.011,0.091-0.064,0.08-0.119c-0.003-0.018-0.011-0.034-0.023-0.047l-0.972-0.919c-0.026-0.024-0.063-0.033-0.098-0.024
		l-1.748,0.431c-0.057,0.014-0.091,0.072-0.077,0.128C216.03,173.655,216.035,173.666,216.042,173.677z"/>
	<path fill="#464A5F" d="M213.709,175.713l0.866,0.919c0.026,0.026,0.062,0.036,0.098,0.028l1.858-0.431
		c0.055-0.011,0.091-0.064,0.08-0.119c-0.004-0.021-0.015-0.041-0.031-0.055l-0.976-0.919c-0.025-0.024-0.06-0.033-0.093-0.024
		l-1.748,0.431c-0.056,0.015-0.09,0.073-0.075,0.13C213.691,175.687,213.699,175.701,213.709,175.713z"/>
	<path fill="#464A5F" d="M211.265,176.282l0.813,0.874c0.031,0.033,0.078,0.047,0.122,0.037l1.801-0.407
		c0.068-0.016,0.11-0.083,0.094-0.151c-0.006-0.025-0.019-0.047-0.037-0.064l-0.931-0.878c-0.03-0.033-0.076-0.045-0.118-0.033
		l-1.691,0.407c-0.067,0.017-0.108,0.086-0.09,0.154C211.234,176.244,211.247,176.266,211.265,176.282z"/>
	<path fill="#464A5F" d="M213.123,179.047l0.813,0.878c0.031,0.033,0.078,0.047,0.122,0.037l1.801-0.407
		c0.069-0.018,0.111-0.09,0.092-0.159c-0.006-0.023-0.018-0.044-0.036-0.061l-0.931-0.878c-0.031-0.03-0.076-0.041-0.118-0.028
		l-1.691,0.407c-0.068,0.023-0.104,0.098-0.08,0.165C213.102,179.018,213.111,179.034,213.123,179.047z"/>
	<path fill="#464A5F" d="M210.574,179.624l0.813,0.878c0.032,0.032,0.078,0.046,0.122,0.037l1.797-0.407
		c0.068-0.014,0.112-0.08,0.098-0.149c-0.005-0.026-0.018-0.049-0.037-0.067l-0.931-0.878c-0.032-0.029-0.076-0.041-0.118-0.033
		l-1.695,0.407c-0.067,0.025-0.101,0.1-0.076,0.167C210.553,179.596,210.562,179.611,210.574,179.624z"/>
	<path fill="#464A5F" d="M207.985,180.266l0.813,0.878c0.032,0.031,0.078,0.045,0.122,0.037l1.801-0.407
		c0.067,0.019,0.137-0.02,0.157-0.087c0.019-0.067-0.02-0.137-0.087-0.157l-0.931-0.878c-0.031-0.031-0.076-0.044-0.118-0.033
		l-1.691,0.407c-0.069-0.007-0.131,0.044-0.138,0.113C207.907,180.193,207.936,180.244,207.985,180.266z"/>
	<path fill="#464A5F" d="M205.249,180.807l0.837,0.89c0.029,0.03,0.073,0.043,0.114,0.033l1.817-0.407
		c0.065-0.017,0.105-0.083,0.088-0.148c-0.005-0.021-0.016-0.04-0.031-0.055l-0.947-0.894c-0.03-0.026-0.071-0.036-0.11-0.028
		l-1.712,0.407c-0.064,0.012-0.106,0.074-0.094,0.138C205.217,180.767,205.23,180.79,205.249,180.807z"/>
	<path fill="#464A5F" d="M210.55,178.022l0.813,0.878c0.031,0.034,0.078,0.048,0.122,0.037l1.797-0.407
		c0.07-0.017,0.113-0.087,0.097-0.157c-0.006-0.024-0.018-0.046-0.036-0.063l-0.927-0.886c-0.032-0.029-0.076-0.04-0.118-0.028
		l-1.695,0.407c-0.068,0.015-0.11,0.083-0.095,0.151C210.514,177.981,210.529,178.005,210.55,178.022z"/>
	<path fill="#464A5F" d="M208.062,178.6l0.813,0.878c0.032,0.032,0.078,0.046,0.122,0.037l1.801-0.407
		c0.068-0.016,0.11-0.083,0.094-0.151c-0.006-0.025-0.019-0.047-0.037-0.064l-0.931-0.878c-0.032-0.029-0.076-0.041-0.118-0.033
		l-1.691,0.407c-0.068,0.023-0.104,0.098-0.08,0.165C208.04,178.571,208.05,178.586,208.062,178.6z"/>
	<path fill="#464A5F" d="M205.399,179.165l0.813,0.874c0.03,0.035,0.077,0.05,0.122,0.041l1.797-0.407
		c0.068-0.014,0.112-0.08,0.098-0.149c-0.005-0.026-0.018-0.049-0.037-0.067l-0.931-0.878c-0.03-0.032-0.076-0.045-0.118-0.033
		l-1.695,0.407c-0.066,0.021-0.103,0.092-0.082,0.158C205.372,179.132,205.384,179.15,205.399,179.165z"/>
	<path fill="#464A5F" d="M202.659,179.795l0.837,0.89c0.031,0.03,0.076,0.043,0.118,0.033l1.817-0.407
		c0.065-0.019,0.102-0.086,0.084-0.151c-0.006-0.02-0.016-0.038-0.031-0.052l-0.943-0.89c-0.029-0.028-0.07-0.041-0.11-0.033
		l-1.712,0.407c-0.066,0.015-0.107,0.08-0.092,0.146C202.633,179.759,202.644,179.779,202.659,179.795z"/>
	<path fill="#464A5F" d="M213.111,177.421l0.813,0.878c0.032,0.032,0.078,0.046,0.122,0.037l1.797-0.407
		c0.068-0.014,0.112-0.08,0.098-0.149c-0.005-0.026-0.018-0.049-0.037-0.067l-0.931-0.878c-0.032-0.029-0.076-0.041-0.118-0.033
		l-1.695,0.407c-0.067,0.025-0.101,0.1-0.076,0.167C213.09,177.393,213.099,177.408,213.111,177.421z"/>
	<path fill="#464A5F" d="M208.757,176.921l0.813,0.878c0.031,0.034,0.078,0.048,0.122,0.037l1.797-0.407
		c0.068-0.016,0.11-0.083,0.094-0.151c-0.006-0.025-0.019-0.047-0.037-0.064l-0.927-0.878c-0.032-0.029-0.076-0.041-0.118-0.033
		l-1.695,0.407c-0.066,0.021-0.103,0.092-0.082,0.158C208.73,176.888,208.742,176.906,208.757,176.921z"/>
	<path fill="#464A5F" d="M218.343,173.091l0.907,0.963c0.019,0.019,0.047,0.027,0.073,0.02l1.919-0.443
		c0.042-0.01,0.067-0.051,0.057-0.093c-0.003-0.014-0.011-0.027-0.021-0.037l-1.02-0.963c-0.023-0.012-0.05-0.012-0.073,0
		l-1.805,0.447c-0.038,0.015-0.057,0.057-0.042,0.095C218.339,173.084,218.341,173.088,218.343,173.091z"/>
	<path fill="#464A5F" d="M220.66,172.579l0.907,0.963c0.021,0.016,0.047,0.024,0.073,0.02l1.919-0.443
		c0.042-0.01,0.067-0.051,0.057-0.093c-0.003-0.014-0.011-0.027-0.021-0.037l-1.016-0.963c-0.018-0.018-0.044-0.026-0.069-0.02
		l-1.809,0.447c-0.042,0.01-0.067,0.051-0.058,0.093C220.646,172.558,220.652,172.569,220.66,172.579z"/>
	<path fill="#464A5F" d="M223.047,172.03l0.813,0.894c0.024,0.014,0.053,0.014,0.077,0l1.789-0.488
		c0.041-0.013,0.063-0.057,0.049-0.097c-0.004-0.012-0.011-0.024-0.021-0.033l-0.923-0.781c-0.021-0.009-0.044-0.009-0.065,0
		l-1.695,0.374c-0.039,0.01-0.063,0.05-0.052,0.089C223.023,172.006,223.033,172.02,223.047,172.03z"/>
	<path fill="#464A5F" d="M225.543,172.864l0.813,0.894c0.018,0.021,0.047,0.029,0.073,0.02l1.789-0.488
		c0.04-0.009,0.065-0.047,0.056-0.087c-0.004-0.017-0.014-0.033-0.028-0.043l-0.907-0.76c-0.02-0.01-0.045-0.01-0.065,0
		l-1.691,0.374C225.55,172.79,225.533,172.828,225.543,172.864z"/>
	<path fill="#464A5F" d="M225.242,174.486l0.785,0.85c0.027,0.026,0.065,0.036,0.102,0.028l1.724-0.472
		c0.055-0.012,0.089-0.067,0.077-0.122c-0.005-0.023-0.018-0.043-0.036-0.057l-0.874-0.736c-0.025-0.02-0.058-0.029-0.089-0.024
		l-1.626,0.362c-0.057,0.011-0.094,0.067-0.083,0.124C225.223,174.456,225.231,174.472,225.242,174.486z"/>
	<path fill="#464A5F" d="M223.205,176.547l0.785,0.85c0.025,0.03,0.065,0.041,0.102,0.028l1.74-0.472
		c0.054-0.014,0.086-0.07,0.072-0.124c-0.005-0.02-0.016-0.037-0.031-0.05l-0.89-0.72c-0.025-0.021-0.058-0.028-0.089-0.02
		l-1.626,0.362c-0.054,0.016-0.085,0.072-0.069,0.126C223.199,176.533,223.202,176.54,223.205,176.547z"/>
	<path fill="#464A5F" d="M220.758,177.189l0.785,0.85c0.027,0.026,0.065,0.036,0.102,0.028l1.724-0.472
		c0.055-0.012,0.089-0.067,0.077-0.122c-0.005-0.023-0.018-0.043-0.036-0.057l-0.874-0.736c-0.025-0.02-0.058-0.029-0.089-0.024
		l-1.626,0.362c-0.057,0.011-0.094,0.067-0.083,0.124C220.739,177.16,220.747,177.176,220.758,177.189z"/>
	<path fill="#464A5F" d="M225.51,175.945l0.785,0.85c0.025,0.029,0.065,0.04,0.102,0.028l1.728-0.472
		c0.054-0.016,0.084-0.073,0.068-0.127c-0.006-0.019-0.017-0.036-0.032-0.048l-0.874-0.74c-0.025-0.021-0.058-0.028-0.089-0.02
		l-1.626,0.358c-0.057,0.011-0.094,0.067-0.083,0.124C225.492,175.916,225.499,175.932,225.51,175.945z"/>
	<path fill="#464A5F" d="M225.112,177.778l1.183,1.061c0.026,0.024,0.064,0.032,0.098,0.02l1.711-0.484
		c0.054-0.014,0.087-0.07,0.072-0.124c-0.005-0.02-0.016-0.037-0.031-0.05l-1.277-1.118c-0.03-0.018-0.068-0.018-0.098,0
		l-1.626,0.541c-0.05,0.026-0.07,0.087-0.044,0.137C225.104,177.767,225.107,177.773,225.112,177.778z"/>
	<path fill="#464A5F" d="M220.953,174.026l0.813,0.894c0.018,0.021,0.046,0.03,0.073,0.024l1.789-0.488
		c0.041-0.011,0.065-0.054,0.054-0.095c-0.004-0.015-0.013-0.029-0.025-0.039l-0.923-0.776c-0.02-0.012-0.045-0.012-0.065,0
		l-1.691,0.37c-0.037,0.022-0.049,0.069-0.027,0.106C220.951,174.024,220.952,174.025,220.953,174.026z"/>
	<path fill="#464A5F" d="M218.656,174.587l0.785,0.85c0.026,0.027,0.065,0.038,0.102,0.028l1.728-0.472
		c0.054-0.016,0.084-0.073,0.068-0.127c-0.006-0.019-0.017-0.036-0.032-0.048l-0.874-0.74c-0.025-0.021-0.058-0.028-0.089-0.02
		l-1.626,0.358c-0.057,0.011-0.094,0.067-0.083,0.124C218.638,174.558,218.645,174.574,218.656,174.587z"/>
	<path fill="#464A5F" d="M218.185,176.23l0.785,0.846c0.025,0.03,0.065,0.041,0.102,0.028l1.724-0.468
		c0.056-0.017,0.087-0.076,0.07-0.132c-0.006-0.018-0.016-0.034-0.03-0.047l-0.878-0.74c-0.025-0.021-0.058-0.028-0.089-0.02
		l-1.626,0.362c-0.055,0.009-0.093,0.061-0.084,0.117C218.161,176.196,218.17,176.215,218.185,176.23z"/>
	<path fill="#464A5F" d="M215.749,176.819l0.785,0.846c0.025,0.03,0.065,0.041,0.102,0.028l1.724-0.468
		c0.056-0.017,0.087-0.076,0.07-0.132c-0.006-0.018-0.016-0.034-0.03-0.047l-0.878-0.74c-0.023-0.021-0.055-0.028-0.085-0.02
		l-1.626,0.362c-0.056,0.007-0.095,0.058-0.088,0.114C215.725,176.783,215.735,176.803,215.749,176.819z"/>
	<path fill="#464A5F" d="M216.184,175.14l0.785,0.846c0.025,0.03,0.065,0.041,0.102,0.028l1.724-0.468
		c0.056-0.017,0.087-0.076,0.07-0.132c-0.006-0.018-0.016-0.034-0.03-0.047l-0.874-0.736c-0.025-0.02-0.058-0.029-0.089-0.024
		l-1.626,0.362c-0.056,0.007-0.095,0.058-0.088,0.114C216.16,175.104,216.17,175.124,216.184,175.14z"/>
	<path fill="#464A5F" d="M218.221,177.738l0.785,0.85c0.025,0.03,0.065,0.041,0.102,0.028l1.724-0.467
		c0.055-0.012,0.089-0.067,0.077-0.122c-0.005-0.023-0.018-0.043-0.036-0.057l-0.874-0.74c-0.025-0.021-0.058-0.028-0.089-0.02
		l-1.626,0.362c-0.055,0.009-0.093,0.061-0.084,0.116C218.201,177.706,218.209,177.724,218.221,177.738z"/>
	<path fill="#464A5F" d="M215.831,178.388l0.744,0.813c0.033,0.033,0.081,0.047,0.126,0.037l1.663-0.455
		c0.067-0.017,0.108-0.086,0.091-0.153c-0.007-0.026-0.021-0.049-0.042-0.066l-0.813-0.699c-0.029-0.028-0.071-0.038-0.11-0.028
		l-1.577,0.35c-0.069,0.01-0.117,0.073-0.108,0.142C215.808,178.349,215.817,178.371,215.831,178.388z"/>
	<path fill="#464A5F" d="M223.327,173.424l0.813,0.894c0.02,0.021,0.049,0.031,0.077,0.024l1.789-0.488
		c0.041-0.011,0.065-0.054,0.054-0.095c-0.004-0.015-0.013-0.029-0.025-0.039l-0.923-0.776c-0.02-0.012-0.045-0.012-0.065,0
		l-1.691,0.374c-0.036,0.018-0.051,0.062-0.033,0.098C223.324,173.42,223.326,173.422,223.327,173.424z"/>
	<path fill="#464A5F" d="M222.986,175.034l0.785,0.85c0.025,0.03,0.065,0.041,0.102,0.028l1.724-0.467
		c0.056-0.017,0.087-0.076,0.07-0.132c-0.006-0.018-0.016-0.034-0.03-0.047l-0.878-0.74c-0.025-0.021-0.058-0.028-0.089-0.02
		l-1.626,0.362c-0.054,0.006-0.092,0.055-0.086,0.108C222.96,174.998,222.97,175.019,222.986,175.034z"/>
	<path fill="#464A5F" d="M220.656,175.677l0.785,0.85c0.026,0.028,0.065,0.039,0.102,0.028l1.724-0.472
		c0.054-0.014,0.086-0.07,0.072-0.124c-0.005-0.02-0.016-0.037-0.031-0.05l-0.878-0.74c-0.023-0.021-0.055-0.028-0.085-0.02
		l-1.626,0.358c-0.057,0.011-0.094,0.067-0.083,0.124C220.638,175.647,220.645,175.663,220.656,175.677z"/>
	<path fill="#464A5F" d="M211.225,174.75l0.866,0.902c0.025,0.027,0.062,0.038,0.098,0.028l1.858-0.427
		c0.055-0.013,0.089-0.067,0.076-0.122c-0.005-0.02-0.016-0.039-0.031-0.053l-0.972-0.919c-0.026-0.025-0.062-0.036-0.098-0.028
		l-1.748,0.435c-0.056,0.006-0.096,0.057-0.09,0.112C211.187,174.707,211.202,174.733,211.225,174.75z"/>
	<path fill="#464A5F" d="M208.757,175.36l0.813,0.874c0.03,0.035,0.078,0.049,0.122,0.037l1.801-0.407
		c0.068-0.016,0.11-0.083,0.094-0.151c-0.006-0.025-0.019-0.047-0.037-0.064l-0.931-0.878c-0.03-0.033-0.076-0.045-0.118-0.033
		l-1.691,0.407c-0.067,0.017-0.108,0.086-0.09,0.154C208.726,175.322,208.739,175.343,208.757,175.36z"/>
	<path fill="#464A5F" d="M206.086,177.417l0.614,0.988c0.029,0.046,0.085,0.069,0.138,0.057l2.077-0.463
		c0.07-0.017,0.113-0.087,0.096-0.157c-0.004-0.015-0.01-0.029-0.019-0.042l-0.683-0.955c-0.03-0.041-0.081-0.06-0.13-0.049
		l-2.033,0.431c-0.066,0.023-0.1,0.095-0.077,0.161C206.075,177.397,206.08,177.407,206.086,177.417z"/>
	<path fill="#464A5F" d="M192.463,177.783l2.053-0.476c0.046-0.009,0.093,0.008,0.122,0.045l0.362,0.476
		c0.04,0.052,0.03,0.126-0.022,0.165c-0.014,0.011-0.03,0.018-0.047,0.022l-2.126,0.484c-0.051,0.012-0.104-0.011-0.13-0.057
		l-0.289-0.492c-0.027-0.062,0-0.134,0.062-0.161C192.453,177.786,192.458,177.784,192.463,177.783z"/>
	<path fill="#464A5F" d="M195.289,177.169l2.033-0.476c0.046-0.009,0.093,0.008,0.122,0.045l0.362,0.476
		c0.04,0.052,0.03,0.126-0.022,0.165c-0.014,0.011-0.03,0.018-0.047,0.022l-2.126,0.496c-0.051,0.012-0.104-0.011-0.13-0.057
		l-0.289-0.496c-0.031-0.057-0.011-0.129,0.046-0.16C195.253,177.174,195.271,177.17,195.289,177.169z"/>
	<path fill="#464A5F" d="M198.017,176.583l2.033-0.476c0.046-0.011,0.094,0.007,0.122,0.045l0.362,0.472
		c0.04,0.054,0.029,0.131-0.025,0.171c-0.013,0.01-0.028,0.017-0.044,0.02l-2.126,0.496c-0.051,0.011-0.103-0.012-0.13-0.057
		l-0.289-0.496c-0.031-0.057-0.011-0.129,0.046-0.16C197.981,176.589,197.999,176.584,198.017,176.583z"/>
	<path fill="#464A5F" d="M200.671,175.978l2.033-0.476c0.046-0.011,0.094,0.007,0.122,0.045l0.362,0.476
		c0.038,0.055,0.024,0.131-0.031,0.17c-0.012,0.008-0.024,0.014-0.038,0.017l-2.085,0.496c-0.051,0.012-0.104-0.011-0.13-0.057
		l-0.289-0.496c-0.036-0.054-0.02-0.128,0.034-0.163C200.656,175.984,200.663,175.981,200.671,175.978z"/>
	<path fill="#464A5F" d="M203.379,175.38l2.033-0.472c0.048-0.01,0.098,0.007,0.13,0.045l0.35,0.463
		c0.042,0.055,0.031,0.135-0.024,0.177c-0.014,0.011-0.031,0.019-0.049,0.023l-2.11,0.492c-0.054,0.011-0.11-0.013-0.138-0.061
		l-0.281-0.48c-0.033-0.064-0.008-0.142,0.056-0.175C203.356,175.386,203.367,175.382,203.379,175.38z"/>
	<path fill="#464A5F" d="M206.005,174.839l2.033-0.472c0.049-0.011,0.1,0.008,0.13,0.049l0.35,0.459
		c0.042,0.055,0.031,0.135-0.024,0.177c-0.014,0.011-0.031,0.019-0.049,0.023l-2.11,0.492c-0.054,0.011-0.11-0.013-0.138-0.061
		l-0.276-0.48c-0.035-0.06-0.014-0.137,0.046-0.172C205.978,174.847,205.991,174.842,206.005,174.839z"/>
	<path fill="#464A5F" d="M208.57,174.299l1.882-0.459c0.044-0.01,0.09,0.004,0.122,0.037l0.366,0.386
		c0.048,0.047,0.05,0.124,0.003,0.172c-0.017,0.018-0.04,0.03-0.064,0.035l-1.862,0.468c-0.042,0.012-0.088-0.001-0.118-0.033
		l-0.407-0.407c-0.042-0.056-0.03-0.135,0.025-0.176C208.534,174.31,208.551,174.302,208.57,174.299z"/>
	<path fill="#464A5F" d="M211.066,173.721l1.939-0.472c0.035-0.007,0.072,0.004,0.098,0.028l0.407,0.407
		c0.04,0.04,0.04,0.104,0,0.144c-0.013,0.013-0.03,0.023-0.049,0.027l-1.915,0.48c-0.035,0.01-0.073-0.001-0.098-0.028l-0.427-0.435
		c-0.031-0.047-0.019-0.11,0.027-0.141C211.054,173.727,211.06,173.724,211.066,173.721z"/>
	<path fill="#464A5F" d="M213.554,173.136l1.939-0.472c0.035-0.008,0.072,0.003,0.098,0.028l0.407,0.407
		c0.038,0.044,0.034,0.111-0.01,0.149c-0.011,0.01-0.025,0.017-0.039,0.022l-1.907,0.5c-0.035,0.01-0.073-0.001-0.098-0.028
		l-0.427-0.435c-0.041-0.038-0.044-0.103-0.005-0.144C213.524,173.151,213.538,173.141,213.554,173.136z"/>
	<path fill="#464A5F" d="M216.042,172.628l1.939-0.472c0.035-0.01,0.073,0.001,0.098,0.028l0.407,0.407
		c0.038,0.044,0.034,0.111-0.01,0.149c-0.011,0.01-0.025,0.017-0.039,0.022l-1.915,0.484c-0.036,0.007-0.074-0.003-0.102-0.028
		l-0.427-0.411c-0.043-0.036-0.05-0.1-0.014-0.143C215.995,172.644,216.018,172.632,216.042,172.628z"/>
	<path fill="#464A5F" d="M218.4,172.063l2-0.488c0.023-0.013,0.051-0.013,0.073,0l0.443,0.472c0.029,0.032,0.026,0.081-0.006,0.109
		c-0.009,0.008-0.019,0.014-0.031,0.017l-1.959,0.516c-0.023,0.01-0.05,0.01-0.073,0l-0.472-0.48
		c-0.038-0.018-0.055-0.065-0.036-0.103C218.351,172.082,218.374,172.066,218.4,172.063z"/>
	<path fill="#464A5F" d="M220.782,171.55l2-0.484c0.023-0.013,0.051-0.013,0.073,0l0.447,0.468c0.03,0.027,0.032,0.074,0.005,0.103
		c-0.011,0.012-0.025,0.02-0.041,0.023l-1.976,0.496c-0.026,0.007-0.054,0-0.073-0.02l-0.472-0.476
		c-0.021-0.037-0.009-0.084,0.028-0.106C220.777,171.553,220.779,171.552,220.782,171.55z"/>
	<path fill="#464A5F" d="M223.161,171.006l1.846-0.407c0.028-0.009,0.059,0,0.077,0.024l0.358,0.439
		c0.026,0.034,0.02,0.082-0.014,0.108c-0.008,0.006-0.017,0.011-0.027,0.014l-1.736,0.459c-0.026,0.004-0.053-0.003-0.073-0.02
		l-0.472-0.48c-0.036-0.018-0.051-0.062-0.033-0.098C223.101,171.018,223.13,171.002,223.161,171.006z"/>
	<path fill="#464A5F" d="M225.425,170.485l1.85-0.407c0.028-0.006,0.058,0.003,0.077,0.024l0.358,0.439
		c0.026,0.034,0.02,0.082-0.014,0.108c-0.008,0.006-0.017,0.011-0.027,0.014l-1.736,0.459c-0.026,0.008-0.055,0-0.073-0.02
		l-0.472-0.476c-0.036-0.023-0.047-0.071-0.024-0.107C225.378,170.5,225.4,170.487,225.425,170.485z"/>
	<path fill="#464A5F" d="M193.903,180.23l0.683,0.972c0.028,0.041,0.078,0.061,0.126,0.049l3.557-0.813
		c0.063-0.015,0.102-0.079,0.087-0.142c-0.004-0.016-0.011-0.031-0.022-0.045l-0.752-0.992c-0.029-0.04-0.079-0.057-0.126-0.045
		l-3.48,0.854c-0.064,0.022-0.098,0.091-0.076,0.155C193.901,180.225,193.902,180.227,193.903,180.23z"/>
	<path fill="#464A5F" d="M194.98,181.535l0.683,1.085c0.026,0.043,0.077,0.064,0.126,0.053l4.297-1.024
		c0.064-0.014,0.104-0.077,0.09-0.14c-0.004-0.019-0.013-0.036-0.025-0.051l-0.85-1.053c-0.03-0.035-0.077-0.05-0.122-0.041
		l-4.126,0.98c-0.064,0.01-0.108,0.07-0.098,0.135C194.958,181.499,194.967,181.519,194.98,181.535z"/>
	<path fill="#464A5F" d="M195.951,182.97l0.813,1.175c0.029,0.04,0.079,0.057,0.126,0.045l5.691-1.407
		c0.064-0.014,0.104-0.076,0.091-0.14c-0.004-0.017-0.011-0.033-0.022-0.047l-0.919-1.179c-0.029-0.036-0.077-0.052-0.122-0.041
		l-5.626,1.407c-0.059,0.033-0.08,0.107-0.047,0.166C195.941,182.956,195.946,182.963,195.951,182.97z"/>
	<path fill="#464A5F" d="M208.981,181.685l1.041,1.252c0.032,0.037,0.083,0.053,0.13,0.041l12.521-3.122
		c0.068-0.016,0.11-0.083,0.094-0.151c-0.006-0.025-0.019-0.047-0.037-0.064l-1.277-1.268c-0.032-0.032-0.078-0.046-0.122-0.037
		l-12.285,3.142c-0.069,0.02-0.109,0.092-0.089,0.161C208.961,181.656,208.97,181.671,208.981,181.685z"/>
	<path fill="#464A5F" d="M221.908,178.445l1.22,1.22c0.027,0.025,0.066,0.035,0.102,0.024l2.565-0.687
		c0.054-0.015,0.086-0.07,0.072-0.125c-0.005-0.018-0.014-0.034-0.027-0.046l-1.272-1.244c-0.025-0.027-0.062-0.038-0.098-0.028
		l-2.52,0.699c-0.056,0.007-0.095,0.058-0.088,0.114C221.865,178.402,221.883,178.429,221.908,178.445z"/>
	<path fill="#464A5F" d="M228.108,177.685l0.557,0.589c0.023,0.013,0.051,0.013,0.073,0l1.903-0.508
		c0.041-0.012,0.065-0.054,0.053-0.095c-0.004-0.013-0.011-0.025-0.021-0.035l-0.679-0.634c-0.018-0.021-0.047-0.029-0.073-0.02
		l-1.781,0.557c-0.04-0.009-0.08,0.017-0.089,0.057C228.042,177.636,228.068,177.676,228.108,177.685L228.108,177.685z"/>
	<path fill="#464A5F" d="M229.726,176.404l0.667,0.699c0.023,0.016,0.054,0.016,0.077,0l1.744-0.602
		c0.041-0.013,0.063-0.057,0.049-0.097c-0.004-0.012-0.011-0.024-0.021-0.033l-0.65-0.585c-0.02-0.018-0.047-0.026-0.073-0.02
		l-1.76,0.496c-0.042,0.005-0.073,0.043-0.068,0.085C229.693,176.371,229.706,176.392,229.726,176.404z"/>
	<path fill="#464A5F" d="M231.011,177.612l-0.48-0.386c-0.033-0.026-0.039-0.075-0.013-0.108c0.01-0.012,0.022-0.021,0.037-0.026
		l1.736-0.602c0.025-0.015,0.056-0.015,0.081,0l0.541,0.528c0.03,0.027,0.033,0.073,0.006,0.103
		c-0.01,0.011-0.024,0.019-0.039,0.023l-1.805,0.468C231.055,177.621,231.031,177.621,231.011,177.612z"/>
	<path fill="#464A5F" d="M232.791,176.539c0.15,0.146,0.407,0.431,0.516,0.528c0.022,0.014,0.051,0.014,0.073,0l1.809-0.492
		c0.039-0.009,0.064-0.048,0.055-0.088c-0.003-0.015-0.011-0.028-0.023-0.039l-0.642-0.581c-0.023-0.012-0.05-0.012-0.073,0
		l-1.683,0.541c-0.041,0.012-0.065,0.054-0.053,0.095C232.774,176.517,232.781,176.529,232.791,176.539z"/>
	<path fill="#464A5F" d="M227.714,175.396l0.972,0.935c0.021,0.012,0.048,0.012,0.069,0l4.671-1.22
		c0.041-0.011,0.065-0.054,0.054-0.095c-0.004-0.015-0.013-0.029-0.025-0.039l-1.134-0.935c-0.022-0.012-0.048-0.012-0.069,0
		l-4.504,1.22c-0.042,0.01-0.067,0.051-0.058,0.093C227.692,175.371,227.701,175.385,227.714,175.396z"/>
	<path fill="#464A5F" d="M227.397,173.953l1,0.89c0.022,0.012,0.048,0.012,0.069,0l3.512-0.813c0.042-0.01,0.067-0.051,0.058-0.093
		c-0.004-0.016-0.013-0.031-0.025-0.041l-1.15-0.959c-0.022-0.012-0.048-0.012-0.069,0l-3.362,0.902
		c-0.039,0.017-0.056,0.063-0.039,0.102C227.392,173.945,227.394,173.949,227.397,173.953z"/>
	<path fill="#464A5F" d="M227.718,172.42l0.947,0.846c0.019,0.016,0.044,0.024,0.069,0.02l1.801-0.407
		c0.042-0.01,0.067-0.051,0.057-0.093c-0.003-0.014-0.011-0.027-0.021-0.037l-1.122-0.968c-0.022-0.014-0.051-0.014-0.073,0
		l-1.626,0.524c-0.038,0.014-0.058,0.056-0.044,0.094C227.709,172.408,227.713,172.414,227.718,172.42z"/>
	<path fill="#464A5F" d="M225.25,171.587l0.919,0.813c0.021,0.012,0.048,0.012,0.069,0l2.846-0.675
		c0.042-0.01,0.067-0.051,0.058-0.093c-0.004-0.016-0.013-0.031-0.025-0.041l-1.094-0.915c-0.021-0.012-0.048-0.012-0.069,0
		l-2.683,0.756c-0.043-0.006-0.082,0.024-0.087,0.067C225.177,171.542,225.207,171.581,225.25,171.587z"/>
	<path fill="#FBBEBE" d="M200.464,127.348c-1.752,2.084-3.398,4.255-4.931,6.504c-0.592,0.94-1.26,1.831-1.996,2.663
		c-1.053,1.11-2.37,1.943-3.447,3.033c-1.248,1.264-2.134,2.846-3.004,4.386c-0.601,1.03-1.144,2.093-1.626,3.183
		c-1.365,3.266-1.615,6.891-0.711,10.314c0.329,1.22,0.988,2.594,2.232,2.882c0.976,0.228,1.951-0.293,2.805-0.813
		c0.919-0.557,1.862-1.167,2.403-2.098c0.4-0.8,0.638-1.672,0.699-2.565l1.069-7.826c0.074-0.835,0.264-1.656,0.565-2.439
		c0.614-1.398,1.89-2.394,3.228-3.13c1.337-0.736,2.781-1.285,4.065-2.122c1.195-0.781,2.224-1.797,3.419-2.577
		c1.468-0.963,3.171-1.561,4.508-2.695c1.337-1.134,2.244-3.102,1.423-4.651c-0.382-0.608-0.881-1.135-1.468-1.549l-2.614-2.106
		c-0.557-0.447-1.707-1.801-2.411-1.89s-1.768,0.976-2.24,1.394C201.726,125.899,201.068,126.601,200.464,127.348z"/>
	<path fill="#FF0000" d="M191.541,115.453c0.554,0.082,1.099,0.219,1.626,0.407c0.533,0.215,1.02,0.541,1.557,0.744
		c0.696,0.209,1.403,0.377,2.118,0.504c0.722,0.134,1.364,0.542,1.793,1.138c-1.185,0.288-2.238,0.969-2.988,1.931
		c-0.54,0.754-0.961,1.586-1.248,2.468c-0.949,2.624-1.498,5.376-1.626,8.163c-0.024,0.488,0,1.049,0.366,1.37
		c-1.809-1.468-4.366-1.423-6.691-1.317c-0.218,0.025-0.439,0.007-0.65-0.053c-0.229-0.105-0.426-0.267-0.573-0.472
		c-0.643-0.786-1.064-1.729-1.22-2.732c-0.22-1.435,0.114-2.89,0.407-4.313c0.308-1.372,0.485-2.77,0.528-4.175
		c0.02-1.431-0.431-2.586-0.667-3.947c-0.289-1.646,1.549-0.837,2.533-0.646L191.541,115.453z"/>
</g>
</svg>
