<?xml version="1.0" encoding="utf-8"?>
<!-- Generator: Adobe Illustrator 17.0.0, SVG Export Plug-In . SVG Version: 6.00 Build 0)  -->
<!DOCTYPE svg PUBLIC "-//W3C//DTD SVG 1.1//EN" "http://www.w3.org/Graphics/SVG/1.1/DTD/svg11.dtd">
<svg version="1.1" id="Layer_1" xmlns="http://www.w3.org/2000/svg" xmlns:xlink="http://www.w3.org/1999/xlink" x="0px" y="0px"
	 width="450px" height="343.174px" viewBox="0 0 450 343.174" enable-background="new 0 0 450 343.174" xml:space="preserve">
<g>
	<path fill="#F2F2F2" d="M443.15,203.379c0,54.676-32.504,73.767-72.6,73.767s-72.6-19.091-72.6-73.767s72.6-124.234,72.6-124.234
		S443.15,148.702,443.15,203.379z"/>
	<polygon fill="#3F3D56" points="367.905,268.782 368.648,223.023 399.592,166.412 368.765,215.845 369.099,195.269 
		390.425,154.312 369.187,189.824 369.187,189.825 369.789,152.819 392.626,120.212 369.883,147 370.259,79.145 367.898,168.973 
		368.092,165.267 344.874,129.728 367.72,172.381 365.557,213.709 365.492,212.613 338.725,175.212 365.411,216.488 365.14,221.656 
		365.092,221.734 365.114,222.158 359.625,327.013 366.959,327.013 367.839,272.853 394.459,231.679 	"/>
	<path fill="#F2F2F2" d="M46.116,293.962c0,14.786-8.79,19.948-19.633,19.948S6.85,308.747,6.85,293.962
		c0-14.786,19.633-33.596,19.633-33.596S46.116,279.176,46.116,293.962z"/>
	<polygon fill="#3F3D56" points="25.768,311.648 25.969,299.274 34.337,283.965 26,297.332 26.091,291.769 31.858,280.693 
		26.115,290.296 26.115,290.296 26.277,280.289 32.453,271.471 26.303,278.716 26.405,260.366 25.766,284.657 25.818,283.655 
		19.54,274.045 25.718,285.579 25.133,296.755 25.116,296.459 17.877,286.345 25.093,297.507 25.02,298.904 25.007,298.925 
		25.013,299.04 23.529,327.395 25.512,327.395 25.75,312.749 32.949,301.615 	"/>
	
		<line fill="none" stroke="#3F3D56" stroke-width="0.8902" stroke-miterlimit="10" x1="9.617" y1="327.446" x2="404.871" y2="327.446"/>
	<path fill="#FF0000" d="M405.081,314.143c0,10.001-5.945,13.493-13.279,13.493c-0.17,0-0.34-0.002-0.509-0.006
		c-0.34-0.007-0.676-0.023-1.009-0.046c-6.619-0.468-11.761-4.14-11.761-13.441c0-9.625,12.3-21.771,13.224-22.67l0.002-0.002
		c0.036-0.035,0.053-0.052,0.053-0.052S405.081,304.142,405.081,314.143z"/>
	<path fill="#3F3D56" d="M391.318,326.106l4.857-6.786l-4.869,7.532l-0.013,0.779c-0.34-0.007-0.676-0.023-1.009-0.046l0.523-10.006
		l-0.004-0.078l0.009-0.015l0.049-0.945l-4.881-7.55l4.896,6.841l0.011,0.201l0.396-7.56l-4.179-7.802l4.23,6.475l0.412-15.673
		l0.002-0.053v0.052l-0.069,12.359l4.16-4.9l-4.177,5.964l-0.11,6.769l3.884-6.496l-3.901,7.492l-0.061,3.763l5.639-9.041
		l-5.66,10.354L391.318,326.106z"/>
	<path fill="#3F3D56" d="M260.946,85.939h2.55c0.563,0,1.02,0.457,1.02,1.02v35.803c0,0.563-0.457,1.02-1.02,1.02h-2.55
		c-0.563,0-1.02-0.457-1.02-1.02V86.959C259.926,86.396,260.382,85.939,260.946,85.939z"/>
	<path fill="#3F3D56" d="M108.005,56.293h1.238c0.37,0,0.669,0.3,0.669,0.669v11.12c0,0.37-0.3,0.669-0.669,0.669h-1.238
		c-0.37,0-0.669-0.3-0.669-0.669v-11.12C107.336,56.592,107.636,56.293,108.005,56.293z"/>
	<path fill="#3F3D56" d="M107.997,79.102h1.395c0.417,0,0.754,0.338,0.754,0.754v20.176c0,0.417-0.338,0.754-0.754,0.754h-1.395
		c-0.417,0-0.754-0.338-0.754-0.754V79.856C107.243,79.439,107.58,79.102,107.997,79.102z"/>
	<path fill="#3F3D56" d="M108.007,108.374h1.328c0.396,0,0.718,0.321,0.718,0.718v20.437c0,0.396-0.321,0.718-0.718,0.718h-1.328
		c-0.396,0-0.718-0.321-0.718-0.718v-20.437C107.289,108.695,107.611,108.374,108.007,108.374z"/>
	<path fill="#3F3D56" d="M124.683,15.122h121.833c8.774,0,15.888,7.113,15.888,15.888v280.41c0,8.774-7.113,15.888-15.888,15.888
		H124.683c-8.774,0-15.888-7.113-15.888-15.888V31.01C108.795,22.235,115.908,15.122,124.683,15.122z"/>
	<path fill="#E6E8EC" d="M171.913,24.445h19.188c0.625,0,1.131,0.507,1.131,1.131v2.093c0,0.625-0.507,1.131-1.131,1.131h-19.188
		c-0.625,0-1.131-0.507-1.131-1.131v-2.093C170.781,24.951,171.288,24.445,171.913,24.445z"/>
	<circle fill="#E6E8EC" cx="197.946" cy="26.623" r="2.471"/>
	<path fill="#FFFFFF" d="M252.917,35.454v271.523c-0.001,6.737-5.464,12.197-12.2,12.196H130.482
		c-6.737,0.001-12.199-5.459-12.2-12.196V35.454c-0.001-6.737,5.461-12.2,12.198-12.2c0.001,0,0.001,0,0.002,0h16.496v2.119
		c0.002,5.548,4.498,10.044,10.046,10.046h56.061c5.548,0,10.046-4.498,10.046-10.046v-2.119h17.586
		c6.737-0.001,12.2,5.461,12.2,12.198C252.917,35.453,252.917,35.454,252.917,35.454z"/>
	<rect x="118.126" y="86.199" fill="#F2F2F2" width="134.867" height="154.897"/>
	<path fill="#FF6584" d="M127.918,262.53l-0.71-0.641c-2.521-2.315-4.186-3.818-4.186-5.689c-0.026-1.47,1.145-2.683,2.616-2.709
		c0.026,0,0.051-0.001,0.077,0c0.851,0.005,1.656,0.383,2.203,1.034c0.547-0.652,1.353-1.03,2.203-1.034
		c1.471-0.017,2.676,1.162,2.693,2.632c0,0.026,0,0.051,0,0.077c0,1.872-1.665,3.374-4.186,5.689L127.918,262.53z"/>
	<path fill="#F2F2F2" d="M153.66,260.161l1.372,0.392c0.833-2.417,3.469-3.702,5.886-2.868c0.539,0.186,1.038,0.469,1.474,0.836
		l-2.096,2.032h5.233v-5.087l-2.109,2.022c-2.517-2.208-6.348-1.957-8.556,0.56C154.324,258.664,153.915,259.383,153.66,260.161
		L153.66,260.161z"/>
	<circle fill="#FF0000" cx="127.028" cy="68.395" r="6.231"/>
	<rect x="138.156" y="64.834" fill="#FF0000" width="57.864" height="7.122"/>
	<rect x="123.022" y="273.144" fill="#F2F2F2" width="57.864" height="7.122"/>
	<rect x="123.022" y="288.669" fill="#F2F2F2" width="122.404" height="7.122"/>
	<path fill="#F2F2F2" d="M147.948,262.079l-1.533-2.683c0.84-2.018-0.114-4.336-2.133-5.176s-4.336,0.114-5.176,2.133
		c-0.84,2.018,0.114,4.336,2.133,5.176c1.255,0.523,2.69,0.365,3.802-0.418L147.948,262.079z"/>
	<path fill="#2F2E41" d="M174.148,122.527L174.148,122.527c-9.633,1.971-15.845,11.379-13.873,21.012l3.674,17.956l4.114-0.842
		l0.29-1.903l0.861,1.667l25.012-5.119l0.29-1.903l0.861,1.667l3.455-0.707L195.16,136.4
		C193.189,126.767,183.781,120.556,174.148,122.527z"/>
	<polygon fill="#9F616A" points="205.144,177.615 226.509,190.523 223.838,196.755 203.808,187.408 	"/>
	<path fill="#FF0000" d="M177.992,192.304c0,0-43.175,0-50.297,11.128c-7.122,11.128-1.335,26.706,20.92,30.267
		s89.911,5.341,95.253-8.012c5.341-13.353,1.335-20.92,1.335-20.92S222.058,188.743,177.992,192.304z"/>
	<path fill="#FF0000" d="M216.271,202.986l23.591,8.902c0,0,9.792-7.122,4.896-15.134c-4.896-8.012-27.151-54.303-27.151-54.303
		s-6.231-8.902,1.78-13.798c8.012-4.896,11.128,3.116,11.128,3.116s-0.445,1.78,2.671,0.445c3.116-1.335,8.902,3.116,5.786,10.237
		c-3.116,7.122-5.341,8.902,1.335,8.457c2.411-0.161,4.532-1.889,6.258-4.031c3.308-4.106,1.831-7.413,1.581-12.68
		c-0.429-9.022-1.13-14.905-3.387-18.453c-3.116-4.896-7.567-8.902-19.14-6.677c-11.573,2.226-28.487,13.353-24.481,29.377
		s12.908,33.828,12.908,33.828S220.277,197.2,216.271,202.986z"/>
	<path opacity="0.1" enable-background="new    " d="M216.271,202.986c-3.846,1.059-8.675,1.576-13.874,1.736
		c-9.071,0.28-19.282-0.521-27.436-1.429c-8.809-0.984-15.218-2.088-15.218-2.088c2.978-2.777,7.553-3.877,12.93-4.277
		c6.677-0.499,14.591,0.071,22.233-0.174c2.817-0.099,5.637,0.113,8.408,0.632C211.745,198.994,216.271,202.986,216.271,202.986z"/>
	<circle fill="#9F616A" cx="177.77" cy="142.674" r="12.463"/>
	<path fill="#9F616A" d="M176.212,152.689c0,0,2.226,8.457,0,8.902c-2.226,0.445-7.567,2.671-7.567,2.671l6.677,2.671l12.463,11.573
		l10.683,5.341l5.341-1.78v-9.792l-8.012-12.463c0,0-5.341,1.78-6.677-4.006c-1.335-5.786-4.006-8.012-4.006-8.012L176.212,152.689z
		"/>
	<path fill="#9F616A" d="M173.096,164.707h-5.341c0,0-9.347,3.116-14.688,10.237c-5.341,7.122-13.798,14.243-13.798,14.243
		s-5.786,8.012-2.671,19.14s7.567,19.14,11.573,16.914c4.006-2.226-5.786-18.249-5.786-18.249l2.671-9.792
		c0,0,13.798-16.024,19.585-15.579s6.231,5.341,6.231,5.341l12.463,3.561l4.006-8.457l-2.226-8.902L173.096,164.707z"/>
	<path fill="#3F3D56" d="M205.144,192.749c-0.842,1.444-1.459,3.008-1.829,4.638c-0.556,2.407-0.863,4.865-0.917,7.335
		c-9.071,0.28-19.282-0.521-27.436-1.429c-0.721-1.923-1.513-4.135-2.288-6.365c-2.088-6.027-4.028-12.178-4.028-13.082
		c0-1.78,9.347,1.335,11.573,0.89c2.226-0.445,3.116-7.567,0-11.128c-3.116-3.561-12.24-9.57-12.24-9.57l3.116-0.89
		c0,0,6.899,5.119,21.142,13.576c14.243,8.457,8.457-4.896,8.457-4.896l-8.234-12.686h3.561c0,0,6.899,11.795,10.46,17.137
		C210.04,181.621,208.705,186.962,205.144,192.749z"/>
	
		<rect x="165.2" y="128.027" transform="matrix(-0.9797 0.2005 -0.2005 -0.9797 376.9369 232.0197)" fill="#2F2E41" width="23.041" height="14.139"/>
	<circle fill="#3F3D56" cx="235.188" cy="120.864" r="6.677"/>
	<circle fill="#FFFFFF" cx="235.188" cy="120.864" r="3.561"/>
	<path fill="#FF0000" d="M39.225,197.932l-0.455,3.512c-0.154,1.189-0.308,2.379-0.391,3.575c-0.276,3.979,0.238,7.974,0.103,11.96
		c-0.104,3.069-0.593,6.136-0.357,9.198c0.209,2.708,0.98,5.337,1.746,7.943l1.096,3.725c0.032,0.4,0.382,0.698,0.782,0.665
		c0.064-0.005,0.128-0.019,0.189-0.041l4.848-0.439c-0.31-1.423-0.656-2.907-0.823-4.355c-0.132-1.145-0.211-2.295-0.294-3.444
		c-0.258-3.582-0.55-7.162-0.842-10.742l-0.513-6.289c-0.223-2.728-0.448-5.472-1.135-8.121
		C42.495,202.399,41.133,199.937,39.225,197.932z"/>
	<path opacity="0.1" enable-background="new    " d="M39.225,197.932l-0.455,3.512c-0.154,1.189-0.308,2.379-0.391,3.575
		c-0.276,3.979,0.238,7.974,0.103,11.96c-0.104,3.069-0.593,6.136-0.357,9.198c0.209,2.708,0.98,5.337,1.746,7.943l1.096,3.725
		c0.032,0.4,0.382,0.698,0.782,0.665c0.064-0.005,0.128-0.019,0.189-0.041l4.848-0.439c-0.31-1.423-0.656-2.907-0.823-4.355
		c-0.132-1.145-0.211-2.295-0.294-3.444c-0.258-3.582-0.55-7.162-0.842-10.742l-0.513-6.289c-0.223-2.728-0.448-5.472-1.135-8.121
		C42.495,202.399,41.133,199.937,39.225,197.932z"/>
	<path fill="#3F3D56" d="M47.862,318.372c-0.285,0.559-0.534,1.137-0.744,1.729c-0.557,1.634-0.641,3.385-0.72,5.11
		c-0.038,0.333-0.007,0.67,0.091,0.99c0.238,0.62,0.924,0.934,1.565,1.106c2.685,0.722,5.516,0.042,8.286-0.205
		c2.718-0.243,5.487-0.067,8.15-0.667c0.393-0.074,0.774-0.206,1.129-0.392c0.675-0.439,1.178-1.096,1.426-1.862
		c0.081-0.196,0.135-0.402,0.162-0.612c0.088-0.907-0.703-1.696-1.564-1.994c-0.861-0.298-1.798-0.249-2.705-0.342
		c-3.835-0.394-6.928-3.312-7.546-7.117c-0.032-0.198-4.484-0.081-4.952,0.176c-0.548,0.301-0.88,1.052-1.189,1.559
		C48.751,316.671,48.288,317.511,47.862,318.372z"/>
	<path opacity="0.1" enable-background="new    " d="M47.862,318.372c-0.285,0.559-0.534,1.137-0.744,1.729
		c-0.557,1.634-0.641,3.385-0.72,5.11c-0.038,0.333-0.007,0.67,0.091,0.99c0.238,0.62,0.924,0.934,1.565,1.106
		c2.685,0.722,5.516,0.042,8.286-0.205c2.718-0.243,5.487-0.067,8.15-0.667c0.393-0.074,0.774-0.206,1.129-0.392
		c0.675-0.439,1.178-1.096,1.426-1.862c0.081-0.196,0.135-0.402,0.162-0.612c0.088-0.907-0.703-1.696-1.564-1.994
		c-0.861-0.298-1.798-0.249-2.705-0.342c-3.835-0.394-6.928-3.312-7.546-7.117c-0.032-0.198-4.484-0.081-4.952,0.176
		c-0.548,0.301-0.88,1.052-1.189,1.559C48.751,316.671,48.288,317.511,47.862,318.372z"/>
	<path fill="#3F3D56" d="M55.242,318.794c-0.285,0.559-0.534,1.137-0.744,1.729c-0.557,1.634-0.641,3.385-0.72,5.11
		c-0.038,0.333-0.007,0.67,0.091,0.99c0.238,0.62,0.924,0.934,1.565,1.106c2.685,0.722,5.516,0.042,8.286-0.205
		c2.718-0.243,5.487-0.067,8.15-0.667c0.393-0.074,0.774-0.206,1.129-0.392c0.675-0.439,1.178-1.096,1.426-1.862
		c0.081-0.196,0.135-0.402,0.162-0.612c0.088-0.907-0.703-1.696-1.564-1.994c-0.861-0.298-1.798-0.249-2.705-0.342
		c-3.835-0.394-6.928-3.312-7.546-7.117c-0.032-0.198-4.484-0.081-4.952,0.176c-0.548,0.301-0.88,1.052-1.189,1.559
		C56.132,317.092,55.669,317.933,55.242,318.794z"/>
	<path fill="#2F2E41" d="M74.493,274.856c0.057,8.939-2.542,17.675-5.591,26.078c-1.207,3.326-2.488,6.623-3.843,9.892
		c-0.802,1.937-1.706,4.086-0.846,5.998c-2.473-0.941-5.006-1.497-7.617-1.063c0.994-2.026,0.9-4.384,0.945-6.639
		c0.086-3.062,0.416-6.112,0.986-9.122c0.875-4.58,2.375-9.017,4.459-13.188c0.423-0.879,0.714-1.816,0.864-2.78
		c0.271-2.144,0.146-4.319-0.367-6.418c-0.953-4.65-2.761-9.081-5.334-13.07c-0.008,0.089-0.016,0.179-0.026,0.267
		c-0.156,1.329-0.379,2.65-0.671,3.956c-0.584,2.768-1.265,5.539-1.163,8.322c0.109,2.952-0.073,5.908-0.546,8.824
		c-0.15,1.146-0.448,2.267-0.887,3.336c-0.285,0.64-0.658,1.242-0.882,1.904c-0.223,0.766-0.339,1.559-0.346,2.357
		c-0.333,6.731-0.005,15.344,1.371,21.942c-2.319-0.107-4.623,0.418-6.667,1.519c-1.663-4.692-2.723-11.357-3.515-16.299
		c-0.897-5.838-0.715-11.79,0.538-17.562c0.39-1.926,0.536-3.893,0.435-5.855c-0.177-3.908-1.138-7.731-2.093-11.525
		c-0.485-1.925-0.971-3.852-1.456-5.778c-0.69-2.744-1.382-5.488-2.075-8.233c-0.459-1.825-0.923-3.69-0.779-5.568
		c0.101-1.03,0.318-2.045,0.645-3.026c1.033-3.34,2.578-6.5,4.579-9.367c7.969,0.448,16.035-0.299,23.993-0.91
		c0.387-0.077,0.789-0.008,1.128,0.192c0.27,0.276,0.431,0.64,0.453,1.025c0.997,5.647,1.994,11.294,2.99,16.941
		c0.485,2.358,0.77,4.753,0.851,7.159c0.015,2.398-0.374,4.787-0.284,7.184C73.863,268.574,74.473,271.626,74.493,274.856z"/>
	<path opacity="0.1" enable-background="new    " d="M58.123,264.81c-0.156,1.329-0.379,2.65-0.671,3.956
		c-1.734-2.998-3.602-5.921-5.197-8.994c-0.412-0.792-0.804-1.594-1.197-2.395c-0.392-0.8-0.784-1.601-1.176-2.401
		c-0.22-0.449-0.441-0.9-0.64-1.361c-0.324-0.664-0.573-1.362-0.741-2.081c0.581-0.107,2.011,1.458,2.44,1.866
		c0.881,0.869,1.714,1.787,2.493,2.749c0.943,1.067,1.808,2.2,2.59,3.39C57.022,261.162,57.732,262.945,58.123,264.81z"/>
	<path fill="#EFB7B9" d="M64.763,182.532c0,0-4.428,7.052-3.608,8.529c0.82,1.476-13.941-1.312-13.941-1.312
		s8.037-7.052,7.216-10.005C53.611,176.792,64.763,182.532,64.763,182.532z"/>
	<circle fill="#EFB7B9" cx="60.827" cy="174.66" r="10.005"/>
	<path fill="#FF0000" d="M64.912,189.927c-1.071-1.49-2.525-2.663-4.207-3.395c-0.969-0.347-1.97-0.594-2.989-0.738l-3.992-0.702
		c-0.978-0.172-2.025-0.337-2.933,0.067c-0.464,0.234-0.886,0.543-1.25,0.914c-1.387,1.285-2.732,2.698-4.471,3.439
		c-0.476,0.203-0.974,0.352-1.45,0.556c-1.946,0.838-3.401,2.588-4.228,4.539c-0.867,2.047-0.892,4.265-0.824,6.487
		c-0.002,0.767,0.073,1.532,0.225,2.283c0.201,0.715,0.454,1.415,0.757,2.093c0.551,1.449,1.013,2.931,1.382,4.437
		c1.034,3.958,1.894,7.957,2.579,11.996c0.06,0.581,0.23,1.144,0.503,1.66c0.385,0.514,0.851,0.961,1.38,1.326
		c0.419,0.347,0.806,0.73,1.156,1.146c0.171,0.177,0.297,0.394,0.365,0.63c0.129,0.597-0.398,1.109-0.827,1.544
		c-0.89,0.908-1.533,2.028-1.868,3.253c-0.209,0.251-0.315,0.573-0.297,0.899c0.086,0.226,0.118,0.469,0.093,0.71
		c-0.082,0.22-0.21,0.419-0.376,0.585c-0.386,0.503-0.537,1.147-0.415,1.769c3.101,1.347,6.42,2.124,9.797,2.293
		c0.827,0.039,1.657,0.039,2.479,0.14c0.586,0.072,1.165,0.195,1.751,0.264c0.853,0.08,1.711,0.102,2.567,0.066
		c4.453-0.088,9.037-0.204,13.126-1.969c0.385-2.097-0.445-4.234-0.965-6.302c-0.828-3.289-1.036-6.699-1.652-10.034
		c-0.422-2.282-1.034-4.529-1.385-6.823c-0.351-2.294-0.433-4.673,0.197-6.907c0.559-1.979,0.728-3.995,1.307-5.968
		c0.579-1.973,0.985-4.113,0.331-6.063C69.968,191.707,67.458,189.794,64.912,189.927z"/>
	<path fill="#2F2E41" d="M69.825,169.356c0.487-1.777-0.47-3.626-1.615-5.069c-1.23-1.551-2.819-2.95-4.759-3.339
		c-1.577-0.316-3.211,0.066-4.814-0.062c-1.421-0.113-2.783-0.622-4.197-0.805c-1.279-0.137-2.571-0.088-3.836,0.145
		c-1.202,0.175-2.377,0.504-3.497,0.977c-4.259,1.887-6.754,6.548-7.333,11.17s0.436,9.279,1.446,13.826l0.912,4.111
		c0.95,4.279,1.902,8.579,2.156,12.955c0.254,4.375-0.22,8.867-2.02,12.863c5.819-3.126,10.328-8.23,12.711-14.391
		c0.647-1.692,1.126-3.447,1.843-5.111c0.617-1.431,1.406-2.787,1.953-4.247c0.617-1.649,0.913-3.4,0.872-5.16
		c-0.031-1.323-0.252-2.639-0.214-3.961s0.375-2.703,1.289-3.659c0.813-0.85,1.967-1.259,3.014-1.794
		c1.647-0.846,3.085-2.046,4.212-3.515c0.659-0.859,0.694-1.226,0.862-2.217C68.975,171.108,69.569,170.292,69.825,169.356z"/>
	<path fill="#EFB7B9" d="M69.839,244.516c0.101,1.029-0.085,2.083,0.139,3.092c0.169,0.758,0.562,1.447,0.793,2.189
		c0.229,0.859,0.347,1.745,0.351,2.634c0.033,0.746-0.024,1.653-0.684,2.003c-0.29,0.154-0.637,0.156-0.939,0.285
		c-0.302,0.129-0.56,0.494-0.388,0.773c0.145,0.234,0.475,0.237,0.745,0.293c0.27,0.055,0.567,0.335,0.411,0.562
		c-0.063,0.074-0.147,0.128-0.241,0.153c-0.276,0.083-0.538,0.209-0.775,0.373c-0.24,0.171-0.363,0.462-0.319,0.753
		c0.059,0.25,0.31,0.405,0.56,0.346c0.037-0.009,0.072-0.022,0.106-0.039c-0.121,0.259-0.187,0.539-0.194,0.825
		c1.056,0.454,2.244-0.14,3.238-0.717c0.431-0.239,0.847-0.504,1.246-0.793c1.624-1.254,2.523-3.231,2.401-5.28
		c-0.046-0.508-0.124-1.012-0.233-1.51c-0.154-0.866-0.357-1.723-0.609-2.566c-0.284-0.889-0.674-1.74-1.009-2.611
		c-0.713-1.857-1.173-3.8-1.815-5.683c-0.037-0.361-0.359-0.623-0.72-0.586c-0.016,0.002-0.033,0.004-0.049,0.007
		c-0.724-0.038-1.449,0.029-2.154,0.198c-0.426,0.124-1.125,0.398-1.316,0.844c-0.172,0.402,0.116,0.762,0.299,1.106
		C69.281,242.198,69.674,243.335,69.839,244.516z"/>
	<path opacity="0.1" enable-background="new    " d="M69.162,194.254c0.214,0.217,0.392,0.466,0.53,0.737
		c1.421,2.583,1.44,5.676,1.506,8.624c0.075,3.318,0.257,6.633,0.438,9.948l0.543,9.912c0.052,0.947,0.104,1.895,0.237,2.834
		c0.639,0.161,0.665,0.987,0.591,1.641c-0.457,4.045-1.595,8.209-0.404,12.101c0.046,0.201,0.141,0.386,0.279,0.539
		c-0.601-0.19-1.244-0.198-1.849-0.025c-0.594,0.125-1.165,0.342-1.757,0.477c-0.753,0.171-1.607,0.245-2.121,0.822
		c-0.581-1.749-1.043-3.535-1.384-5.346c-0.282-1.646-0.359-3.357-1.03-4.887c-0.271-0.618-0.633-1.19-0.963-1.778
		c-1.737-3.094-2.587-6.593-3.418-10.042c-0.373-1.635-0.463-3.323-0.264-4.989c0.118-0.76,0.187-1.527,0.208-2.296
		c-0.053-0.811-0.159-1.618-0.318-2.415c-0.351-2.338-0.187-4.725,0.482-6.993c0.622-2.106,1.168-4.322,2.47-6.091
		C64.239,195.259,66.966,194.284,69.162,194.254z"/>
	<path fill="#FF0000" d="M69.654,193.926c0.213,0.217,0.392,0.466,0.53,0.737c1.421,2.583,1.44,5.676,1.506,8.624
		c0.075,3.318,0.257,6.633,0.438,9.948l0.543,9.912c0.052,0.947,0.104,1.895,0.237,2.834c0.639,0.161,0.665,0.987,0.591,1.641
		c-0.457,4.045-1.595,8.209-0.404,12.101c0.046,0.201,0.141,0.386,0.279,0.539c-0.601-0.19-1.244-0.198-1.849-0.025
		c-0.594,0.125-1.165,0.342-1.757,0.477c-0.753,0.171-1.607,0.245-2.121,0.822c-0.581-1.749-1.043-3.535-1.384-5.346
		c-0.282-1.646-0.359-3.357-1.03-4.887c-0.271-0.618-0.633-1.19-0.963-1.778c-1.737-3.094-2.587-6.593-3.418-10.042
		c-0.373-1.635-0.463-3.323-0.264-4.989c0.118-0.76,0.187-1.527,0.208-2.296c-0.053-0.811-0.159-1.618-0.318-2.415
		c-0.351-2.338-0.187-4.725,0.482-6.993c0.622-2.106,1.168-4.322,2.47-6.092C64.731,194.931,67.458,193.956,69.654,193.926z"/>
	<g opacity="0.1">
		<path d="M68.21,164.287c-1.23-1.551-2.819-2.95-4.759-3.339c-1.577-0.316-3.211,0.066-4.814-0.062
			c-1.421-0.113-2.783-0.622-4.197-0.805c-1.279-0.137-2.571-0.088-3.836,0.145c-1.202,0.175-2.377,0.504-3.497,0.977
			c-0.605,0.269-1.182,0.597-1.724,0.978c0.998-0.378,2.033-0.648,3.088-0.806c1.265-0.234,2.557-0.283,3.836-0.145
			c1.414,0.183,2.776,0.692,4.197,0.805c1.603,0.127,3.237-0.255,4.814,0.062c1.94,0.389,3.53,1.789,4.759,3.339
			c1.145,1.443,2.101,3.292,1.615,5.069c-0.256,0.935-0.85,1.752-1.013,2.716c-0.168,0.991-0.203,1.358-0.862,2.217
			c-0.849,1.105-1.875,2.061-3.038,2.829c0.321-0.153,0.644-0.302,0.957-0.462c1.647-0.846,3.085-2.046,4.212-3.515
			c0.659-0.859,0.694-1.226,0.862-2.217c0.163-0.964,0.757-1.781,1.013-2.716C70.311,167.58,69.355,165.73,68.21,164.287z"/>
		<path d="M60.723,179.598c0.172-0.178,0.359-0.34,0.559-0.486c-0.956,0.463-1.962,0.87-2.692,1.634
			c-0.914,0.956-1.251,2.336-1.289,3.659c-0.039,1.322,0.183,2.639,0.214,3.961c0.04,1.76-0.256,3.511-0.872,5.16
			c-0.547,1.46-1.336,2.815-1.953,4.247c-0.717,1.664-1.196,3.419-1.843,5.111c-2.067,5.34-5.738,9.909-10.508,13.077
			c-0.024,0.055-0.046,0.111-0.071,0.166c5.819-3.126,10.328-8.23,12.711-14.391c0.647-1.692,1.126-3.447,1.843-5.111
			c0.617-1.431,1.406-2.787,1.953-4.247c0.617-1.649,0.913-3.4,0.872-5.16c-0.031-1.323-0.252-2.639-0.214-3.961
			C59.472,181.934,59.809,180.554,60.723,179.598z"/>
	</g>
	<path fill="#2F2E41" d="M280.441,326.645c-0.476,0.575-1.292,0.69-2.029,0.766c-0.953,0.138-1.92,0.157-2.878,0.055
		c-1.138-0.169-1.82,0.478-2.859-0.02c-0.629-0.301-1.597,0.301-2.226,0c-0.862-0.413-3.838-0.498-4.363-1.303
		c-0.525-0.805-0.471-2.077,0.358-2.552c0.235-0.112,0.478-0.207,0.727-0.284c1.389-0.553,4.203-4.723,5.681-4.937
		c0.733-0.034,1.462,0.138,2.102,0.495c1.457,0.647,4.03,1.158,4.666,2.8C280.116,322.944,281.471,325.395,280.441,326.645z"/>
	<path fill="#2F2E41" d="M290.91,326.315c0.476,0.575,1.292,0.691,2.029,0.766c0.953,0.138,1.92,0.157,2.878,0.055
		c1.138-0.169,2.524,0.808,3.564,0.31c0.629-0.301,1.597-0.144,2.226-0.445c0.862-0.413,4.914,0.507,5.439-0.298
		c0.525-0.805,0.471-2.077-0.358-2.552c-0.235-0.112-0.478-0.207-0.727-0.284c-1.389-0.553-5.984-5.613-7.461-5.827
		c-0.733-0.034-1.462,0.137-2.102,0.495c-1.457,0.647-4.03,1.158-4.666,2.8C291.235,322.614,289.879,325.065,290.91,326.315z"/>
	<path fill="#2F2E41" d="M295.512,235.427c0.455,0.875,0.853,1.779,1.191,2.706c4.041,10.689,4.379,22.37,4.546,33.797
		c-0.014,1.858,0.092,3.715,0.318,5.559c0.169,1.169,0.437,2.351,0.264,3.52c-0.149,1.011-0.625,2.008-0.435,3.011
		c0.085,0.45,0.301,0.868,0.386,1.318c0.066,0.494,0.052,0.995-0.04,1.484l-0.542,4.031c-0.309,2.296-1.021,4.508-0.982,6.824
		c0.026,1.58,0.053,3.163,0.229,4.733c0.179,1.595,0.511,3.177,0.528,4.781c0.013,1.202-0.152,2.397-0.258,3.594
		c-0.15,1.69-0.184,3.389-0.102,5.084c0.063,1.306,0.213,2.662,0.906,3.771c-0.776,1.113-1.544,2.11-2.786,2.654
		c-2.525,1.107-5.421,0.731-8.149,0.335c0.151-0.504,0.385-1.074,0.167-1.552c-0.128-0.232-0.286-0.446-0.468-0.637
		c-0.595-0.847-1.009-1.808-1.214-2.823c-0.33-1.203-0.661-2.499,0.017-3.654c0.234-0.411,0.337-0.884,0.296-1.355
		c-0.565-7.578-2.251-15.418-0.698-22.854c0.166-0.794,0.363-1.583,0.456-2.389c0.083-1.159,0.097-2.322,0.042-3.482l-0.032-1.615
		c-0.081-1.724-0.011-3.49-0.357-5.195c-0.248-1.221-0.71-2.448-0.14-3.692c0.252-0.578,0.221-1.241-0.084-1.793
		c-1.198-2.099-2.162-4.324-2.874-6.635c-0.148-0.646-0.35-1.278-0.605-1.889c-0.348-0.644-0.747-1.259-1.195-1.838
		c-1.352-1.96-2.16-4.235-2.954-6.48c0.084-0.206,0.02-0.493-0.201-0.463c-0.218,0.056-0.405,0.195-0.521,0.389
		c-1.087,1.461-1.179,3.411-1.227,5.232c-0.083,1.692-0.054,3.387,0.087,5.075c0.093,0.884,0.247,1.762,0.327,2.647
		c0.104,1.653,0.078,3.311-0.078,4.959l-0.555,8.112c-0.075,0.671-0.035,1.349,0.12,2.006c0.356,1.137,0.53,2.323,0.514,3.514
		c-0.146,4.9,0.278,9.8,1.262,14.602c0.271,1.326,0.585,2.643,0.815,3.977c0.542,3.143,0.616,6.345,0.689,9.533
		c0.045,1.96,0.077,3.991-0.695,5.794c-0.302,0.556-0.523,1.151-0.658,1.769c-0.003,0.319-0.045,0.636-0.126,0.944
		c-0.227,0.583-0.907,0.832-1.518,0.965c-1.149,0.25-2.328,0.334-3.501,0.249c-0.275-0.005-0.547-0.065-0.798-0.177
		c-0.437-0.227-0.67-0.707-1.002-1.07c-0.718-0.784-1.911-1.024-2.564-1.862c-0.817-1.048-0.474-2.566,0.012-3.802
		c0.487-1.237,1.089-2.579,0.67-3.841c-0.494-1.486-2.244-2.287-2.714-3.781c1.341-6.026-1.952-12.258-1.67-18.424
		c0.066-1.436,0.315-2.862,0.32-4.3c0.013-3.704-1.591-7.308-1.328-11.002c0.671-9.388-2.527-18.761-3.882-28.075
		c-0.257-1.39-0.353-2.806-0.286-4.218c0.201-2.331,1.283-4.501,2.585-6.446c0.933-1.393,2.054-2.757,3.599-3.409
		c1.272-0.537,2.698-0.534,4.078-0.524c3.445,0.027,6.89,0.053,10.334,0.115c2.344-0.033,4.685,0.177,6.986,0.625
		C291.877,234.287,293.62,235.156,295.512,235.427z"/>
	<path fill="#A1616A" d="M239.854,192.627c-0.334-1.633,0.297-3.38-0.196-4.972c-0.178-0.574-0.615-1.171-1.216-1.154
		c-0.584,0.016-0.979,0.588-1.496,0.858c-0.834,0.436-1.847,0.04-2.681-0.397c-0.834-0.437-1.763-0.932-2.667-0.67
		c-0.106,0.566,0.276,1.106,0.692,1.505c0.461,0.348,0.842,0.79,1.119,1.297c0.136,0.548,0.187,1.114,0.153,1.677
		c0.095,1.294,0.914,2.407,1.733,3.414c1.319,1.621,2.719,3.174,4.196,4.653c-0.003-0.003,2.24-2.778,2.197-3.263
		c-0.041-0.457-0.795-0.885-1.069-1.254C240.242,193.819,239.982,193.241,239.854,192.627z"/>
	<path fill="#A1616A" d="M306.647,226.811c0.2,0.519,0.35,1.056,0.447,1.603c0.579,2.804,0.943,5.648,1.303,8.489
		c0.096,0.758,0.192,1.518,0.221,2.281c0.102,1.813-0.271,3.622-1.082,5.247c-0.825,1.629-2.227,2.892-3.932,3.544
		c-0.525,0.187-1.26,0.221-1.489-0.288c-0.082-0.235-0.08-0.491,0.005-0.725c0.207-0.757,0.629-1.435,0.903-2.171
		c0.406-1.098,0.474-2.293,0.195-3.43c-0.108-0.435-0.335-0.92-0.775-1.007c0.219,1.003,0.035,2.051-0.514,2.919
		c-0.125,0.242-0.34,0.424-0.599,0.508c-0.374,0.037-0.724-0.189-0.844-0.545c-0.107-0.35-0.131-0.72-0.068-1.08
		c0.141-1.822,0.418-3.631,0.83-5.412c0.49-1.955,1.266-3.883,1.217-5.898c-0.045-1.826-0.772-3.618-0.569-5.433
		c0.003-0.112,0.039-0.221,0.104-0.312c0.064-0.064,0.142-0.112,0.227-0.14c0.51-0.211,1.034-0.384,1.569-0.519
		c0.316-0.08,1.395-0.454,1.698-0.287c0.245,0.136,0.321,0.949,0.443,1.224C306.152,225.866,306.441,226.318,306.647,226.811z"/>
	<circle fill="#A1616A" cx="270.623" cy="165.277" r="7.454"/>
	<path fill="#A1616A" d="M277.302,170.672c-0.001,0.475,0.037,0.949,0.113,1.418c0.103,0.474,0.248,0.938,0.435,1.387
		c0.249,0.729,0.601,1.418,1.044,2.048c0.451,0.634,1.125,1.073,1.886,1.229c-5.095,2.388-10.534,3.96-16.118,4.658
		c0.88-0.585,1.612-1.367,2.138-2.283c0.279-0.588,0.47-1.214,0.566-1.858c0.476-2.695,0.234-5.467-0.7-8.039
		c-0.093-0.254-0.183-0.565-0.008-0.77c0.075-0.076,0.165-0.135,0.265-0.172c2.214-0.937,4.605-1.383,7.008-1.307
		c0.614,0.004,1.228,0.031,1.84,0.076c0.329,0.024,1.057-0.046,1.319,0.196c0.313,0.288,0.156,1.182,0.166,1.572L277.302,170.672z"
		/>
	<path fill="#D0CDE1" d="M281.246,176.095c-2.256-2.892-6.193-3.873-9.542-2.378c-3.548,1.694-5.295,5.761-8.416,8.153
		c-0.71,0.531-1.466,0.997-2.26,1.392c-0.468,0.259-0.968,0.457-1.487,0.588c-0.583,0.129-1.192,0.111-1.773,0.25
		c-1.106,0.325-2.049,1.057-2.638,2.048c-0.292,0.518-0.616,1.018-0.97,1.496c-0.326,0.387-0.731,0.7-1.076,1.07
		c-1.241,1.333-1.578,3.248-1.861,5.047c-0.971,1.022-2.03,1.957-3.166,2.792c-0.357,0.275-0.753,0.494-1.176,0.651
		c-1.092,0.354-2.296-0.096-3.226-0.768c-0.931-0.672-1.688-1.558-2.606-2.248c-0.843,1.205-1.724,2.414-2.622,3.578
		c-0.136,0.222-0.342,0.391-0.586,0.481c-0.169,0.567,0.236,1.155,0.539,1.664l1.625,2.732c0.537,0.994,1.196,1.918,1.962,2.749
		c0.777,0.836,1.837,1.352,2.975,1.447c0.718-0.007,1.429-0.143,2.098-0.402c3.097-1.042,5.941-2.704,8.888-4.117
		c0.534-0.305,1.132-0.48,1.746-0.512c0.631-0.017,1.195,0.389,1.379,0.993c0.338,1.706,0.674,3.406,1.138,5.083
		c0.438,1.581,0.845,3.17,1.221,4.767c0.251,0.977,0.43,1.972,0.537,2.975c0.049,0.57,0.054,1.142,0.059,1.714l0.063,6.91
		c0.007,0.744-0.417,1.208-0.744,1.877c-0.5,1.037-0.576,2.229-0.21,3.321c0.183,0.539,0.47,1.037,0.673,1.569
		c0.491,1.286,0.472,2.702,0.447,4.078l-0.059,3.154c-0.015,0.131,0.009,0.263,0.068,0.38c0.193,0.301,0.656,0.125,0.95-0.079
		l1.475-1.022c1.973,0.272,3.966,0.368,5.956,0.288c5.659-0.082,11.32,0.143,16.966,0.538c1.884,0.132,3.831,0.275,5.612-0.354
		c0.904-0.319,1.736-0.829,2.66-1.084c0.381-0.059,0.743-0.208,1.055-0.435c0.517-0.478,0.379-1.317,0.169-1.989
		c-0.184-0.588-0.394-1.167-0.628-1.737c-0.241-0.524-0.438-1.068-0.588-1.625c-0.283-1.258-0.008-2.711-0.791-3.736
		c-1.753-2.293-0.512-5.82-1.248-8.611c-0.238-0.903-0.59-1.774-0.813-2.68c-0.14-0.569-0.229-1.15-0.317-1.729
		c-0.231-1.254-0.345-2.526-0.342-3.8c0.021-0.638,0.102-1.272,0.182-1.905l0.557-4.396c0.696,1.3,1.18,2.703,1.433,4.156
		c0.507,2.17,1.131,4.311,1.869,6.413c0.42,1.268,0.84,2.536,1.293,3.792c0.287,0.715,0.508,1.455,0.661,2.21
		c0.1,0.609,0.103,1.23,0.174,1.844c0.153,1.315,0.613,2.576,1.343,3.681c0.135,0.256,0.359,0.454,0.629,0.558
		c0.183,0.034,0.37,0.026,0.549-0.022c1.968-0.389,3.873-1.047,5.66-1.958c0.381-0.157,0.711-0.415,0.956-0.746
		c0.481-0.782-0.057-1.759-0.291-2.647c-0.251-0.952-0.192-2.097-0.942-2.735c-2.61-2.221-1.315-6.732-2.621-9.901
		c-0.229-0.556-0.497-1.097-0.694-1.666c-0.151-0.434-0.261-0.882-0.371-1.328c-0.912-3.691-1.888-7.365-2.928-11.023
		c-1.079-3.792-0.963-7.743-2.321-11.444c-0.255-0.776-0.589-1.524-0.995-2.232c-0.46-0.74-1.073-1.373-1.8-1.854
		c-1.971-1.303-3.96-2.413-6.274-2.885S283.608,176.084,281.246,176.095z"/>
	<path fill="#2F2E41" d="M263.849,167.101c-1.002-0.54-0.738-2.005-0.908-3.13c-0.35-2.315-2.967-3.689-3.581-5.949
		c0.706,0.087,1.422-0.015,2.076-0.294c0.126-0.75-0.022-1.521-0.418-2.171c2.152-0.874,3.893-2.59,6.078-3.377
		c2.748-0.991,5.808-0.383,8.579,0.538c1.383,0.46,2.822,1.056,3.658,2.25c0.918,1.311,0.904,3.037,0.855,4.637
		c-0.077,2.509-0.176,5.109-1.294,7.357c-1.422,2.862-5.45,5.514-8.777,4.738c-1.384-0.323-1.791-1.191-2.374-2.394
		c-0.363-0.748-0.499-1.617-1.317-2.007C265.627,166.919,264.66,167.538,263.849,167.101z"/>
	<g opacity="0.1">
		<path d="M294.076,220.548c0.009,0.198,0.015,0.397,0.017,0.598C294.083,220.948,294.078,220.749,294.076,220.548z"/>
		<path d="M261.79,228.036c0.491,1.286,0.472,2.702,0.447,4.078c-0.007,0.359-0.013,0.718-0.02,1.078
			c-0.031-0.742-0.175-1.475-0.427-2.174c-0.203-0.532-0.49-1.03-0.673-1.569c-0.315-0.942-0.303-1.963,0.033-2.897
			C261.333,227.058,261.597,227.532,261.79,228.036z"/>
	</g>
	<g opacity="0.1">
		<path d="M261.435,156.644l-0.007,0.003c-0.068-0.385-0.207-0.755-0.411-1.089c0.126-0.051,0.251-0.106,0.375-0.163
			C261.489,155.804,261.504,156.229,261.435,156.644z"/>
	</g>
	<path fill="#FF6584" d="M26.531,141.448l-1.757-1.585c-6.239-5.728-10.358-9.446-10.358-14.078
		c-0.064-3.638,2.834-6.639,6.472-6.703c0.064-0.001,0.127-0.001,0.191-0.001c2.105,0.011,4.099,0.947,5.452,2.56
		c1.353-1.612,3.347-2.549,5.452-2.56c3.639-0.042,6.622,2.874,6.664,6.513c0.001,0.064,0.001,0.127-0.001,0.191
		c0,4.631-4.119,8.349-10.358,14.078L26.531,141.448z"/>
	<path fill="none" stroke="#3F3D56" stroke-width="0.8902" stroke-miterlimit="10" d="M29.647,137.442l-1.757-1.585
		c-6.239-5.728-10.358-9.446-10.358-14.078c-0.064-3.638,2.834-6.639,6.472-6.703c0.064-0.001,0.127-0.001,0.191-0.001
		c2.105,0.011,4.099,0.947,5.452,2.56c1.353-1.612,3.347-2.549,5.452-2.56c3.639-0.042,6.622,2.874,6.664,6.513
		c0.001,0.064,0.001,0.127-0.001,0.191c0,4.631-4.119,8.349-10.358,14.078L29.647,137.442z"/>
</g>
</svg>
