<?xml version="1.0" encoding="utf-8"?>
<!-- Generator: Adobe Illustrator 17.0.0, SVG Export Plug-In . SVG Version: 6.00 Build 0)  -->
<!DOCTYPE svg PUBLIC "-//W3C//DTD SVG 1.1//EN" "http://www.w3.org/Graphics/SVG/1.1/DTD/svg11.dtd">
<svg version="1.1" id="Layer_1" xmlns="http://www.w3.org/2000/svg" xmlns:xlink="http://www.w3.org/1999/xlink" x="0px" y="0px"
	 width="776.04px" height="859.54px" viewBox="-163.02 -258.183 776.04 859.54"
	 enable-background="new -163.02 -258.183 776.04 859.54" xml:space="preserve">
<g>
	<path fill="#F2F2F2" d="M252.316-50.892c118.027,94.047,137.467,265.966,43.42,383.992S-84.743,527.394-88.258,376.52
		c-3.537-151.839-81.67-294.132-43.42-383.992C-72.571-146.331,134.288-144.939,252.316-50.892z"/>
	<ellipse fill="#3F3D56" cx="542.46" cy="416.772" rx="61.689" ry="10.282"/>
	<rect x="-67.334" y="-16.41" opacity="0.1" enable-background="new    " width="678.161" height="4.349"/>
	<rect x="-26.011" y="44.919" opacity="0.3" fill="#FF0000" enable-background="new    " width="140.928" height="150.497"/>
	<rect x="-16.443" y="34.48" fill="#FF0000" width="140.928" height="150.497"/>
	<rect x="453.805" y="42.506" opacity="0.3" fill="#FF0000" enable-background="new    " width="108.344" height="115.7"/>
	<rect x="461.163" y="34.48" fill="#FF0000" width="108.344" height="115.7"/>
	<rect x="453.805" y="203.247" opacity="0.3" fill="#FF0000" enable-background="new    " width="108.344" height="115.7"/>
	<rect x="461.163" y="195.221" fill="#FF0000" width="108.344" height="115.7"/>
	<rect x="174.072" y="34.48" fill="#FF0000" width="231.889" height="10.439"/>
	<rect x="174.072" y="64.929" fill="#FF0000" width="231.889" height="10.439"/>
	<rect x="174.072" y="95.376" fill="#FF0000" width="231.889" height="10.439"/>
	<rect x="174.072" y="125.823" fill="#FF0000" width="231.889" height="10.439"/>
	<rect x="174.072" y="156.27" fill="#FF0000" width="231.889" height="10.439"/>
	<rect x="174.072" y="186.718" fill="#FF0000" width="231.889" height="10.439"/>
	<rect x="174.072" y="217.165" fill="#FF0000" width="231.889" height="10.439"/>
	<rect x="174.072" y="247.612" fill="#FF0000" width="231.889" height="10.439"/>
	<rect x="174.072" y="278.061" fill="#FF0000" width="231.889" height="10.439"/>
	<rect x="174.072" y="308.508" fill="#FF0000" width="231.889" height="10.439"/>
	<g>
		<path fill="#F2F2F2" d="M-70.916,345.755c0,33.856-20.126,45.678-44.954,45.678s-44.956-11.821-44.956-45.678
			s44.954-76.926,44.954-76.926S-70.916,311.899-70.916,345.755z"/>
		<polygon fill="#3F3D56" points="-117.51,386.253 -117.048,357.92 -97.887,322.866 -116.976,353.475 -116.77,340.734 
			-103.564,315.373 -116.714,337.362 -116.714,337.364 -116.343,314.448 -102.201,294.259 -116.284,310.845 -116.051,268.829 
			-117.513,324.451 -117.393,322.157 -131.77,300.151 -117.624,326.561 -118.962,352.153 -119.003,351.474 -135.578,328.315 
			-119.053,353.874 -119.221,357.073 -119.25,357.121 -119.236,357.385 -122.636,422.31 -118.095,422.31 -117.55,388.775 
			-101.066,363.279 		"/>
		<ellipse fill="#3F3D56" cx="-30.031" cy="423.774" rx="125.269" ry="20.878"/>
		<circle fill="#A0616A" cx="-50.919" cy="97.881" r="18.703"/>
		<path fill="#A0616A" d="M-63.023,106.682c0,0,0,19.803-3.301,22.004c-3.301,2.2,26.404,4.401,26.404,4.401v-25.304
			L-63.023,106.682z"/>
		<path fill="#A0616A" d="M-99.329,216.702c0,0,20.903,24.204,25.304,24.204c4.401,0,8.801-16.503,8.801-16.503l-20.903-15.402
			L-99.329,216.702z"/>
		<path fill="#A0616A" d="M5.19,107.783L8.49,84.679c0,0,2.2-31.905,8.801-24.204c6.601,7.701,2.2,25.304,2.2,25.304
			s3.301,25.304,0,28.605C16.192,117.684,5.19,107.783,5.19,107.783z"/>
		<path fill="#2F2E41" d="M-13.513,232.105l-59.411-5.501c0,0-7.701,36.306-5.501,50.61c2.2,14.302,3.301,55.011,3.301,55.011
			s2.2,73.714,5.501,78.115c3.301,4.401,14.302,3.301,17.603,5.501c3.301,2.2,8.801-4.401,8.801-5.501c0-1.1-6.601-1.1-3.301-7.701
			c3.301-6.601-8.801-25.304-5.501-34.106c3.301-8.801,8.801-20.903,5.501-25.304c-3.301-4.401,2.2-60.512,2.2-60.512
			s27.504,39.608,27.504,57.211s-2.2,58.311-3.301,62.712s-2.2,5.501,0,8.801c2.2,3.301,4.401,6.601,3.301,7.701
			s19.803,0,19.803-6.601s-1.1-6.601,1.1-12.102s3.301-71.513,3.301-71.513L-13.513,232.105z"/>
		<path fill="#575A89" d="M-66.324,120.985l-3.301,6.601c0,0-35.206,11.002-36.306,34.106l29.705,49.51c0,0,2.2,3.301,1.1,5.501
			c-1.1,2.2-2.2,1.1-1.1,4.401c1.1,3.301,1.1,2.2,1.1,4.401c0,2.2-3.301,1.1,0,2.2c3.301,1.1-1.1,0,11.002,3.301
			c12.102,3.301,48.41,2.2,48.41,2.2l-6.601-63.812l6.601-13.202l-8.801-26.404c0,0-5.501-1.1-8.801,1.1
			c-3.301,2.2-7.701-2.2-7.701-2.2S-46.519,120.985-66.324,120.985z"/>
		<path fill="#575A89" d="M-30.016,130.886l5.501-1.1c0,0,22.004-6.601,23.104-12.102s6.601-12.102,6.601-12.102
			s17.603-4.401,16.503,9.902c-1.1,14.302-5.501,18.703-7.701,20.903c-2.2,2.2-26.404,19.803-30.805,19.803
			S-30.016,130.886-30.016,130.886z"/>
		<path fill="#575A89" d="M-103.73,157.291l-2.2,4.401l-1.1,39.608c0,0-6.601,4.401-3.301,6.601s11.002,12.102,13.202,12.102
			c2.2,0,14.302-5.501,14.302-7.701c0-2.2-2.2-22.004-2.2-22.004L-103.73,157.291z"/>
		<path fill="#2F2E41" d="M-63.023,410.339c0,0,0,11.002-1.1,13.202c-1.1,2.2-3.301,13.202,3.301,13.202
			c3.782,0.054,7.531-0.696,11.002-2.2c0,0,0-6.601,3.301-7.701c3.301-1.1,11.002-9.902,7.701-12.102
			c-3.301-2.2-9.902-4.401-9.902-4.401L-63.023,410.339z"/>
		<path fill="#2F2E41" d="M-15.714,415.84c0,0-6.601,15.402,0,16.503c6.601,1.1,15.403,0,16.503-2.2
			c1.1-2.2,3.301-4.401,5.501-3.301c2.2,1.1,20.903-12.102,14.302-14.302c-3.926-1.316-8.176-1.316-12.102,0l-6.601-3.301
			L-15.714,415.84z"/>
		<path fill="#2F2E41" d="M-48.557,118.494c0.312-0.02,0.617-0.103,0.895-0.247c0.449-0.36,0.746-0.875,0.834-1.444l2.247-7.96
			c0.853-3.02,2.223-6.549,5.294-7.188c0.644-0.042,1.274-0.21,1.855-0.493c0.681-0.641,1.048-1.549,1.006-2.483l0.964-10.289
			c0.26-2.782,0.508-5.674-0.463-8.294c-1.431-3.865-5.355-6.409-9.412-7.14c-4.056-0.731-8.235,0.087-12.181,1.27
			c-5.988,1.794-12.191,4.882-14.791,10.568c-1.506,3.291-1.599,7.044-1.397,10.658c0.207,3.721,0.725,7.515,2.435,10.825
			c0.951,1.711,2.055,3.334,3.299,4.847c1.857,2.403,4.135,7.103,7.208,8C-57.301,120.134-52.068,118.952-48.557,118.494z"/>
	</g>
	<path fill="#2F2E41" d="M493.172,352.065c0,33.083,20.754,59.853,46.403,59.853"/>
	<path fill="#FF0000" d="M539.575,411.917c0-33.454,23.161-60.525,51.782-60.525"/>
	<path fill="#FF0000" d="M509.985,355.064c0,31.425,13.235,56.853,29.59,56.853"/>
	<path fill="#2F2E41" d="M539.575,411.917c0-42.746,26.77-77.337,59.853-77.337"/>
	<path fill="#A8A8A8" d="M529.814,412.338c0,0,6.581-0.203,8.563-1.615c1.983-1.412,10.123-3.099,10.614-0.834
		c0.493,2.265,9.889,11.264,2.461,11.325c-7.43,0.059-17.263-1.157-19.242-2.363C530.229,417.647,529.814,412.338,529.814,412.338z"
		/>
	<path opacity="0.2" enable-background="new    " d="M551.585,420.427c-7.43,0.059-17.263-1.157-19.242-2.363
		c-1.508-0.917-2.108-4.212-2.309-5.733c-0.138,0.006-0.22,0.009-0.22,0.009s0.417,5.307,2.396,6.513
		c1.979,1.205,11.812,2.424,19.242,2.363c2.145-0.017,2.885-0.781,2.845-1.911C553.997,419.988,553.18,420.414,551.585,420.427z"/>
	<g>
		<path fill="none" stroke="#3F3D56" stroke-width="1.5122" stroke-miterlimit="10" d="M-55.74-46.562h654.484
			c5.972,0,10.81,4.84,10.81,10.81V357.2c0,5.97-4.838,10.808-10.81,10.808H-55.74c-5.97,0-10.81-4.84-10.81-10.808V-35.75
			C-66.549-41.722-61.708-46.562-55.74-46.562z"/>
		
			<line fill="none" stroke="#3F3D56" stroke-width="1.5122" stroke-miterlimit="10" x1="-68.53" y1="-17.597" x2="607.574" y2="-17.597"/>
		<circle fill="#F86B75" cx="-49.109" cy="-29.121" r="7.926"/>
		<circle fill="#FAD375" cx="-24.536" cy="-29.121" r="7.926"/>
		<circle fill="#8BCC55" cx="0.037" cy="-29.121" r="7.926"/>
		<circle fill="none" stroke="#3F3D56" stroke-width="1.5122" stroke-miterlimit="10" cx="-46.732" cy="-32.293" r="7.926"/>
		<circle fill="none" stroke="#3F3D56" stroke-width="1.5122" stroke-miterlimit="10" cx="-22.157" cy="-32.293" r="7.926"/>
		<circle fill="none" stroke="#3F3D56" stroke-width="1.5122" stroke-miterlimit="10" cx="2.415" cy="-32.293" r="7.926"/>
	</g>
	<g>
		<path fill="#FFFFFF" d="M495.524,115.181c0-15.338,0-30.336,0-45.7c13.217,7.62,26.262,15.14,39.621,22.842
			C521.9,99.965,508.861,107.487,495.524,115.181z"/>
	</g>
	<g>
		<path fill="#FFFFFF" d="M495.524,275.922c0-15.338,0-30.336,0-45.7c13.217,7.62,26.262,15.14,39.621,22.842
			C521.9,260.706,508.861,268.228,495.524,275.922z"/>
	</g>
	<g>
		<path fill="#FFFFFF" d="M34.211,132.579c0-15.338,0-30.336,0-45.7c13.217,7.62,26.262,15.14,39.621,22.842
			C60.588,117.363,47.548,124.885,34.211,132.579z"/>
	</g>
</g>
</svg>
