<?xml version="1.0" encoding="utf-8"?>
<!-- Generator: Adobe Illustrator 17.0.0, SVG Export Plug-In . SVG Version: 6.00 Build 0)  -->
<!DOCTYPE svg PUBLIC "-//W3C//DTD SVG 1.1//EN" "http://www.w3.org/Graphics/SVG/1.1/DTD/svg11.dtd">
<svg version="1.1" id="Layer_1" xmlns="http://www.w3.org/2000/svg" xmlns:xlink="http://www.w3.org/1999/xlink" x="0px" y="0px"
	 width="776.04px" height="859.544px" viewBox="-163.02 -258.185 776.04 859.544"
	 enable-background="new -163.02 -258.185 776.04 859.544" xml:space="preserve">
<g>
	<polygon fill="#D0D2D5" points="282.932,416.413 101.476,414.086 102.005,409.433 110.781,332.664 270.135,332.664 
		281.861,409.433 282.754,415.249 	"/>
	<polygon opacity="0.1" enable-background="new    " points="282.754,415.249 192.204,415.249 101.476,414.086 102.005,409.433 
		281.861,409.433 	"/>
	<rect x="71.232" y="410.597" fill="#D0D2D5" width="240.777" height="5.816"/>
	<path fill="#444053" d="M541.733-128.439c0.042-8.36-6.704-15.173-15.064-15.215l0,0H-145.75
		c-8.36,0.037-15.111,6.842-15.074,15.205c0,0.002,0,0.007,0,0.01v407.577h702.559v-407.577H541.733z"/>
	<path fill="#D0D2D5" d="M-160.826,275.09v47.737c0,8.326,6.748,15.074,15.074,15.074l0,0h672.419
		c8.321-0.005,15.066-6.753,15.066-15.074V275.09L-160.826,275.09L-160.826,275.09z"/>
	<rect x="-131.747" y="-118.063" opacity="0.1" fill="#FF0000" enable-background="new    " width="647.889" height="366.401"/>
	<path fill="#FF0000" d="M193.942,319.785c4.819,0.003,9.374-2.206,12.359-5.991l0,0c0.448-0.571,0.853-1.17,1.219-1.795
		l-8.618-1.414l9.305,0.074c1.815-3.932,1.921-8.437,0.297-12.45l-12.497,6.513l11.53-8.467c-4.367-7.49-13.978-10.022-21.468-5.655
		c-7.49,4.367-10.022,13.978-5.655,21.468c0.356,0.611,0.754,1.199,1.189,1.756l0,0C184.585,317.595,189.133,319.79,193.942,319.785
		z"/>
	<polygon opacity="0.1" enable-background="new    " points="209.652,337.903 282.037,410.597 270.936,337.903 	"/>
	<path fill="#FFFFFF" d="M-110.298-51.959H310.12c1.335,0,2.418,1.083,2.418,2.418v250.129c0,1.335-1.083,2.418-2.418,2.418
		h-420.418c-1.335,0-2.418-1.083-2.418-2.418V-49.538C-112.717-50.873-111.633-51.959-110.298-51.959z"/>
	<rect x="-131.329" y="-118.026" fill="#FFFFFF" width="647.657" height="21.402"/>
	<path fill="#FF0000" d="M-127.81-114.304h17.158c0.401,0,0.727,0.324,0.727,0.727v11.575c0,0.401-0.324,0.727-0.727,0.727h-17.158
		c-0.401,0-0.727-0.324-0.727-0.727v-11.575C-128.537-113.978-128.211-114.304-127.81-114.304z"/>
	<path opacity="0.3" fill="#FF0000" enable-background="new    " d="M93.472-114.304h194.334c0.299,0,0.539,0.242,0.539,0.539
		v11.948c0,0.299-0.242,0.539-0.539,0.539H93.472c-0.299,0-0.539-0.242-0.539-0.539v-11.948
		C92.933-114.062,93.175-114.304,93.472-114.304z"/>
	<path fill="#444053" d="M282.548-106.451h-0.475l-0.178-0.148c0.598-0.71,0.927-1.605,0.93-2.532
		c-0.015-2.127-1.753-3.84-3.88-3.825c-2.127,0.015-3.84,1.753-3.825,3.88c0.015,2.119,1.741,3.83,3.862,3.825
		c0.927-0.005,1.822-0.334,2.532-0.93l0.178,0.148v0.485l2.977,2.977l0.93-0.93L282.548-106.451z M278.975-106.451
		c-1.486,0.005-2.693-1.194-2.698-2.68s1.194-2.693,2.681-2.698c1.486-0.005,2.693,1.194,2.698,2.68c0,0.007,0,0.012,0,0.02
		c0.01,1.469-1.172,2.671-2.643,2.68C279-106.451,278.988-106.451,278.975-106.451z"/>
	<circle fill="#FF0000" cx="507.025" cy="-107.791" r="6.513"/>
	<path fill="#FFFFFF" d="M345.51-73.36h55.963c1.249,0,2.26,1.011,2.26,2.26v36.421c0,1.249-1.011,2.26-2.26,2.26H345.51
		c-1.249,0-2.26-1.011-2.26-2.26V-71.1C343.25-72.347,344.261-73.36,345.51-73.36z"/>
	<path fill="#FFFFFF" d="M420.12-73.36h77.031c0.314,0,0.569,0.255,0.569,0.569v5.378c0,0.314-0.255,0.569-0.569,0.569H420.12
		c-0.314,0-0.569-0.255-0.569-0.569v-5.378C419.554-73.106,419.806-73.36,420.12-73.36z"/>
	<path fill="#FFFFFF" d="M420.12-59.402h77.031c0.314,0,0.569,0.255,0.569,0.569v5.378c0,0.314-0.255,0.569-0.569,0.569H420.12
		c-0.314,0-0.569-0.255-0.569-0.569v-5.378C419.554-59.147,419.806-59.402,420.12-59.402z"/>
	<path fill="#FFFFFF" d="M420.12-45.443h77.031c0.314,0,0.569,0.255,0.569,0.569v5.378c0,0.314-0.255,0.569-0.569,0.569H420.12
		c-0.314,0-0.569-0.255-0.569-0.569v-5.378C419.554-45.191,419.806-45.443,420.12-45.443z"/>
	<path fill="#FFFFFF" d="M345.51-9.153h55.963c1.249,0,2.26,1.011,2.26,2.26v36.421c0,1.249-1.011,2.26-2.26,2.26H345.51
		c-1.249,0-2.26-1.011-2.26-2.26V-6.893C343.25-8.141,344.261-9.153,345.51-9.153z"/>
	<path fill="#FFFFFF" d="M420.12-9.153h77.031c0.314,0,0.569,0.255,0.569,0.569v5.378c0,0.314-0.255,0.569-0.569,0.569H420.12
		c-0.314,0-0.569-0.255-0.569-0.569v-5.378C419.554-8.898,419.806-9.153,420.12-9.153z"/>
	<path fill="#FFFFFF" d="M420.12,4.806h77.031c0.314,0,0.569,0.255,0.569,0.569v5.378c0,0.314-0.255,0.569-0.569,0.569H420.12
		c-0.314,0-0.569-0.255-0.569-0.569V5.375C419.554,5.061,419.806,4.806,420.12,4.806z"/>
	<path fill="#FFFFFF" d="M420.167,18.765h76.937c0.339,0,0.613,0.274,0.613,0.613v5.284c0,0.339-0.274,0.613-0.613,0.613h-76.937
		c-0.339,0-0.613-0.274-0.613-0.613v-5.284C419.554,19.039,419.828,18.765,420.167,18.765z"/>
	<path fill="#FFFFFF" d="M345.51,55.055h55.963c1.249,0,2.26,1.011,2.26,2.26v36.421c0,1.249-1.011,2.26-2.26,2.26H345.51
		c-1.249,0-2.26-1.011-2.26-2.26V57.315C343.25,56.066,344.261,55.055,345.51,55.055z"/>
	<path fill="#FFFFFF" d="M420.167,55.055h76.937c0.339,0,0.613,0.274,0.613,0.613v5.284c0,0.339-0.274,0.613-0.613,0.613h-76.937
		c-0.339,0-0.613-0.274-0.613-0.613v-5.284C419.554,55.329,419.828,55.055,420.167,55.055z"/>
	<path fill="#FFFFFF" d="M420.167,69.013h76.937c0.339,0,0.613,0.274,0.613,0.613v5.284c0,0.339-0.274,0.613-0.613,0.613h-76.937
		c-0.339,0-0.613-0.274-0.613-0.613v-5.284C419.554,69.288,419.828,69.013,420.167,69.013z"/>
	<path fill="#FFFFFF" d="M420.167,82.972h76.937c0.339,0,0.613,0.274,0.613,0.613v5.284c0,0.339-0.274,0.613-0.613,0.613h-76.937
		c-0.339,0-0.613-0.274-0.613-0.613v-5.284C419.554,83.247,419.828,82.972,420.167,82.972z"/>
	<path fill="#FFFFFF" d="M345.51,119.262h55.963c1.249,0,2.26,1.011,2.26,2.26v36.421c0,1.249-1.011,2.26-2.26,2.26H345.51
		c-1.249,0-2.26-1.011-2.26-2.26v-36.421C343.25,120.274,344.261,119.262,345.51,119.262z"/>
	<path fill="#FFFFFF" d="M420.167,119.262h76.937c0.339,0,0.613,0.274,0.613,0.613v5.284c0,0.339-0.274,0.613-0.613,0.613h-76.937
		c-0.339,0-0.613-0.274-0.613-0.613v-5.284C419.554,119.537,419.828,119.262,420.167,119.262z"/>
	<path fill="#FFFFFF" d="M420.167,133.221h76.937c0.339,0,0.613,0.274,0.613,0.613v5.284c0,0.339-0.274,0.613-0.613,0.613h-76.937
		c-0.339,0-0.613-0.274-0.613-0.613v-5.284C419.554,133.495,419.828,133.221,420.167,133.221z"/>
	<path fill="#FFFFFF" d="M420.167,147.177h76.937c0.339,0,0.613,0.274,0.613,0.613v5.284c0,0.339-0.274,0.613-0.613,0.613h-76.937
		c-0.339,0-0.613-0.274-0.613-0.613v-5.284C419.554,147.454,419.828,147.177,420.167,147.177z"/>
	<path fill="#FFFFFF" d="M345.51,183.47h55.963c1.249,0,2.26,1.011,2.26,2.26v36.421c0,1.249-1.011,2.26-2.26,2.26H345.51
		c-1.249,0-2.26-1.011-2.26-2.26V185.73C343.25,184.481,344.261,183.47,345.51,183.47z"/>
	<path fill="#FFFFFF" d="M420.167,183.47h76.937c0.339,0,0.613,0.274,0.613,0.613v5.284c0,0.339-0.274,0.613-0.613,0.613h-76.937
		c-0.339,0-0.613-0.274-0.613-0.613v-5.284C419.554,183.744,419.828,183.47,420.167,183.47z"/>
	<path fill="#FFFFFF" d="M420.167,197.429h76.937c0.339,0,0.613,0.274,0.613,0.613v5.287c0,0.339-0.274,0.613-0.613,0.613h-76.937
		c-0.339,0-0.613-0.274-0.613-0.613v-5.287C419.554,197.703,419.828,197.429,420.167,197.429z"/>
	<path fill="#FFFFFF" d="M420.167,211.385h76.937c0.339,0,0.613,0.274,0.613,0.613v5.287c0,0.339-0.274,0.613-0.613,0.613h-76.937
		c-0.339,0-0.613-0.274-0.613-0.613v-5.287C419.554,211.662,419.828,211.385,420.167,211.385z"/>
	<rect x="-51.375" y="15.609" opacity="0.1" fill="#FF0000" enable-background="new    " width="95.688" height="4.96"/>
	<rect x="-42.871" y="-10.614" opacity="0.1" fill="#FF0000" enable-background="new    " width="9.213" height="26.224"/>
	<rect x="-29.404" y="-10.614" opacity="0.1" fill="#FF0000" enable-background="new    " width="9.213" height="26.224"/>
	<rect x="-15.94" y="-10.614" opacity="0.1" fill="#FF0000" enable-background="new    " width="9.213" height="26.224"/>
	<rect x="-2.476" y="-10.614" opacity="0.1" fill="#FF0000" enable-background="new    " width="9.213" height="26.224"/>
	<rect x="10.99" y="-10.614" opacity="0.1" fill="#FF0000" enable-background="new    " width="9.213" height="26.224"/>
	<rect x="24.464" y="-10.614" opacity="0.1" fill="#FF0000" enable-background="new    " width="9.213" height="26.224"/>
	<rect x="-42.871" y="-5.654" opacity="0.1" fill="#FF0000" enable-background="new    " width="9.213" height="2.839"/>
	<rect x="-29.404" y="-5.654" opacity="0.1" fill="#FF0000" enable-background="new    " width="9.213" height="2.839"/>
	<rect x="-15.94" y="-5.654" opacity="0.1" fill="#FF0000" enable-background="new    " width="9.213" height="2.839"/>
	<rect x="-2.476" y="-5.654" opacity="0.1" fill="#FF0000" enable-background="new    " width="9.213" height="2.839"/>
	<rect x="10.99" y="-5.654" opacity="0.1" fill="#FF0000" enable-background="new    " width="9.213" height="2.839"/>
	<rect x="24.464" y="-5.654" opacity="0.1" fill="#FF0000" enable-background="new    " width="9.213" height="2.839"/>
	<rect x="-42.871" y="7.103" opacity="0.1" fill="#FF0000" enable-background="new    " width="9.213" height="2.839"/>
	<rect x="-29.404" y="7.103" opacity="0.1" fill="#FF0000" enable-background="new    " width="9.213" height="2.839"/>
	<rect x="-15.94" y="7.103" opacity="0.1" fill="#FF0000" enable-background="new    " width="9.213" height="2.839"/>
	<rect x="-2.476" y="7.103" opacity="0.1" fill="#FF0000" enable-background="new    " width="9.213" height="2.839"/>
	<rect x="10.99" y="7.103" opacity="0.1" fill="#FF0000" enable-background="new    " width="9.213" height="2.839"/>
	<rect x="24.464" y="7.103" opacity="0.1" fill="#FF0000" enable-background="new    " width="9.213" height="2.839"/>
	<rect x="158.416" y="28.366" opacity="0.1" fill="#FF0000" enable-background="new    " width="95.688" height="4.96"/>
	<rect x="166.92" y="2.145" opacity="0.1" fill="#FF0000" enable-background="new    " width="9.213" height="26.224"/>
	<rect x="180.384" y="2.145" opacity="0.1" fill="#FF0000" enable-background="new    " width="9.213" height="26.224"/>
	<rect x="193.851" y="2.145" opacity="0.1" fill="#FF0000" enable-background="new    " width="9.213" height="26.224"/>
	<rect x="207.325" y="2.145" opacity="0.1" fill="#FF0000" enable-background="new    " width="9.213" height="26.224"/>
	<rect x="220.789" y="2.145" opacity="0.1" fill="#FF0000" enable-background="new    " width="9.213" height="26.224"/>
	<rect x="234.253" y="2.145" opacity="0.1" fill="#FF0000" enable-background="new    " width="9.213" height="26.224"/>
	<rect x="166.92" y="7.103" opacity="0.1" fill="#FF0000" enable-background="new    " width="9.213" height="2.839"/>
	<rect x="180.384" y="7.103" opacity="0.1" fill="#FF0000" enable-background="new    " width="9.213" height="2.839"/>
	<rect x="193.851" y="7.103" opacity="0.1" fill="#FF0000" enable-background="new    " width="9.213" height="2.839"/>
	<rect x="207.325" y="7.103" opacity="0.1" fill="#FF0000" enable-background="new    " width="9.213" height="2.839"/>
	<rect x="220.789" y="7.103" opacity="0.1" fill="#FF0000" enable-background="new    " width="9.213" height="2.839"/>
	<rect x="234.253" y="7.103" opacity="0.1" fill="#FF0000" enable-background="new    " width="9.213" height="2.839"/>
	<rect x="166.92" y="19.862" opacity="0.1" fill="#FF0000" enable-background="new    " width="9.213" height="2.839"/>
	<rect x="180.384" y="19.862" opacity="0.1" fill="#FF0000" enable-background="new    " width="9.213" height="2.839"/>
	<rect x="193.851" y="19.862" opacity="0.1" fill="#FF0000" enable-background="new    " width="9.213" height="2.839"/>
	<rect x="207.325" y="19.862" opacity="0.1" fill="#FF0000" enable-background="new    " width="9.213" height="2.839"/>
	<rect x="220.789" y="19.862" opacity="0.1" fill="#FF0000" enable-background="new    " width="9.213" height="2.839"/>
	<rect x="234.253" y="19.862" opacity="0.1" fill="#FF0000" enable-background="new    " width="9.213" height="2.839"/>
	<rect x="158.416" y="64.508" opacity="0.1" fill="#FF0000" enable-background="new    " width="95.688" height="4.96"/>
	<rect x="166.92" y="38.287" opacity="0.1" fill="#FF0000" enable-background="new    " width="9.213" height="26.224"/>
	<rect x="180.384" y="38.287" opacity="0.1" fill="#FF0000" enable-background="new    " width="9.213" height="26.224"/>
	<rect x="193.851" y="38.287" opacity="0.1" fill="#FF0000" enable-background="new    " width="9.213" height="26.224"/>
	<rect x="207.325" y="38.287" opacity="0.1" fill="#FF0000" enable-background="new    " width="9.213" height="26.224"/>
	<rect x="220.789" y="38.287" opacity="0.1" fill="#FF0000" enable-background="new    " width="9.213" height="26.224"/>
	<rect x="234.253" y="38.287" opacity="0.1" fill="#FF0000" enable-background="new    " width="9.213" height="26.224"/>
	<rect x="166.92" y="43.247" opacity="0.1" fill="#FF0000" enable-background="new    " width="9.213" height="2.839"/>
	<rect x="180.384" y="43.247" opacity="0.1" fill="#FF0000" enable-background="new    " width="9.213" height="2.839"/>
	<rect x="193.851" y="43.247" opacity="0.1" fill="#FF0000" enable-background="new    " width="9.213" height="2.839"/>
	<rect x="207.325" y="43.247" opacity="0.1" fill="#FF0000" enable-background="new    " width="9.213" height="2.839"/>
	<rect x="220.789" y="43.247" opacity="0.1" fill="#FF0000" enable-background="new    " width="9.213" height="2.839"/>
	<rect x="234.253" y="43.247" opacity="0.1" fill="#FF0000" enable-background="new    " width="9.213" height="2.839"/>
	<rect x="166.92" y="56.004" opacity="0.1" fill="#FF0000" enable-background="new    " width="9.213" height="2.839"/>
	<rect x="180.384" y="56.004" opacity="0.1" fill="#FF0000" enable-background="new    " width="9.213" height="2.839"/>
	<rect x="193.851" y="56.004" opacity="0.1" fill="#FF0000" enable-background="new    " width="9.213" height="2.839"/>
	<rect x="207.325" y="56.004" opacity="0.1" fill="#FF0000" enable-background="new    " width="9.213" height="2.839"/>
	<rect x="220.789" y="56.004" opacity="0.1" fill="#FF0000" enable-background="new    " width="9.213" height="2.839"/>
	<rect x="234.253" y="56.004" opacity="0.1" fill="#FF0000" enable-background="new    " width="9.213" height="2.839"/>
	<path opacity="0.1" fill="#FF0000" enable-background="new    " d="M7.323,71.694c-0.715-0.915-1.367-1.874-1.953-2.876
		l13.781-2.26L4.262,66.669C1.376,60.386,1.201,53.19,3.777,46.773l19.96,10.348L5.303,43.574
		c6.872-12.055,22.213-16.258,34.27-9.387c12.055,6.872,16.258,22.213,9.387,34.27c-0.643,1.128-1.372,2.206-2.181,3.22
		c1.123,1.414,2.082,2.95,2.866,4.577l-17.885,9.305l19.067-6.392c2.71,8.032,1.187,16.886-4.048,23.553
		c8.593,10.895,6.726,26.693-4.169,35.286s-26.693,6.726-35.286-4.169c-7.196-9.124-7.196-21.993,0-31.117
		c-7.161-9.112-7.161-21.941,0-31.053V71.694z"/>
	<path opacity="0.1" fill="#FF0000" enable-background="new    " d="M52.157,87.215c0,5.626-1.894,11.088-5.378,15.502
		c8.593,10.895,6.726,26.693-4.169,35.286c-10.895,8.593-26.693,6.726-35.286-4.169c-7.196-9.124-7.196-21.993,0-31.117
		C3.946,98.464,52.157,84.394,52.157,87.215z"/>
	<path opacity="0.2" fill="#3F3D56" enable-background="new    " d="M31.069,150.063c0.045,0.067,0.084,0.134,0.121,0.205h-8.524
		c0.047-0.064,0.074-0.138,0.121-0.205c-0.734-1.276-1.113-2.725-1.098-4.196c-0.005-1.009,0.168-2.01,0.512-2.96l0,0
		c0.475,0.074,1.061,0.158,1.741,0.232c1.978,0.198,3.969,0.198,5.947,0c0.571-0.057,1.157-0.131,1.758-0.223
		c-0.005,0.015-0.005,0.032,0,0.047c0.339,0.932,0.509,1.919,0.502,2.913C32.17,147.343,31.796,148.787,31.069,150.063z"/>
	<path opacity="0.1" fill="#FF0000" enable-background="new    " d="M0.437,150.268H-47.02c-0.101-0.27-0.195-0.559-0.279-0.838
		c-1.672-5.378-1.479-11.162,0.549-16.414c-9.535-6.592-13.323-18.852-9.167-29.676c-0.954-0.658-1.86-1.382-2.708-2.169
		l12.487-6.226l-14.201,4.503c-4.614-5.148-6.904-11.973-6.328-18.862l22.156,4.001l-21.607-7.51
		c2.982-13.551,16.387-22.119,29.938-19.137c13.551,2.982,22.119,16.387,19.137,29.938c-0.287,1.298-0.673,2.572-1.16,3.806
		c1.498,1.043,2.881,2.243,4.122,3.583l-14.349,14.154l16.33-11.743c4.973,6.879,6.135,15.806,3.088,23.729
		C0.254,127.825,4.114,139.62,0.437,150.268z"/>
	<path opacity="0.1" fill="#FF0000" enable-background="new    " d="M0.437,150.268H-47.02c-0.101-0.27-0.195-0.559-0.279-0.838
		c-1.672-5.378-1.479-11.162,0.549-16.414c-4.466-3.088,37.435-30.773,38.263-28.076c1.672,5.381,1.479,11.167-0.549,16.424
		C0.256,127.776,4.131,139.601,0.437,150.268z"/>
	<path opacity="0.1" fill="#FF0000" enable-background="new    " d="M215.158,116.265c-2.883,4.837-7.312,8.561-12.571,10.571
		c0.225,1.79,0.26,3.6,0.101,5.398l-20.108-1.209l19.644,4.263c-0.579,2.678-1.59,5.242-2.997,7.594
		c-1.711,2.878-3.991,5.381-6.701,7.352h-27.376v0.717h-27.917c0.057-0.242,0.111-0.475,0.178-0.717
		c2.067-7.809,7.762-14.149,15.306-17.037c-1.469-11.496,5.116-22.507,15.939-26.651c-0.148-1.15-0.215-2.31-0.205-3.472
		l12.982,5.129l-12.841-7.547c0.764-6.874,4.33-13.128,9.854-17.29l11.827,19.151l-8.867-21.085
		c12.141-6.718,27.43-2.322,34.149,9.819C219.881,99.062,219.731,108.59,215.158,116.265L215.158,116.265z"/>
	<path opacity="0.1" fill="#FF0000" enable-background="new    " d="M199.229,142.917c-1.711,2.878-3.991,5.381-6.699,7.352h-27.376
		v0.717h-27.917c0.057-0.242,0.111-0.475,0.178-0.717c2.067-7.809,7.762-14.149,15.306-17.037
		c-0.232-1.862,5.173-1.583,12.386-0.373C179.242,135.231,200.186,141.317,199.229,142.917z"/>
	<path fill="#EE8E9E" d="M80.566,75.907c0,0,3.442,18.61-4.243,24.688c-7.685,6.078,6.513,42.497,29.945,38.246
		c23.432-4.253,32.979-34.802,32.979-34.802s-23.469-4.857-14.767-29.544L80.566,75.907z"/>
	<path opacity="0.1" enable-background="new    " d="M80.566,75.907c0,0,3.442,18.61-4.243,24.688
		c-7.685,6.078,6.513,42.497,29.945,38.246c23.432-4.253,32.979-34.802,32.979-34.802s-23.469-4.857-14.767-29.544L80.566,75.907z"
		/>
	<circle fill="#EE8E9E" cx="101.308" cy="50.718" r="38.849"/>
	<path fill="#FF0000" d="M165.152,124.576v26.409H36.868v-25.21c0-6.535,3.909-12.436,9.928-14.982l3.674-1.563
		c9.305-3.964,20.61-8.887,24.305-10.935c0.406-0.203,0.786-0.448,1.135-0.734c2.02-2.02,1.62,0.606,1.62,0.606
		s-0.057,0.502-0.094,1.367c-0.223,5.947,0.633,29.312,28.019,27.368c26.716-1.862,27.917-19.933,27.645-25.247
		c-0.015-0.492-0.054-0.982-0.121-1.471c1.847,0.44,3.657,1.031,5.405,1.768c5.583,2.065,13.828,5.378,16.033,6.941
		c0.687,0.485,1.526,0.987,2.438,1.498c1.034,0.576,2.003,1.266,2.886,2.057C163.189,115.541,165.152,119.95,165.152,124.576z"/>
	<path opacity="0.1" enable-background="new    " d="M138.389,101.953c-2.26,10.477-9.362,30.103-34.95,30.615
		c-27.265,0.539-28.847-26.577-28.669-34.272c0.41-0.198,0.794-0.443,1.145-0.734c2.028-2.02,1.62,0.606,1.62,0.606
		s-3.435,30.959,27.917,28.736c31.35-2.223,27.497-26.706,27.497-26.706C132.947,100.046,135.281,100.855,138.389,101.953z"/>
	<path fill="#454B69" d="M55.32,52.664c2.638-0.66,5.415,0.354,7.008,2.559c1.414,1.983,1.63,4.374,1.805,6.662
		c1.684,0.354,2.633-1.553,2.792-2.997c0.623-5.873,0.67-11.854,2.643-17.532c1.973-5.677,6.281-11.167,12.898-13.336
		c2.26-0.784,4.676-1.014,7.045-0.67c1.405,0.232,2.727,0.727,4.122,0.93c4.839,0.801,10.096-1.489,14.629,0.101
		c2.849,1.004,4.654,3.321,5.984,5.638c0.579,1.249,1.365,2.391,2.327,3.378c1.926,1.731,4.941,2.178,7.705,2.718
		c2.765,0.539,5.779,1.479,6.961,3.61c1.061,1.926,0.279,4.149-0.074,6.234c-0.546,3.301,0.005,6.691,1.573,9.649
		c0.512,0.93,1.553,2.057,2.792,1.748c0.554-0.188,1.024-0.566,1.32-1.071c3.173-4.448,3.088-10.235,7.072-14.246
		c1.33-1.34,3.051-2.381,4.345-3.722c1.988-2.018,2.834-4.896,2.253-7.668c-0.717-3.071-3.173-5.583-5.156-8.281
		c-2.574-3.42-4.448-7.312-5.519-11.454c-0.185-0.482-0.185-1.016,0-1.498c0.376-0.49,0.861-0.883,1.414-1.155
		c2.23-1.496,3.004-4.416,1.805-6.82c-1.125-2.3-3.6-4.048-6.392-5.089c-2.831-0.93-5.754-1.555-8.719-1.862
		c-1.953,0.279-4.243-0.828-4.849-2.391c-0.27-0.697-0.27-1.452-0.539-2.149c-0.742-1.422-2.132-2.394-3.722-2.606
		c-1.664-0.27-3.368-0.148-4.978,0.354c-1.862,0.522-3.974,1.303-5.583,0.391c-0.846-0.475-1.313-1.34-2.223-1.731
		c-1.862-0.781-3.778,0.801-5.109,2.102c-1.283,1.367-2.856,2.426-4.607,3.098c-1.869,0.712-3.956,0.574-5.715-0.381
		c-1.276-0.809-1.916-2.112-2.93-3.145c-1.916-1.709-4.367-2.695-6.934-2.792c-2.638-0.141-5.282,0.148-7.826,0.856
		C68.079-8.72,63.44-6.774,59.194-4.136c-2.136,1.175-3.949,2.859-5.277,4.903c-0.786,1.568-1.189,3.299-1.182,5.052
		c-0.205,5.499,1.62,11.288,6.375,15.141c-2.903,1.209-3.88,4.179-4.56,6.812c-1.088,4.206-2.178,8.477-1.768,12.757
		c0.205,2.216,0.809,4.429,0.485,6.634c-0.262,1.039-0.406,2.102-0.428,3.173C53.116,51.551,54.098,52.468,55.32,52.664z"/>
	<g opacity="0.1">
		<path d="M149.91,32.926c-0.418,0.912-0.984,1.748-1.674,2.475c-1.293,1.358-3.014,2.411-4.345,3.722
			c-3.984,3.984-3.9,9.807-7.072,14.255c-0.297,0.502-0.767,0.88-1.32,1.061c-1.209,0.317-2.253-0.781-2.792-1.748
			c-0.616-1.18-1.081-2.428-1.387-3.722c-0.064,0.326-0.131,0.65-0.185,0.93c-0.546,3.301,0.005,6.691,1.573,9.649
			c0.512,0.93,1.553,2.057,2.792,1.748c0.554-0.188,1.024-0.566,1.32-1.071c3.173-4.448,3.088-10.235,7.072-14.246
			c1.33-1.34,3.051-2.381,4.345-3.722c1.988-2.018,2.834-4.896,2.253-7.668C150.345,34.021,150.15,33.463,149.91,32.926z"/>
		<path d="M141.238,5.382c-0.556,0.267-1.041,0.663-1.414,1.155c-0.185,0.48-0.185,1.009,0,1.489
			c0.366,1.447,0.836,2.863,1.405,4.243l0,0c2.23-1.496,3.004-4.416,1.805-6.82c-0.181-0.383-0.398-0.747-0.65-1.088
			C142.051,4.754,141.666,5.098,141.238,5.382z"/>
		<path d="M59.162,14.009c-3.296-2.718-5.47-6.56-6.095-10.786c-0.168,0.833-0.26,1.681-0.279,2.532
			c-0.213,4.063,0.858,8.091,3.061,11.511C56.516,15.81,57.696,14.65,59.162,14.009z"/>
		<path d="M131.159,43.106c0.354-2.094,1.135-4.317,0.074-6.234c-1.182-2.141-4.196-3.071-6.961-3.61
			c-2.765-0.539-5.779-0.997-7.705-2.718c-0.962-0.987-1.748-2.129-2.327-3.378c-1.313-2.317-3.135-4.654-5.984-5.638
			c-4.533-1.592-9.79,0.687-14.629-0.101c-1.395-0.232-2.718-0.717-4.122-0.93c-2.369-0.346-4.785-0.116-7.045,0.67
			c-6.617,2.178-10.925,7.668-12.898,13.336s-2.02,11.652-2.643,17.532c-0.158,1.434-1.108,3.351-2.792,2.997
			c-0.178-2.3-0.391-4.654-1.805-6.671c-1.595-2.201-4.369-3.212-7.008-2.549c-0.781-0.176-1.476-0.621-1.963-1.256
			c0.101,0.853,0.101,1.716,0,2.569c-0.262,1.039-0.406,2.102-0.428,3.173c0.245,1.219,1.207,2.166,2.428,2.391
			c2.638-0.66,5.415,0.354,7.008,2.559c1.414,1.983,1.63,4.374,1.805,6.662c1.684,0.354,2.633-1.553,2.792-2.997
			c0.623-5.873,0.67-11.854,2.643-17.532c1.973-5.677,6.281-11.167,12.898-13.336c2.26-0.784,4.676-1.014,7.045-0.67
			c1.405,0.232,2.727,0.727,4.122,0.93c4.839,0.801,10.096-1.489,14.629,0.101c2.849,1.004,4.654,3.321,5.984,5.638
			c0.579,1.249,1.365,2.391,2.327,3.378c1.926,1.731,4.941,2.178,7.705,2.718s5.583,1.414,6.82,3.388
			C131.085,43.386,131.132,43.247,131.159,43.106z"/>
		<path d="M53.319,40.213c0.153-1.733,0.049-3.479-0.307-5.183c-0.272,1.798-0.331,3.623-0.178,5.435
			c0,0.465,0.101,0.93,0.168,1.387C53.106,41.301,53.245,40.762,53.319,40.213z"/>
	</g>
	<path fill="#444053" d="M7.778,188.532v-16.797c0-0.262,0.213-0.475,0.475-0.475l0,0h1.906c0.262,0,0.475,0.213,0.475,0.475l0,0
		v6.988l7.742-7.173c0.537-0.448,1.335-0.376,1.783,0.161c0.181,0.218,0.284,0.487,0.292,0.769v15.215
		c-0.022,0.7-0.608,1.246-1.306,1.224c-0.282-0.01-0.551-0.111-0.769-0.292l-7.742-7.129v6.951c0,0.262-0.213,0.475-0.475,0.475l0,0
		H8.253C8.021,188.927,7.82,188.762,7.778,188.532z"/>
	<path fill="#444053" d="M194.845,171.737v16.797c0,0.262-0.213,0.475-0.475,0.475c-0.002,0-0.007,0-0.01,0h-1.862
		c-0.262,0-0.475-0.213-0.475-0.475l0,0v-6.988l-7.742,7.166c-0.544,0.448-1.348,0.371-1.795-0.173
		c-0.176-0.215-0.279-0.48-0.289-0.757v-15.269c0.03-0.705,0.623-1.249,1.328-1.222c0.277,0.012,0.544,0.114,0.757,0.289
		l7.742,7.129v-6.941c0-0.262,0.213-0.475,0.475-0.475l0,0h1.862C194.617,171.284,194.83,171.479,194.845,171.737z"/>
	<path fill="#444053" d="M98.153,189.259h-3.788c-1.029,0-1.862-0.833-1.862-1.862v-13.902c0-1.029,0.833-1.862,1.862-1.862h3.788
		c1.029,0,1.862,0.833,1.862,1.862v13.902C100.015,188.425,99.181,189.259,98.153,189.259z M110.158,187.397v-13.902
		c0-1.029-0.833-1.862-1.862-1.862h-3.825c-1.029,0-1.862,0.833-1.862,1.862v13.902c0,1.029,0.833,1.862,1.862,1.862h3.788
		c1.029,0.02,1.877-0.796,1.899-1.822C110.158,187.421,110.158,187.409,110.158,187.397z"/>
	<rect x="-10.357" y="149.096" opacity="0.6" fill="#444053" enable-background="new    " width="223.329" height="2.485"/>
	<circle fill="#444053" cx="58.606" cy="150.332" r="5.89"/>
	<rect x="-10.357" y="149.096" fill="#444053" width="68.963" height="2.485"/>
	<ellipse fill="#FF0000" cx="555.486" cy="418.879" rx="55.34" ry="10.645"/>
	<ellipse fill="#3F3D56" cx="554.566" cy="414.356" rx="6.439" ry="8.43"/>
	<ellipse fill="#3F3D56" cx="554.566" cy="404.045" rx="6.439" ry="8.43"/>
	<ellipse fill="#3F3D56" cx="554.566" cy="393.743" rx="6.439" ry="8.43"/>
	<ellipse fill="#3F3D56" cx="554.566" cy="383.434" rx="6.439" ry="8.43"/>
	<ellipse fill="#3F3D56" cx="554.566" cy="373.123" rx="6.439" ry="8.43"/>
	<ellipse fill="#3F3D56" cx="554.566" cy="362.814" rx="6.439" ry="8.43"/>
	<ellipse fill="#3F3D56" cx="554.566" cy="352.502" rx="6.439" ry="8.43"/>
	<path fill="#FF0000" d="M578.676,281.967c0.878-1.123,1.681-2.305,2.401-3.536l-16.936-2.792l18.313,0.138
		c3.544-7.725,3.756-16.567,0.586-24.456l-24.547,12.75l22.65-16.647c-8.536-14.757-27.415-19.799-42.173-11.263
		c-14.757,8.536-19.799,27.415-11.266,42.173c0.734,1.269,1.555,2.483,2.463,3.632c-1.365,1.733-2.544,3.605-3.516,5.583
		l21.98,11.417l-23.432-7.863c-3.343,9.879-1.474,20.776,4.97,28.978c-10.531,13.397-8.207,32.796,5.19,43.328
		s32.796,8.207,43.328-5.19c8.796-11.192,8.796-26.948,0-38.137c8.798-11.197,8.798-26.956,0-38.152L578.676,281.967z"/>
	<path opacity="0.1" enable-background="new    " d="M523.568,301.044c-0.012,6.921,2.312,13.642,6.597,19.077
		c-10.531,13.397-8.207,32.796,5.19,43.328c13.397,10.531,32.796,8.207,43.328-5.19c8.796-11.192,8.796-26.948,0-38.137
		C582.818,314.882,523.568,297.583,523.568,301.044z"/>
	<ellipse opacity="0.1" fill="#FF0000" enable-background="new    " cx="-65.259" cy="467.285" rx="92.122" ry="19.542"/>
	
		<linearGradient id="SVGID_1_" gradientUnits="userSpaceOnUse" x1="508.6169" y1="960.8291" x2="508.6169" y2="579.3462" gradientTransform="matrix(1 0 0 1 -577 -482.046)">
		<stop  offset="0" style="stop-color:#808080;stop-opacity:0.25"/>
		<stop  offset="0.54" style="stop-color:#808080;stop-opacity:0.12"/>
		<stop  offset="1" style="stop-color:#808080;stop-opacity:0.1"/>
	</linearGradient>
	<path fill="url(#SVGID_1_)" d="M-34.412,465.015c-1.862-0.68-3.853-0.569-5.796-0.781c-4.038-0.467-7.799-2.29-10.665-5.173
		c-1.842-1.864-3.291-4.078-4.263-6.513c0.613,0.223,1.229,0.455,1.862,0.707c-1.862-4.345,0.094-9.221,1.805-13.615
		c2.903-7.445,5.648-14.928,8.234-22.455c6.513-19.067,12.097-38.896,11.976-59.183c0-7.332-1.35-14.265-1.61-21.59
		c-0.195-5.435,0.643-10.86,0.606-16.303c0-0.764,0-1.516-0.057-2.28c3.373-2.952,5.185-7.305,4.903-11.78
		c-0.094-1.15-0.26-2.295-0.492-3.425c-0.329-1.963-0.764-3.909-1.303-5.826c-0.613-2.02-1.452-3.954-2.169-5.927
		c-1.387-3.825-2.327-7.806-3.509-11.696c0.438,0.045,0.865,0.161,1.266,0.344c-0.299-0.349-0.502-0.769-0.596-1.219
		c-0.695-2.475-1.071-5.032-1.118-7.604l0.791-0.354c0.356-2.51,0.227-5.067-0.381-7.527c0.448-3.991,1.145-8.012,1.573-11.985
		c0.158-1.489,0.094-3.36-1.276-3.721c-0.279-2.132-0.391-4.29-0.502-6.439c-0.391-7.5-0.779-14.997-1.162-22.492
		c-0.391-7.527-0.781-15.047-0.93-22.584c-0.101-4.782-0.158-9.733-1.293-14.312c0.195-2.193-0.027-4.404-0.66-6.513
		c-1.731-5.482-7.109-9.827-12.562-9.52c-1.627-2.327-3.637-4.359-5.947-6.011c1.088-2.438,2.391-4.95,3.462-6.924
		c8.729-2.839,15.111-11.446,15.111-21.681c0.012-3.746-0.863-7.443-2.559-10.786c0.161-0.41,0.297-0.831,0.41-1.256
		c0.467-2.01,0.321-4.112-0.418-6.038c-0.262-0.739-0.574-1.461-0.93-2.159c-0.242-0.465-0.502-0.93-0.771-1.377l-0.475-0.717
		c-0.289-0.438-0.586-0.856-0.93-1.266c-0.66-0.888-1.37-1.738-2.122-2.549c-0.927-1.004-1.949-1.914-3.051-2.718
		c-1.496-1.113-3.207-1.902-5.025-2.317c-1.051-0.208-2.122-0.304-3.192-0.289c-0.643,0-1.293,0-1.936,0.057
		c-1.303,0.074-2.596,0.168-3.89,0.158c-0.428,0-0.865,0-1.293-0.064c-2.277-0.304-4.528-0.774-6.738-1.405l-1.118-0.232
		c-0.381-0.074-0.754-0.138-1.135-0.185c-1.021-0.136-2.05-0.198-3.081-0.185H-78.4c-1.031,0.049-2.06,0.156-3.081,0.317
		l-1.024,0.158c-2.584,0.406-5.104,1.152-7.49,2.223c-0.307,0.138-0.623,0.297-0.93,0.465l-0.185,0.101
		c-0.252,0.131-0.502,0.27-0.744,0.418l-0.138,0.084l-0.791,0.502l-0.064,0.047c-7.389,4.97-11.753,14.386-12.861,23.729
		c-1.239,10.487,0.93,21.058,3.098,31.377l1.953,9.305c0.084,0.418,0.176,0.828,0.26,1.246c-2.747,2.255-4.861,5.185-6.132,8.506
		c-1.862,4.654-1.907,9.686-1.758,14.73c0,1.024,0.057,2.047,0.158,3.071c-0.232,1.936-0.438,3.88-0.569,5.836
		c-0.586,9.026,0.512,18.098,0.223,27.143c-0.223,6.971-1.276,13.959-0.764,20.882c0.448,6.142,2.094,12.097,3.721,18.024
		l2.344,8.449c0.077,0.438,0.279,0.843,0.586,1.162c0.386,0.26,0.856,0.356,1.313,0.27c-1.526,3.464-2.802,7.035-3.815,10.682
		c-0.702,2.233-1.162,4.535-1.377,6.867c-0.307,4.263,0.68,8.496,1.667,12.636c1.489,6.204,2.972,12.433,4.448,18.684
		c1.041,4.374,2.082,8.744,3.118,13.111c2.047,8.618,4.105,17.29,4.486,26.157c0.213,4.453-0.099,8.917-0.93,13.298
		c-2.685,13.118-3.076,26.604-1.155,39.856c1.553,11.179,4.073,22.205,7.527,32.949c0.754-0.401,1.516-0.772,2.3-1.118l-0.326,0.606
		c-1.073,1.862-2.065,3.768-2.977,5.722c-0.616,1.271-1.147,2.579-1.592,3.917c-1.192,3.721-1.377,7.685-1.545,11.605
		c-0.084,0.754-0.02,1.516,0.195,2.243c0.512,1.405,1.983,2.122,3.351,2.512c4.021,1.145,8.197,0.734,12.376,0.195
		c0.02,0.091,0.047,0.183,0.084,0.27c0.512,1.405,1.973,2.122,3.351,2.512c5.752,1.637,11.817,0.094,17.744-0.465
		c5.927-0.559,11.753-0.148,17.458-1.516c0.851-0.181,1.667-0.495,2.418-0.93c1.466-1.026,2.542-2.517,3.051-4.233
		c0.178-0.445,0.297-0.91,0.354-1.387C-30.829,467.49-32.57,465.693-34.412,465.015z M-54.092,378.837
		c-0.321,2.181-0.947,4.305-1.862,6.308c-4.476,9.518-7.685,19.582-9.547,29.935c-1.222,6.84-1.926,13.761-2.112,20.704
		c-0.094,5.119,0.101,10.477-2.028,15.074l0.771-0.121c-0.242,0.448-0.475,0.93-0.697,1.283l-0.111,0.205
		c-1.288-2.193-2.151-4.614-2.54-7.129c0-0.084-0.418-0.148-1.061-0.185c-2.631-14.698-3.543-29.653-2.718-44.564
		c0.012-1.808,0.262-3.608,0.744-5.351c0.475-1.498,1.276-2.866,1.862-4.317c0.93-2.438,1.555-4.983,1.862-7.574
		c1.014-6.624,1.407-13.328,1.172-20.024c-0.223-6.318,1.236-12.599,2.485-18.889c0.596-2.987,1.145-5.984,1.442-8.979l0.057-0.606
		c5.536,9.134,9.406,19.179,11.427,29.666C-53.825,369.043-53.536,373.968-54.092,378.837z M-93.921,244.354l0.297,0.26
		c0.9,0.791,1.728,1.659,2.475,2.596c0.371,0.408,0.64,0.9,0.781,1.434c0.279,1.358-0.846,2.512-1.768,3.509
		c-0.401,0.433-0.776,0.885-1.125,1.358c-0.198-3.051-0.41-6.105-0.633-9.157H-93.921z"/>
	<path fill="#FF0000" d="M-106.799,186.029l-1.024,7.9c-0.344,2.68-0.687,5.351-0.875,8.039c-0.623,8.951,0.532,17.94,0.232,26.911
		c-0.242,6.904-1.34,13.8-0.809,20.694c0.475,6.085,2.206,12.005,3.937,17.866l2.455,8.375c0.084,0.438,0.299,0.841,0.613,1.155
		c0.472,0.279,1.036,0.371,1.573,0.252l10.905-0.987c-0.697-3.202-1.471-6.513-1.862-9.8c-0.297-2.569-0.475-5.156-0.66-7.742
		c-0.576-8.059-1.239-16.117-1.862-24.193l-1.162-14.144c-0.492-6.142-1.004-12.312-2.549-18.276
		C-99.433,196.056-102.504,190.53-106.799,186.029z"/>
	<path opacity="0.1" enable-background="new    " d="M-106.799,186.029l-1.024,7.9c-0.344,2.68-0.687,5.351-0.875,8.039
		c-0.623,8.951,0.532,17.94,0.232,26.911c-0.242,6.904-1.34,13.8-0.809,20.694c0.475,6.085,2.206,12.005,3.937,17.866l2.455,8.375
		c0.084,0.438,0.299,0.841,0.613,1.155c0.472,0.279,1.036,0.371,1.573,0.252l10.905-0.987c-0.697-3.202-1.471-6.513-1.862-9.8
		c-0.297-2.569-0.475-5.156-0.66-7.742c-0.576-8.059-1.239-16.117-1.862-24.193l-1.162-14.144
		c-0.492-6.142-1.004-12.312-2.549-18.276C-99.433,196.056-102.504,190.53-106.799,186.029z"/>
	<path fill="#A26565" d="M-87.368,454.973c-0.64,1.259-1.199,2.559-1.674,3.89c-1.246,3.674-1.434,7.621-1.62,11.501
		c-0.082,0.747-0.012,1.503,0.205,2.223c0.539,1.395,2.085,2.102,3.526,2.485c6.038,1.63,12.403,0.101,18.61-0.455
		c6.207-0.559,12.339-0.148,18.331-1.498c0.885-0.171,1.741-0.47,2.54-0.885c1.518-0.987,2.651-2.465,3.21-4.186
		c0.181-0.44,0.302-0.905,0.364-1.377c0.195-2.047-1.583-3.815-3.516-4.486c-1.936-0.67-4.048-0.569-6.085-0.772
		c-8.63-0.883-15.591-7.45-16.973-16.014c-0.074-0.448-10.086-0.178-11.167,0.401c-1.229,0.68-1.973,2.364-2.671,3.509
		C-85.388,451.148-86.414,453.037-87.368,454.973z"/>
	<path opacity="0.1" enable-background="new    " d="M-87.368,454.973c-0.64,1.259-1.199,2.559-1.674,3.89
		c-1.246,3.674-1.434,7.621-1.62,11.501c-0.082,0.747-0.012,1.503,0.205,2.223c0.539,1.395,2.085,2.102,3.526,2.485
		c6.038,1.63,12.403,0.101,18.61-0.455c6.207-0.559,12.339-0.148,18.331-1.498c0.885-0.171,1.741-0.47,2.54-0.885
		c1.518-0.987,2.651-2.465,3.21-4.186c0.181-0.44,0.302-0.905,0.364-1.377c0.195-2.047-1.583-3.815-3.516-4.486
		c-1.936-0.67-4.048-0.569-6.085-0.772c-8.63-0.883-15.591-7.45-16.973-16.014c-0.074-0.448-10.086-0.178-11.167,0.401
		c-1.229,0.68-1.973,2.364-2.671,3.509C-85.388,451.148-86.414,453.037-87.368,454.973z"/>
	<path fill="#A26565" d="M-70.759,457.933c-0.645,1.254-1.204,2.552-1.674,3.88c-1.256,3.721-1.442,7.621-1.62,11.501
		c-0.087,0.747-0.017,1.506,0.205,2.223c0.532,1.395,2.075,2.102,3.516,2.495c6.038,1.62,12.413,0.094,18.61-0.465
		c6.197-0.559,12.349-0.148,18.331-1.498c0.89-0.181,1.746-0.495,2.54-0.93c1.518-0.987,2.653-2.465,3.21-4.186
		c0.181-0.44,0.302-0.905,0.364-1.377c0.195-2.038-1.583-3.815-3.516-4.486c-1.936-0.67-4.048-0.559-6.085-0.772
		c-8.625-0.885-15.583-7.448-16.973-16.006c-0.074-0.448-10.086-0.185-11.167,0.391c-1.236,0.68-1.983,2.364-2.68,3.509
		C-68.758,454.098-69.799,455.997-70.759,457.933z"/>
	<path fill="#454B69" d="M-27.461,359.082c0.131,20.108-5.715,39.762-12.571,58.624c-2.718,7.483-5.598,14.898-8.645,22.25
		c-1.805,4.354-3.843,9.194-1.907,13.494c-5.583-2.122-11.258-3.368-17.131-2.391c2.233-4.56,2.02-9.864,2.122-14.888
		c0.19-6.887,0.925-13.749,2.196-20.519c1.971-10.304,5.349-20.291,10.039-29.676c0.947-1.978,1.602-4.085,1.946-6.254
		c0.764-4.782,0.168-9.696-0.828-14.433c-2.141-10.462-6.212-20.432-12.003-29.406l-0.057,0.596
		c-0.349,2.992-0.851,5.964-1.508,8.904c-1.313,6.226-2.849,12.46-2.614,18.724c0.242,6.639-0.168,13.289-1.229,19.849
		c-0.341,2.577-1.014,5.096-2,7.5c-0.643,1.442-1.479,2.792-1.983,4.29c-0.502,1.723-0.767,3.509-0.781,5.304
		c-0.744,15.141,0,30.511,3.088,45.355c-5.183-0.41-10.366,1.088-15,3.415c-3.623-10.625-6.271-21.557-7.91-32.663
		c-2.02-13.133-1.61-26.525,1.209-39.51c0.878-4.33,1.207-8.754,0.977-13.167c-0.401-8.793-2.559-17.391-4.708-25.934l-3.276-13.026
		c-1.55-6.204-3.101-12.379-4.654-18.526c-1.034-4.105-2.075-8.301-1.748-12.525c0.228-2.317,0.715-4.602,1.451-6.812
		c2.324-7.512,5.799-14.619,10.301-21.068c17.932,1.004,36.078-0.67,53.97-2.047c0.868-0.171,1.768-0.02,2.532,0.428
		c0.611,0.621,0.974,1.439,1.024,2.307l6.728,38.152c1.09,5.302,1.728,10.687,1.906,16.098c0,5.398-0.838,10.776-0.633,16.164
		C-28.875,344.946-27.498,351.815-27.461,359.082z"/>
	<path opacity="0.1" enable-background="new    " d="M-64.283,336.479c-0.349,2.992-0.851,5.964-1.508,8.904
		c-3.9-6.746-8.106-13.326-11.696-20.24c-0.93-1.778-1.805-3.583-2.69-5.388l-2.653-5.398c-0.492-1.014-0.987-2.028-1.434-3.061
		c-0.727-1.484-1.286-3.044-1.667-4.654c1.303-0.242,4.523,3.276,5.49,4.196c1.973,1.953,3.838,4.018,5.583,6.179
		c2.119,2.403,4.065,4.953,5.826,7.631C-66.775,328.292-65.17,332.293-64.283,336.479z"/>
	<path fill="#EFB7B9" d="M-49.347,151.383c0,0-9.958,15.865-8.113,19.189c1.842,3.321-31.359-2.95-31.359-2.95
		s18.081-15.865,16.229-22.509C-74.443,138.468-49.347,151.383-49.347,151.383z"/>
	<circle fill="#EFB7B9" cx="-58.197" cy="133.676" r="22.509"/>
	<path fill="#FF0000" d="M-49.011,168.023c-2.411-3.343-5.68-5.974-9.463-7.611c-2.181-0.781-4.434-1.335-6.728-1.657l-8.979-1.583
		c-2.196-0.391-4.55-0.754-6.597,0.148c-1.036,0.532-1.978,1.226-2.792,2.057c-3.118,2.893-6.142,6.068-10.059,7.742
		c-1.071,0.455-2.186,0.791-3.257,1.246c-4.382,1.862-7.658,5.826-9.51,10.235c-1.953,4.597-2.01,9.594-1.862,14.592
		c-0.002,1.726,0.168,3.447,0.512,5.136c0.448,1.61,1.016,3.185,1.704,4.708c1.236,3.262,2.275,6.597,3.108,9.985
		c2.327,8.902,4.263,17.898,5.806,26.985c0.131,1.301,0.514,2.567,1.125,3.722c0.868,1.157,1.916,2.166,3.108,2.987
		c0.945,0.776,1.815,1.639,2.596,2.577c0.391,0.383,0.68,0.856,0.846,1.377c0.289,1.34-0.93,2.495-1.862,3.472
		c-2.003,2.042-3.449,4.565-4.206,7.324c-0.467,0.566-0.705,1.286-0.67,2.02c0.193,0.509,0.267,1.058,0.215,1.6
		c-0.183,0.495-0.472,0.942-0.846,1.313c-0.868,1.132-1.207,2.584-0.93,3.984c6.976,3.032,14.441,4.777,22.035,5.156
		c1.862,0.094,3.721,0.094,5.583,0.317c1.32,0.168,2.624,0.438,3.947,0.596c1.916,0.18,3.845,0.23,5.769,0.148
		c10.022-0.205,20.333-0.455,29.535-4.429c0.865-4.718-1.004-9.528-2.178-14.181c-1.862-7.445-2.327-15.067-3.722-22.574
		c-0.93-5.129-2.327-10.18-3.118-15.343c-0.791-5.166-0.93-10.514,0.448-15.541c1.256-4.448,1.637-8.988,2.94-13.427
		c1.303-4.439,2.216-9.251,0.744-13.642C-37.631,172.023-43.279,167.716-49.011,168.023z"/>
	<path fill="#A26565" d="M-37.958,121.737c1.098-3.991-1.061-8.153-3.63-11.399c-2.792-3.489-6.345-6.634-10.71-7.51
		c-3.546-0.717-7.22,0.148-10.831-0.138c-3.192-0.252-6.263-1.405-9.436-1.862c-2.878-0.312-5.789-0.2-8.635,0.326
		c-2.703,0.401-5.344,1.14-7.863,2.196c-9.584,4.253-15.195,14.73-16.498,25.126c-1.303,10.395,0.977,20.873,3.247,31.1l2.057,9.251
		c2.141,9.631,4.28,19.3,4.849,29.144c0.569,9.844-0.492,19.95-4.54,28.939c13.091-7.033,23.234-18.516,28.595-32.373
		c1.451-3.806,2.532-7.762,4.149-11.501c1.387-3.22,3.163-6.271,4.392-9.557c1.387-3.707,2.055-7.646,1.963-11.605
		c-0.074-2.977-0.569-5.937-0.485-8.914c0.084-2.977,0.846-6.076,2.903-8.234c1.862-1.906,4.421-2.792,6.775-4.028
		c3.707-1.904,6.943-4.604,9.483-7.91c1.479-1.936,1.563-2.792,1.936-4.988C-39.862,125.602-38.534,123.849-37.958,121.737z"/>
	<path fill="#EFB7B9" d="M-37.931,290.827c0.232,2.317-0.185,4.654,0.317,6.951c0.381,1.711,1.266,3.257,1.788,4.931
		c0.514,1.934,0.781,3.927,0.791,5.927c0.074,1.674-0.057,3.721-1.545,4.503c-0.65,0.344-1.434,0.344-2.112,0.643
		c-0.678,0.299-1.256,1.108-0.865,1.741s1.061,0.532,1.674,0.65c0.613,0.121,1.276,0.754,0.93,1.266
		c-0.141,0.168-0.329,0.287-0.539,0.344c-0.621,0.19-1.212,0.472-1.748,0.838c-0.537,0.391-0.814,1.046-0.717,1.704
		c0.138,0.564,0.707,0.91,1.271,0.774c0.079-0.02,0.156-0.047,0.227-0.084c-0.272,0.584-0.423,1.217-0.438,1.862
		c2.381,1.024,5.052-0.316,7.287-1.61c0.967-0.539,1.899-1.135,2.792-1.788c3.667-2.816,5.702-7.267,5.435-11.884
		c-0.106-1.142-0.284-2.277-0.529-3.398c-0.344-1.951-0.801-3.88-1.367-5.779c-0.643-2-1.516-3.909-2.27-5.873
		c-1.6-4.179-2.633-8.551-4.085-12.787c-0.096-0.44-0.344-0.831-0.697-1.108c-0.319-0.158-0.678-0.225-1.034-0.195
		c-1.63-0.087-3.262,0.064-4.849,0.448c-0.93,0.279-2.522,0.93-2.96,1.862c-0.438,0.93,0.26,1.711,0.68,2.485
		C-39.159,285.587-38.289,288.159-37.931,290.827z"/>
	<path opacity="0.1" enable-background="new    " d="M-39.446,177.755c0.477,0.49,0.88,1.048,1.192,1.657
		c3.202,5.816,3.239,12.767,3.388,19.401c0.168,7.445,0.576,14.888,0.987,22.378l1.219,22.334c0.121,2.132,0.232,4.263,0.539,6.375
		c1.434,0.363,1.489,2.223,1.33,3.722c-1.034,9.1-3.593,18.471-0.93,27.227c0.101,0.45,0.317,0.865,0.623,1.209
		c-1.353-0.423-2.797-0.443-4.159-0.057c-1.33,0.279-2.614,0.772-3.954,1.081c-1.694,0.381-3.61,0.549-4.765,1.862
		c-1.308-3.934-2.349-7.95-3.118-12.023c-0.633-3.722-0.809-7.557-2.317-10.999c-0.606-1.387-1.424-2.671-2.169-4.001
		c-3.9-6.961-5.816-14.824-7.685-22.584c-0.838-3.679-1.041-7.475-0.596-11.221c0.27-1.709,0.425-3.435,0.465-5.166
		c-0.114-1.825-0.354-3.642-0.717-5.435c-0.791-5.262-0.418-10.633,1.088-15.737c1.395-4.735,2.624-9.725,5.583-13.706
		C-50.482,180.092-44.387,177.822-39.446,177.755z"/>
	<path fill="#FF0000" d="M-38.339,177.011c0.477,0.492,0.88,1.053,1.192,1.667c3.202,5.806,3.239,12.767,3.388,19.401
		c0.168,7.445,0.576,14.888,0.987,22.334l1.219,22.334c0.121,2.132,0.232,4.263,0.539,6.375c1.434,0.363,1.489,2.223,1.32,3.722
		c-1.024,9.1-3.583,18.462-0.93,27.227c0.101,0.45,0.317,0.865,0.623,1.209c-1.353-0.423-2.797-0.443-4.159-0.057
		c-1.33,0.279-2.614,0.771-3.954,1.071c-1.694,0.391-3.61,0.549-4.765,1.862c-1.303-3.951-2.337-7.987-3.088-12.079
		c-0.633-3.721-0.809-7.547-2.317-10.989c-0.655-1.37-1.377-2.705-2.169-4.001c-3.909-6.961-5.816-14.834-7.685-22.594
		c-0.841-3.679-1.041-7.475-0.596-11.221c0.7-3.509,0.616-7.129-0.252-10.598c-0.791-5.26-0.418-10.628,1.088-15.727
		c1.395-4.735,2.624-9.725,5.583-13.706C-49.357,179.254-43.279,177.085-38.339,177.011z"/>
	<g opacity="0.1">
		<path d="M-41.585,110.338c-2.792-3.489-6.345-6.634-10.71-7.51c-3.546-0.717-7.22,0.148-10.831-0.138
			c-3.192-0.252-6.263-1.405-9.436-1.862c-2.878-0.312-5.789-0.2-8.635,0.326c-2.703,0.401-5.344,1.14-7.863,2.196
			c-1.36,0.611-2.661,1.348-3.88,2.206c2.243-0.87,4.572-1.496,6.951-1.862c2.844-0.527,5.749-0.636,8.625-0.326
			c3.182,0.41,6.244,1.553,9.446,1.805c3.6,0.289,7.277-0.569,10.831,0.138c4.364,0.875,7.938,4.028,10.702,7.52
			c2.577,3.239,4.728,7.398,3.637,11.399c-0.576,2.102-1.916,3.946-2.28,6.113c-0.364,2.166-0.455,3.051-1.944,4.988
			c-1.909,2.483-4.216,4.629-6.83,6.355c0.717-0.334,1.451-0.67,2.149-1.034c3.707-1.904,6.944-4.604,9.483-7.91
			c1.479-1.936,1.563-2.792,1.936-4.988c0.373-2.196,1.704-4.001,2.28-6.113C-36.86,117.746-39.019,113.585-41.585,110.338z"/>
		<path d="M-58.43,144.779c0.386-0.401,0.806-0.764,1.256-1.088c-2.149,1.041-4.411,1.953-6.058,3.721
			c-2.057,2.149-2.792,5.257-2.903,8.234s0.418,5.937,0.485,8.904c0.091,3.961-0.576,7.903-1.963,11.612
			c-1.229,3.284-3.007,6.328-4.392,9.557c-1.61,3.722-2.69,7.685-4.142,11.493c-4.651,12.015-12.913,22.294-23.644,29.423
			c-0.057,0.121-0.101,0.252-0.158,0.373c13.091-7.033,23.234-18.516,28.595-32.373c1.451-3.806,2.532-7.762,4.149-11.501
			c1.387-3.22,3.163-6.271,4.392-9.557c1.387-3.707,2.055-7.646,1.963-11.605c-0.074-2.977-0.569-5.937-0.485-8.914
			C-61.251,150.083-60.485,146.937-58.43,144.779z"/>
	</g>
	<path fill="#FF0000" d="M373.491-65.784c-7.122,0-12.895,5.774-12.895,12.895c0,7.122,5.774,12.895,12.895,12.895
		s12.895-5.774,12.895-12.895l0,0C386.384-60.008,380.613-65.781,373.491-65.784z M370.912-47.085v-11.607l7.737,5.804
		L370.912-47.085z"/>
	<path fill="#FF0000" d="M373.491-1.576c-7.122,0-12.895,5.774-12.895,12.895c0,7.122,5.774,12.895,12.895,12.895
		s12.895-5.774,12.895-12.895l0,0C386.384,4.198,380.613-1.574,373.491-1.576z M370.912,17.123V5.516l7.737,5.804L370.912,17.123z"
		/>
	<path fill="#FF0000" d="M373.491,62.631c-7.122,0-12.895,5.774-12.895,12.895c0,7.122,5.774,12.895,12.895,12.895
		s12.895-5.774,12.895-12.895l0,0C386.384,68.405,380.613,62.634,373.491,62.631z M370.912,81.33V69.723l7.737,5.804L370.912,81.33z
		"/>
	<path fill="#FF0000" d="M373.491,126.839c-7.122,0-12.895,5.774-12.895,12.895c0,7.122,5.774,12.895,12.895,12.895
		s12.895-5.774,12.895-12.895l0,0C386.384,132.613,380.613,126.841,373.491,126.839z M370.912,145.538v-11.607l7.737,5.804
		L370.912,145.538z"/>
	<path fill="#FF0000" d="M373.491,191.046c-7.122,0-12.895,5.774-12.895,12.895c0,7.122,5.774,12.895,12.895,12.895
		s12.895-5.774,12.895-12.895l0,0C386.384,196.82,380.613,191.049,373.491,191.046z M370.912,209.745v-11.607l7.737,5.804
		L370.912,209.745z"/>
</g>
</svg>
